<?xml version="1.0" encoding="utf-8"?>
<!-- Generator: Adobe Illustrator 24.1.0, SVG Export Plug-In . SVG Version: 6.00 Build 0)  -->
<svg version="1.1"
	 id="svg5" inkscape:version="1.3.2 (091e20e, 2023-11-25)" sodipodi:docname="park.svg" xmlns:inkscape="http://www.inkscape.org/namespaces/inkscape" xmlns:sodipodi="http://sodipodi.sourceforge.net/DTD/sodipodi-0.dtd" xmlns:svg="http://www.w3.org/2000/svg"
	 xmlns="http://www.w3.org/2000/svg" xmlns:xlink="http://www.w3.org/1999/xlink" x="0px" y="0px" viewBox="0 0 1024 1024"
	 style="enable-background:new 0 0 1024 1024;" xml:space="preserve">
<style type="text/css">
	.st0{fill:#82C3BF;}
</style>
<sodipodi:namedview  bordercolor="#000000" borderopacity="0.25" id="namedview5" inkscape:current-layer="svg5" inkscape:cx="512" inkscape:cy="512" inkscape:deskcolor="#d1d1d1" inkscape:pagecheckerboard="0" inkscape:pageopacity="0.0" inkscape:showpageshadow="2" inkscape:window-height="1027" inkscape:window-maximized="0" inkscape:window-width="1392" inkscape:window-x="506" inkscape:window-y="45" inkscape:zoom="0.23046875" pagecolor="#ffffff">
	</sodipodi:namedview>
<g>
	<path class="st0" d="M959.7,470.7c24.7-43.6,14.3-100.3-27.2-129.7c-5.1-56.2-35.8-169.1-110.4-163c-60.5,9-95,112.8-95.8,163
		c-39.7,31.4-50,85.1-26.9,129.7c-121.7,58.1-47.9,233.9,68.1,205.2c6.5-1.6,12.5-4.2,18.8-6.1c9.2,2.9,18,6.8,27.2,9.8l0,70.9
		c0,10.9,1,22.4,0,33.2c6.8,7.5,14.5,10.2,22.8,3.1c7.1-10.1,3.4-29.2,3.4-40.9l0-66.4c9.6-3.3,19.7-7.6,29.6-9.8
		c7.8,2.1,15.4,5.2,23.3,6.9C1011.3,702.3,1076.4,526.6,959.7,470.7z M889.7,648.6c-6.3-2.3-16.1-10-22.6-9.5
		c-7.9,0.6-16.7,13.1-36.9,14.3c-24.2,2.4-34.7-13.8-43.9-13.9c-4.1,0-17.6,9.9-29.6,11.7c-91.2,13.5-131.4-115.8-48.7-155.3
		c26.4-12.6,36.1-3.5,15.7-36.8c-17.7-28.9-11.8-69.8,12.5-93.1c25.9-24.9,13.8-12.1,19-46c5-32.7,31.5-110.1,71.1-117v0
		c51.6-1,77.4,97.8,78.5,136.4c0.8,28.9,66.2,46.9,36.1,112.1c-11.8,25.6-28.2,28.5,6.2,42.3c28.3,11.3,46.2,39.7,48.3,69.6
		C999.1,618.9,941,667.9,889.7,648.6z"/>
	<path class="st0" d="M157.6,631.6l0,134.8c0,11.2-0.7,36.9,20.1,25.5c10.4-10.1,5.9-40.3,5.9-55.1l0-105.2
		c35.4,2.6,79-15.9,105.6-39c86.9-75.5,41-219.2-23.7-292.2c-25.9-29.2-63.9-53.4-104.4-48.2C64.4,262.5-4.9,417.4,3.7,499.5
		C11.2,570.9,86.3,636.9,157.6,631.6z M29.4,499.7c-10-68.3,52.2-210.4,133.8-222.5c87.8-11.5,143.6,133.5,148.6,202.1
		c5.4,74.6-58.9,122.4-128.3,127.4c-2.4-60.7,46.1-77.2,43.6-92.9c-5.8-36.9-49.6,22.6-55,31.3l-0.9,1c-8.8-6.5-24.9-41.5-45.3-44.7
		c-7.5-1.2-14.2,4.8-14.6,12.3c-0.7,14.7,48.2,26.5,46.2,93C97,605.2,38.4,561.4,29.4,499.7z"/>
	<path class="st0" d="M873.4,454.7c0.1-6.4-7.3-13.3-13.7-12.9c-8,0.6-14.8,10.7-20.1,16.1c0.1-15.6,6.5-47-17.5-44.8
		c-17.1,8.5-8.6,84.9-8.6,106.6h0c-8.4-8.1-24.4-29.8-36.2-14.8c-11.2,14.2,25.2,40.4,36.2,49.8l-0.1,36c0,7.1-2.2,20.6,3.6,26.1
		c5,4.8,14.5,4.8,19.2-0.5c5.4-6.1,3.3-17.1,3.4-24.6c0.1-10.2,58.7-42.7,19.7-52.7c-8.6,2.3-13.1,7.9-19.7,13.4
		c0-19.8-0.2-39.7,0-59.6C847.6,485,873.2,465.2,873.4,454.7z"/>
	<path class="st0" d="M350.6,640.2c7.5,2.1,22.2,0.8,30.3,0.8c-2.7,11.9-6.5,23.6-9.1,35.5c-7.8,0-31.8-2.2-37.3,3.2
		c-5.1,5-5.4,14.5-0.1,19.5c6.8,6.3,21.3,3.6,29.7,3.2c-1.8,6.8-5.6,16.4-2,23c3.4,6.1,12.1,9.9,18.3,5.5c7-5,8.8-20.4,10.6-28.5
		h142.7c2.2,7.3,3.3,11.2,10,15.3c12,6.7,18.5-5.2,18.8-15.3c8.4,0.4,24.5,3.1,31.1-3.3c5.4-5.3,5-14.5-0.8-19.3
		c-6.9-5.8-30.3-3.1-39.8-3.2c-3.1-11.8-6.4-23.6-9.3-35.5c8.4,0.1,24.8,2.8,31.1-3.3c8.1-7.9,3.3-21.3-7.7-22.4
		c-9-0.9-18.5-0.2-27.5-0.2l-142.7,0c-15.3,0-30.8-0.5-46,0C340.1,620.1,337.2,636.5,350.6,640.2z M407.7,641H516
		c3.3,11.9,6.8,23.7,10.4,35.5H516h-118C400.7,664.8,403.6,652.4,407.7,641z"/>
	<path class="st0" d="M942.5,821.7c-49.4,1-99,0-148.4,0l-55.1,0c-55.3,0-104.5-2.2-139.2-54c-6.5-9.7-8.6-21.9-22.6-21.3
		c-33.4,10.7,27.9,65.1,38.8,73.4l-313.6,0c15.3-10.6,45.8-33.5,48.8-51.4c2-11.6-8.1-15.2-17.3-14.7c-7.3,4.9-11.1,14.2-17,20.7
		c-42.8,47.2-96.8,45.4-154.3,45.4c-8.7,0-22.2-1.9-30.2,0.4c-8.9,2.6-11.2,13.5-6,20.5c5.8,7.7,19,5,27.3,5l180.2,0l582.7,0
		c8.3,0,24.4,2.8,30.7-3.8C953.6,835.4,948.7,826.1,942.5,821.7z"/>
</g>
</svg>
