<?xml version="1.0" encoding="UTF-8" standalone="no"?>
<svg
   width="1024"
   height="1024"
   version="1.1"
   id="svg1"
   sodipodi:docname="altramuces.svg"
   inkscape:version="1.3.2 (091e20e, 2023-11-25)"
   xmlns:inkscape="http://www.inkscape.org/namespaces/inkscape"
   xmlns:sodipodi="http://sodipodi.sourceforge.net/DTD/sodipodi-0.dtd"
   xmlns="http://www.w3.org/2000/svg"
   xmlns:svg="http://www.w3.org/2000/svg">
  <defs
     id="defs1" />
  <sodipodi:namedview
     id="namedview1"
     pagecolor="#ffffff"
     bordercolor="#000000"
     borderopacity="0.25"
     inkscape:showpageshadow="2"
     inkscape:pageopacity="0.0"
     inkscape:pagecheckerboard="0"
     inkscape:deskcolor="#d1d1d1"
     inkscape:zoom="0.23046875"
     inkscape:cx="247.32203"
     inkscape:cy="412.20339"
     inkscape:window-width="1392"
     inkscape:window-height="1027"
     inkscape:window-x="175"
     inkscape:window-y="77"
     inkscape:window-maximized="0"
     inkscape:current-layer="svg1" />
  <path
     fill="#82c3bf"
     d="m 428.24627,196.17914 c 1.22979,-10.4989 -0.24223,-21.26021 -0.0878,-31.82842 0.66813,-45.02346 38.77818,-142.970164 80.23953,-160.5108224 15.21527,-0.9122479 25.63118,16.2253874 33.49968,26.3202714 37.50314,48.109752 61.48396,105.870021 51.21445,166.018971 37.16774,-8.93434 61.85662,-20.6834 61.55317,24.95128 -0.25022,37.58412 -6.79044,54.72497 -21.56384,88.47443 42.15077,-10.56574 67.72073,-16.09369 69.52548,28.75128 1.67432,41.60445 -7.39469,73.64081 -25.5327,111.33138 53.58086,-10.72417 55.69705,3.98567 52.62259,46.88484 -3.93425,54.85371 -29.32853,99.84969 -62.70576,144.07329 43.59617,-16.53929 84.2696,-28.6894 132.20196,-22.37917 48.70164,6.40926 52.03963,15.33122 35.02493,55.09136 -32.90076,76.89371 -166.51351,230.64648 -249.62253,116.5177 -72.32311,58.9285 -53.52496,114.72044 -64.23634,188.84894 -2.04166,14.13799 -1.30964,50.09323 -26.76514,39.56953 -10.93232,-7.8055 -0.74533,-31.98438 0.84914,-42.8051 9.73447,-66.03833 5.16669,-141.20657 -56.59144,-185.61337 -30.35068,43.15911 -81.55715,51.79885 -128.04678,24.1492 -51.61111,-30.69708 -115.25651,-106.15496 -128.55523,-164.63785 -4.89253,-21.51024 12.81426,-26.92184 32.07291,-30.34308 45.0256,-7.99857 107.37201,1.46059 145.69234,25.67663 -35.41889,-42.21344 -62.86281,-103.48878 -67.76065,-156.07981 -4.3708,-46.91207 8.23583,-45.60744 56.1469,-38.95311 -16.8816,-31.06099 -28.43414,-62.63194 -29.53083,-97.78258 -1.79676,-57.60158 20.94895,-54.89331 74.57772,-42.30008 -10.62354,-17.82164 -44.86056,-109.28408 -15.04757,-120.3177 12.61462,-4.66893 38.72494,2.26762 50.82581,6.89199 z M 511.4458,32.584743 c -40.8917,51.550796 -71.95577,111.949027 -51.52057,177.668017 14.08398,8.67192 26.88759,18.6658 37.44991,30.99662 2.01503,2.35427 13.02721,17.92809 14.07066,18.38607 12.83822,-19.25252 29.50155,-38.60901 51.41675,-49.38269 13.70865,-53.54165 3.1703,-100.1777 -28.30104,-147.451197 -5.38231,-8.082244 -16.00052,-24.26728 -23.11571,-30.21682 z M 392.46803,213.79282 c -0.95295,38.61396 37.47652,160.84528 94.61896,114.21047 42.59531,-43.87207 -39.98666,-112.3018 -94.61896,-114.21047 z m 234.43388,0 c -30.07917,2.76769 -60.20626,18.27715 -79.3265,39.91116 -16.91088,19.13617 -37.46321,54.61357 -10.2003,74.29931 17.96233,16.09617 40.3407,8.97643 55.45216,-6.68404 23.98614,-24.85968 39.14019,-71.54895 36.47299,-104.53346 -0.12777,-1.59427 -0.26352,-3.23557 -2.39835,-2.99297 z M 343.83293,328.00329 c 0.79324,43.72602 1.13929,65.54075 24.57975,107.55614 19.66326,35.2447 16.87095,21.30724 49.71581,40.96822 14.67225,8.78086 27.1245,20.65617 41.79674,29.12015 8.96253,-1.98294 15.85146,-6.1617 21.88593,-12.67245 37.69213,-36.19037 1.97511,-93.36616 -29.40572,-121.55797 -29.16083,-26.19649 -66.66663,-44.24588 -107.83251,-43.42894 z m 325.81335,0 c -47.95898,5.40913 -88.36622,25.7608 -118.29367,61.2184 -31.85997,37.74998 -39.71515,69.89775 -6.65202,108.57112 4.33619,4.59961 8.74425,8.98632 13.41318,13.29629 16.7352,-16.1531 34.72414,-30.44952 56.07503,-41.11923 22.98262,-11.48665 24.89119,-6.88209 38.36559,-30.30594 21.92053,-38.10399 24.32686,-70.40524 24.53981,-111.66064 z M 511.4458,339.77711 c -11.29167,10.29838 -19.14952,15.43519 -34.06134,20.77499 14.85326,14.82125 25.02694,36.01956 34.06134,44.92914 6.60411,-16.94281 19.2906,-32.57356 33.25479,-44.92914 -13.16563,-4.92143 -23.52564,-11.12274 -33.25479,-20.77499 z m 190.1057,131.30181 c -53.17093,4.27036 -101.94178,29.45682 -136.12822,67.29345 -26.17421,28.96666 -62.00037,82.35482 -23.61881,114.95067 37.01069,28.56561 75.23254,6.44391 101.0953,-23.35949 38.27775,-44.1122 63.42713,-100.75327 61.64634,-157.9043 l -0.76662,-1.24521 c -0.74799,0.047 -1.52525,0.01 -2.22799,0.26488 z m -385.70285,0 c 0.61756,50.24172 21.02615,99.30011 50.45316,140.83524 30.58493,43.16901 62.84152,72.21983 115.50935,41.40888 C 541.3067,573.1987 395.93911,470.78433 315.84865,471.07892 Z m 195.59715,26.71389 c -8.48339,12.04613 -17.07858,19.89369 -29.63464,28.16952 5.73634,11.67232 21.44672,32.32353 29.63464,46.17683 l 0.57497,-0.0842 0.38863,-0.92339 c 5.77893,-13.57108 18.10873,-32.2146 29.39507,-42.21096 -12.9021,-8.63727 -24.15917,-27.86008 -30.35867,-31.12783 z M 239.68446,640.64564 c -11.12131,0.26983 -22.1814,1.60169 -32.99393,4.07479 18.96585,52.92771 103.22747,184.42014 178.47598,157.06013 33.29472,-13.82359 45.10013,-46.45409 29.90881,-77.02987 -24.01276,-48.3281 -117.56698,-91.59118 -175.39086,-84.10505 z m 522.14517,0 c -58.7023,9.17941 -113.07373,26.52326 -149.54939,74.32159 -27.26823,35.73487 -6.14893,88.37046 42.30782,90.24199 69.10224,-1.18332 146.3791,-103.30558 162.15337,-158.16918 -18.29506,-5.76561 -35.85811,-5.86958 -54.9118,-6.3944 z m -263.1555,31.29617 c -27.16442,16.1828 -48.73625,22.29004 -80.73995,14.90541 21.9924,21.49043 32.39234,48.57318 28.93989,78.25032 l 15.90203,12.51154 c 14.33419,12.82593 28.43946,28.03337 35.89803,45.40445 l -0.0133,-130.52448 c 0.005,-3.84952 2.39835,-18.3118 0.0133,-20.54724 z m 25.66046,0 v 151.07172 c 9.3698,-16.15805 21.94715,-35.19024 38.52796,-45.40445 3.23152,-5.04769 7.14447,-8.58776 11.78678,-12.51154 -0.5377,-32.52405 2.5208,-52.96979 29.63464,-78.25032 -31.58313,7.1742 -54.57107,2.53498 -79.94938,-14.90541 z"
     id="path1"
     style="stroke-width:2.56703" />
</svg>
