<?xml version="1.0" encoding="UTF-8" standalone="no"?>
<svg
   width="1024"
   height="1024"
   version="1.1"
   id="svg2"
   sodipodi:docname="altura.svg"
   inkscape:version="1.3.2 (091e20e, 2023-11-25)"
   xmlns:inkscape="http://www.inkscape.org/namespaces/inkscape"
   xmlns:sodipodi="http://sodipodi.sourceforge.net/DTD/sodipodi-0.dtd"
   xmlns="http://www.w3.org/2000/svg"
   xmlns:svg="http://www.w3.org/2000/svg">
  <defs
     id="defs2" />
  <sodipodi:namedview
     id="namedview2"
     pagecolor="#ffffff"
     bordercolor="#000000"
     borderopacity="0.25"
     inkscape:showpageshadow="2"
     inkscape:pageopacity="0.0"
     inkscape:pagecheckerboard="0"
     inkscape:deskcolor="#d1d1d1"
     inkscape:zoom="0.41699219"
     inkscape:cx="512"
     inkscape:cy="510.80094"
     inkscape:window-width="1392"
     inkscape:window-height="1027"
     inkscape:window-x="0"
     inkscape:window-y="25"
     inkscape:window-maximized="0"
     inkscape:current-layer="svg2" />
  <path
     fill="#82c3bf"
     d="m 123.82618,177.57941 c 3.13542,-14.87637 24.63883,-42.04226 33.28075,-55.22613 l 42.06306,-64.638651 c 8.81871,-13.412134 15.06096,-32.92509 30.36891,-36.332981 14.06262,-0.04914 32.79718,39.228181 41.02312,51.566315 l 46.65441,70.282157 c 6.14866,9.36468 35.44383,43.2226 9.0033,48.6303 -8.29874,1.6977 -18.27178,0.57456 -26.77851,0.56156 l -51.17816,-0.0546 v 775.06113 h 212.54859 l -0.026,-887.137265 c 0.005,-29.395267 -2.77664,-57.135205 35.12405,-58.738276 31.03708,-1.312667 64.40882,-0.204089 95.66949,-0.197329 l 34.94205,0.0156 c 43.38899,0.0364 43.2928,7.050808 43.18361,47.712289 l -0.0494,228.533801 v 669.81118 l 191.22717,-0.0364 c 7.73457,-0.026 15.92672,-0.58757 23.61709,0.16899 17.22924,1.6899 24.10586,29.62795 -6.80642,30.06993 -47.19518,0.67596 -94.48655,-0.005 -141.69473,-0.0182 l -474.24485,0.0286 c -43.96616,-0.0156 -42.97041,4.02717 -42.86902,-43.54499 l -0.0416,-761.72907 c -12.23232,0.0104 -80.17175,1.8199 -86.86378,-1.8589 -5.08012,-2.79224 -6.65823,-7.71897 -8.15314,-12.92908 z M 494.91136,51.198091 c -7.84117,3.123727 -4.59135,60.287789 -4.35736,70.809409 l 58.10157,-0.0546 c 8.9591,-0.0156 18.92695,-0.93075 27.77686,0.25479 12.70809,1.7029 17.86101,16.87046 8.13235,25.92576 -7.79437,7.25879 -27.62347,4.00897 -37.30533,4.00637 l -56.70545,-0.0468 c -0.0182,31.97562 -0.75136,64.13843 0,96.09066 l 33.46274,-0.0676 c 7.91656,-0.013 21.90638,-2.17088 28.16944,4.04278 5.49609,5.45189 6.01346,15.60693 -0.1248,20.75204 -9.24508,7.74757 -48.4925,3.81919 -61.50738,4.20657 -0.42898,12.02433 -0.0182,24.14486 -0.0156,36.17959 l 0.0156,59.11551 58.23416,-0.0364 c 10.14984,0.003 21.40461,-1.01135 31.40106,0.74355 11.56156,2.02789 14.81918,17.04466 6.14346,24.73763 -8.19475,7.2666 -81.52887,3.82699 -95.77868,3.96218 v 94.92073 l 31.98342,-0.0572 c 8.92791,-0.003 21.89339,-1.8433 29.07679,4.86173 5.46489,5.10352 5.62868,15.02196 0.0156,20.06568 -7.3472,6.59584 -19.32213,4.73434 -28.32803,4.70054 L 490.554,526.19924 v 96.50924 l 60.93281,-0.0104 c 10.28763,-0.003 27.55847,-3.48901 35.62582,4.79153 9.1671,9.40628 2.57126,22.65514 -9.20088,24.34245 -9.55707,1.37272 -20.22948,0.34058 -29.93474,0.30418 l -57.42301,-0.0364 v 94.55935 c 13.05127,-0.0338 38.87044,-1.44032 50.76218,0.70456 14.64239,2.64145 17.38783,17.39043 6.53604,26.34694 -9.97825,4.53675 -44.36134,2.35287 -57.29822,2.38926 v 94.79334 l 58.38236,-0.0598 c 9.70006,-0.003 20.33087,-0.97235 29.87234,0.60057 11.36136,1.87709 16.29589,15.98911 8.09855,24.54523 -7.73977,8.07775 -30.40011,4.39116 -40.41216,4.34696 l -55.94109,-0.0572 v 67.15946 H 640.26928 V 51.198091 c -48.43531,0.01482 -96.93041,-0.53973 -145.35792,0 z M 229.5389,65.347545 c -20.10468,27.833014 -45.19329,67.293365 -63.06989,96.838115 h 64.62461 63.23108 C 273.48686,131.95714 251.95746,93.262454 229.5389,65.347545 Z"
     id="path2"
     style="stroke-width:2.59986" />
</svg>
