<?xml version="1.0" encoding="UTF-8" standalone="no"?>
<svg
   width="1024"
   height="1024"
   version="1.1"
   id="svg3"
   sodipodi:docname="apio.svg"
   inkscape:version="1.3.2 (091e20e, 2023-11-25)"
   xmlns:inkscape="http://www.inkscape.org/namespaces/inkscape"
   xmlns:sodipodi="http://sodipodi.sourceforge.net/DTD/sodipodi-0.dtd"
   xmlns="http://www.w3.org/2000/svg"
   xmlns:svg="http://www.w3.org/2000/svg">
  <defs
     id="defs3" />
  <sodipodi:namedview
     id="namedview3"
     pagecolor="#ffffff"
     bordercolor="#000000"
     borderopacity="0.25"
     inkscape:showpageshadow="2"
     inkscape:pageopacity="0.0"
     inkscape:pagecheckerboard="0"
     inkscape:deskcolor="#d1d1d1"
     inkscape:zoom="0.23046875"
     inkscape:cx="325.42373"
     inkscape:cy="394.84746"
     inkscape:window-width="1392"
     inkscape:window-height="1027"
     inkscape:window-x="287"
     inkscape:window-y="30"
     inkscape:window-maximized="0"
     inkscape:current-layer="svg3" />
  <g
     id="g1"
     transform="matrix(1.2930141,0,0,1.2930141,89.523788,4.6022633)">
    <path
       fill="#82c3bf"
       d="m 84.201068,118.30764 c 6.612,1.702 8.834,4.446 11.406,10.554 16.482002,39.154 48.696002,62.198 81.212002,87.922 l 43.246,34.286 c 10.912,8.516 24.006,20.366 35.436,27.502 q -0.07,0.062 -0.1,0.152 -0.03,0.09 -0.01,0.182 0.02,0.092 0.084,0.162 0.064,0.068 0.154,0.096 0.09,0.028 0.182,0.006 0.09,-0.022 0.158,-0.088 0.05,-0.046 0.076,-0.108 0.028,-0.062 0.03,-0.13 0.002,-0.068 -0.02,-0.132 -0.024,-0.064 -0.07,-0.114 -0.046,-0.05 -0.108,-0.08 -0.06,-0.028 -0.128,-0.032 -0.068,-0.004 -0.132,0.018 -0.064,0.024 -0.116,0.068 c -1.77,-6.552 -6.012,-13.076 -8.784,-19.322 -11.738,-26.456 -22.532,-53.086 -33.1,-80.01 l -35.196,-92.188001 c -2.688,-7.1784 -5.214,-14.5336 -8.33,-21.5364 -6.458,-14.5076 -17.096,-26.6172 4.528,-32.7762 18.352,-5.2276 36.41,-3.5646 53.12,5.6506 6.98,-14.1374 34.8,-47.2840004 50.032,-36.1396004 5.908,4.3224 5.348,12.1254004 6.046,18.7072004 9.91,93.426401 104.438,231.622401 167.054,305.708401 60.144,71.16 186.462,171.828 201.172,257.902 10.444,61.122 -37.718,114.874 -96.362,124.552 -1.35,3.584 -2.96,7.07 -4.514,10.568 -32.126,64.976 -98.982,84.108 -159.888,44.818 -54.75,-35.318 -92.544,-122.334 -116.494,-182.756 -22.394,-56.498 -39.25,-102.072 -73.154,-154.32 -48.358,-74.524 -110.240002,-130.744 -177.836002,-186.518 -17.4550002,-14.402 -37.2536,-21.632 -11.2812,-38.984 16.1472,-10.788 24.2572,-12.758 43.1652,-15.426 -3.704,-22.188 3.338,-61.264 28.522,-68.194 z M 261.23107,31.537039 c -12.2,12.3614 -15.478,35.8984 -27.138,36.2848 -9.102,0.3018 -19.764,-15.886 -43.964,-15.6974 2.47,8.0456 6.034,15.7562 9.006,23.6304 32.984,87.398801 60.858,170.346801 109.602,251.768801 40.47,67.602 91.19,128.016 144.954,185.302 39.264,41.838 83.21,83.372 100.374,139.854 1.866,6.142 2.96,12.512 4.946,18.604 -0.018,4.66 -0.334,9.436 0,14.078 44.068,-8.594 79.07,-54.74 70.078,-99.656 -14.532,-72.578 -128.982,-169.05 -183.12,-230.19 -72.726,-82.134 -149.862,-196.654 -179.512,-303.940201 -1.074,-3.8864 -3.472,-17.7358 -5.226,-20.0384 z M 81.101068,153.60964 c -10.58,22.062 10.592,50.896 -4.032,56.952 -10.536,4.364 -21.94,-6.012 -46.466,6.622 106.008002,82.894 186.286002,167.684 240.046002,291.36 30.16,69.384 56.48,161.94 108.298,216.152 23.32,24.398 62.9,46.714 97.298,33.984 24.424,-10.24 45.504,-27.422 55.796,-52.418 24.384,-59.214 -56.866,-137.424 -91.834,-174.516 -53.17,-56.402 -104.866,-115.476 -144.744,-182.288 -13.456,-22.546 -11.91,-19.564 -32.362,-35.25 l -88.146,-68.638 c -43.27,-33.878 -62.226,-48.656 -93.854002,-91.96 z"
       id="path1"
       style="stroke-width:2" />
    <path
       fill="#82c3bf"
       d="m 391.08307,339.16764 c -51.068,-35.658 -116.14,-152.018 -144.388,-209.52 -6.194,-12.606 -27.368,-40.772001 -6.326,-47.442001 13.062,-0.812 19.098,23.216001 23.83,33.642001 24.494,53.95 53.63,106.624 85.582,156.434 5.98,9.32 46.94,65.284 47.686,69.308 l -0.902,0.244 c -2.004,-0.534 -3.7,-1.638 -5.482,-2.666 z"
       id="path2"
       style="stroke-width:2" />
    <path
       fill="#82c3bf"
       d="m 294.10507,393.76764 c -34.518,-27.378 -68.364,-55.614 -102.982,-82.858 -13.984,-11.006 -100.072002,-73.412 -103.114002,-79.33 -3.942,-7.67 0.91,-13.556 7.816,-16.876 8.360002,-0.86 17.638002,9.318 23.984002,13.818 60.506,42.908 117.912,92.368 166.344,148.646 3.432,3.988 12.886,13.492 13.272,18.568 l -0.67,0.602 c -1.874,-0.472 -3.11,-1.436 -4.65,-2.57 z"
       id="path3"
       style="stroke-width:2" />
  </g>
</svg>
