<?xml version="1.0" encoding="utf-8"?>
<!-- Generator: Adobe Illustrator 24.1.0, SVG Export Plug-In . SVG Version: 6.00 Build 0)  -->
<svg version="1.1" id="Capa_1" xmlns="http://www.w3.org/2000/svg" xmlns:xlink="http://www.w3.org/1999/xlink" x="0px" y="0px"
	 viewBox="0 0 1024 1024" style="enable-background:new 0 0 1024 1024;" xml:space="preserve">
<style type="text/css">
	.st0{fill:#82C3BF;}
</style>
<g>
	<path class="st0" d="M359.6,368.8c-7.6-16.1-17-31.4-25.8-46.9L202,89.2c-10.7-19.1-23.3-37.8-32.9-57.5
		C151.8-3.8,201.2,5.2,221.1,5.1l72.4,0l80.5,0c13.2,0,26.5-0.6,39.7,0c10.4,10.9,26.4,42.5,34.7,57.2l64.1,113
		c8.7-13,15.9-26.8,23.7-40.3L583,52.7c7-12.4,13.7-25.2,21.5-37c10.6-15.9,36-10.5,54-10.5l136,0c15.3,0,58-5.7,63.5,11.3
		c3,9.1-11.8,29.5-16,37.1L685.6,335.6c-6.2,11-13.1,21.7-18.5,33.2c29.9,14.3,34.7,36.1,34.7,67.8l-0.1,32.5
		c126.6,106.8,160.6,276.8,64.5,418.1c-121.9,170.5-367,178.3-496.4,14.1c-104-132-78.2-325.7,53.3-429
		C321.7,427.2,315.9,394.3,359.6,368.8z M214.8,34.5h-9.2c6.5,14.9,15.7,28.8,23.7,42.9l48.3,85.3c38,66.4,74.6,133.6,113.2,199.6
		c5.9,0.3,11.5,0.4,17.4,0c8.5-17.3,19-33.7,28-50.8c19.4-35.8,39.5-71.3,60-106.5c-6.9-9.8-12.5-20.5-18.4-30.9l-59-104.8
		c-6.6-11.5-13.8-22.9-19.6-34.8l-124.4,0C255.3,34.5,234.3,33.4,214.8,34.5z M653.9,34.5h-27.5C620.8,46,614.1,56.9,607.9,68
		L456.8,334.6c-5.1,9.2-10.5,18.3-14.9,27.8h167.4c9,0,18.3,0.6,27.3,0L800.3,69.2c6.4-11.3,13.2-22.6,18.3-34.6H653.9z
		 M380.9,391.9c-31.1,8.3-29.1,33-28.9,59.7c12.1-6.4,23.5-14,36.1-19.4c79.7-34.4,158-33.4,238.3-4.5c16.3,7.4,31.9,15.4,47.7,23.9
		c0.6-54.1-4.3-59.7-59.1-59.7L380.9,391.9z M501.2,435.4c-4.5,0.2-9.1,0.5-13.6,0.9c-4.5,0.4-9,0.9-13.5,1.6
		c-4.5,0.6-9,1.4-13.5,2.2c-4.5,0.9-8.9,1.8-13.3,2.9c-4.4,1.1-8.8,2.3-13.2,3.6c-4.4,1.3-8.7,2.7-13,4.2c-4.3,1.5-8.5,3.1-12.8,4.8
		c-4.2,1.7-8.4,3.5-12.5,5.4c-4.1,1.9-8.2,3.9-12.2,6c-4,2.1-8,4.3-11.9,6.6c-3.9,2.3-7.8,4.7-11.6,7.2c-3.8,2.5-7.5,5.1-11.2,7.8
		c-3.7,2.7-7.3,5.5-10.8,8.3c-3.5,2.9-7,5.8-10.4,8.8c-3.4,3-6.7,6.1-9.9,9.3c-3.2,3.2-6.4,6.5-9.5,9.8c-3.1,3.3-6.1,6.8-9,10.3
		c-2.9,3.5-5.7,7.1-8.5,10.7c-2.7,3.6-5.4,7.3-7.9,11.1c-2.6,3.8-5,7.6-7.4,11.5c-2.4,3.9-4.6,7.8-6.8,11.8c-2.2,4-4.2,8-6.2,12.1
		c-2,4.1-3.8,8.2-5.6,12.4c-1.8,4.2-3.4,8.4-5,12.7c-1.6,4.3-3,8.6-4.4,12.9c-1.4,4.3-2.6,8.7-3.7,13.1c-1.1,4.4-2.2,8.8-3.1,13.3
		c-0.9,4.5-1.7,8.9-2.4,13.4c-0.7,4.5-1.3,9-1.8,13.5c-0.5,4.5-0.8,9.1-1.1,13.6c-0.3,4.5-0.4,9.1-0.4,13.6c0,4.5,0,9.1,0.2,13.6
		c0.2,4.5,0.5,9.1,0.9,13.6c0.4,4.5,0.9,9,1.6,13.5c0.6,4.5,1.4,9,2.2,13.5c0.9,4.5,1.8,8.9,2.9,13.3c1.1,4.4,2.2,8.8,3.5,13.2
		c1.3,4.4,2.7,8.7,4.2,13c1.5,4.3,3.1,8.5,4.8,12.8c1.7,4.2,3.5,8.4,5.4,12.5c1.9,4.1,3.9,8.2,6,12.2c2.1,4,4.3,8,6.6,11.9
		c2.3,3.9,4.7,7.8,7.2,11.6c2.5,3.8,5.1,7.5,7.8,11.2c2.7,3.7,5.4,7.3,8.3,10.8c2.9,3.5,5.8,7,8.8,10.4c3,3.4,6.1,6.7,9.3,10
		c3.2,3.2,6.5,6.4,9.8,9.5c3.3,3.1,6.8,6.1,10.3,9c3.5,2.9,7,5.7,10.7,8.5c3.6,2.7,7.3,5.4,11.1,7.9c3.8,2.6,7.6,5,11.5,7.4
		c3.9,2.4,7.8,4.6,11.8,6.8c4,2.2,8,4.3,12.1,6.2c4.1,2,8.2,3.9,12.4,5.6c4.2,1.8,8.4,3.4,12.7,5c4.3,1.6,8.6,3,12.9,4.4
		c4.3,1.4,8.7,2.6,13.1,3.8c4.4,1.1,8.8,2.2,13.3,3.1c4.5,0.9,8.9,1.7,13.4,2.4c4.5,0.7,9,1.3,13.5,1.8c4.5,0.5,9.1,0.9,13.6,1.1
		c4.5,0.3,9.1,0.4,13.6,0.5c4.5,0,9.1,0,13.6-0.2c4.6-0.2,9.1-0.5,13.6-0.9c4.5-0.4,9.1-0.9,13.6-1.6c4.5-0.6,9-1.4,13.5-2.2
		c4.5-0.8,8.9-1.8,13.4-2.9c4.4-1.1,8.8-2.2,13.2-3.5c4.4-1.3,8.7-2.7,13-4.2c4.3-1.5,8.6-3.1,12.8-4.8c4.2-1.7,8.4-3.5,12.5-5.4
		c4.1-1.9,8.2-3.9,12.3-6c4-2.1,8-4.3,11.9-6.6c3.9-2.3,7.8-4.7,11.6-7.2c3.8-2.5,7.6-5.1,11.2-7.8c3.7-2.7,7.3-5.5,10.8-8.3
		c3.5-2.9,7-5.8,10.4-8.8c3.4-3,6.7-6.1,10-9.3c3.2-3.2,6.4-6.5,9.5-9.8c3.1-3.3,6.1-6.8,9-10.3s5.8-7.1,8.5-10.7
		c2.7-3.6,5.4-7.3,8-11.1c2.6-3.8,5-7.6,7.4-11.5c2.4-3.9,4.7-7.8,6.8-11.8c2.2-4,4.3-8.1,6.2-12.2c2-4.1,3.9-8.3,5.6-12.4
		c1.8-4.2,3.4-8.4,5-12.7c1.6-4.3,3-8.6,4.4-12.9c1.4-4.3,2.6-8.7,3.7-13.1c1.1-4.4,2.2-8.8,3.1-13.3c0.9-4.5,1.7-8.9,2.4-13.4
		c0.7-4.5,1.3-9,1.8-13.5c0.5-4.5,0.9-9.1,1.1-13.6c0.3-4.5,0.4-9.1,0.4-13.7c0-4.6,0-9.1-0.2-13.7c-0.2-4.6-0.5-9.1-0.9-13.6
		c-0.4-4.5-0.9-9.1-1.6-13.6c-0.6-4.5-1.4-9-2.2-13.5c-0.9-4.5-1.8-8.9-2.9-13.4c-1.1-4.4-2.3-8.8-3.5-13.2c-1.3-4.4-2.7-8.7-4.2-13
		c-1.5-4.3-3.1-8.6-4.8-12.8c-1.7-4.2-3.5-8.4-5.4-12.5c-1.9-4.1-3.9-8.2-6.1-12.2c-2.1-4-4.3-8-6.7-11.9c-2.3-3.9-4.7-7.8-7.2-11.6
		c-2.5-3.8-5.1-7.5-7.8-11.2c-2.7-3.7-5.5-7.3-8.3-10.8c-2.9-3.5-5.8-7-8.9-10.4c-3-3.4-6.2-6.7-9.4-10c-3.2-3.2-6.5-6.4-9.8-9.5
		c-3.4-3.1-6.8-6.1-10.3-9c-3.5-2.9-7.1-5.7-10.7-8.5c-3.6-2.7-7.3-5.4-11.1-7.9c-3.8-2.6-7.6-5-11.5-7.4c-3.9-2.4-7.8-4.6-11.8-6.8
		c-4-2.2-8.1-4.2-12.2-6.2c-4.1-2-8.3-3.8-12.5-5.6c-4.2-1.8-8.4-3.4-12.7-5c-4.3-1.6-8.6-3-12.9-4.4c-4.4-1.4-8.7-2.6-13.1-3.7
		c-4.4-1.1-8.8-2.2-13.3-3.1c-4.5-0.9-8.9-1.7-13.4-2.4c-4.5-0.7-9-1.3-13.5-1.8c-4.5-0.5-9.1-0.8-13.6-1.1
		c-4.5-0.3-9.1-0.4-13.7-0.4C510.3,435.1,505.8,435.2,501.2,435.4z"/>
	<path class="st0" d="M525.7,937c-3.7,0.2-7.3,0.4-11,0.4c-3.7,0-7.3,0-11-0.1c-3.7-0.1-7.3-0.4-11-0.7c-3.7-0.3-7.3-0.7-10.9-1.2
		c-3.6-0.5-7.3-1.1-10.9-1.8c-3.6-0.7-7.2-1.4-10.8-2.3c-3.6-0.8-7.1-1.8-10.6-2.8c-3.5-1-7-2.1-10.5-3.3c-3.5-1.2-6.9-2.5-10.3-3.8
		c-3.4-1.4-6.8-2.8-10.1-4.3c-3.3-1.5-6.6-3.1-9.9-4.8c-3.3-1.7-6.5-3.5-9.6-5.3c-3.2-1.8-6.3-3.8-9.4-5.8c-3.1-2-6.1-4.1-9.1-6.2
		c-3-2.2-5.9-4.4-8.8-6.7c-2.9-2.3-5.7-4.7-8.4-7.1c-2.7-2.4-5.4-4.9-8.1-7.5c-2.6-2.6-5.2-5.2-7.7-7.9c-2.5-2.7-4.9-5.4-7.3-8.3
		c-2.4-2.8-4.7-5.7-6.9-8.6s-4.4-5.9-6.4-8.9c-2.1-3-4.1-6.1-6-9.2c-1.9-3.1-3.8-6.3-5.5-9.5c-1.8-3.2-3.5-6.5-5.1-9.8
		c-1.6-3.3-3.1-6.6-4.6-10c-1.4-3.4-2.8-6.8-4.1-10.2c-1.3-3.4-2.5-6.9-3.6-10.4c-1.1-3.5-2.1-7-3.1-10.6c-0.9-3.5-1.8-7.1-2.5-10.7
		c-0.8-3.6-1.4-7.2-2-10.8c-0.6-3.6-1.1-7.3-1.5-10.9c-0.4-3.6-0.7-7.3-0.9-11c-0.2-3.7-0.4-7.3-0.4-11c0-3.7,0-7.3,0.1-11
		c0.1-3.7,0.4-7.3,0.7-11c0.3-3.7,0.7-7.3,1.2-10.9c0.5-3.6,1.1-7.3,1.8-10.9c0.7-3.6,1.4-7.2,2.3-10.8s1.8-7.1,2.8-10.6
		c1-3.5,2.1-7,3.3-10.5c1.2-3.5,2.5-6.9,3.8-10.3c1.4-3.4,2.8-6.8,4.3-10.1c1.5-3.3,3.1-6.6,4.8-9.9c1.7-3.3,3.5-6.5,5.3-9.6
		c1.9-3.2,3.8-6.3,5.8-9.4c2-3.1,4.1-6.1,6.2-9.1c2.2-3,4.4-5.9,6.7-8.8c2.3-2.9,4.7-5.7,7.1-8.4c2.4-2.7,4.9-5.4,7.5-8.1
		c2.6-2.6,5.2-5.2,7.9-7.7c2.7-2.5,5.4-4.9,8.3-7.3c2.8-2.4,5.7-4.7,8.6-6.9c2.9-2.2,5.9-4.4,8.9-6.4c3-2.1,6.1-4.1,9.2-6
		c3.1-1.9,6.3-3.8,9.5-5.5c3.2-1.8,6.5-3.5,9.8-5.1c3.3-1.6,6.6-3.1,10-4.6c3.4-1.4,6.8-2.8,10.2-4.1c3.4-1.3,6.9-2.5,10.4-3.6
		s7-2.1,10.6-3.1c3.6-0.9,7.1-1.8,10.7-2.5c3.6-0.8,7.2-1.4,10.8-2c3.6-0.6,7.3-1.1,10.9-1.5c3.6-0.4,7.3-0.7,11-0.9
		c3.7-0.2,7.3-0.4,11-0.4c3.7,0,7.3,0,11,0.1c3.7,0.1,7.3,0.4,11,0.7s7.3,0.7,10.9,1.2c3.6,0.5,7.3,1.1,10.9,1.8
		c3.6,0.7,7.2,1.4,10.8,2.3c3.6,0.9,7.1,1.8,10.6,2.8c3.5,1,7,2.1,10.5,3.3c3.5,1.2,6.9,2.5,10.3,3.8c3.4,1.4,6.8,2.8,10.1,4.3
		c3.3,1.5,6.6,3.1,9.9,4.8c3.3,1.7,6.5,3.5,9.6,5.3c3.2,1.9,6.3,3.8,9.4,5.8c3.1,2,6.1,4.1,9.1,6.2c3,2.2,5.9,4.4,8.8,6.7
		c2.9,2.3,5.7,4.7,8.4,7.1c2.7,2.4,5.4,4.9,8.1,7.5c2.6,2.6,5.2,5.2,7.7,7.9c2.5,2.7,4.9,5.4,7.3,8.3c2.4,2.8,4.7,5.7,6.9,8.6
		c2.2,2.9,4.4,5.9,6.4,8.9c2.1,3,4.1,6.1,6,9.2c1.9,3.1,3.8,6.3,5.5,9.5c1.8,3.2,3.5,6.5,5.1,9.8c1.6,3.3,3.1,6.6,4.6,10
		c1.4,3.4,2.8,6.8,4.1,10.2c1.3,3.4,2.5,6.9,3.6,10.4c1.1,3.5,2.1,7,3.1,10.6c0.9,3.5,1.8,7.1,2.5,10.7c0.8,3.6,1.4,7.2,2,10.8
		s1.1,7.3,1.5,10.9c0.4,3.6,0.7,7.3,0.9,11c0.2,3.7,0.4,7.3,0.4,11c0,3.7,0,7.3-0.1,11c-0.1,3.7-0.4,7.3-0.7,11
		c-0.3,3.7-0.7,7.3-1.2,10.9c-0.5,3.6-1.1,7.3-1.8,10.9c-0.7,3.6-1.4,7.2-2.3,10.8c-0.8,3.6-1.8,7.1-2.8,10.6c-1,3.5-2.1,7-3.3,10.5
		c-1.2,3.5-2.5,6.9-3.8,10.3c-1.4,3.4-2.8,6.8-4.3,10.1c-1.5,3.3-3.1,6.6-4.8,9.9c-1.7,3.3-3.5,6.5-5.3,9.6
		c-1.9,3.2-3.8,6.3-5.8,9.4c-2,3.1-4.1,6.1-6.2,9.1c-2.2,3-4.4,5.9-6.7,8.8c-2.3,2.9-4.7,5.7-7.1,8.4c-2.4,2.7-4.9,5.4-7.5,8.1
		c-2.6,2.6-5.2,5.2-7.9,7.7c-2.7,2.5-5.4,4.9-8.2,7.3c-2.8,2.4-5.7,4.7-8.6,6.9c-2.9,2.2-5.9,4.4-8.9,6.4c-3,2.1-6.1,4.1-9.2,6
		c-3.1,1.9-6.3,3.8-9.5,5.5c-3.2,1.8-6.5,3.5-9.8,5.1c-3.3,1.6-6.6,3.1-10,4.6c-3.4,1.4-6.8,2.8-10.2,4.1c-3.4,1.3-6.9,2.5-10.4,3.6
		c-3.5,1.1-7,2.1-10.6,3.1c-3.5,0.9-7.1,1.8-10.7,2.5c-3.6,0.8-7.2,1.4-10.8,2c-3.6,0.6-7.3,1.1-10.9,1.5
		C533,936.4,529.4,936.7,525.7,937z M505.3,518.3c-3.2,0.1-6.4,0.3-9.6,0.6c-3.2,0.3-6.4,0.6-9.5,1c-3.2,0.4-6.3,0.9-9.5,1.5
		c-3.1,0.6-6.3,1.2-9.4,2c-3.1,0.7-6.2,1.5-9.3,2.4c-3.1,0.9-6.1,1.8-9.1,2.9c-3,1-6,2.1-9,3.3c-3,1.2-5.9,2.4-8.8,3.8
		c-2.9,1.3-5.8,2.7-8.6,4.2c-2.8,1.5-5.6,3-8.4,4.6c-2.8,1.6-5.5,3.3-8.2,5c-2.7,1.7-5.3,3.5-7.9,5.4c-2.6,1.9-5.1,3.8-7.6,5.8
		c-2.5,2-4.9,4-7.3,6.2s-4.7,4.3-7,6.5c-2.3,2.2-4.5,4.5-6.7,6.8c-2.2,2.3-4.3,4.7-6.4,7.2c-2.1,2.4-4.1,4.9-6,7.5
		c-1.9,2.5-3.8,5.1-5.6,7.8c-1.8,2.6-3.6,5.3-5.2,8c-1.7,2.7-3.3,5.5-4.8,8.3c-1.5,2.8-3,5.6-4.4,8.5c-1.4,2.9-2.7,5.8-4,8.7
		c-1.3,2.9-2.5,5.9-3.6,8.9c-1.1,3-2.2,6-3.1,9.1c-1,3-1.9,6.1-2.7,9.2c-0.8,3.1-1.6,6.2-2.2,9.3c-0.7,3.1-1.3,6.3-1.8,9.4
		c-0.5,3.2-0.9,6.3-1.3,9.5c-0.4,3.2-0.6,6.4-0.8,9.5c-0.2,3.2-0.3,6.4-0.4,9.6c0,3.2,0,6.4,0.1,9.6c0.1,3.2,0.3,6.4,0.6,9.6
		c0.3,3.2,0.6,6.4,1,9.5s0.9,6.3,1.5,9.5c0.6,3.1,1.2,6.3,2,9.4c0.7,3.1,1.5,6.2,2.4,9.3c0.9,3.1,1.9,6.1,2.9,9.1c1,3,2.1,6,3.3,9
		c1.2,3,2.4,5.9,3.8,8.8c1.3,2.9,2.7,5.8,4.2,8.6c1.5,2.8,3,5.6,4.6,8.4c1.6,2.8,3.3,5.5,5,8.2c1.7,2.7,3.5,5.3,5.4,7.9
		c1.9,2.6,3.8,5.1,5.8,7.6c2,2.5,4.1,4.9,6.2,7.3c2.1,2.4,4.3,4.7,6.5,7c2.2,2.3,4.5,4.5,6.9,6.7c2.3,2.2,4.7,4.3,7.2,6.4
		c2.4,2.1,4.9,4.1,7.5,6c2.5,1.9,5.1,3.8,7.8,5.6c2.6,1.8,5.3,3.6,8,5.2c2.7,1.7,5.5,3.3,8.3,4.8c2.8,1.5,5.6,3,8.5,4.4
		c2.9,1.4,5.8,2.7,8.7,4c2.9,1.3,5.9,2.4,8.9,3.6c3,1.1,6,2.2,9.1,3.1c3,1,6.1,1.9,9.2,2.7c3.1,0.8,6.2,1.6,9.3,2.2s6.3,1.2,9.4,1.8
		c3.2,0.5,6.3,0.9,9.5,1.3c3.2,0.4,6.4,0.6,9.6,0.8c3.2,0.2,6.4,0.3,9.6,0.3c3.2,0,6.4,0,9.6-0.1c3.2-0.1,6.4-0.3,9.5-0.6
		c3.2-0.3,6.3-0.6,9.5-1.1c3.2-0.4,6.3-0.9,9.4-1.5c3.1-0.6,6.3-1.2,9.4-2c3.1-0.7,6.2-1.6,9.2-2.4c3.1-0.9,6.1-1.9,9.1-2.9
		c3-1,6-2.2,9-3.3c3-1.2,5.9-2.4,8.8-3.8c2.9-1.3,5.8-2.7,8.6-4.2c2.8-1.5,5.6-3,8.4-4.6c2.8-1.6,5.5-3.3,8.1-5
		c2.7-1.7,5.3-3.5,7.9-5.4c2.6-1.9,5.1-3.8,7.6-5.8c2.5-2,4.9-4,7.3-6.2c2.4-2.1,4.7-4.3,7-6.5c2.3-2.2,4.5-4.5,6.7-6.8
		c2.2-2.3,4.3-4.7,6.3-7.2c2.1-2.4,4-4.9,6-7.5c1.9-2.5,3.8-5.1,5.6-7.7c1.8-2.6,3.5-5.3,5.2-8c1.7-2.7,3.3-5.5,4.8-8.3
		c1.5-2.8,3-5.6,4.4-8.5c1.4-2.9,2.7-5.8,4-8.7c1.3-2.9,2.4-5.9,3.6-8.9c1.1-3,2.2-6,3.1-9c1-3,1.9-6.1,2.7-9.2
		c0.8-3.1,1.6-6.2,2.2-9.3c0.7-3.1,1.2-6.3,1.8-9.4c0.5-3.1,0.9-6.3,1.3-9.5s0.6-6.3,0.8-9.5c0.2-3.2,0.3-6.4,0.4-9.6
		c0-3.2,0-6.4-0.1-9.6c-0.1-3.2-0.3-6.4-0.6-9.5c-0.3-3.2-0.6-6.3-1-9.5c-0.4-3.2-0.9-6.3-1.5-9.4c-0.6-3.1-1.2-6.3-2-9.4
		c-0.7-3.1-1.5-6.2-2.4-9.3c-0.9-3.1-1.8-6.1-2.9-9.1c-1-3-2.1-6-3.3-9c-1.2-3-2.4-5.9-3.8-8.8c-1.3-2.9-2.7-5.8-4.2-8.6
		c-1.5-2.8-3-5.6-4.6-8.4c-1.6-2.8-3.3-5.5-5-8.2c-1.7-2.7-3.5-5.3-5.4-7.9c-1.9-2.6-3.8-5.1-5.8-7.6c-2-2.5-4-4.9-6.1-7.3
		s-4.3-4.7-6.5-7c-2.2-2.3-4.5-4.5-6.8-6.7c-2.3-2.2-4.7-4.3-7.2-6.3c-2.4-2.1-4.9-4.1-7.5-6c-2.5-1.9-5.1-3.8-7.7-5.6
		c-2.6-1.8-5.3-3.6-8-5.2c-2.7-1.7-5.5-3.3-8.3-4.8c-2.8-1.5-5.6-3-8.5-4.4c-2.9-1.4-5.8-2.7-8.7-4c-2.9-1.3-5.9-2.5-8.9-3.6
		c-3-1.1-6-2.2-9-3.1c-3-1-6.1-1.9-9.2-2.7c-3.1-0.8-6.2-1.6-9.3-2.2c-3.1-0.7-6.3-1.3-9.4-1.8c-3.1-0.5-6.3-1-9.5-1.3
		c-3.2-0.4-6.3-0.6-9.5-0.8c-3.2-0.2-6.4-0.3-9.6-0.4S508.5,518.2,505.3,518.3z"/>
	<path class="st0" d="M458.7,825.3c-71.4-1.8,57.2-105.4,67.7-115.3c46-43.6,40.7-100.4-25.8-88.8c-41.5,7.2-24.1,40.4-34.7,54.6
		c-8.5,11.3-25,2.5-26.4-9.7c-5.2-43.8,20.8-70.9,62.8-75.8C569,580,613.8,644.1,574,703.1c-19.3,28.6-70.1,65.7-96.6,92.5l66.1-0.1
		c9.7,0,33.9-3,41.9,3.1c10.8,8.1,5.5,24.4-7.1,26.3c-12.5,1.9-26.7,0.5-39.4,0.4L458.7,825.3z"/>
</g>
</svg>
