<?xml version="1.0" encoding="UTF-8" standalone="no"?>
<svg
   width="1024"
   height="1024"
   version="1.1"
   id="svg8"
   sodipodi:docname="cacahuetes.svg"
   inkscape:version="1.3.2 (091e20e, 2023-11-25)"
   xmlns:inkscape="http://www.inkscape.org/namespaces/inkscape"
   xmlns:sodipodi="http://sodipodi.sourceforge.net/DTD/sodipodi-0.dtd"
   xmlns="http://www.w3.org/2000/svg"
   xmlns:svg="http://www.w3.org/2000/svg">
  <defs
     id="defs8" />
  <sodipodi:namedview
     id="namedview8"
     pagecolor="#ffffff"
     bordercolor="#000000"
     borderopacity="0.25"
     inkscape:showpageshadow="2"
     inkscape:pageopacity="0.0"
     inkscape:pagecheckerboard="0"
     inkscape:deskcolor="#d1d1d1"
     inkscape:zoom="0.23046875"
     inkscape:cx="366.64407"
     inkscape:cy="321.08475"
     inkscape:window-width="1392"
     inkscape:window-height="1027"
     inkscape:window-x="0"
     inkscape:window-y="25"
     inkscape:window-maximized="0"
     inkscape:current-layer="svg8" />
  <g
     id="g1"
     transform="matrix(1.3764549,0,0,1.3764549,4.3236623,70.158579)">
    <path
       fill="#82c3bf"
       d="m 148.09517,568.79197 c -77.265995,6.054 -144.2025952,-61.25 -147.93239518,-136.548 -3.37640002,-68.16 46.31380018,-141.522 98.82440018,-181.278 33.833995,-25.618 67.509995,-37.702 90.769995,-76.328 15.384,-25.546 14.862,-49.21 19.65,-76.684001 8.91,-51.124 46.36,-95.6733998 100.606,-97.91399983 27.598,-0.812 54.026,10.84599983 76.424,26.05399983 114.884,78.014001 75.306,248.666001 -24,321.542001 -22.272,16.344 -51.214,24.504 -69,46.358 -14.202,17.448 -15.098,36.21 -21.712,56.738 -19.418,60.282 -60.654,105.992 -123.63,118.06 z m 154.714,-548.968001 c -40.75,5.306 -68.94,46.132 -74.788,84.418001 -4.94,32.346 -5.764,55.736 -24.554,85.538 -24.426,38.742 -66.394,55.624 -100.962,83.038 -35.933995,28.5 -71.308795,81.086 -80.838995,126.262 -14.9098002,70.674 38.647,147.098 111.038995,150.482 6.61,0.31 13.194,-0.734 19.798,-0.354 58.462,-20.144 86.896,-56.058 104.49,-116.25 23.786,-81.384 36.366,-57.184 95.666,-102.89 62.624,-48.268 104,-141.36 77.28,-218.634 -16.72,-48.358001 -72.688,-97.914001 -127.13,-91.610001 z"
       id="path1"
       style="stroke-width:2" />
    <path
       fill="#82c3bf"
       d="m 228.22917,219.61197 c -6.914,0.804 -14.596,-4.996 -11.152,-12.54 1.96,-4.296 6.306,-8.118 9.394,-11.712 27.73,-32.276 21.754,-61.226 41.444,-90.336 14.754,-21.814001 36.456,-38.008001 62.548,-43.098001 6.502,-0.496 13.822,3.262 11.476,11.162 -3.734,12.582 -51.188,11.59 -67.766,63.622001 -8.286,26.008 -19.968,69.91 -45.944,82.902 z"
       id="path2"
       style="stroke-width:2" />
    <path
       fill="#82c3bf"
       d="m 357.27117,641.85197 -1.78,0.068 c -59.958,2.018 -105.466,-34.672 -106.942,-96.022 -1.394,-57.876 44.256,-106.648 93.68,-130.61 36.78,-17.832 74.524,-22.798 102.908,-55.598 40.096,-46.33 12.36,-89.706 56.204,-135.482 28.782,-30.05 86.944,-52.614 128.498,-53.378 3.416,-0.712 7.494,-0.644 10.986,-0.596 59.102,0.808 98.162,40.336 96.798,99.714 -1.258,54.906 -40.982,151.544 -88.928,181.044 -36.3,22.334 -74.092,21.504 -98.362,67.974 -3.808,7.288 -6.982,14.862 -11.158,21.966 -34.352,58.434 -115.514,102.724 -181.904,100.92 z m 277.58,-452.322 c -38.686,1.676 -93.836,20.254 -120.496,49.19 -35.044,38.038 -13.648,84.674 -51.742,130.306 -29.988,35.922 -60.162,41.464 -100.888,58.896 -50.148,21.466 -96.36,64.888 -93.76,123.298 2.036,45.756 41.566,72.226 85.088,71.528 51.128,0.23 109.682,-26.28 145.808,-61.996 16.884,-16.692 22.376,-27.568 32.434,-47.846 15.63,-31.518 44.496,-51.406 76.47,-64.126 10.782,-4.29 21.742,-8.184 31.634,-14.37 50.216,-31.404 110.082,-171.558 58.354,-223.614 -16.072,-16.172 -40.524,-22.724 -62.902,-21.266 z"
       id="path3"
       style="stroke-width:2" />
    <path
       fill="#82c3bf"
       d="m 373.03317,193.55997 c 2.244,-3.456 3.848,-4.97 7.624,-6.742 12.342,-0.386 11.93,10.614 11.692,20.166 -1.42,57.022 -46.506,108.756 -100.668,123.922 -9.748,0.64 -16.854,-9.612 -7.488,-16.476 4.838,-3.546 11.824,-5.388 17.35,-7.822 34.924,-15.384 67.582,-53.36 71.268,-91.778 0.676,-7.064 0.284,-14.184 0.222,-21.27 z"
       id="path4"
       style="stroke-width:2" />
    <path
       fill="#82c3bf"
       d="m 105.24517,360.00397 c -9.901995,-51.624 53.122,-97.126 99.756,-101.51 7,-0.746 15.172,3.372 13.248,11.802 -1.946,8.528 -13.92,7.548 -20.378,8.79 -30.858,5.93 -65.126,29.404 -72.706,61.204 -2.12,8.888 1.168,18.938 -7.698,24.308 -5.548,0.982 -8.736,0.098 -12.222,-4.594 z"
       id="path5"
       style="stroke-width:2" />
    <path
       fill="#82c3bf"
       d="m 481.86917,409.76797 c 7.204,-27.918 41.308,23.698 70.768,-1.94 15.338,-13.348 11.358,-33.564 15.992,-51.488 11.992,-46.388 47.528,-82.85 96.244,-89.364 2.786,-0.36 5.556,-0.146 8.35,0 4.452,2.574 7.978,7.986 5.162,13.11 -5.452,9.916 -78.132,6.644 -92.904,88.028 -2.426,13.376 -1.638,26.988 -8.096,39.384 -17.3,33.212 -55.014,30.61 -83.84,15.114 -5.762,-3.416 -9.848,-6.022 -11.676,-12.844 z"
       id="path6"
       style="stroke-width:2" />
    <path
       fill="#82c3bf"
       d="m 152.50317,510.27197 c -89.589995,5.05 -105.621395,-98.98 -82.467995,-110.378 5.642,-0.384 8.598,1.02 11.52,6.046 0.43,5.168 -0.198,10.528 -0.402,15.71 -1.288,32.836 19.051995,67.234 54.819995,69.106 7.322,0.384 19.334,-2.974 22.79,5.628 2.242,5.578 -0.668,11.866 -6.26,13.888 z"
       id="path7"
       style="stroke-width:2" />
    <path
       fill="#82c3bf"
       d="m 343.20317,481.84997 c -13.838,-2.36 -17.866,-14.588 -6.538,-19.536 3.264,-1.426 20.148,0.624 24.674,0.504 25.17,-0.662 50.132,-14.62 66.762,-32.898 4.084,-4.488 7.144,-9.904 12.418,-13.134 26.496,-1.354 2.2,26.624 -5.336,33.638 -27.682,25.768 -55.892,32.688 -91.98,31.426 z"
       id="path8"
       style="stroke-width:2" />
  </g>
</svg>
