<?xml version="1.0" encoding="utf-8"?>
<!-- Generator: Adobe Illustrator 24.1.0, SVG Export Plug-In . SVG Version: 6.00 Build 0)  -->
<svg version="1.1"
	 id="svg5" inkscape:version="1.3.2 (091e20e, 2023-11-25)" sodipodi:docname="house.svg" xmlns:inkscape="http://www.inkscape.org/namespaces/inkscape" xmlns:sodipodi="http://sodipodi.sourceforge.net/DTD/sodipodi-0.dtd" xmlns:svg="http://www.w3.org/2000/svg"
	 xmlns="http://www.w3.org/2000/svg" xmlns:xlink="http://www.w3.org/1999/xlink" x="0px" y="0px" viewBox="0 0 1024 1024"
	 style="enable-background:new 0 0 1024 1024;" xml:space="preserve">
<style type="text/css">
	.st0{fill:#82C3BF;}
</style>
<sodipodi:namedview  bordercolor="#000000" borderopacity="0.25" id="namedview5" inkscape:current-layer="svg5" inkscape:cx="512" inkscape:cy="512" inkscape:deskcolor="#d1d1d1" inkscape:pagecheckerboard="0" inkscape:pageopacity="0.0" inkscape:showpageshadow="2" inkscape:window-height="1027" inkscape:window-maximized="0" inkscape:window-width="1392" inkscape:window-x="1033" inkscape:window-y="186" inkscape:zoom="0.23046875" pagecolor="#ffffff">
	</sodipodi:namedview>
<g>
	<path class="st0" d="M1003.3,532.7c-20.9-19.6-44.6-36.9-66.6-55.4c-24.2-20.3-51.6-46-77-64.2l0-104.4c0-45.6,7.5-36.1-16.6-71.4
		l-60.9-89.5c-6.8-10-10.8-22.2-24.8-20.9c-12.1,5.9-73.8,105.4-83.4,120.9c-11.9-10.3-24.3-20-36.4-30l-65.2-53.7
		c-19.9-16.2-37.1-38.9-65.4-36.5c-23.3,1.9-53,34.6-70,49.3L56.8,500.5c-11.2,9.4-34.1,26.2-42.6,36.7c-16.2,20-2.2,49.9,22.2,54.4
		c9.3,1.7,19.8,0.8,29.2,0.8l46.6-0.1l0,255.5c0,40.1-10.1,49.2,31.7,48.8l5.9-0.1l656.8,0c28.4,0,58.1,1.4,86.4-0.6
		c25-1.7,19.5-27.4,19.5-45l0-258.6l46.9,0.1c16.3,0,35.1,3.1,47.6-9.8C1022.4,566.8,1018.3,546.8,1003.3,532.7z M587.9,868.2
		c-5.9-0.2-11.8-0.1-17.7,0H435.5l0-206.1c-0.1-19.3-5.2-43,17.7-50.9l75.4,0c50.7,0,59.4-7.4,59.3,51.9L587.9,868.2z M884.2,868.2
		H615.7l0.1-213.5c0.2-84.9-42.9-71.6-113.4-71.8c-71.7-0.2-95.7-2.3-95.6,74.1l0.1,40.4c0,56.9,1,113.9,0,170.8H140.6l0-190.2
		c0-31.7-0.6-63.4,0-95.1c8.5-10.3,18.9-19.2,29.9-26.7c9.7-10.1,20.3-18.6,30.9-27.6l267.7-228.4c13.9-11.7,28.8-22.8,41.4-35.9
		c32.2,27.8,65.3,54.6,97.9,82.1l41.3,34.5c8.8,7.3,24.4,26.2,37,16.4c17-13.2-10.6-31.3-19.3-38.8c-16.5-14.2-33.3-27.9-50-41.8
		l-70.1-58.3c-11.1-9.2-31.3-34-45.1-23.9c-11.4,8.4-22.2,18.9-33,28l-83.3,70.6c-90.2,76.3-180.1,153-268.9,231l-50.7,0.1
		c-9.9,0-45.6,4.8-23.2-14.9c15.5-13.6,31.9-26.2,47.6-39.6l390-332.2c9.7-8.4,17.5-17.5,29.9-21.7c11.3-0.5,35.7,23.7,46.4,32.6
		l87.1,71.9c40.4,32.7,32.6,35.2,56.4-0.4c20.5-30.7,40.4-61.7,60.3-92.8c24.4,31.7,47.3,70.2,70.7,103.4c0.5,7.4,0,15.1,0,22.5
		l0,185.9c0,11.6-1.5,49.6,0.6,58.5c1.5,6.1,44.9,40.8,52.2,45.5V868.2z M986.6,564.1c-6.9,1.3-15.6,0.1-22.7,0.1l-57.7-0.1
		c-15.3-13-31.4-24.8-46.5-38v-77.2c3.3,2,6.5,5.4,9.5,8l84,70.8C962.9,535.8,990.3,552,986.6,564.1z"/>
	<path class="st0" d="M764.4,362.1L764.4,362.1c4.1-1.3,7.6-3,9.7-7c2.7-4.9,2.9-78.4,0.6-84.7c-2-5.6-8.3-8.8-14-8.5
		c-4.6,1.8-9,3.4-11.3,8.2c-2.5,5.3-2.4,80.7,0.4,85.4C752.8,360.6,758.9,362.1,764.4,362.1z"/>
	<path class="st0" d="M817.4,608.4l-76.3,0c-6.1-0.1-12.8-0.9-18.9,0.1c-4,1.6-6.9,3-8.7,7.2c-2.5,6-1.7,103-1.1,116.9
		c1.2,28.1,33.1,19.7,56.6,19.7l48.8-0.1c7.8-0.1,15.7-0.9,23.4,0h0c16.5-12.2,9.6-34.6,9.6-54.5l0-49.6c0-11.2,4.4-37.4-11.7-39.5
		l-1.2-0.2C831.2,607.6,824.1,608.4,817.4,608.4z M822.2,722.6h-81.5v-86.3h81.5V722.6z"/>
	<path class="st0" d="M302.7,610.2c-7-3.3-102.7-1.7-118.5-1.7c-17.7,2.8-13.9,17.3-13.7,31.5c0.1,8.2,0,16.4,0,24.7l0,49.7
		c0,48.3,6.5,38,51.1,38l76.9,0c19-5.1,11.2-47.7,11.2-65.3C309.7,673.2,315.3,616.2,302.7,610.2z M281.4,722.6l-55.9,0
		c-8.6,0-17.9,1.1-26.4,0v-86.3c14.4,1.7,67.6,1.4,82.3,0V722.6z"/>
	<path class="st0" d="M558.6,710c-18.9,5.8-15.4,44.4-11.2,56.5c2.2,6.3,8.8,8.5,14.8,8.8v0c19-5.9,13.1-39.4,12.3-56.3
		C570.1,713.6,565.6,710.3,558.6,710z"/>
</g>
</svg>
