<?xml version="1.0" encoding="UTF-8" standalone="no"?>
<svg
   width="1024"
   height="1024"
   version="1.1"
   id="svg1"
   xmlns="http://www.w3.org/2000/svg"
   xmlns:svg="http://www.w3.org/2000/svg">
  <defs
     id="defs1" />
  <path
     fill="#82c3bf"
     d="M 529.76228,776.69138 C 384.05896,776.78067 167.58919,762.64042 58.01581,665.25388 -27.595386,589.16581 1.8334406,484.76586 71.153291,408.15891 177.1898,290.97504 342.19569,254.82917 494.02428,247.30894 c 160.38659,-0.30409 329.21776,33.38491 447.54801,150.08368 70.89431,69.91693 113.93051,178.17113 33.76623,258.0362 -97.67856,97.31414 -307.36178,121.49907 -445.57624,121.26256 z M 486.61989,273.3498 c -7.39474,0.28237 -14.66156,0.17377 -22.0563,0 10.88696,7.17029 21.85598,13.84582 31.63277,22.5607 53.07122,47.32486 91.28299,168.76601 49.21457,231.74676 -38.48931,57.62294 -111.00067,-67.448 -121.71387,-97.0004 -12.27951,-33.87242 -14.48055,-60.50698 -40.50934,-88.35309 -24.85828,-26.59112 -40.26559,-26.99174 -64.79806,-44.20188 -25.55094,6.46315 -51.27081,14.88842 -75.65365,24.93551 42.20357,23.9267 80.57945,56.34142 93.95707,105.19397 7.7664,28.36982 6.48728,70.70371 -8.52663,96.70354 -36.61167,63.39586 -117.10906,-63.37172 -137.29012,-88.31689 -16.1796,-20.00247 -33.54661,-38.18521 -52.86367,-55.1347 C 89.988146,415.97117 41.614172,476.86189 32.1492,535.09302 13.191744,651.72663 159.89519,703.81559 248.94817,723.8253 435.49871,765.96129 759.73758,768.25404 919.92145,666.75744 1005.8104,612.33711 1012.3411,539.92228 958.54832,457.2335 911.23312,384.50252 817.40879,334.39739 737.59199,308.09588 774.02023,360.66752 798.29205,416.90275 786.37938,482.71204 761.8614,618.16795 669.67337,490.3988 648.609,423.04733 631.25164,367.55061 632.22184,346.93755 579.09993,305.68246 562.86723,293.07472 544.42866,284.65911 527.4285,273.3498 Z m 93.09788,2.21794 c 62.28085,42.65005 72.76719,69.46803 92.30628,137.61351 9.66335,33.70107 28.46152,66.4947 53.10501,91.49296 11.69546,11.8644 20.37172,20.31621 28.61116,1.12948 16.86019,-44.73043 12.08643,-90.67722 -7.38267,-133.60482 -10.6963,-23.57916 -39.23747,-70.09069 -63.14727,-79.22068 -14.78223,-5.645 -85.84554,-17.39356 -103.49251,-17.41045 z m -168.46916,4.49138 c -18.81265,2.58478 -37.54324,5.95392 -56.30038,8.92726 91.93461,49.35214 72.70685,122.86507 129.0362,196.61453 4.5855,6.0046 9.66094,11.68339 14.02682,17.84245 6.16872,4.05214 20.13763,20.29208 26.96279,10.01089 20.59859,-31.03424 12.0623,-86.80367 0.63473,-121.69939 -12.53533,-38.28417 -29.97715,-69.12292 -65.55828,-91.32402 -8.79935,-5.49054 -38.94786,-22.0394 -48.80188,-20.37172 z M 210.76537,337.0232 c -17.33322,8.99242 -35.06224,17.73385 -50.95706,29.16866 45.89611,40.71207 76.38491,94.78969 120.22961,137.2515 4.84857,4.41657 19.89386,20.49722 25.98052,10.51047 10.82663,-17.76764 11.7751,-59.97604 6.28456,-80.13297 -10.24258,-37.59634 -62.47152,-88.66924 -101.53763,-96.79766 z"
     id="path1"
     style="stroke-width:2.41343" />
</svg>
