<?xml version="1.0" encoding="UTF-8" standalone="no"?>
<svg
   width="839.61621"
   height="438.70111"
   version="1.1"
   id="svg1"
   sodipodi:docname="bread.svg"
   inkscape:version="1.3.2 (091e20e, 2023-11-25)"
   xmlns:inkscape="http://www.inkscape.org/namespaces/inkscape"
   xmlns:sodipodi="http://sodipodi.sourceforge.net/DTD/sodipodi-0.dtd"
   xmlns="http://www.w3.org/2000/svg"
   xmlns:svg="http://www.w3.org/2000/svg">
  <defs
     id="defs1" />
  <sodipodi:namedview
     id="namedview1"
     pagecolor="#ffffff"
     bordercolor="#000000"
     borderopacity="0.25"
     inkscape:showpageshadow="2"
     inkscape:pageopacity="0.0"
     inkscape:pagecheckerboard="0"
     inkscape:deskcolor="#d1d1d1"
     inkscape:zoom="0.23046875"
     inkscape:cx="420.88136"
     inkscape:cy="225.62712"
     inkscape:window-width="1392"
     inkscape:window-height="1027"
     inkscape:window-x="0"
     inkscape:window-y="25"
     inkscape:window-maximized="0"
     inkscape:current-layer="svg1" />
  <path
     fill="#82c3bf"
     d="m 434.52767,438.69969 c -120.744,0.074 -300.132,-11.644 -390.935204,-92.348 -70.9458,-63.054 -46.5581997,-149.57 10.887,-213.054 C 142.35167,36.187687 279.09167,6.2336871 404.91167,0.00168712 c 132.912,-0.252 272.822,27.66599988 370.882,124.37400288 58.75,57.94 94.414,147.65 27.982,213.834 -80.946,80.644 -254.71,100.686 -369.248,100.49 z m -35.752,-417.118003 c -6.128,0.234 -12.15,0.144 -18.278,0 9.022,5.942 18.112,11.474 26.214,18.696 43.98,39.218 75.646,139.856003 40.784,192.048003 -31.896,47.752 -91.986,-55.894 -100.864,-80.384 -10.176,-28.07 -12,-50.142 -33.57,-73.218003 -20.6,-22.036 -33.368,-22.368 -53.698,-36.63 -21.174,5.356 -42.488,12.338 -62.694,20.664 34.974,19.828 66.776,46.690003 77.862,87.174003 6.436,23.51 5.376,58.592 -7.066,80.138 -30.34,52.536 -97.048,-52.516 -113.772,-73.188 -13.408,-16.576 -27.8,-31.644 -43.808,-45.69 -39.797804,28.58 -79.885204,79.04 -87.728804,127.296 -15.7099997,96.654 105.862804,139.82 179.660804,156.402 154.594,34.918 423.29,36.818 556.034,-47.292 71.176,-45.098 76.588,-105.108 32.01,-173.632 -39.21,-60.272 -116.962,-101.794003 -183.106,-123.590003 30.188,43.566 50.302,90.168003 40.43,144.704003 -20.318,112.252 -96.714,6.37 -114.17,-49.444 -14.384,-45.990003 -13.58,-63.072003 -57.602,-97.260003 -13.452,-10.448 -28.732,-17.422 -42.82,-26.794 z m 77.15,1.838 c 51.612,35.344 60.302,57.568 76.494,114.040003 8.008,27.928 23.586,55.104 44.008,75.82 9.692,9.832 16.882,16.836 23.71,0.936 13.972,-37.068 10.016,-75.144 -6.118,-110.718 -8.864,-19.540003 -32.516,-58.084003 -52.33,-65.650003 -12.25,-4.678 -71.14,-14.414 -85.764,-14.428 z m -139.61,3.722 c -15.59,2.142 -31.112,4.934 -46.656,7.398 76.186,40.898 60.252,101.818003 106.932,162.934003 3.8,4.976 8.006,9.682 11.624,14.786 5.112,3.358 16.688,16.816 22.344,8.296 17.07,-25.718 9.996,-71.934 0.526,-100.852 -10.388,-31.726003 -24.842,-57.282003 -54.328,-75.680003 -7.292,-4.55 -32.276,-18.264 -40.442,-16.882 z m -166.14,47.206 c -14.364,7.452 -29.056,14.696 -42.228,24.172 38.034,33.738003 63.3,78.552003 99.634,113.740003 4.018,3.66 16.486,16.986 21.53,8.71 8.972,-14.724 9.758,-49.702 5.208,-66.406 -8.488,-31.156 -51.77,-73.480003 -84.144,-80.216003 z"
     id="path1"
     style="stroke-width:2" />
</svg>
