<?xml version="1.0" encoding="UTF-8" standalone="no"?>
<svg
   width="1024"
   height="1024"
   version="1.1"
   id="svg4"
   sodipodi:docname="comidas.svg"
   inkscape:version="1.3.2 (091e20e, 2023-11-25)"
   xmlns:inkscape="http://www.inkscape.org/namespaces/inkscape"
   xmlns:sodipodi="http://sodipodi.sourceforge.net/DTD/sodipodi-0.dtd"
   xmlns="http://www.w3.org/2000/svg"
   xmlns:svg="http://www.w3.org/2000/svg">
  <defs
     id="defs4" />
  <sodipodi:namedview
     id="namedview4"
     pagecolor="#ffffff"
     bordercolor="#000000"
     borderopacity="0.25"
     inkscape:showpageshadow="2"
     inkscape:pageopacity="0.0"
     inkscape:pagecheckerboard="0"
     inkscape:deskcolor="#d1d1d1"
     inkscape:zoom="0.41699219"
     inkscape:cx="512"
     inkscape:cy="510.80094"
     inkscape:window-width="1392"
     inkscape:window-height="1027"
     inkscape:window-x="0"
     inkscape:window-y="25"
     inkscape:window-maximized="0"
     inkscape:current-layer="svg4" />
  <path
     fill="#82c3bf"
     d="m 529.89469,791.59988 q -6.88482,0.32335 -13.78042,0.30719 -6.8929,-0.0162 -13.77772,-0.36917 -6.88482,-0.353 -13.7427,-1.04552 -6.86057,-0.69253 -13.67533,-1.71919 -6.81745,-1.02666 -13.57562,-2.38745 -6.75817,-1.3608 -13.44089,-3.05304 -6.68273,-1.69223 -13.27652,-3.70783 -6.59111,-2.01829 -13.07712,-4.35724 -6.48332,-2.33626 -12.84538,-4.99049 -6.36475,-2.65422 -12.58938,-5.61833 -6.22194,-2.96142 -12.29567,-6.22733 -6.07104,-3.26591 -11.97501,-6.82554 -5.90396,-3.55962 -11.6247,-7.40488 -5.72073,-3.84257 -11.24745,-7.96538 -5.52672,-4.12011 -10.84325,-8.50699 -5.31923,-4.38958 -10.41481,-9.03245 -5.09557,-4.64288 -9.95671,-9.53097 -4.86115,-4.88808 -9.47707,-10.00791 -4.61324,-5.11983 -8.97317,-10.46331 -4.35725,-5.34079 -8.45041,-10.88906 -4.09048,-5.54828 -7.9034,-11.29057 -3.81292,-5.74229 -7.34021,-11.66512 -3.5273,-5.92283 -6.76087,-12.01273 -3.23088,-6.0899 -6.15996,-12.3307 -2.92908,-6.2408 -5.54828,-12.61633 -2.61919,-6.37823 -4.92311,-12.87502 -2.30123,-6.49679 -4.28449,-13.10137 -1.98057,-6.60188 -3.63508,-13.29269 -1.65451,-6.6935 -2.97758,-13.45975 -1.32577,-6.76356 -2.3147,-13.58641 -0.99163,-6.82284 -1.64643,-13.6861 -0.6548,-6.86057 -0.97007,-13.74808 -0.31528,-6.88752 -0.29372,-13.78042 0.0216,-6.89291 0.38264,-13.77773 0.35839,-6.88482 1.0563,-13.74269 0.70061,-6.85787 1.73266,-13.67533 1.03474,-6.81476 2.40093,-13.57023 1.36888,-6.75817 3.0665,-13.4382 1.69494,-6.68272 3.71862,-13.27383 2.02367,-6.58841 4.36802,-13.07172 2.34434,-6.48332 5.00395,-12.84269 2.66231,-6.35936 5.62912,-12.5813 2.9695,-6.22193 6.2408,-12.29028 3.2713,-6.06834 6.83631,-11.96961 3.56502,-5.89858 7.41567,-11.61931 3.84795,-5.71804 7.97615,-11.23937 4.1255,-5.52133 8.51778,-10.83517 4.39227,-5.31384 9.04053,-10.40403 4.64827,-5.09288 9.54174,-9.94863 4.89079,-4.85575 10.016,-9.46629 5.12522,-4.61054 10.47139,-8.96509 5.34349,-4.35455 10.89715,-8.43963 5.55097,-4.08508 11.29865,-7.89262 5.74499,-3.81023 11.67321,-7.33213 5.92552,-3.5219 12.01812,-6.74739 6.09259,-3.22549 12.33609,-6.14918 6.24349,-2.92369 12.62172,-5.5375 6.37822,-2.61381 12.87771,-4.90964 6.50218,-2.29584 13.10676,-4.27102 6.60457,-1.97517 13.29807,-3.6243 6.6935,-1.64912 13.45976,-2.9668 6.76625,-1.31768 13.5891,-2.30123 6.82284,-0.98355 13.6861,-1.63295 6.86327,-0.64672 13.75078,-0.9566 6.87943,-0.30989 13.76425,-0.28294 6.88482,0.0296 13.76156,0.39611 6.87404,0.36378 13.72383,1.06708 6.84979,0.7033 13.65646,1.74074 6.80668,1.03744 13.55677,2.40632 6.74739,1.36888 13.41933,3.0692 6.67194,1.70032 13.25496,3.724 6.58033,2.02368 13.05287,4.36802 6.47523,2.34435 12.82651,5.00396 6.35128,2.65962 12.56514,5.62912 6.21115,2.9668 12.27141,6.23541 6.06026,3.2686 11.95345,6.83092 5.89319,3.56232 11.60315,7.40758 5.71264,3.84796 11.22589,7.96807 5.51594,4.12281 10.8217,8.50969 5.30845,4.38958 10.39325,9.03246 5.08479,4.64018 9.93515,9.52826 4.85037,4.8854 9.45821,10.00522 4.60515,5.11714 8.95431,10.45523 4.34916,5.33809 8.43155,10.88367 4.08238,5.54289 7.88722,11.28248 3.80484,5.73691 7.32405,11.65704 3.51921,5.91744 6.7447,12.00195 3.22549,6.08182 6.14918,12.31723 2.921,6.23541 5.5348,12.60555 2.61381,6.37015 4.91234,12.85885 2.29854,6.4914 4.27371,13.0879 1.97787,6.5938 3.62969,13.27921 1.65182,6.68542 2.97219,13.44359 1.32038,6.75548 2.30931,13.57024 0.98894,6.81475 1.64104,13.66993 0.6548,6.85249 0.97008,13.73192 0.31527,6.87943 0.29371,13.76425 -0.0216,6.88482 -0.37994,13.76155 -0.35839,6.87674 -1.0563,13.72653 -0.69522,6.84979 -1.72727,13.65647 -1.02936,6.80937 -2.39285,13.55676 -1.36349,6.75009 -3.05842,13.42472 -1.69224,6.67464 -3.71053,13.25766 -2.01829,6.58302 -4.35724,13.05825 -2.33895,6.47793 -4.99048,12.82921 -2.65423,6.35398 -5.61564,12.57052 -2.96142,6.21655 -6.22464,12.27951 -3.26321,6.06295 -6.82014,11.95883 -3.55694,5.89589 -7.39681,11.61123 -3.84256,5.71265 -7.95998,11.23398 -4.11473,5.51864 -8.49891,10.82978 -4.3815,5.30845 -9.01898,10.39864 -4.63749,5.09019 -9.52019,9.94594 -4.8827,4.85575 -9.99713,9.46629 -5.11175,4.61054 -10.44714,8.96508 -5.33271,4.35455 -10.87559,8.44233 -5.5402,4.08508 -11.2744,7.89801 -5.73421,3.81023 -11.64896,7.33482 -5.91474,3.5246 -11.99656,6.75548 -6.07912,3.23088 -12.31184,6.15996 -6.23271,2.92908 -12.60016,5.54828 -6.36745,2.61919 -12.85615,4.92311 -6.48871,2.30393 -13.08251,4.28718 -6.5938,1.98326 -13.27652,3.64047 -6.68272,1.65721 -13.4382,2.98567 -6.75817,1.32576 -13.57023,2.32278 -6.81476,0.99433 -13.66725,1.65452 -6.85518,0.65749 -13.73191,0.98085 z m -26.1704,-533.44825 q -6.20038,0.31528 -12.37651,0.93504 -6.17613,0.61977 -12.31453,1.54134 -6.1384,0.92157 -12.22561,2.14224 -6.08451,1.22068 -12.10435,2.73776 -6.01984,1.51709 -11.95614,3.32789 -5.939,1.8108 -11.7783,3.90993 -5.84199,2.09913 -11.5762,4.4812 -5.73151,2.38207 -11.33907,5.04168 -5.60755,2.65962 -11.08038,5.59139 -5.47013,2.93178 -10.79205,6.12763 -5.32193,3.19585 -10.47948,6.64769 -5.16025,3.45453 -10.14265,7.15428 -4.98509,3.70244 -9.77887,7.64202 -4.79647,3.94226 -9.39353,8.11088 -4.59976,4.17131 -8.98665,8.56359 -4.38688,4.38957 -8.5555,8.98933 -4.16592,4.60246 -8.1028,9.39893 -3.93957,4.79916 -7.63662,9.78695 -3.69706,4.9851 -7.1462,10.14534 -3.44915,5.16294 -6.63961,10.48487 -3.19316,5.32462 -6.11954,10.79744 -2.92908,5.47553 -5.58331,11.08578 -2.65692,5.61025 -5.03629,11.34446 -2.37668,5.73151 -4.47311,11.57619 -2.09374,5.842 -3.89916,11.781 -1.80541,5.939 -3.3198,11.95883 -1.5117,6.01984 -2.72968,12.10705 -1.21528,6.0872 -2.13146,12.2283 -0.91887,6.1384 -1.53325,12.31453 -0.61438,6.17613 -0.92696,12.37651 -0.31258,6.20038 -0.32066,12.40615 -0.008,6.20846 0.28832,12.40884 0.29641,6.20038 0.89463,12.3792 0.59821,6.17883 1.50091,12.31992 0.90001,6.1411 2.10183,12.231 1.19911,6.0899 2.69734,12.11513 1.49553,6.02253 3.28746,11.96692 1.78925,5.94439 3.86952,11.79177 2.08026,5.85008 4.44347,11.58967 2.3632,5.7396 5.00395,11.35524 2.64076,5.61834 5.55367,11.09925 2.91291,5.48091 6.09259,10.81361 3.17699,5.3327 6.61266,10.50103 3.43568,5.17103 7.11926,10.1669 3.68627,4.99588 7.60968,9.80582 3.9261,4.80725 8.08124,9.42048 4.15514,4.61054 8.53125,9.0109 4.3761,4.40305 8.96239,8.58514 4.58629,4.18478 9.37198,8.13783 4.78569,3.95304 9.76001,7.66626 4.97162,3.71323 10.12109,7.18124 5.14946,3.46531 10.4633,6.67463 5.31385,3.20933 10.77859,6.15727 5.46204,2.94525 11.06421,5.61833 5.60217,2.67579 11.32829,5.07402 5.72343,2.39554 11.56003,4.51084 5.83661,2.1126 11.77022,3.93957 5.93361,1.82428 11.94806,3.35753 6.01445,1.53325 12.09626,2.7701 6.08451,1.23684 12.22022,2.17458 6.13571,0.93773 12.31184,1.57367 6.17343,0.63594 12.37112,0.96738 6.20038,0.33413 12.40614,0.36108 6.20847,0.0296 12.40885,-0.24521 6.22732,-0.27755 12.43309,-0.8596 6.20847,-0.58204 12.37651,-1.46858 6.17074,-0.88654 12.29028,-2.07487 6.11954,-1.18834 12.17441,-2.67848 6.05218,-1.48745 12.0262,-3.2713 5.97134,-1.78655 11.85106,-3.86143 5.87702,-2.07488 11.64626,-4.43808 5.76923,-2.36321 11.41452,-5.00665 5.64528,-2.64076 11.15313,-5.55906 5.51055,-2.9183 10.86751,-6.10337 5.35965,-3.18507 10.55493,-6.62883 5.19528,-3.44376 10.2154,-7.14081 5.02013,-3.69705 9.85163,-7.63393 4.8315,-3.93957 9.46359,-8.11089 4.63479,-4.17131 9.05671,-8.56358 4.42191,-4.39497 8.62286,-9.00012 4.19826,-4.60515 8.16747,-9.41239 3.96922,-4.80725 7.69861,-9.80313 3.72669,-4.99587 7.20548,-10.16959 3.47609,-5.17372 6.69619,-10.51181 3.21741,-5.3381 6.17074,-10.82978 2.95333,-5.489 5.63181,-11.11811 2.67848,-5.62912 5.07941,-11.38219 2.39823,-5.75306 4.51084,-11.61931 2.11529,-5.86355 3.93687,-11.8241 1.82158,-5.96325 3.34945,-12.00735 1.52517,-6.04139 2.75393,-12.15554 1.22876,-6.11146 2.15571,-12.27411 0.92427,-6.16535 1.54673,-12.36843 0.62246,-6.20307 0.93774,-12.4277 0.31527,-6.22733 0.32605,-12.46005 0.008,-6.23271 -0.28833,-12.46004 -0.29641,-6.22732 -0.90001,-12.4304 -0.6036,-6.20577 -1.509,-12.37381 -0.9081,-6.16535 -2.11799,-12.2822 -1.2099,-6.11415 -2.7189,-12.16363 -1.50631,-6.04678 -3.31172,-12.01542 -1.80541,-5.96595 -3.89915,-11.83758 -2.09644,-5.87164 -4.4785,-11.63279 -2.37938,-5.76115 -5.04169,-11.39566 -2.66231,-5.6372 -5.59947,-11.13697 -2.93447,-5.49977 -6.1384,-10.84864 -3.20394,-5.34618 -6.66386,-10.53068 -3.46262,-5.1845 -7.17584,-10.19115 -3.71323,-5.00934 -7.66627,-9.82737 -3.95574,-4.81803 -8.14053,-9.43665 -4.18748,-4.62132 -8.59592,-9.02706 -4.40844,-4.40844 -9.02706,-8.59323 -4.62132,-4.18478 -9.44204,-8.13783 -4.82072,-3.95304 -9.82737,-7.66357 -5.00935,-3.71053 -10.19385,-7.17315 -5.18719,-3.45992 -10.53606,-6.66116 -5.34887,-3.20124 -10.84864,-6.13571 -5.49978,-2.93447 -11.13698,-5.59409 -5.63719,-2.65961 -11.39835,-5.03898 -5.76115,-2.38207 -11.63278,-4.47581 -5.87164,-2.09374 -11.84028,-3.89376 -5.96864,-1.80272 -12.01542,-3.31172 -6.04948,-1.50631 -12.16633,-2.71351 -6.11415,-1.2072 -12.28219,-2.1126 -6.16805,-0.9054 -12.37382,-1.50631 -6.20307,-0.60091 -12.4304,-0.89732 -6.22732,-0.29371 -12.46004,-0.28293 -6.23541,0.0108 -12.46004,0.32874 z"
     id="path1"
     style="stroke-width:2.69465" />
  <path
     fill="#82c3bf"
     d="m 932.18644,573.53567 c -69.28743,-1.47128 -68.05328,14.21964 -67.74878,-57.40943 0.27215,-64.14604 -4.8342,-117.75063 24.33265,-177.60141 19.46073,-39.93195 62.88225,-90.80148 106.7942,-106.00197 24.81499,-1.38236 17.62029,36.86814 17.62299,54.42645 l 0.024,439.18684 c 0.2048,18.14575 2.6354,37.54181 -10.474,52.23571 -27.11896,30.3956 -70.03658,11.21512 -70.55126,-34.41332 z m 54.20549,-305.4866 c -41.88018,23.36796 -73.94377,72.40782 -86.71909,117.2602 -8.9058,31.26867 -8.54202,61.94452 -8.53933,94.15362 l 0.0189,66.84338 c 12.99628,-0.0377 45.11646,-1.48475 55.93277,0.7545 18.83018,3.90454 11.99656,41.22539 11.99117,56.25882 l 0.0216,95.38237 c -0.0377,13.01245 -1.46589,42.92032 0.63863,54.0007 2.17458,11.44147 14.71276,17.43706 23.35719,7.35639 7.57465,-8.83575 3.28477,-29.78931 3.28208,-40.48975 l 0.008,-397.44408 c 0.005,-16.62058 -0.38803,-33.34894 0.53084,-49.94796 l 0.0216,0.0943 0.0728,-3.9288 z"
     id="path2"
     style="stroke-width:2.69465" />
  <path
     fill="#82c3bf"
     d="M 71.738888,497.27719 C 17.785343,477.1401 10.400936,438.55278 10.504949,389.50214 l 0.02587,-107.27924 c -0.02398,-19.01881 -6.1966075,-39.39841 11.366285,-49.70004 21.797529,2.76201 15.716522,28.14557 15.673407,43.64787 l -0.0353,64.61491 h 22.968353 c 0.0011,-13.81006 -1.58068,-90.56974 1.015612,-98.3384 1.730771,-5.17642 6.945719,-7.81717 11.579701,-9.92438 20.106908,7.37524 14.015391,26.4695 14.0162,44.07901 l -0.04311,64.18377 h 29.822443 l -0.0215,-62.14392 c -0.0162,-8.27795 -2.91291,-33.22229 2.87249,-39.51429 5.20875,-5.66684 14.62923,-6.79859 20.21254,-1.04013 6.76895,6.97644 3.80753,31.69981 3.81023,40.85083 l -0.035,61.84751 c 7.18662,-0.14282 14.37593,-0.0458 21.56255,0 l -0.0647,-62.16278 c -0.0162,-8.92737 -3.04495,-34.21931 3.60274,-40.93167 5.58331,-5.63451 14.64001,-5.46744 19.91613,0.49312 6.14649,6.93871 3.71592,29.66805 3.7213,38.45798 v 104.9861 c -0.0215,38.63313 1.06978,69.45449 -31.17166,97.91803 -9.51749,7.97077 -20.26643,13.65916 -31.96389,17.73077 l 13.76964,216.23724 c 1.6626,22.93144 7.56119,48.40392 -10.9133,66.32871 -17.19993,16.69063 -46.896813,16.79033 -63.56185,-0.66558 -16.075178,-16.83884 -13.059061,-36.61754 -11.538742,-57.8244 l 9.665425,-144.94231 c 1.844754,-26.28357 4.318439,-52.80158 4.98213,-79.13366 z M 37.53521,369.25188 c -1.683614,27.70634 -3.062195,63.11399 15.848021,84.37744 21.749833,24.45391 70.290909,31.66748 91.543579,2.98297 25.86052,-21.61106 20.40386,-57.39056 20.36883,-87.36041 -42.54307,-0.42845 -85.216015,-0.35031 -127.76043,0 z M 99.31724,509.79921 84.273841,729.5853 c -0.997288,14.80977 -4.917189,36.27801 17.673369,35.17321 26.23777,-4.8827 14.34899,-43.79338 13.01245,-65.73858 L 103.89275,540.06547 c -0.47426,-6.23271 0.29372,-26.23237 -4.57551,-30.26626 z"
     id="path3"
     style="stroke-width:2.69465" />
  <path
     fill="#82c3bf"
     d="m 525.8635,698.6831 q -4.61054,0.22366 -9.22916,0.22366 -4.61593,-0.003 -9.22917,-0.23174 -4.61053,-0.22905 -9.20491,-0.68175 -4.59437,-0.45539 -9.16179,-1.13444 -4.56743,-0.68175 -9.09443,-1.58446 -4.52701,-0.9027 -9.00551,-2.02906 -4.4785,-1.12367 -8.89502,-2.46561 -4.41922,-1.34462 -8.76569,-2.90213 -4.34646,-1.5602 -8.60939,-3.33058 -4.26562,-1.76769 -8.43693,-3.74556 -4.17132,-1.97787 -8.24293,-4.15784 -4.06891,-2.17997 -8.02735,-4.55664 -3.95843,-2.37668 -7.79561,-4.94737 -3.83717,-2.568 -7.54231,-5.32193 -3.70514,-2.75393 -7.27285,-5.6857 -3.56501,-2.93177 -6.98183,-6.03601 -3.4195,-3.10692 -6.68002,-6.37283 -3.26052,-3.26861 -6.35937,-6.6935 -3.09614,-3.4249 -6.01983,-6.998 -2.92639,-3.5731 -5.67223,-7.28363 -2.74585,-3.71322 -5.30576,-7.55309 -2.55992,-3.84256 -4.92851,-7.80639 -2.36859,-3.96382 -4.54048,-8.03813 -2.16919,-4.0743 -4.13897,-8.251 -1.96709,-4.1767 -3.72939,-8.44502 -1.75961,-4.26832 -3.30903,-8.61748 -1.54942,-4.34916 -2.88327,-8.77107 -1.33385,-4.41922 -2.44943,-8.90042 -1.11289,-4.48119 -2.00751,-9.01089 -0.89193,-4.5297 -1.5629,-9.09712 -0.67096,-4.56743 -1.11558,-9.1645 -0.44462,-4.59437 -0.66288,-9.2076 -0.21827,-4.61323 -0.21019,-9.22916 0.008,-4.61593 0.24252,-9.22916 0.23444,-4.61054 0.69522,-9.20491 0.46079,-4.59437 1.14792,-9.1591 0.68713,-4.56473 1.59523,-9.09174 0.91079,-4.527 2.03985,-9.00281 1.13175,-4.4785 2.48177,-8.89233 1.34732,-4.41653 2.91291,-8.7603 1.56559,-4.34376 3.34136,-8.60669 1.77577,-4.26024 3.75903,-8.43155 1.98326,-4.16862 4.16862,-8.23484 2.18535,-4.06891 4.56742,-8.02196 2.38207,-3.95574 4.95545,-7.78752 2.57339,-3.83449 5.33271,-7.53693 2.75932,-3.70244 5.69648,-7.26476 2.93716,-3.56233 6.04678,-6.97375 3.10963,-3.41411 6.38093,-6.67194 3.27399,-3.25513 6.70158,-6.34859 3.43028,-3.09075 7.00608,-6.01175 3.57579,-2.921 7.29171,-5.66145 3.71592,-2.74046 7.56118,-5.29498 3.84526,-2.55452 7.81177,-4.91773 3.96652,-2.3632 8.04352,-4.5297 4.0797,-2.16649 8.25909,-4.1282 4.1794,-1.9617 8.44772,-3.71591 4.27101,-1.75691 8.62286,-3.29825 4.35186,-1.54403 8.77377,-2.87249 4.42191,-1.32577 8.90311,-2.43596 4.48389,-1.1075 9.01359,-1.99673 4.53239,-0.88654 9.09982,-1.54942 4.57012,-0.66558 9.16718,-1.10211 4.59437,-0.43923 9.20761,-0.65211 4.60515,-0.21288 9.21299,-0.19671 4.61054,0.0135 9.213,0.2533 4.60245,0.23982 9.18874,0.7033 4.58628,0.46618 9.14293,1.156 4.55665,0.68983 9.07557,1.60062 4.51622,0.91349 8.98395,2.04524 4.46772,1.13175 8.87616,2.48446 4.40575,1.35002 8.74143,2.91292 4.33569,1.56559 8.59053,3.34136 4.25215,1.77577 8.41269,3.75633 4.16322,1.98057 8.22136,4.16593 4.06083,2.18266 8.00579,4.56203 3.94766,2.37937 7.77405,4.95006 3.8264,2.5707 7.52076,5.32462 3.69706,2.75663 7.25129,5.6884 3.55694,2.93178 6.96297,6.03601 3.40872,3.10423 6.66116,6.37014 3.24974,3.26861 6.33781,6.69081 3.08806,3.4222 6.00367,6.98991 2.91561,3.5704 5.65337,7.27824 2.73776,3.70783 5.28959,7.5477 2.55183,3.83717 4.91234,7.79561 2.3632,3.95843 4.527,8.02735 2.1638,4.06891 4.1255,8.24023 1.96171,4.17131 3.71861,8.43424 1.75422,4.26023 3.29825,8.604 1.54403,4.34108 2.87249,8.7549 1.33116,4.41383 2.44135,8.88695 1.11289,4.47311 2.00212,8.99472 0.89193,4.52431 1.5602,9.08366 0.66828,4.55934 1.1102,9.14832 0.44461,4.58628 0.66288,9.19143 0.21827,4.60515 0.21018,9.213 -0.008,4.61054 -0.24252,9.21299 -0.23173,4.60246 -0.69252,9.18874 -0.45809,4.58629 -1.14253,9.14563 -0.68174,4.55665 -1.58715,9.07557 -0.90809,4.51892 -2.03445,8.98934 -1.12636,4.47041 -2.47099,8.87885 -1.34463,4.40845 -2.90214,8.74413 -1.5602,4.33838 -3.32788,8.59323 -1.77039,4.25754 -3.74556,8.42076 -1.97787,4.16323 -4.15515,8.22676 -2.17727,4.06083 -4.55125,8.01118 -2.37399,3.95304 -4.93929,7.78214 -2.5653,3.82909 -5.31653,7.52614 -2.74854,3.69975 -5.67762,7.25938 -2.92639,3.55962 -6.02523,6.97105 -3.09884,3.41411 -6.36206,6.66924 -3.26322,3.25514 -6.68003,6.34859 -3.4195,3.09076 -6.98452,6.01175 -3.56501,2.921 -7.27015,5.66146 -3.70514,2.74314 -7.53962,5.30036 -3.83448,2.55722 -7.78753,4.92582 -3.95574,2.3659 -8.02196,4.53508 -4.06891,2.16919 -8.23484,4.13629 -4.16861,1.96978 -8.42885,3.72939 -4.25754,1.76229 -8.59861,3.31172 -4.34108,1.54942 -8.75221,2.88596 -4.41114,1.33385 -8.88425,2.45213 -4.47042,1.11828 -8.99203,2.01559 -4.52162,0.89463 -9.08096,1.57098 -4.55934,0.67366 -9.14563,1.12367 -4.58898,0.45001 -9.19143,0.67366 z M 506.57792,350.80972 q -3.94227,0.2506 -7.86567,0.69522 -3.9261,0.44462 -7.82256,1.08325 -3.89915,0.63593 -7.76058,1.46319 -3.86143,0.82995 -7.67705,1.84583 -3.81831,1.01588 -7.58003,2.22039 -3.76173,1.20181 -7.45878,2.58956 -3.69975,1.38504 -7.32405,2.95333 -3.62699,1.56559 -7.17045,3.30902 -3.54346,1.74344 -6.998,3.65933 -3.45453,1.9132 -6.81206,3.99616 -3.35484,2.08296 -6.60458,4.3276 -3.24974,2.24464 -6.38631,4.64827 -3.13387,2.40093 -6.14649,4.95545 -3.01531,2.55183 -5.89858,5.24917 -2.88596,2.70003 -5.63181,5.5375 -2.74853,2.83476 -5.35426,5.80426 -2.60572,2.9695 -5.06324,6.06026 -2.45482,3.09346 -4.75605,6.30278 -2.30122,3.21202 -4.44347,6.52912 -2.13955,3.31981 -4.11472,6.73931 -1.97518,3.4222 -3.78059,6.93333 -1.80541,3.51382 -3.43567,7.11117 -1.62757,3.60004 -3.07998,7.27285 -1.44972,3.6728 -2.7189,7.41297 -1.26918,3.74017 -2.35243,7.53962 -1.08324,3.79675 -1.97787,7.64471 -0.89462,3.84795 -1.60062,7.73363 -0.70599,3.88568 -1.21798,7.801 -0.51198,3.91801 -0.83264,7.85489 -0.32066,3.93418 -0.44731,7.88184 -0.12665,3.94766 -0.0566,7.89801 0.0674,3.95035 0.32875,7.88992 0.26138,3.94227 0.71677,7.86567 0.4554,3.9234 1.10481,7.81717 0.64671,3.89646 1.48475,7.75788 0.83803,3.85874 1.86469,7.67166 1.02666,3.81562 2.24195,7.57465 1.21259,3.75903 2.60841,7.45339 1.39853,3.69436 2.97489,7.31596 1.57637,3.61891 3.32789,7.15968 1.75422,3.54076 3.67819,6.98991 1.92398,3.44914 4.01502,6.79859 2.09105,3.34944 4.34647,6.5938 2.25272,3.24435 4.66443,6.37283 2.40901,3.12849 4.97162,6.13571 2.55992,3.00453 5.26803,5.88241 2.70543,2.87789 5.54828,5.61834 2.84555,2.74046 5.82043,5.33809 2.97489,2.59764 6.07643,5.04438 3.09884,2.44943 6.31356,4.73988 3.2174,2.29315 6.5426,4.42461 3.32519,2.13147 6.75008,4.09856 3.4249,1.96709 6.94411,3.76172 3.5192,1.79464 7.11925,3.41412 3.60274,1.61948 7.28093,3.06112 3.67819,1.44163 7.42106,2.70003 3.74286,1.2584 7.54501,2.33087 3.80214,1.07247 7.65009,1.95631 3.85065,0.88654 7.73903,1.58176 3.88568,0.69252 7.80369,1.19642 3.91802,0.50121 7.85489,0.81109 3.93958,0.30989 7.88723,0.42576 3.94766,0.11587 7.89531,0.035 3.95035,-0.0782 7.88993,-0.35031 3.9261,-0.27216 7.83603,-0.73564 3.90723,-0.46348 7.78752,-1.11827 3.88299,-0.6548 7.72555,-1.49823 3.84526,-0.84612 7.64471,-1.87547 3.79676,-1.03205 7.54232,-2.24734 3.74286,-1.21798 7.42105,-2.6138 3.68089,-1.39852 7.28632,-2.97489 3.60544,-1.57637 7.13004,-3.32789 3.52729,-1.75152 6.96027,-3.6755 3.43567,-1.92128 6.77164,-4.00963 3.33597,-2.08565 6.56685,-4.33568 3.23088,-2.25003 6.34589,-4.65366 3.11771,-2.40362 6.11146,-4.95814 2.99645,-2.55453 5.86085,-5.25187 2.86711,-2.69734 5.59678,-5.53211 2.72968,-2.83476 5.31923,-5.79887 2.58956,-2.96681 5.02821,-6.05487 2.44135,-3.08807 4.72641,-6.292 2.28506,-3.20394 4.41114,-6.51566 2.12607,-3.31441 4.08777,-6.72583 1.96171,-3.41142 3.75365,-6.91716 1.79194,-3.50573 3.40872,-7.0923 1.61948,-3.58927 3.05843,-7.2513 1.44163,-3.66202 2.70003,-7.39141 1.2584,-3.72939 2.33356,-7.51537 1.07517,-3.78597 1.9644,-7.62045 0.88654,-3.83449 1.58715,-7.70939 0.69791,-3.8722 1.2072,-7.77674 0.50929,-3.90185 0.82725,-7.82526 0.31528,-3.9234 0.43923,-7.85758 0.12665,-3.93419 0.0566,-7.86837 -0.0674,-3.93688 -0.32875,-7.86297 -0.26138,-3.9261 -0.71408,-7.83603 -0.4527,-3.90994 -1.09672,-7.79292 -0.64402,-3.88298 -1.47936,-7.73094 -0.83265,-3.84795 -1.85392,-7.6474 -1.02127,-3.80215 -2.22577,-7.54771 -1.2072,-3.74825 -2.59495,-7.43183 -1.38774,-3.68358 -2.95333,-7.29171 -1.56828,-3.61083 -3.30902,-7.14081 -1.74075,-3.52999 -3.65394,-6.97105 -1.9132,-3.44106 -3.99077,-6.78242 -2.08027,-3.34136 -4.31952,-6.57763 -2.23925,-3.23627 -4.63479,-6.35937 -2.39554,-3.12309 -4.94198,-6.12493 -2.54644,-3.00183 -5.2357,-5.87702 -2.68926,-2.87249 -5.51863,-5.61025 -2.82669,-2.73776 -5.78541,-5.3354 -2.95602,-2.59764 -6.0387,-5.04438 -3.08267,-2.44943 -6.28122,-4.74258 -3.19585,-2.29583 -6.50218,-4.42999 -3.30902,-2.13686 -6.71506,-4.10664 -3.40603,-1.96979 -6.90637,-3.77251 -3.50035,-1.80002 -7.08423,-3.42759 -3.58388,-1.63026 -7.2432,-3.07998 -3.65933,-1.44972 -7.38333,-2.71889 -3.7267,-1.26918 -7.50998,-2.35512 -3.78328,-1.08595 -7.61507,-1.98326 -3.83179,-0.90002 -7.70399,-1.60871 -3.87221,-0.71138 -7.77136,-1.22876 -3.90185,-0.52006 -7.82525,-0.84881 -3.92341,-0.32605 -7.8549,-0.46348 -3.93418,-0.13473 -7.87106,-0.0755 -3.93418,0.0566 -7.86297,0.30719 z"
     id="path4"
     style="stroke-width:2.69465" />
</svg>
