<?xml version="1.0" encoding="UTF-8" standalone="no"?>
<svg
   width="1024"
   height="1024"
   version="1.1"
   id="svg1"
   sodipodi:docname="crustaceos.svg"
   inkscape:version="1.3.2 (091e20e, 2023-11-25)"
   xmlns:inkscape="http://www.inkscape.org/namespaces/inkscape"
   xmlns:sodipodi="http://sodipodi.sourceforge.net/DTD/sodipodi-0.dtd"
   xmlns="http://www.w3.org/2000/svg"
   xmlns:svg="http://www.w3.org/2000/svg">
  <defs
     id="defs1" />
  <sodipodi:namedview
     id="namedview1"
     pagecolor="#ffffff"
     bordercolor="#000000"
     borderopacity="0.25"
     inkscape:showpageshadow="2"
     inkscape:pageopacity="0.0"
     inkscape:pagecheckerboard="0"
     inkscape:deskcolor="#d1d1d1"
     inkscape:zoom="0.23046875"
     inkscape:cx="321.08475"
     inkscape:cy="351.45763"
     inkscape:window-width="1392"
     inkscape:window-height="1027"
     inkscape:window-x="134"
     inkscape:window-y="25"
     inkscape:window-maximized="0"
     inkscape:current-layer="svg1" />
  <g
     id="g1"
     transform="translate(42.98981,8.4195291)">
    <path
       fill="#82c3bf"
       d="M 796.97967,186.8553 C 815.26285,131.56796 776.79453,76.495177 732.3304,46.627724 722.43498,39.980719 699.80571,34.501564 699.18235,20.095371 698.30676,-0.13499781 727.61899,1.4999347 741.07768,1.0966378 840.73347,-8.3343043 934.07161,82.221354 937.86104,181.219 c 2.33396,60.96132 -21.10423,105.36167 -61.63687,149.04298 11.87856,22.5133 16.30583,49.87138 16.52328,75.12455 0.8959,104.10916 -77.39762,189.74668 -180.32675,200.98739 -18.65429,2.03823 -37.268,1.40907 -55.98897,1.44676 -0.31603,13.65295 0.0783,27.38998 0,41.05162 l 81.44799,0.0174 c 33.52496,0.0609 29.10928,5.46234 57.07332,-10.45499 l 66.17432,-38.16098 c 8.52113,-4.93177 56.98344,-41.13281 58.04459,-8.97343 0.50739,15.41864 -45.16867,35.27905 -56.82977,42.15626 l -40.7356,23.78611 c -43.54214,25.71706 -41.9736,20.93317 -90.21556,20.93896 l -80.63038,-0.0319 c -1.91646,8.48924 -4.95496,16.14347 -8.56173,24.04705 28.80775,10.55936 72.52096,27.86836 99.64709,42.33022 20.51277,10.93628 26.10267,33.58585 36.03288,53.18242 l 21.68119,43.38848 c 3.97209,7.92387 14.05306,21.94213 12.96871,31.23159 -1.54824,13.24994 -17.91786,15.43604 -25.45612,5.99871 -7.43968,-9.30975 -12.47872,-22.19437 -17.68012,-32.8871 l -23.00329,-47.25329 c -17.27421,-35.43852 -18.13241,-28.75556 -53.2578,-43.34499 -20.90127,-8.68059 -44.02633,-20.95926 -66.2439,-24.92844 -4.57224,11.92204 -14.98954,22.4901 -23.04388,32.20286 59.44787,27.34939 62.05147,32.07239 94.15576,83.03103 6.65686,10.56806 15.93762,21.78267 20.18804,33.57424 3.75753,10.426 -18.80216,114.07126 -22.72206,120.78901 -2.6007,4.45628 -7.51506,5.39568 -12.125,6.53218 -23.64404,-5.7899 -10.71882,-32.47539 -7.09756,-50.92963 4.44178,-22.62637 8.42546,-45.38032 14.09655,-67.74285 -5.03034,-9.88672 -11.93365,-19.13269 -17.61634,-28.70627 -28.72656,-48.40143 -38.32624,-49.73802 -92.39586,-72.68042 -25.56919,20.56785 -75.46667,53.6898 -109.18588,59.35799 -28.1583,4.73171 -86.95092,-40.92115 -112.88834,-59.35799 -13.94288,4.52585 -62.12975,27.56683 -72.50935,36.62724 -7.25992,6.34084 -33.3597,56.47316 -39.81941,68.04729 6.1031,26.32882 24.73129,76.69888 26.54338,100.58937 0.87269,11.51037 -14.99244,20.57657 -24.2529,13.30507 -7.17875,-5.63924 -8.59362,-21.56816 -10.73043,-29.79067 l -11.74518,-44.98021 c -3.57488,-13.8472 -9.39094,-28.20179 -10.98267,-42.4114 3.51979,-9.88962 45.77463,-86.76537 51.08621,-91.07377 6.60467,-5.35217 17.98454,-9.06621 25.72575,-12.76865 l 43.7538,-21.41156 c -8.2109,-10.21144 -16.56098,-20.30111 -22.21757,-32.20286 -31.1533,10.84349 -77.66436,26.78981 -107.01139,41.49811 -7.22513,12.72517 -13.16876,26.46219 -19.30664,39.75562 l -19.58208,41.41404 c -4.39828,9.25466 -8.54432,26.12877 -18.6253,30.95325 -7.18744,3.43861 -17.65403,-0.0348 -20.54756,-7.67743 -4.72591,-12.49321 25.02413,-63.46634 31.19391,-76.31617 5.72617,-11.93075 17.04226,-43.84658 26.03308,-51.89222 6.29735,-5.6363 99.09042,-39.52657 113.906,-45.4528 -2.37165,-8.42546 -6.28865,-15.1461 -7.32661,-24.04705 h -45.9138 l -63.41705,-0.006 c -38.36395,0.0638 -32.4696,0.47549 -63.82007,-18.04833 L 68.682348,630.44416 C 57.54602,623.80179 33.559859,611.34337 24.789384,603.19915 14.251188,593.41681 23.786216,574.98577 37.743593,578.3055 c 11.194315,2.66448 98.577237,57.48502 114.097357,66.17142 14.717,8.237 33.42058,4.36929 49.56985,4.36349 l 82.50915,0.0319 V 604.58213 C 125.92963,631.59809 -3.6805911,480.46179 62.883687,327.33655 -38.810039,228.74482 -15.243991,64.109237 119.68157,14.176967 146.96718,4.0791791 203.94482,-6.7382229 228.64132,5.3293704 c 9.72725,4.7540326 11.75678,17.2863886 3.62706,24.7362186 -5.58121,5.117028 -15.00694,7.328057 -21.81746,10.60981 -52.8606,25.474967 -83.37896,89.622651 -67.70228,146.179901 46.27043,3.16027 95.26911,-14.00087 117.96797,-57.37196 7.21933,-13.78922 8.70959,-39.381605 30.65172,-33.232126 11.60892,3.253049 11.96554,18.631096 12.68747,28.311966 6.16108,82.79618 -35.89951,159.07177 -110.77182,197.26755 -13.60656,6.94099 -28.67728,10.22014 -42.04899,17.23072 l -1.16263,0.62335 c 24.99223,75.68123 104.43968,134.64201 176.93744,159.7995 18.64269,-32.4609 31.92743,-47.40985 64.87542,-62.43128 -34.34547,-10.06068 -35.0732,-70.39865 -5.36086,-79.98093 8.2225,-2.64999 16.62766,0.33632 18.95292,9.12999 3.80392,14.38068 -14.18932,22.14219 -10.35931,35.65307 3.58067,12.63238 23.46428,7.21063 29.23685,35.19787 h 89.56032 c 2.29627,-10.75652 5.68269,-18.52382 15.54331,-24.37467 27.2682,-16.17537 1.67871,-25.47352 2.65579,-45.10489 0.53637,-10.74202 10.98556,-11.6727 19.65746,-11.14792 28.69757,15.85933 28.44533,63.28658 -4.20403,80.62748 33.16254,14.16323 44.83814,32.29274 64.5014,62.43128 75.13615,-30.18783 146.52346,-80.64198 173.58292,-159.7995 -82.55554,-25.19808 -142.28755,-86.79435 -150.60572,-175.91397 -1.53085,-16.40731 -7.63394,-67.592099 17.55544,-68.859106 18.173,-0.916189 20.15615,22.890216 27.2943,34.910836 24.40946,41.09222 70.5726,58.9376 117.08366,57.03274 z M 761.54695,31.875351 c 48.4942,32.535416 94.11807,122.916249 58.17797,175.944999 -6.10889,9.01402 -19.31534,7.8108 -28.92082,8.29209 -51.14129,2.55721 -94.68924,-18.29478 -127.06316,-56.67611 7.62234,45.80362 25.51121,87.40611 62.03697,117.64033 34.52233,25.83593 79.60982,43.08985 123.29983,37.45065 66.31349,-56.31079 80.46222,-158.9326 22.29585,-226.385523 C 845.16074,57.745207 802.56958,31.735603 761.54695,31.875351 Z m -593.20301,0 C 81.14657,46.12585 15.910185,123.93692 30.561951,213.62191 c 6.920702,42.37372 32.672555,71.80482 61.958692,100.9054 62.915477,0.37981 70.769767,-14.84457 117.834597,-37.45065 5.87694,-7.70062 13.71963,-13.4094 20.16484,-20.56785 24.74289,-27.48275 37.38397,-55.38301 43.7567,-91.70582 -34.99202,33.3249 -66.2758,52.51557 -117.62004,51.42542 -9.85193,-0.20875 -28.26848,0.21455 -35.43273,-7.20483 C 110.42691,197.83506 107.4145,161.02226 108.2959,145.7138 112.53762,72.009912 164.67919,46.218628 168.99629,31.895066 Z M 117.34761,344.07439 c -10.02588,0.12177 -20.05177,0.0435 -30.077654,0 -35.77194,86.98861 7.167145,187.0793 94.341324,221.82777 28.37284,11.31029 58.48819,13.40941 88.70501,12.18299 7.00478,-2.75436 14.3024,-4.72591 21.52173,-6.84532 5.01874,-16.13477 11.96844,-30.57344 19.89521,-45.43831 C 238.29609,500.87888 167.17551,444.484 132.64448,374.24192 130.34531,369.5682 121.57193,345.39648 119.85263,343.85114 Z m 697.59921,0 c -22.21177,74.0663 -79.2213,126.4253 -146.07117,162.47558 -13.63265,7.3527 -28.41633,12.04672 -41.9881,19.25155 9.1039,16.4711 18.30637,33.57715 21.69279,52.28363 8.97923,-0.8495 17.741,-0.27254 26.72313,0 134.37817,0.71613 216.17408,-102.47684 176.90555,-234.01076 -11.92205,2.77176 -25.25897,1.86427 -37.2622,0 z M 397.54471,467.19156 c -18.25708,4.52295 -36.77801,33.3365 -46.29941,49.10306 -27.52044,45.58327 -47.28228,94.30362 -34.07293,148.35874 17.51776,71.67145 81.23054,127.44297 149.71563,150.75938 18.78476,-5.31737 36.20684,-13.13686 53.02005,-23.02358 110.20645,-67.70516 138.49232,-161.98269 69.80138,-272.92847 -35.98648,-58.12578 -36.82729,-52.26623 -95.81707,-52.28363 -32.10138,-0.0116 -64.25206,-0.40591 -96.34765,0.0145 z"
       id="path1"
       style="stroke-width:2.89933" />
  </g>
</svg>
