<?xml version="1.0" encoding="utf-8"?>
<!-- Generator: Adobe Illustrator 24.1.0, SVG Export Plug-In . SVG Version: 6.00 Build 0)  -->
<svg version="1.1" id="Capa_1" xmlns="http://www.w3.org/2000/svg" xmlns:xlink="http://www.w3.org/1999/xlink" x="0px" y="0px"
	 viewBox="0 0 1024 1024" style="enable-background:new 0 0 1024 1024;" xml:space="preserve">
<style type="text/css">
	.st0{fill:#82C3BF;}
</style>
<g>
	<path class="st0" d="M1017.9,745l0-390c0-67.5,18.3-176.7-75.6-189.3c-27.4-3.7-70.3-0.5-99-0.8c0.1-11.7,1.6-37.8-0.4-48
		c-2.3-11.3-15.8-18.7-24.2-7.8c-6.3,8.2-3.7,44.1-3.7,55.8H525.5c0.1-11.2,1.6-38.1-0.3-47.7c-2.1-10.8-15.8-19.3-24.3-9
		c-6.9,8.3-4.3,44.6-4.2,56.7H208c0-17.8,9.1-61.5-17.1-60.5l-0.9,0c-4,2-7.2,4-10.4,7.3c-0.8,17.6,0,35.6,0,53.2l-57.9,0
		C13.1,164.6,4.6,202.3,4.6,301.8l0,389.9c0,44.8-0.5,89.6,0,134.4c0.8,67.2,36.3,94.5,100.8,94.5l775.3,0c23.6,0,47.4-0.7,71,0
		C1036.2,888.2,1017.9,818.8,1017.9,745z M88.6,193.2h91.1v53.2c-9.6,0-25.2-2-27.3,10.8c-4.2,25.8,35.8,18.2,50.6,18.1
		c9.1-0.1,19.8,2.5,27.3-4.3c17.7-16-5.4-25-22.2-24.7v-53.2h288.7v53.2c-13.8-0.3-42.3,4.3-24.9,24.2c5.6,6.4,82.6,12.3,82.6-8.3
		c0.1-17.5-16.2-16.1-28.9-15.9v-53.2H815c-0.6,17.6,0,35.5,0,53.2c-13.9-0.4-38.1,3.7-22.8,23.2c7.8,10,56.8,6.8,67.2,4.5
		c16.1-3.6,22.2-28.7-12.5-27.7l-2.6-0.2c-2.1-3.4-1-45.8-0.9-53l55.8-0.1c14.5,0,31.2-1.6,45.3,2c47.8,12.4,45.4,53.5,45.4,91.5
		l0,58.3H33.1l0-61.6C33,242.3,32.7,198.2,88.6,193.2z M973.3,875.4c-18.8,17.9-37.6,17-62,17.1l-798.6,0c-10.4,0-21.3,0.6-31.6-0.6
		c-54-6-48.1-63.6-48.1-101.8l0-416.2h956.6l0,421.3C989.7,824.8,994.5,851.7,973.3,875.4z"/>
	<path class="st0" d="M377.2,495.4c8.9,3.3,46.7,3.1,57.7,2.2c13.2-7.3,15.8-26.1-1.9-29.9c-9-1.9-42.7-1.1-53.4-0.6
		C368.4,472.4,362.8,490,377.2,495.4z"/>
	<path class="st0" d="M642.3,468.4c-8.4-0.8-43.2-0.6-51.1,0.4c-10.2,0.9-16.1,7.5-14.2,18.3c2.6,14.7,50.7,12.2,64.6,10.5
		C659.5,493.6,659.7,470.1,642.3,468.4z"/>
	<path class="st0" d="M853.3,472.2c-9.1-6-45.5-3.4-58.2-3.4c-11.7,1.8-23.1,16.3-10.3,25.2c8.3,5.8,46.1,3.5,58.4,3.6
		C859.1,495,865,479.9,853.3,472.2z"/>
	<path class="st0" d="M176.8,497.1c4.9,1.3,51.3,1,58.2,0.5c8.5-5.2,13.4-13.1,7.3-22.3c-8-12.3-53.1-6.2-66.6-6.5
		C162.2,475.3,159.8,492.6,176.8,497.1z"/>
	<path class="st0" d="M430.1,647.2c12.3-1.5,22.7-16.4,10.5-25.8c-7.8-5.9-43.6-3.5-55.4-3.5c-4.8,0.3-9.1,0.7-12.3,4.6
		C347.3,653.6,418.3,647.2,430.1,647.2z"/>
	<path class="st0" d="M648.6,620.5c-8.2-5.1-45.8-2.6-57.4-2.6c-17.1,1.8-29.5,29.6,18.5,29.5l31.9-0.2
		C654.1,644.7,661,628.3,648.6,620.5z"/>
	<path class="st0" d="M846.8,647.2c16.4-5.1,14-21.3,2.1-29.3c-18.7,0-37.4-0.3-56.1,0c-8.8,1.4-14.2,7.4-12.8,16.5
		C782.7,653,830.3,647.8,846.8,647.2z"/>
	<path class="st0" d="M176.5,646.4c6.2,1.4,51.1,1.5,58.5,0.7c12.6-7.3,15.1-25.8-1.5-28.7c-11.9-2-43.8-0.6-57.7-0.6
		C163.3,624.4,159.5,642.4,176.5,646.4z"/>
	<path class="st0" d="M237.6,767.9c-9-4.5-45.4-2.2-57.9-2.2c-18.9,1.1-19.9,25.3-0.4,28.7c11.5,2,38.9,0.5,51.9,0.4
		C244.6,791.4,252.6,775.4,237.6,767.9z"/>
	<path class="st0" d="M385.3,765.7c-15.4,0.6-23.3,16.4-11.9,25.5c8.1,6.4,44.7,3.5,56.8,3.6c8.9-0.4,18.2-7.6,16.5-17.7
		C443.9,760.8,400.2,764.7,385.3,765.7z"/>
	<path class="st0" d="M646.5,765.7c-18.4-1-39.5-0.5-58,0c-12.4,4-18.1,21-3.8,27.2c8.4,3.6,46,2.4,57,1.9
		C656.9,789,659.2,777,646.5,765.7z"/>
	<path class="st0" d="M850,767.1c-10.6-3.2-44.4-1.4-57.3-1.4c-12.7,2.5-20.3,18.6-6.7,26.1c9.3,5.1,48.3,3.3,60.7,2.9
		C858.7,789.5,866.5,772,850,767.1z"/>
</g>
</svg>
