<?xml version="1.0" encoding="UTF-8" standalone="no"?>
<svg
   width="1024"
   height="1024"
   version="1.1"
   id="svg9"
   sodipodi:docname="frutosconcascara.svg"
   inkscape:version="1.3.2 (091e20e, 2023-11-25)"
   xmlns:inkscape="http://www.inkscape.org/namespaces/inkscape"
   xmlns:sodipodi="http://sodipodi.sourceforge.net/DTD/sodipodi-0.dtd"
   xmlns="http://www.w3.org/2000/svg"
   xmlns:svg="http://www.w3.org/2000/svg">
  <defs
     id="defs9" />
  <sodipodi:namedview
     id="namedview9"
     pagecolor="#ffffff"
     bordercolor="#000000"
     borderopacity="0.25"
     inkscape:showpageshadow="2"
     inkscape:pageopacity="0.0"
     inkscape:pagecheckerboard="0"
     inkscape:deskcolor="#d1d1d1"
     inkscape:zoom="0.23046875"
     inkscape:cx="357.9661"
     inkscape:cy="299.38983"
     inkscape:window-width="1392"
     inkscape:window-height="1027"
     inkscape:window-x="278"
     inkscape:window-y="115"
     inkscape:window-maximized="0"
     inkscape:current-layer="svg9" />
  <g
     id="g1"
     transform="matrix(1.3755014,0,0,1.3755014,19.281215,103.81176)">
    <path
       fill="#82c3bf"
       d="m 252.038,431.05135 c -10.11,2.942 -19.346,7.802 -29.73,10.28 -107.514,25.668 -189.426805,-57.258 -212.717605,-156.606 -16.7574,-71.478 -9.47039998,-138.102 5.8834,-209.018004 4.8208,-22.266 11.5412,-69.4160004 38.7062,-75.62000042 13.606,-0.88 26.814,5.05200002 39.028,10.47200042 C 178.67,48.475346 282.292,130.40935 317.046,220.72735 c 59.24,-65.392 138.914,-93.814 226.534,-69.136 100.208,28.226 167.394,137.942 150.76,240.188 -2.374,14.588 -6.992,27.832 -10.97,41.97 11.442,20.15 34.838,50.556 32.942,74.422 -1.122,14.11 -21.106,28.588 -31.306,36.976 -88.756,67.58 -196.282,56.824 -294.204,13.648 -38.212,-16.85 -128.456,-69.798 -140.604,-101.816 -3.476,-9.154 -2.054,-17.258 1.84,-25.928 z M 56.885995,19.895346 c -21.187,19.622 -35.5594,135.070004 -36.796,166.718004 -2.5002,64 11.2148,140.104 56.168,188.582 39.680005,42.792 89.614005,58.846 145.634005,45.414 -27.608,-108.888 -66.868,-209.232 -129.204005,-303.836 -4.728,-7.176 -24.166,-29.376004 -5.472,-33.376004 6.882,-1.472 11.05,6.1 14.402005,10.74 58.348,83.364004 105.464,191.650004 131.558,289.036004 2.57,9.596 4.626,19.478 7.488,28.976 33.62,-22.284 53.612,-64.268 61.42,-102.916 24.422,-120.878 -105.166,-224.334004 -199.88,-271.668004 -13.420005,-6.706 -30.030005,-16.906 -45.318005,-17.67 z M 473.054,163.02535 c -63.996,5.89 -107.07,29.418 -148.998,80.158 l -1.412,1.734 c 9.112,52.198 -4.884,105.456 -35.212,148.622 l -7.074,9.902 c 5.2,-3.202 9.75,-7.3 14.55,-11.046 55.736,-43.486 126.854,-78.878 198.942,-74.886 70.578,8.05 128.542,40.23 173.398,96.512 l 0.96,1.212 c 16.154,-45.98 8.194,-99.35 -12.584,-142.566 -35.458,-73.75 -102.82,-111.056 -182.57,-109.642 z m -4.898,174.954 c -59.824,5.846 -121.68,38.264 -167.608,75.762 -6.552,5.348 -33.106,25.496 -32.256,34.88 1.052,11.6 55.908,48.936 67.384,56.53 49.44,32.714 106.004,57.282 164.926,66.182 57.81,8.84 122.388,-5.492 169.748,-40.37 8.814,-6.49 20.516,-14.886 26.14,-24.28 -4.728,-32.404 -37.886,-75.26 -60.352,-97.9 -44.278,-44.622 -104.164,-73.77 -167.982,-70.804 z"
       id="path1"
       style="stroke-width:2" />
    <path
       fill="#82c3bf"
       d="m 257.974,272.92335 c -10.966,1.29 -13.158,-5.784 -14.466,-15.382 -5.27,-38.646 -28.364,-74.972 -54.246,-103.53 -7.45,-8.222 -19.82,-18.4 -4.688,-26.952 23.962,-2.242 103.932,131.004 73.4,145.864 z"
       id="path2"
       style="stroke-width:2" />
    <path
       fill="#82c3bf"
       d="m 163.992,379.06135 c -9.836,-0.116 -24.162,-13.728 -31.048,-19.776 -38.818005,-34.096 -61.410005,-81.592 -73.276005,-131.164 -3.172,-13.248 -15.2704,-51.584 2.126,-55.528 11.066,0.698 10.558,8.932 11.494,17.396 6.738,60.924 33.048005,123.144 82.290005,161.51 6.938,5.406 30.796,20.242 8.414,27.562 z"
       id="path3"
       style="stroke-width:2" />
    <path
       fill="#82c3bf"
       d="m 527.676,232.53935 c -12.176,-0.742 -39.486,-27.138 -15.3,-30.488 13.448,-0.516 38.908,23.84 15.3,30.488 z"
       id="path4"
       style="stroke-width:2" />
    <path
       fill="#82c3bf"
       d="m 445.296,232.53935 c -11.606,0.656 -38.644,-22.698 -18.81,-30.488 13.366,-0.684 37.118,18.634 18.81,30.488 z"
       id="path5"
       style="stroke-width:2" />
    <path
       fill="#82c3bf"
       d="m 615.102,288.66135 c -12.822,-0.082 -36.87,-23.582 -14.846,-29.12 12.89,0.194 36.27,22.056 14.846,29.12 z"
       id="path6"
       style="stroke-width:2" />
    <path
       fill="#82c3bf"
       d="m 533.126,291.04535 c -12.722,2.044 -36.548,-21.548 -18.212,-29.434 13.224,-1.934 37.084,20.874 18.212,29.434 z"
       id="path7"
       style="stroke-width:2" />
    <path
       fill="#82c3bf"
       d="m 433.856,431.05135 c -21.732,3.044 -43.222,7.27 -64.126,14.01 -5.068,1.634 -10.8,4.24 -16.084,4.812 -8.744,0.946 -14.354,-10.43 -8.17,-16.81 15.018,-15.484 121.38,-26.36 143.99,-26.656 10.336,-0.778 117.662,0.374 95.702,27.32 -5.772,7.08 -19.312,0.416 -26.232,-1.262 -39.222,-9.508 -85.548,-6.132 -125.08,-1.414 z"
       id="path8"
       style="stroke-width:2" />
    <path
       fill="#82c3bf"
       d="m 403.086,510.91535 c -6.876,-1.464 -14.208,-7.694 -10.042,-15.496 4.428,-8.29 18.754,-3.282 25.894,-1.986 66.328,12.04 134.792,11.354 199.106,-10.442 3.556,-0.238 6.638,1.186 8.754,4.126 11.562,16.062 -24.026,21.842 -32.706,24.03 -62.632,15.788 -128.124,12.544 -191.006,-0.232 z"
       id="path9"
       style="stroke-width:2" />
  </g>
</svg>
