<?xml version="1.0" encoding="utf-8"?>
<!-- Generator: Adobe Illustrator 24.1.0, SVG Export Plug-In . SVG Version: 6.00 Build 0)  -->
<svg version="1.1"
	 id="svg1" inkscape:version="1.3.2 (091e20e, 2023-11-25)" sodipodi:docname="dumbbell.svg" xmlns:inkscape="http://www.inkscape.org/namespaces/inkscape" xmlns:sodipodi="http://sodipodi.sourceforge.net/DTD/sodipodi-0.dtd" xmlns:svg="http://www.w3.org/2000/svg"
	 xmlns="http://www.w3.org/2000/svg" xmlns:xlink="http://www.w3.org/1999/xlink" x="0px" y="0px" viewBox="0 0 1024 1024"
	 style="enable-background:new 0 0 1024 1024;" xml:space="preserve">
<style type="text/css">
	.st0{fill:#82C3BF;}
</style>
<sodipodi:namedview  bordercolor="#000000" borderopacity="0.25" id="namedview1" inkscape:current-layer="svg1" inkscape:cx="512" inkscape:cy="512" inkscape:deskcolor="#d1d1d1" inkscape:pagecheckerboard="0" inkscape:pageopacity="0.0" inkscape:showpageshadow="2" inkscape:window-height="1027" inkscape:window-maximized="0" inkscape:window-width="1392" inkscape:window-x="824" inkscape:window-y="25" inkscape:zoom="0.23046875" pagecolor="#ffffff">
	</sodipodi:namedview>
<g>
	<path id="path1" class="st0" d="M177.3,336.8c2.5-34.7,15.2-60.2,53.7-60.9l27.6-0.1c62.5-0.1,59.9,42.3,59.9,90.2l0,91.1h386.9
		l0-91.1c-0.1-63.4-1.9-90.1,71.9-90.2c46.6-0.1,64.8,12.9,68.1,61c8.1-4.4,15.1-6.8,24.5-6.9c52.8-0.7,83.5,2,83.6,63.6l0,26.6
		c28.4-7.5,61.1,0.5,66.8,34.2c2.5,14.9,0.9,37.1,0.9,52.7c0.1,60.2,9.9,107.6-67.7,98.6c0.1,32.1,6.4,72.2-29.8,87.7
		c-19.9,8.5-56.9,6.6-78.3-2.1c-2.9,32.5-12,50.9-47,56.9l-36.1,0.2c-59.6,0.2-56.9-47.4-56.9-91.3l0-87.1H318.4l0,88.7
		c0,55,3.1,89.7-70.3,89.7c-43,0-65.5-11.1-70.8-57c-13.4,6.9-27.3,6.6-42,6.7C87.7,697.9,69.1,679.8,69,632l0-26.4
		c-9.9,2.5-20.1,3.8-30.2,1.4c-44.2-10.6-36-56-35.9-90.2c0.1-18-1-36.4,0-54.4c2.1-38,32.4-51.5,66.1-42.3
		c-0.8-34.3-3.8-75.7,36.6-87.7C123.3,327.2,159.6,327.1,177.3,336.8L177.3,336.8z M227.2,304.4c-25.6,3.8-20.3,33.4-20.3,52.2
		L206.9,663c-0.1,64.3,4.2,57.5,62.3,56.8c12.9-3.2,19.3-12,19.9-24.9c1.2-28.1,0.2-56.8,0.2-84.9l0-247.3
		C289.2,302.4,294.1,304,227.2,304.4L227.2,304.4z M756.4,304.4c-15.6,1.3-21,10.1-21.9,24.9c-1.5,25.2-0.3,53.5-0.3,79l0,244.9
		c0,61.8-9.1,66.9,60,66.7c26.1-3.1,21.2-31.1,21.2-50l0-304.2C815.4,299.6,821,304.3,756.4,304.4L756.4,304.4z M867.1,358.9
		c-31.6,5.1-21.7,56.8-21.7,81.4l0,173.3c0,57.5,4.1,55.7,58.1,55.4c31.3-5.6,21-57.3,21-83l0-176c0-19.1,6.2-48.5-20.5-51.6
		C900.4,358.1,870.3,358.3,867.1,358.9z M118.5,358.9C88,365,98.1,419,98.1,444.2l0,173.8c0,50.6,4,55.9,60.8,51
		c26.5-10.6,18.4-52.4,18.4-76.9l0-167.3C177.3,366.8,186,357.6,118.5,358.9L118.5,358.9z M969.6,445.7
		c-23.5,5.3-16.2,37.2-16.2,56.5l0,35.4c0,17.6-3.1,44.7,23.6,41.6c11.1-3.8,14.7-9.6,15.3-20.7c1.4-26.7,1.8-66.6,0.4-93.5
		C992,452,983.5,443.5,969.6,445.7L969.6,445.7z M44.8,445.7c-9.3,3.8-12.4,7.9-13,17.6c-0.7,13.1-1.1,98.7,1.5,105.4
		c3.6,9.2,13,11.9,21.9,10.4c5.3-2,9.9-4.8,12.4-10.1c2.6-5.6,1.9-91,1.3-102.4C68,450.8,60.4,444.2,44.8,445.7z M318.4,486v54.7
		h386.9V486L318.4,486z"/>
</g>
</svg>
