<?xml version="1.0" encoding="utf-8"?>
<!-- Generator: Adobe Illustrator 24.1.0, SVG Export Plug-In . SVG Version: 6.00 Build 0)  -->
<svg version="1.1"
	 id="svg1" inkscape:version="1.3.2 (091e20e, 2023-11-25)" sodipodi:docname="male-pictogram.svg" xmlns:inkscape="http://www.inkscape.org/namespaces/inkscape" xmlns:sodipodi="http://sodipodi.sourceforge.net/DTD/sodipodi-0.dtd" xmlns:svg="http://www.w3.org/2000/svg"
	 xmlns="http://www.w3.org/2000/svg" xmlns:xlink="http://www.w3.org/1999/xlink" x="0px" y="0px" viewBox="0 0 1024 1024"
	 style="enable-background:new 0 0 1024 1024;" xml:space="preserve">
<style type="text/css">
	.st0{fill:#82C3BF;}
</style>
<sodipodi:namedview  bordercolor="#000000" borderopacity="0.25" id="namedview1" inkscape:current-layer="svg1" inkscape:cx="360.13559" inkscape:cy="399.18644" inkscape:deskcolor="#d1d1d1" inkscape:pagecheckerboard="0" inkscape:pageopacity="0.0" inkscape:showpageshadow="2" inkscape:window-height="1027" inkscape:window-maximized="0" inkscape:window-width="1392" inkscape:window-x="0" inkscape:window-y="25" inkscape:zoom="0.23046875" pagecolor="#ffffff">
	</sodipodi:namedview>
<g>
	<path id="path1" class="st0" d="M418.5,333.9c-48.7-27.4-79.3-86.6-81.2-141.3C333.8,94.7,405.8,12.7,505,9.4
		c17.4-2.1,37,1.2,54,5.5c148.3,37.3,176.3,241,44.2,319.1c71.9,47.6,153.6,58.9,230.9,11.2c21.4-13.2,40.6-33.8,66.1-38.2
		c37.6-6.4,73.4,20.4,79.3,57.9c7.1,44.5-19.9,60.7-50.8,83.4C847,508.1,790,522.3,695.4,536v170l0.7,0.6
		c8.9,7.8,17.3,16.6,25.8,24.9l47.5,47.2c17.3,17.1,47.5,42.8,59.8,61.5c54.2,82.1-39.2,182.9-118.1,137.3
		c-19.9-11.5-35.8-31.6-52-47.7l-48.5-47.5c-11.2-11.1-22.2-22.5-33.8-33.2c-23.5-25.2-49.4-48.1-73.4-72.8l0,98.2
		c0,20.8,2.1,50.6-2.9,70.2c-24.9,97.6-165.2,91.3-183.1-0.6c-3.7-19.1-2.5-39.4-2.5-58.8l0-351.7c-9.2-1.8-18.7-2.7-28-4.1
		c-73.6-11.2-129.5-39.4-190.1-81.2c-33.3-23-59.5-39.7-52.1-86.1c4.8-30.1,31-52.7,60.7-56.2c37.7-4.5,55,20,84.1,37.4
		C261.9,386.6,349,384.2,418.5,333.9L418.5,333.9z M507.3,36.6c-2.4,0.1-4.8,0.2-7.3,0.4c-2.4,0.2-4.8,0.5-7.2,0.8
		c-2.4,0.3-4.8,0.7-7.2,1.1c-2.4,0.4-4.8,0.9-7.1,1.5c-2.4,0.6-4.7,1.2-7,1.8c-2.3,0.7-4.6,1.4-6.9,2.2c-2.3,0.8-4.6,1.6-6.8,2.5
		c-2.3,0.9-4.5,1.9-6.7,2.9c-2.2,1-4.4,2.1-6.5,3.2c-2.2,1.1-4.3,2.3-6.4,3.5c-2.1,1.2-4.2,2.5-6.2,3.8c-2,1.3-4,2.7-6,4.1
		c-2,1.4-3.9,2.9-5.8,4.4c-1.9,1.5-3.7,3.1-5.6,4.7c-1.8,1.6-3.6,3.3-5.3,5c-1.7,1.7-3.4,3.4-5.1,5.2c-1.6,1.8-3.3,3.6-4.8,5.5
		c-1.6,1.9-3.1,3.7-4.5,5.7c-1.5,1.9-2.9,3.9-4.3,5.9c-1.4,2-2.7,4-4,6.1c-1.3,2.1-2.5,4.2-3.7,6.3c-1.2,2.1-2.3,4.3-3.3,6.5
		c-1.1,2.2-2.1,4.4-3,6.6c-1,2.2-1.8,4.5-2.7,6.8c-0.8,2.3-1.6,4.6-2.4,6.9c-0.7,2.3-1.4,4.6-2,7c-0.6,2.3-1.2,4.7-1.7,7.1
		c-0.5,2.4-0.9,4.8-1.3,7.2c-0.4,2.4-0.7,4.8-1,7.2c-0.3,2.4-0.5,4.8-0.6,7.2c-0.1,2.4-0.2,4.8-0.2,7.3c0,2.4,0,4.8,0.1,7.3
		c0.1,2.4,0.3,4.8,0.5,7.3c0.2,2.4,0.5,4.8,0.8,7.2c0.3,2.4,0.7,4.8,1.2,7.2c0.5,2.4,1,4.8,1.5,7.1c0.6,2.4,1.2,4.7,1.9,7
		c0.7,2.3,1.4,4.6,2.2,6.9c0.8,2.3,1.7,4.6,2.6,6.8c0.9,2.2,1.9,4.5,2.9,6.7c1,2.2,2.1,4.4,3.2,6.5c1.1,2.1,2.3,4.3,3.5,6.4
		c1.2,2.1,2.5,4.1,3.8,6.2c1.3,2,2.7,4,4.1,6c1.4,2,2.9,3.9,4.4,5.8c1.5,1.9,3.1,3.7,4.7,5.5c1.6,1.8,3.3,3.6,5,5.3
		c1.7,1.7,3.4,3.4,5.2,5c1.8,1.6,3.6,3.2,5.5,4.8c1.9,1.5,3.8,3.1,5.7,4.5c1.9,1.5,3.9,2.9,5.9,4.2c2,1.4,4,2.7,6.1,3.9
		c2.1,1.3,4.2,2.5,6.3,3.6c2.1,1.2,4.3,2.3,6.5,3.3c2.2,1,4.4,2,6.6,3c2.2,0.9,4.5,1.8,6.8,2.7s4.6,1.6,6.9,2.3c2.3,0.7,4.6,1.4,7,2
		c2.3,0.6,4.7,1.1,7.1,1.6c2.4,0.5,4.8,0.9,7.2,1.3c2.4,0.4,4.8,0.7,7.2,0.9c2.4,0.2,4.8,0.4,7.2,0.6c2.4,0.1,4.8,0.2,7.3,0.2
		c2.4,0,4.8,0,7.3-0.1c2.4-0.1,4.8-0.3,7.2-0.5c2.4-0.2,4.8-0.5,7.2-0.9c2.4-0.3,4.8-0.7,7.1-1.2c2.4-0.5,4.7-1,7.1-1.5
		c2.3-0.6,4.7-1.2,7-1.9c2.3-0.7,4.6-1.4,6.9-2.2c2.3-0.8,4.5-1.7,6.8-2.6c2.2-0.9,4.4-1.9,6.6-2.9c2.2-1,4.3-2.1,6.5-3.2
		c2.1-1.1,4.2-2.3,6.3-3.5c2.1-1.2,4.1-2.5,6.1-3.8c2-1.3,4-2.7,5.9-4.1c1.9-1.4,3.9-2.9,5.7-4.4c1.9-1.5,3.7-3.1,5.5-4.7
		c1.8-1.6,3.5-3.3,5.3-4.9s3.4-3.4,5-5.2c1.6-1.8,3.2-3.6,4.8-5.4c1.5-1.9,3-3.7,4.5-5.7c1.4-1.9,2.9-3.9,4.2-5.9
		c1.4-2,2.7-4,3.9-6.1c1.3-2.1,2.5-4.1,3.6-6.3c1.2-2.1,2.3-4.3,3.3-6.4c1-2.2,2-4.4,3-6.6c0.9-2.2,1.8-4.5,2.7-6.7
		c0.8-2.3,1.6-4.5,2.3-6.8c0.7-2.3,1.4-4.6,2-6.9c0.6-2.3,1.2-4.7,1.6-7c0.5-2.4,0.9-4.7,1.3-7.1c0.4-2.4,0.7-4.8,0.9-7.2
		c0.3-2.4,0.5-4.8,0.6-7.2c0.1-2.4,0.2-4.8,0.2-7.2c0-2.4,0-4.8-0.1-7.2c-0.1-2.4-0.3-4.8-0.5-7.2c-0.2-2.4-0.5-4.8-0.8-7.2
		c-0.3-2.4-0.7-4.8-1.2-7.1c-0.4-2.4-1-4.7-1.5-7.1c-0.6-2.3-1.2-4.7-1.9-7c-0.7-2.3-1.4-4.6-2.2-6.9c-0.8-2.3-1.6-4.5-2.5-6.8
		s-1.9-4.4-2.9-6.6c-1-2.2-2.1-4.4-3.2-6.5c-1.1-2.1-2.3-4.2-3.5-6.3c-1.2-2.1-2.5-4.1-3.8-6.1c-1.3-2-2.7-4-4.1-6s-2.9-3.9-4.4-5.7
		c-1.5-1.9-3.1-3.7-4.7-5.5c-1.6-1.8-3.2-3.6-4.9-5.3c-1.7-1.7-3.4-3.4-5.2-5c-1.8-1.6-3.6-3.2-5.4-4.8c-1.8-1.6-3.7-3.1-5.6-4.5
		c-1.9-1.5-3.9-2.9-5.9-4.2c-2-1.4-4-2.7-6.1-3.9c-2.1-1.3-4.1-2.5-6.2-3.6c-2.1-1.2-4.2-2.3-6.4-3.3c-2.2-1.1-4.4-2.1-6.6-3
		c-2.2-1-4.4-1.8-6.7-2.7c-2.3-0.8-4.5-1.6-6.8-2.4c-2.3-0.7-4.6-1.4-6.9-2c-2.3-0.6-4.7-1.2-7-1.7c-2.4-0.5-4.7-0.9-7.1-1.3
		c-2.4-0.4-4.8-0.7-7.2-1c-2.4-0.3-4.8-0.5-7.2-0.6c-2.4-0.2-4.8-0.2-7.2-0.3C512.1,36.5,509.7,36.6,507.3,36.6L507.3,36.6z
		 M106.4,333.9c-31.9,7.8-47.6,43-24.3,67.5c5.8,6.1,13.6,10.2,20.4,15.1c63.6,44.7,120.8,77.8,201.1,86.1c13.6,1.4,32-2.8,39.6,11
		l0,376.9c0,14.1-1.4,29.1,0.8,43.1c11.4,70.8,113.1,71.7,129,3.4c3.9-16.9,2-45.2,2-63.5l0-100c0-15.7-3.5-66.2,26.9-37.2
		c67.2,64,132.2,130.3,198.4,195.3c16,15.7,28.9,28.8,53.2,28.3c56.1-1.1,82.4-70.5,47-110.8c-11.2-13.2-24.9-25-37.2-37.2
		c-14.1-14-89.5-84.9-96.1-96.7l-0.1-0.9c-2.2-20.8,0.1-55.3,0.1-77.3l0-71.7c0-13-0.8-26.5,0.1-39.5c1.6-22.4,22.9-17.4,39.4-18.9
		c75.6-6.9,150.2-39.4,210.1-85c17.8-13.6,37.2-22.4,35.6-48.2c-1.3-21.4-21.4-41.4-43.5-39.6c-16,1.3-29.2,14.3-41.5,23.3
		c-92.9,67.8-202.6,58.7-290.8-9.1c-63.1,23.5-76.3,8.9-130.4,0c-10.2,7.1-19.6,15-30.3,21.4c-80.2,48.2-178.1,42.4-254.1-10.2
		C143.2,346.4,130.7,332,106.4,333.9L106.4,333.9z"/>
</g>
</svg>
