<?xml version="1.0" encoding="UTF-8" standalone="no"?>
<svg
   width="1024"
   height="1024"
   version="1.1"
   id="svg1"
   sodipodi:docname="huevos.svg"
   inkscape:version="1.3.2 (091e20e, 2023-11-25)"
   xmlns:inkscape="http://www.inkscape.org/namespaces/inkscape"
   xmlns:sodipodi="http://sodipodi.sourceforge.net/DTD/sodipodi-0.dtd"
   xmlns="http://www.w3.org/2000/svg"
   xmlns:svg="http://www.w3.org/2000/svg">
  <defs
     id="defs1" />
  <sodipodi:namedview
     id="namedview1"
     pagecolor="#ffffff"
     bordercolor="#000000"
     borderopacity="0.25"
     inkscape:showpageshadow="2"
     inkscape:pageopacity="0.0"
     inkscape:pagecheckerboard="0"
     inkscape:deskcolor="#d1d1d1"
     inkscape:zoom="0.23046875"
     inkscape:cx="410.0339"
     inkscape:cy="212.61017"
     inkscape:window-width="1392"
     inkscape:window-height="1027"
     inkscape:window-x="667"
     inkscape:window-y="25"
     inkscape:window-maximized="0"
     inkscape:current-layer="svg1" />
  <path
     fill="#82c3bf"
     d="m 45.913005,531.08629 c -0.183349,-80.62166 14.239622,-160.82021 70.920735,-222.67395 21.34917,-23.29846 49.93531,-41.83875 82.32204,-43.2516 81.02746,-12.6167 146.61994,96.76679 159.78842,162.66856 15.28157,-63.6328 57.19949,-139.55073 123.35612,-159.14261 94.99268,-28.12839 159.83543,76.44744 182.25797,153.90194 26.39634,-108.87872 136.45531,-222.13208 239.79644,-116.67786 57.20197,58.36986 76.2198,147.08759 75.47255,226.26671 13.77469,-0.0816 45.88182,-4.57754 40.90842,19.243 -2.9519,14.13842 -12.7355,35.95227 -17.8351,50.26637 l -40.61892,115.39862 c -16.30843,43.25655 -44.08793,42.40042 -82.23494,42.39795 l -110.71963,0.0223 c -39.28274,0.21774 -57.63993,0.0965 -78.62734,-40.80199 -3.51852,-6.85395 -10.72877,-26.63141 -19.89128,-27.5098 -17.42436,4.27567 -22.83823,60.12665 -66.80244,67.7996 -8.7963,1.53657 -18.66895,0.55178 -27.59639,0.52951 l -118.2466,-0.0322 c -39.3446,0.0693 -62.3016,3.135 -84.79341,-38.82746 -12.50288,-23.3232 -17.266,-45.09746 -35.62319,-10.48134 -28.5985,53.92841 -44.11761,49.42262 -96.00963,49.26921 l -72.01094,0.002 c -16.11047,-0.0272 -50.46704,1.96958 -64.60818,-0.77695 C 67.863684,751.44426 62.229842,719.96314 51.80121,690.21158 39.517806,655.1674 26.941935,620.29395 15.129647,585.08646 -1.8758009,534.40439 -9.147908,530.88092 45.913005,531.08629 Z M 206.15324,292.53197 c -25.67878,-0.0198 -46.94827,12.14163 -64.72893,29.91239 C 87.970232,375.8581 73.488618,455.59148 73.55988,528.17894 l 0.0089,2.90735 h 139.64625 c 43.45944,-0.047 87.49045,-1.49945 130.85587,1.09119 0.51219,-68.46519 -17.24868,-155.681 -67.40123,-206.49915 -17.19672,-17.42435 -44.50856,-37.17954 -70.51643,-33.14636 z m 605.35407,0 c -98.58295,9.58068 -135.31464,158.76404 -132.59286,239.64551 47.43077,0.51961 94.93082,-0.005 142.37148,0 h 131.35074 c 0.0445,-72.77303 -15.71953,-154.85456 -69.00708,-208.25098 -18.49327,-18.53039 -44.96137,-34.36869 -72.12228,-31.39453 z m -307.70738,0 C 406.13001,310.88421 371.96669,445.40459 372.4962,532.17748 H 520.80859 651.52342 C 651.89458,447.16632 613.37641,289.32769 503.79993,292.53197 Z M 34.635424,559.46706 c 13.650728,32.5253 25.881922,73.28028 37.405206,107.52772 6.882398,20.45543 14.42124,63.93219 42.53973,65.28566 8.62532,0.41569 17.43895,0.0173 26.0868,0.0198 l 106.20889,0.0148 c 11.4785,-0.002 31.23864,2.33826 41.9105,-2.32094 27.75723,-12.11688 30.33055,-81.09921 75.24986,-64.42953 31.62216,11.73583 25.53526,63.67486 63.83074,66.555 10.4269,0.78437 21.22248,0.23259 31.68897,0.20537 l 111.76628,-0.002 c 8.81857,0.005 17.97366,0.64827 26.74522,0.094 35.06645,-2.20959 31.60979,-58.83256 64.07818,-67.86888 43.212,-12.02533 46.96311,58.62967 75.12119,66.89151 8.67506,2.54611 30.13013,0.8784 40.04731,0.87345 l 74.28239,-0.007 36.57333,0.0569 c 18.93123,0.094 35.33863,2.88015 44.9391,-17.46394 19.77004,-41.88576 41.73977,-111.03387 56.02665,-155.43109 l -928.836414,-0.0346 c -8.269269,-0.0173 -17.548567,-1.05407 -25.663932,0.0346 z"
     id="path1"
     style="stroke-width:2.47435" />
</svg>
