<?xml version="1.0" encoding="utf-8"?>
<!-- Generator: Adobe Illustrator 24.1.0, SVG Export Plug-In . SVG Version: 6.00 Build 0)  -->
<svg version="1.1" id="Capa_1" xmlns="http://www.w3.org/2000/svg" xmlns:xlink="http://www.w3.org/1999/xlink" x="0px" y="0px"
	 viewBox="0 0 1024 1024" style="enable-background:new 0 0 1024 1024;" xml:space="preserve">
<style type="text/css">
	.st0{fill:#82C3BF;}
</style>
<g>
	<path class="st0" d="M351.1,431.2c-10.7-15.3-20-31.6-30-47.4L133.8,81.7c-6.3-10.2-21.9-30.1-22.5-42.3
		C110,15.6,125.8,5.6,147.7,5.7l98.1,0c58.4,0,56.5-11.3,87.1,37.4c14.1,22.4,27.4,45.2,41.4,67.6l52.7,85.6
		c22.9,36.6,46.5,73.1,67.7,110.8h35.9l0.5-1c9.7-18.6,21.9-36.4,32.7-54.3l66.1-108.8c20.2-32.8,40.1-65.7,60.8-98.1
		c27.7-43.4,16.7-39.2,67.6-39.1l98.2,0c21.5,0,49.5-2.6,55.7,24.5c4.2,18.7-13.3,36.9-22.2,51.6L674.2,431.2
		c73.8,42.1,131.6,123.5,148.8,206c2.3,11,3.8,22.1,6.3,33.1c-1,12.4,0.4,25,0.2,37.4c-4.1,212.1-214.1,362.1-414.8,296
		c-167.9-55.3-257.9-235-202.5-402.7C234.3,534,286.6,463.7,351.1,431.2z M147.7,39.5c23.9,36.5,45.8,74.4,68.7,111.6l140.1,224.7
		c8.6,13.4,16.2,27.8,26.5,40c0.3-21.4-2.3-51.1,2.1-71.3c11.6-33.6,37.9-39,69.9-37.4c-11.4-22.7-27.2-44-40.5-65.7l-94-152.8
		c-10-16.4-20.6-32.4-30.3-49C242.8,38.4,195.1,39.5,147.7,39.5z M732.8,39.5c-9.6,21.3-26.2,43.3-38.6,63.6L584.8,282.4
		c-5,8.1-10.5,16.2-14.7,24.7c51.7-0.4,70.4,16.4,70.6,68.6l0.1,30c0,3.4,0,6.7-0.1,10.1c10.7-10.7,21.1-31,29.4-44.2
		c46.3-72.8,90.9-146.8,136.2-220.3L852,77.7c8-12.7,16.3-25.2,23.8-38.2H732.8z M433.5,340.1c-24.3,7.7-15.7,39.6-15.9,61.1
		c54.9-17.5,110.2-18.1,166.3-6.3c7.6,2.1,15.4,4,22.9,6.3c0.1-15.3,7.5-55.1-14.5-59.5C564.9,336.3,463.7,338.9,433.5,340.1z
		 M490.3,420.1c-4.6,0.4-9.2,0.8-13.8,1.4c-4.6,0.6-9.2,1.3-13.7,2.1c-4.6,0.8-9.1,1.7-13.6,2.8c-4.5,1-9,2.2-13.4,3.4
		c-4.5,1.2-8.9,2.6-13.3,4.1c-4.4,1.5-8.7,3-13,4.7c-4.3,1.7-8.6,3.5-12.8,5.3c-4.2,1.9-8.4,3.9-12.5,6c-4.1,2.1-8.2,4.3-12.2,6.6
		c-4,2.3-8,4.7-11.9,7.2c-3.9,2.5-7.7,5.1-11.5,7.7c-3.8,2.7-7.5,5.4-11.1,8.3c-3.6,2.9-7.2,5.8-10.7,8.8c-3.5,3-6.9,6.1-10.2,9.3
		c-3.3,3.2-6.6,6.5-9.8,9.8c-3.2,3.4-6.3,6.8-9.3,10.3c-3,3.5-5.9,7.1-8.8,10.7s-5.6,7.4-8.2,11.2c-2.6,3.8-5.2,7.6-7.7,11.6
		c-2.5,3.9-4.8,7.9-7.1,11.9c-2.3,4-4.4,8.1-6.5,12.2c-2.1,4.1-4,8.3-5.9,12.6c-1.9,4.2-3.6,8.5-5.3,12.8c-1.6,4.3-3.2,8.7-4.6,13.1
		c-1.4,4.4-2.8,8.8-4,13.3c-1.2,4.5-2.3,8.9-3.3,13.5c-1,4.5-1.9,9-2.7,13.6c-0.8,4.6-1.4,9.1-2,13.7c-0.6,4.6-1,9.2-1.3,13.8
		c-0.3,4.6-0.5,9.2-0.6,13.8c-0.1,4.6-0.1,9.2,0,13.9c0.1,4.6,0.4,9.2,0.7,13.8c0.4,4.6,0.8,9.2,1.4,13.8c0.6,4.6,1.3,9.2,2.1,13.7
		c0.8,4.6,1.7,9.1,2.7,13.6c1,4.5,2.2,9,3.4,13.4c1.2,4.5,2.6,8.9,4.1,13.3c1.5,4.4,3,8.7,4.7,13c1.7,4.3,3.5,8.6,5.3,12.8
		c1.9,4.2,3.9,8.4,6,12.5c2.1,4.1,4.3,8.2,6.6,12.2c2.3,4,4.7,8,7.2,11.9c2.5,3.9,5.1,7.7,7.7,11.5c2.7,3.8,5.4,7.5,8.3,11.1
		c2.9,3.6,5.8,7.2,8.8,10.7c3,3.5,6.1,6.9,9.3,10.2c3.2,3.3,6.5,6.6,9.8,9.8c3.4,3.2,6.8,6.3,10.3,9.3c3.5,3,7.1,5.9,10.7,8.8
		c3.7,2.8,7.4,5.6,11.2,8.2c3.8,2.7,7.6,5.2,11.5,7.7c3.9,2.5,7.9,4.8,11.9,7.1c4,2.3,8.1,4.4,12.2,6.5s8.3,4,12.6,5.9
		c4.2,1.9,8.5,3.6,12.8,5.3c4.3,1.7,8.7,3.2,13.1,4.6c4.4,1.4,8.8,2.8,13.3,4c4.5,1.2,8.9,2.3,13.5,3.3c4.5,1,9,1.9,13.6,2.7
		c4.6,0.8,9.1,1.4,13.7,2c4.6,0.6,9.2,1,13.8,1.3c4.6,0.3,9.2,0.5,13.8,0.6c4.6,0.1,9.2,0.1,13.9,0c4.6-0.1,9.2-0.4,13.8-0.7
		c4.6-0.4,9.2-0.8,13.8-1.4c4.6-0.6,9.2-1.3,13.7-2.1c4.6-0.8,9.1-1.7,13.6-2.7c4.5-1,9-2.2,13.4-3.4c4.5-1.2,8.9-2.6,13.3-4.1
		c4.4-1.5,8.7-3,13-4.7c4.3-1.7,8.6-3.5,12.8-5.3c4.2-1.9,8.4-3.9,12.5-6c4.1-2.1,8.2-4.3,12.2-6.6s8-4.7,11.9-7.2
		c3.9-2.5,7.7-5.1,11.5-7.7c3.8-2.7,7.5-5.4,11.1-8.3c3.6-2.9,7.2-5.8,10.7-8.8c3.5-3,6.9-6.1,10.3-9.3c3.3-3.2,6.6-6.5,9.8-9.8
		c3.2-3.4,6.3-6.8,9.3-10.3c3-3.5,5.9-7.1,8.8-10.7c2.8-3.7,5.6-7.4,8.2-11.2c2.7-3.8,5.2-7.6,7.7-11.6c2.5-3.9,4.8-7.9,7.1-11.9
		c2.3-4,4.4-8.1,6.5-12.3c2.1-4.1,4-8.3,5.9-12.6c1.9-4.2,3.6-8.5,5.3-12.8c1.7-4.3,3.2-8.7,4.6-13.1c1.4-4.4,2.8-8.8,4-13.3
		c1.2-4.5,2.3-8.9,3.3-13.5c1-4.5,1.9-9.1,2.7-13.6c0.8-4.6,1.4-9.1,2-13.7c0.6-4.6,1-9.2,1.3-13.8c0.3-4.6,0.5-9.2,0.6-13.9
		c0.1-4.6,0.1-9.2,0-13.9c-0.1-4.6-0.4-9.2-0.7-13.9c-0.4-4.6-0.8-9.2-1.4-13.8c-0.6-4.6-1.3-9.2-2.1-13.7
		c-0.8-4.6-1.7-9.1-2.8-13.6c-1-4.5-2.2-9-3.4-13.4c-1.2-4.5-2.6-8.9-4.1-13.3c-1.5-4.4-3-8.7-4.7-13c-1.7-4.3-3.5-8.6-5.4-12.8
		c-1.9-4.2-3.9-8.4-6-12.5c-2.1-4.1-4.3-8.2-6.6-12.2c-2.3-4-4.7-8-7.2-11.9c-2.5-3.9-5.1-7.7-7.7-11.5s-5.4-7.5-8.3-11.1
		c-2.9-3.6-5.8-7.2-8.8-10.7c-3-3.5-6.1-6.9-9.4-10.2c-3.2-3.3-6.5-6.6-9.8-9.8c-3.4-3.2-6.8-6.3-10.3-9.3c-3.5-3-7.1-5.9-10.7-8.8
		c-3.7-2.8-7.4-5.6-11.2-8.2c-3.8-2.7-7.6-5.2-11.6-7.7c-3.9-2.5-7.9-4.8-11.9-7.1c-4-2.3-8.1-4.4-12.3-6.5c-4.1-2.1-8.3-4-12.6-5.9
		c-4.2-1.9-8.5-3.6-12.8-5.3c-4.3-1.7-8.7-3.2-13.1-4.6c-4.4-1.4-8.8-2.8-13.3-4c-4.5-1.2-8.9-2.3-13.5-3.3c-4.5-1-9.1-1.9-13.6-2.7
		c-4.6-0.8-9.1-1.4-13.7-2c-4.6-0.6-9.2-1-13.8-1.3c-4.6-0.3-9.2-0.5-13.9-0.6c-4.6-0.1-9.2-0.1-13.9,0.1
		C499.5,419.5,494.9,419.7,490.3,420.1z"/>
	<path class="st0" d="M335.2,827.8c-18.5,19.9-21,12.7-32.4-6.5c-93-156.8,19.4-346.9,198.3-360.3c62.8-3.2,121.8,19.3,170.2,59
		c6.8,5.5,14.6,11.3,19.5,18.7c7.2,10.9-3.6,32.5-22,13.3c-64.9-67.7-171.5-83.9-254.8-41.4c-58.1,29.7-91.1,74.3-110.8,135.5
		C287,708.8,297.1,774.6,335.2,827.8z"/>
	<path class="st0" d="M385.1,765.1c0-10-1.7-37.6,1.1-45.4c2.6-7.2,48-65.5,56.3-76.6c8.2-11,55.3-80.7,63.5-82
		c14-0.6,28.3-0.1,42.3,0v165.9h44.9v38h-44.9v65.8h-38.3v-36.6v-29.2H385.1z M509.9,611.8c-25,29.2-63.4,82.7-84.8,114.3l0.5,0.9
		h84.3C509.9,714.2,510.9,614.8,509.9,611.8z"/>
	<path class="st0" d="M356,853.2c69.4,61.2,152.3,85.2,241.6,47.2c105.7-45,157.4-165.5,119-273.2c-6.1-17-26.9-43.2-6-51.2
		c12-0.3,16.7,12,21.2,21.2c43,88.6,25.1,194.4-40.1,267.7c-87.1,97.9-242.9,105.4-340.5,18.4c-4.5-4.1-8.7-8.3-12.8-12.7
		C344,864.6,350,859,356,853.2z"/>
</g>
</svg>
