<?xml version="1.0" encoding="utf-8"?>
<!-- Generator: Adobe Illustrator 24.1.0, SVG Export Plug-In . SVG Version: 6.00 Build 0)  -->
<svg version="1.1" id="Capa_1" xmlns="http://www.w3.org/2000/svg" xmlns:xlink="http://www.w3.org/1999/xlink" x="0px" y="0px"
	 viewBox="0 0 1024 1024" style="enable-background:new 0 0 1024 1024;" xml:space="preserve">
<style type="text/css">
	.st0{fill:#82C3BF;}
</style>
<g>
	<path class="st0" d="M541.2,895.1c-18.2,7.7-24.7-10.3-33.2-22.7l-29.3-41.9c-87.1-122.6-190.8-282.2-239-421.1
		c-8.2-23.7-16.7-49.5-18.2-74.7C211.2,159.4,349.2,16,522.6,6.5c9-0.1,18-0.1,26.9,0.2c168.4,7,300.8,159.1,293.4,325.9
		c-1.4,31.5-12.9,59.4-24,88.4c-54.5,142-136.5,263.3-219.6,388.8l-40.3,60.1C553.5,877.9,548.4,888.6,541.2,895.1z M519.5,35.3
		C375.7,50,266.8,146.7,251.3,295c-7.2,69,29,147.7,60.1,207.6c28.8-40.2,60.3-69.7,103.2-94.8C356.5,338.3,360.8,238.2,432,180
		c66.6-54.4,165.7-44.6,219.9,22.3c111.2,137-49.3,322.6-194.2,239.2c-6.2-3.7-12.4-7.2-17.5-12.4C394.6,448.5,352.4,491,326.5,532
		c23.8,42.1,46.8,84.4,72.3,125.5c41.4,66.9,88.7,135.1,133.6,199.7c18.4-25.2,34.9-52,52.3-77.9C662.6,662.9,741,542.9,791.1,411.4
		c19.5-51.3,28-74.6,19.3-130.9C788,136,667.3,28.4,519.5,35.3z M521,175.4c-2.1,0.2-4.2,0.4-6.2,0.7c-2.1,0.3-4.1,0.6-6.2,1
		c-2.1,0.4-4.1,0.8-6.2,1.3c-2,0.5-4.1,1-6.1,1.6c-2,0.6-4,1.2-6,1.9c-2,0.7-4,1.4-5.9,2.2c-1.9,0.8-3.9,1.6-5.8,2.4
		c-1.9,0.9-3.8,1.8-5.7,2.7c-1.9,1-3.7,2-5.5,3c-1.8,1-3.6,2.1-5.4,3.3s-3.5,2.3-5.2,3.5c-1.7,1.2-3.4,2.5-5,3.8
		c-1.6,1.3-3.3,2.6-4.8,4c-1.6,1.4-3.1,2.8-4.6,4.2c-1.5,1.5-3,2.9-4.4,4.5c-1.4,1.5-2.8,3.1-4.2,4.7c-1.4,1.6-2.7,3.2-4,4.9
		c-1.3,1.7-2.5,3.3-3.7,5.1c-1.2,1.7-2.3,3.5-3.5,5.2c-1.1,1.8-2.2,3.6-3.2,5.4c-1,1.8-2,3.7-2.9,5.6c-0.9,1.9-1.8,3.8-2.7,5.7
		c-0.8,1.9-1.6,3.9-2.4,5.8c-0.7,2-1.4,3.9-2.1,5.9c-0.6,2-1.2,4-1.8,6c-0.5,2-1,4.1-1.5,6.1c-0.4,2-0.8,4.1-1.2,6.2
		c-0.3,2.1-0.6,4.1-0.9,6.2c-0.2,2.1-0.4,4.2-0.6,6.3c-0.1,2.1-0.2,4.2-0.3,6.3c0,2.1,0,4.2,0,6.3c0.1,2.1,0.2,4.2,0.3,6.3
		c0.2,2.1,0.4,4.2,0.7,6.2c0.3,2.1,0.6,4.1,1,6.2c0.4,2.1,0.8,4.1,1.3,6.2c0.5,2,1,4.1,1.6,6.1c0.6,2,1.2,4,1.9,6
		c0.7,2,1.4,4,2.2,5.9c0.8,1.9,1.6,3.9,2.4,5.8c0.9,1.9,1.8,3.8,2.7,5.7c1,1.9,2,3.7,3,5.5c1,1.8,2.1,3.6,3.3,5.4
		c1.1,1.8,2.3,3.5,3.5,5.2c1.2,1.7,2.5,3.4,3.8,5c1.3,1.6,2.6,3.3,4,4.8c1.4,1.6,2.8,3.1,4.2,4.6c1.5,1.5,2.9,3,4.5,4.4
		c1.5,1.4,3.1,2.8,4.7,4.2c1.6,1.4,3.2,2.7,4.9,4c1.7,1.3,3.3,2.5,5.1,3.7s3.5,2.3,5.2,3.5c1.8,1.1,3.6,2.2,5.4,3.2
		c1.8,1,3.7,2,5.6,2.9c1.9,0.9,3.8,1.8,5.7,2.7c1.9,0.8,3.9,1.6,5.8,2.4c2,0.7,3.9,1.4,5.9,2.1c2,0.6,4,1.2,6,1.8
		c2,0.5,4.1,1,6.1,1.5c2,0.4,4.1,0.8,6.2,1.2c2.1,0.3,4.1,0.6,6.2,0.9c2.1,0.2,4.2,0.4,6.3,0.6c2.1,0.1,4.2,0.2,6.3,0.3
		c2.1,0,4.2,0,6.3,0c2.1-0.1,4.2-0.2,6.3-0.3c2.1-0.2,4.2-0.4,6.2-0.7c2.1-0.3,4.1-0.6,6.2-1s4.1-0.8,6.2-1.3c2-0.5,4.1-1,6.1-1.6
		c2-0.6,4-1.2,6-1.9c2-0.7,4-1.4,5.9-2.2c1.9-0.8,3.9-1.6,5.8-2.4c1.9-0.9,3.8-1.8,5.7-2.7c1.9-1,3.7-2,5.5-3c1.8-1,3.6-2.1,5.4-3.3
		c1.8-1.1,3.5-2.3,5.2-3.5c1.7-1.2,3.4-2.5,5-3.8c1.6-1.3,3.3-2.6,4.8-4c1.6-1.4,3.1-2.8,4.6-4.2c1.5-1.5,3-2.9,4.4-4.5
		c1.4-1.5,2.8-3.1,4.2-4.7s2.7-3.2,4-4.9c1.3-1.7,2.5-3.3,3.7-5.1c1.2-1.7,2.3-3.5,3.5-5.2c1.1-1.8,2.2-3.6,3.2-5.4
		c1-1.8,2-3.7,2.9-5.6c0.9-1.9,1.8-3.8,2.7-5.7c0.8-1.9,1.6-3.9,2.4-5.8c0.7-2,1.4-3.9,2.1-5.9c0.6-2,1.2-4,1.8-6
		c0.5-2,1-4.1,1.5-6.1c0.4-2,0.8-4.1,1.2-6.2c0.3-2.1,0.6-4.1,0.9-6.2c0.2-2.1,0.4-4.2,0.6-6.3s0.2-4.2,0.3-6.3c0-2.1,0-4.2,0-6.3
		c-0.1-2.1-0.2-4.2-0.3-6.3c-0.2-2.1-0.4-4.2-0.7-6.2c-0.3-2.1-0.6-4.1-1-6.2c-0.4-2.1-0.8-4.1-1.3-6.2c-0.5-2-1-4.1-1.6-6.1
		c-0.6-2-1.2-4-1.9-6c-0.7-2-1.4-4-2.2-5.9c-0.8-1.9-1.6-3.9-2.4-5.8c-0.9-1.9-1.8-3.8-2.7-5.7c-1-1.9-2-3.7-3-5.5
		c-1-1.8-2.1-3.6-3.3-5.4c-1.1-1.8-2.3-3.5-3.5-5.2c-1.2-1.7-2.5-3.4-3.8-5c-1.3-1.6-2.6-3.3-4-4.8c-1.4-1.6-2.8-3.1-4.2-4.6
		c-1.5-1.5-2.9-3-4.5-4.4c-1.5-1.4-3.1-2.8-4.7-4.2c-1.6-1.4-3.2-2.7-4.9-4c-1.7-1.3-3.3-2.5-5.1-3.7c-1.7-1.2-3.5-2.3-5.2-3.5
		c-1.8-1.1-3.6-2.2-5.4-3.2c-1.8-1-3.7-2-5.6-2.9c-1.9-0.9-3.8-1.8-5.7-2.7c-1.9-0.8-3.9-1.6-5.8-2.4c-2-0.7-3.9-1.4-5.9-2.1
		c-2-0.6-4-1.2-6-1.8c-2-0.5-4.1-1-6.1-1.5c-2-0.4-4.1-0.8-6.2-1.2c-2.1-0.3-4.1-0.6-6.2-0.9c-2.1-0.2-4.2-0.4-6.3-0.6
		c-2.1-0.1-4.2-0.2-6.3-0.3c-2.1,0-4.2,0-6.3,0C525.2,175.1,523.1,175.2,521,175.4z"/>
	<path class="st0" d="M200.3,785.9c-14.6,8-29.8-20.5-37-29.8c-24.9-32.2-58.9-76.5-61.3-118.5c-2.8-49.3,36.5-92.1,85.4-94.9
		c55.5-11,105.8,46.1,98.7,101.9C281.6,681.3,226.1,765.8,200.3,785.9z M187.5,571c-35.4,6.5-62.4,37.1-55.5,74.2
		c5.8,30.8,42.4,78.7,62.6,103.4l5.7-5.4c3.9-9.3,11.1-16.4,16.9-24.4c21.7-30.1,51.3-69.8,36.8-108.3
		C243.5,582.9,216.1,568.4,187.5,571z"/>
	<path class="st0" d="M200.3,671.6c-42.3,5.1-49.9-59.9-9.3-66.9C232.9,601.2,240.2,659.1,200.3,671.6z"/>
	<path class="st0" d="M490.2,1017.6c-18.7-4.5-22.2-26.6-2.8-29c10.1-1.3,21.5,0.3,31.8,0.3c103.4,0.7,246.2-6.6,336.2-51.4
		c10.1-5,39.6-21.2,38.1-35.7c-4.1-39.4-151.6-65.7-189.7-71.4c-11.1-1.7-35.3-1.1-44.2-8.2c-10.1-8.1-4.9-24,7.8-24.5
		c16-1.9,32.2,2.3,48,4.6c54.2,8.2,151.3,26.9,191.2,66.2c21.4,21.1,20.2,49.4-0.8,70.2C830.8,1013,603.7,1017.7,490.2,1017.6z"/>
	<path class="st0" d="M351.1,831.1c-21.7,1.7-29-20.4-10.6-27.1c11-4,32.5-4.9,44.8-6.3c18.7-2.7,26.5,21.5,8.6,27.5
		C384.4,828.4,362.1,829.4,351.1,831.1z"/>
	<path class="st0" d="M440.3,1015.3c-60.6-5.4-275.9-26.8-293.1-102.5c-13.8-61.2,103.2-90.1,144.3-99c9.9-0.9,19.8,7.3,16.3,18
		c-4.2,12.8-30,15.2-40.8,18.3c-40.1,11.2-139.2,42-62.9,82.8c57.4,30.7,141.9,44.8,207.9,50.4c12.6,1.1,47.1-1.3,38.7,21.3
		C448.8,1009.7,445.3,1013,440.3,1015.3z"/>
</g>
</svg>
