<?xml version="1.0" encoding="utf-8"?>
<!-- Generator: Adobe Illustrator 24.1.0, SVG Export Plug-In . SVG Version: 6.00 Build 0)  -->
<svg version="1.1"
	 id="svg4" inkscape:version="1.3.2 (091e20e, 2023-11-25)" sodipodi:docname="tree.svg" xmlns:inkscape="http://www.inkscape.org/namespaces/inkscape" xmlns:sodipodi="http://sodipodi.sourceforge.net/DTD/sodipodi-0.dtd" xmlns:svg="http://www.w3.org/2000/svg"
	 xmlns="http://www.w3.org/2000/svg" xmlns:xlink="http://www.w3.org/1999/xlink" x="0px" y="0px" viewBox="0 0 1024 1024"
	 style="enable-background:new 0 0 1024 1024;" xml:space="preserve">
<style type="text/css">
	.st0{fill:#82C3BF;}
</style>
<sodipodi:namedview  bordercolor="#000000" borderopacity="0.25" id="namedview4" inkscape:current-layer="svg4" inkscape:cx="494.64407" inkscape:cy="286.37288" inkscape:deskcolor="#d1d1d1" inkscape:pagecheckerboard="0" inkscape:pageopacity="0.0" inkscape:showpageshadow="2" inkscape:window-height="1027" inkscape:window-maximized="0" inkscape:window-width="1392" inkscape:window-x="144" inkscape:window-y="40" inkscape:zoom="0.23046875" pagecolor="#ffffff">
	</sodipodi:namedview>
<g id="g8" transform="translate(18.333572,-1.3419759)">
	<g id="g7" transform="matrix(0.91474019,0,0,0.91474019,81.849818,58.443064)">
		<path id="path1" class="st0" d="M699.8,524.9c10-17.7,24.2-27.4,45.1-29.1c20.8-1.4,38.7,11.6,48.7,29.1
			c33.5-18.5,75.5-2.2,84.7,35.9c6.1,25.1,5.7,15.3,27.1,19c33.5,5.6,56.4,42.7,49,75.3c-2.6,11.7-9.9,13.1,2.4,18.9
			c34.8,16.5,48.6,60.5,24.5,92.5c-24,31.9-51.6,19.7-59.5,26.5c-4,3.4-5.3,13-7.3,17.9c-16.1,39.5-61.4,51.9-96.1,27.4
			c-9.1,5.5-26.9,16.3-34.1,23.3c-1.2,61.2,7.5,116.7,56.8,159.6c3.5,0.3,7.2,0,10.8,0l19.5,0c5.3,0,13.2-1.3,17.7,2.4
			c3.3,2.7,3.5,8.6,0.6,11.7c-4.4,4.6-14.6,2.7-20.3,2.7l-119.1,0l-124.2,0c-5.8,0-16.8,1.8-21.5-2.3c-4.5-3.9-3-12.4,2.9-13.8
			c5.6-1.4,12.5-0.7,18.3-0.7l26,0c45.4-38.1,60.5-102.6,56.1-159.6c-9.3-8.9-23.7-14.7-33.1-23.3c-19.2,11.3-37.5,17.4-59.8,9.1
			c-15.8-5.9-30.9-18.6-36.6-34.9c-7.1-20.2,1.3-20-23.3-22c-57.9-4.6-75.9-83-26.2-113.3c6.1-3.7,11.6-3.7,14.3-11.4
			c-1-4.3-3-8.4-4.1-12.7c-8-32.2,15-68.6,48.4-73c20.5-2.7,21.2,4.3,26.5-19.4c6.8-30.4,41.5-51.6,71.5-42.1
			C690.6,520.3,695.2,522.7,699.8,524.9L699.8,524.9z M742.4,512.4c-26.9,4.6-25.5,26.4-40.4,28.7c-13.7,2.1-39.4-24.1-64.7,8.7
			c-11.8,15.3-5,41.8-31.8,45.6c-4.6,0.6-9.3,0.3-13.9,0.8c-23.3,2.5-40.2,26.1-36.9,48.9c1.8,12.4,8.9,23.2,0.3,35
			c-5.1,6.9-13.1,8.5-20,12.8c-25.7,16.3-24.3,55-0.2,73c17.6,13.1,31.4,3.9,44.7,12.4c13.2,8.5,10,18.8,15.7,30.9
			c17,36.7,69.3,33.1,85.1-5.6c5.9-14.4,4.8-18.7,21.6-8.5c5.9,3.6,11.9,7.4,18.1,10.5c-0.1-8.1,1.3-16,1.3-24.1
			c-37.5,0.4-32.1-22.4-51.3-22.4c-3.8,0-8.7,1-11.7-1.9c-9.3-9,4.3-15.3,14.8-14.4c21.2,1.7,20.2,15.2,34,21
			c8.1,3.4,29.8-3.7,31.1,8.8c0.8,7.4-0.8,16.7-1.3,24.2c-0.5,6.8,1.4,32.4-10.2,30.7c-6.3-0.9-25.2-13.4-31.4-17.4
			c-2.6,5.6-5.7,10.7-9.1,15.7c6.7,5.1,14,9.7,21,14.5c23,15.6,17.8,18.1,17,44.7c-1.6,51.8-13,97.7-49.1,136h122.9
			c6.9,0,13.8,0.1,20.6,0c-6.9-5.8-12.8-13.7-17.8-21.1c-27.9-41.4-30.8-76.1-32.2-123.1c-0.2-6.9-2.9-19.9,1.9-25.7
			c4.2-5.2,29.4-20.9,36.4-25.3c-3.9-5.1-6.7-9.7-8.9-15.7c-9.7,4.1-25,15.9-33.7,17.8c-6-1.6-7.5-4-8.1-9.8
			c-0.7-6.7-2.7-50.6-1.3-54.5c1.2-3.3,7.8-8,10.9-9.6c13.3,0.8,23,18.8,41.2,3c13.2-11.5,13.7-25.7,40.9-24.5
			c7.3,0.3,11.9,8.7,5.9,13.8c-8.7,7.3-12.7-4.8-30.3,17.3c-13.4,16.7-34.9,20.5-52.8,9.5c-0.2,10.9,1.5,21.8,0.8,32.7
			c8.9-4,20.7-12.8,29.2-15.5c11.1-3.5,10.9,8.6,13.5,15.6c8.3,23,36.2,34.5,58.6,25.5c34.8-14,22-44.9,45.1-54.8
			c7.2-3.1,14.1-1.9,21.7-2.5c29.4-2.4,45.5-35.8,34-62.4c-10.1-23.4-29.2-20.7-36.2-33c-6.7-11.6,1.4-21.8,2.4-33.4
			c1.8-20.3-10.9-40.2-29.8-47.5c-15.3-5.9-33.6,3.4-43.2-18.1c-7.9-17.6-2.3-33.1-30-43.9c-22.4-8.7-33.6,8-46.5,5
			C774.9,537.3,774.2,508.9,742.4,512.4L742.4,512.4z"/>
		<path id="path2" class="st0" d="M583.1,648c-21.6,13.7-20-36.6,13.5-37.8l1.2-0.1c6.3-0.7,14.1-0.1,14.3,8
			c0.2,12.6-14.3,6-20.9,10.2C582.6,633.8,588.8,642.3,583.1,648L583.1,648z"/>
		<path id="path3" class="st0" d="M909.3,649.9c-10.7-2.4-6.5-7-8.9-15.2c-3.7-12.6-15.3-5.6-22.8-10c-6.4-3.8-3.3-13.9,5.3-14.5
			C917.1,606.1,926.4,647,909.3,649.9L909.3,649.9z"/>
		<path id="path4" class="st0" d="M684.3,719.3c-3.3-0.4-6.7-0.1-9.6-2c-14.3-9.6,10.7-27.2,32.7-2.2c7.1,8,12.1,15.7,24.4,15
			c20.5-1.3,26.5-25,51.2-28.7c7.7-1.3,15,4.8,10.8,12.6c-2.5,4.7-9.7,4-14.2,5.9c-5.9,2.5-9.5,7.4-14.1,11.7
			c-16.4,15.4-41.9,21.8-60.5,5.7C697.9,731.1,694.2,721.6,684.3,719.3L684.3,719.3z"/>
	</g>
	<g id="g5" transform="matrix(0.73198045,0,0,0.73198045,-90.108278,75.94679)">
		<path id="path1-4" class="st0" d="M625.1,301.6c7.5-12.1,55.6-89.7,65-94.3c10.9-1,14.1,8.5,19.4,16.3l47.5,69.8
			c18.8,27.5,12.9,20.1,12.9,55.6l0,81.4c19.8,14.2,41.2,34.2,60.1,50.1c17.1,14.4,35.6,27.9,51.9,43.2c11.7,11,14.9,26.6,2.9,39
			c-9.8,10.1-24.4,7.7-37.1,7.7l-36.6,0l0,201.7c0,13.8,4.2,33.8-15.2,35.1c-22.1,1.5-45.2,0.4-67.4,0.4l-512.1,0l-4.6,0.1
			c-32.6,0.3-24.7-6.7-24.7-38l0-199.2l-36.3,0c-7.3,0-15.5,0.7-22.8-0.6c-19-3.5-30-26.9-17.3-42.5c6.7-8.2,24.5-21.3,33.2-28.6
			l296.4-252.2c13.2-11.5,36.4-36.9,54.6-38.4c22-1.8,35.5,15.8,51,28.5l50.8,41.9C606.2,286.1,615.9,293.6,625.1,301.6z
			 M497.8,229.9c-9.6,3.2-15.7,10.4-23.3,16.9l-304.1,259c-12.2,10.4-25,20.3-37.1,30.9c-17.5,15.4,10.3,11.7,18.1,11.6l39.5-0.1
			c69.2-60.8,139.3-120.6,209.7-180.1l64.9-55c8.5-7.1,16.9-15.3,25.8-21.8c10.8-7.9,26.5,11.5,35.2,18.6l54.7,45.4
			c13,10.9,26.1,21.6,39,32.6c6.8,5.9,28.3,19.9,15.1,30.2c-9.8,7.6-22-7.1-28.9-12.8l-32.2-26.9c-25.4-21.4-51.2-42.3-76.4-64
			c-9.8,10.2-21.5,18.9-32.3,28L256.7,520.5c-8.3,7.1-16.6,13.6-24.1,21.5c-8.6,5.8-16.7,12.7-23.3,20.8c-0.5,24.7,0,49.5,0,74.2
			l0,148.3h207.6c0.8-44.3,0-88.8,0-133.2l0-31.5c-0.1-59.6,18.7-57.9,74.6-57.8c55,0.2,88.5-10.3,88.4,56l0,166.5h209.4V562.9
			c-5.6-3.7-39.5-30.7-40.7-35.5c-1.7-6.9-0.5-36.5-0.5-45.6l0-145c0-5.8,0.4-11.8,0-17.6c-18.2-25.9-36.2-55.9-55.2-80.6
			c-15.5,24.2-31.1,48.4-47.1,72.3c-18.5,27.8-12.5,25.9-43.9,0.3l-67.9-56.1C525.6,248.4,506.6,229.5,497.8,229.9L497.8,229.9z
			 M770,458.4v60.2c11.8,10.3,24.4,19.5,36.3,29.6l45,0.1c5.5,0,12.3,1,17.7-0.1c2.9-9.5-18.5-22.1-26.1-28.4l-65.5-55.2
			C775,462.6,772.6,460,770,458.4z M453.1,584.9c-17.9,6.1-13.9,24.6-13.8,39.7l0,160.7h105c4.6,0,9.2-0.1,13.8,0l0-160
			c0.1-46.2-6.7-40.4-46.2-40.4L453.1,584.9z"/>
		<path id="path2-5" class="st0" d="M695.7,390.7c-4.3,0.1-9-1.2-11.4-5.1c-2.2-3.7-2.3-62.4-0.3-66.6c1.8-3.7,5.2-5,8.8-6.4
			c4.5-0.3,9.3,2.3,10.9,6.6c1.8,4.9,1.6,62.3-0.5,66.1C701.6,388.3,698.9,389.6,695.7,390.7L695.7,390.7z"/>
		<path id="path3-1" class="st0" d="M755.6,695c-6-0.8-12.2-0.1-18.3,0l-38,0.1c-18.2,0-43.2,6.5-44.1-15.4
			c-0.5-10.8-1.1-86.5,0.9-91.1c1.4-3.3,3.6-4.4,6.8-5.6c4.7-0.7,9.9-0.1,14.7,0l59.5,0c5.2,0,10.8-0.7,16,0l1,0.1
			c12.5,1.7,9.1,22.1,9.1,30.8l0,38.7C763,668,768.4,685.4,755.6,695L755.6,695z M677.2,604.5v67.3h63.5v-67.3H677.2z"/>
		<path id="path4-4" class="st0" d="M332.4,695l-60,0c-34.8,0-39.8,8.1-39.8-29.6l0-38.7c0-6.4,0.1-12.8,0-19.2
			c-0.2-11.1-3.1-22.4,10.7-24.6c12.3,0,86.9-1.3,92.4,1.3c9.8,4.7,5.4,49.1,5.4,59.9C341.1,657.8,347.2,691,332.4,695z
			 M254.9,604.5v67.3c6.6,0.9,13.9,0.1,20.6,0l43.6,0v-67.3C307.6,605.6,266.1,605.8,254.9,604.5z"/>
		<path id="path5" class="st0" d="M538,712.9c-4.7-0.2-9.9-1.9-11.6-6.8c-3.3-9.4-6-39.5,8.8-44c5.5,0.2,9,2.7,12.3,7
			C548.2,682.2,552.8,708.3,538,712.9L538,712.9z"/>
	</g>
	<path id="path1-6" class="st0" d="M620.7,41.5c11-16.2,24.4-25.1,43.3-14.6l13.5,7.7c30.5,17.6,17.3,37.5,3.8,60.8l-25.7,44.4
		l188.7,108.9l25.6-44.4c17.8-30.9,24.4-44.5,60.5-23.7c22.8,13.1,28,24.5,16,48.9c5.2,0.1,9.3,1,13.9,3.5
		c25.9,14.5,40.1,24.5,22.9,54.5l-7.5,13c16,4.3,29.7,17.4,23,35.5c-3,8-10,18.3-14.4,26c-16.9,29.4-25.5,55.3-60.8,29
		c-9,15.7-17.2,37-39.2,34.4c-12.1-1.5-29.6-12.8-37.6-23.1c-10.5,15-20.2,21.5-39,14.5L790,406.8c-29.1-16.7-14.4-39.1-2-60.6
		l24.5-42.5L623.8,194.9l-25,43.2c-15.5,26.8-23.7,44.6-59.5,23.9c-21-12.1-28.8-23.9-18.5-47.7c-8.5-0.4-15.2-4.4-22.4-8.6
		c-23.2-13.4-27.2-27.5-13.8-50.8l7.4-12.9c-5.5-1.6-10.9-3.8-15.1-7.8c-18.6-17.6-1.8-37.4,7.9-54.1c5.1-8.8,9.8-18,15.3-26.5
		c11.7-17.9,30.3-16,44.1-2c9.3-16.9,19.4-38,42.5-32.4C597,21.6,614.7,31.8,620.7,41.5L620.7,41.5z M654.1,39.8
		c-13.6-5.3-19.3,10.6-24.6,19.8l-86.3,149.4c-18.2,31.3-14.2,29.2,14.4,45.2c7.2,2.1,12.8-0.4,16.7-6.5c8.5-13.4,16.1-27.6,24-41.4
		l69.6-120.6C684.9,56.2,686.8,58.4,654.1,39.8L654.1,39.8z M912.1,188.7c-8-3.7-13.1-1-17.7,6c-7.8,11.9-15.2,26-22.4,38.4
		l-68.9,119.4c-17.4,30.1-23.3,30.1,10.5,49.4c13.6,5.9,19.1-9.2,24.4-18.4l85.6-148.3C942.3,203,943.6,206.9,912.1,188.7
		L912.1,188.7z M950.7,246.5c-16.8-6.4-26.6,21.6-33.5,33.6l-48.8,84.5c-16.2,28-13.7,28.3,12.7,43.3c16.8,6.1,26.4-22,33.6-34.5
		l49.5-85.8c5.4-9.3,16.7-21.9,4.5-30.9C967.2,255.5,952.5,247.1,950.7,246.5L950.7,246.5z M585.7,35.7
		c-16.5-5.6-26.8,23.6-33.9,35.9l-48.9,84.8c-14.2,24.7-13.8,28.4,15.3,42c15.9,2.3,23.7-20.4,30.7-32.3l47.1-81.6
		C612.2,56.1,619,54.1,585.7,35.7L585.7,35.7z M976.3,317.7c-13-4-18.4,13.6-23.8,23l-10,17.3c-4.9,8.6-14.1,20.9-0.2,26.9
		c6.5,1.3,9.9-0.6,13.3-5.8c8.2-12.6,19.6-32,26.5-45.5C985.5,327.1,983.7,320.5,976.3,317.7L976.3,317.7z M525.4,57.3
		c-5.6-0.7-8.3,0.3-11.3,4.9c-4.1,6.2-28.4,47.8-29,51.8c-0.8,5.5,3,9.5,7.7,11.2c3.1,0.5,6.2,0.4,8.9-1.4
		c2.8-2,26.6-43.8,29.4-49.6C535.3,66.3,533.4,61,525.4,57.3L525.4,57.3z M647.4,154L632,180.7l188.7,108.9l15.4-26.7L647.4,154z"/>
</g>
</svg>
