<?xml version="1.0" encoding="UTF-8" standalone="no"?>
<svg
   width="1024"
   height="1024"
   version="1.1"
   id="svg3"
   sodipodi:docname="moluscos.svg"
   inkscape:version="1.3.2 (091e20e, 2023-11-25)"
   xmlns:inkscape="http://www.inkscape.org/namespaces/inkscape"
   xmlns:sodipodi="http://sodipodi.sourceforge.net/DTD/sodipodi-0.dtd"
   xmlns="http://www.w3.org/2000/svg"
   xmlns:svg="http://www.w3.org/2000/svg">
  <defs
     id="defs3" />
  <sodipodi:namedview
     id="namedview3"
     pagecolor="#ffffff"
     bordercolor="#000000"
     borderopacity="0.25"
     inkscape:showpageshadow="2"
     inkscape:pageopacity="0.0"
     inkscape:pagecheckerboard="0"
     inkscape:deskcolor="#d1d1d1"
     inkscape:zoom="0.23046875"
     inkscape:cx="379.66102"
     inkscape:cy="225.62712"
     inkscape:window-width="1392"
     inkscape:window-height="1027"
     inkscape:window-x="229"
     inkscape:window-y="25"
     inkscape:window-maximized="0"
     inkscape:current-layer="svg3" />
  <g
     id="g1"
     transform="matrix(1.3323014,0,0,1.3323014,7.5056549,212.0121)">
    <path
       fill="#82c3bf"
       d="m 219.75629,440.94519 c -40.648,-7.992 -167.386204,-42.736 -200.133604,-70.424 -15.6606,-13.24 -24.8642,-36.258 -16.4162,-56.028 11.912,-27.874 72.9618,-77.236 96.5118,-94.01 33.432004,-23.81 59.008004,-37.522 84.234004,-73.45 7.89,-11.236 15.164,-23.472 24.22,-33.804 28.044,-32.000001 103.786,-63.636001 144.232,-77.184001 66.158,-22.162 127.098,-31.728 196.506,-36.04399997 73.67,-0.082 130.476,3.88599997 178.57,71.91999997 31.576,44.664001 41.488,112.106001 13.086,160.872001 -10.22,17.546 -15.056,30.008 -23.85,47.7 -47.972,96.522 -140.278,130.812 -240.032,153.114 -84.346,18.856 -171.72,22.422 -256.928,7.338 z m 353.726,-420.970001 c -100.782,-0.14 -204.348,21.46 -294.202,67.884 -48.704,25.164001 -49.968,28.578001 -79.778,71.168001 -25.278,36.114 -61.662,57.974 -96.676,83.428 -18.812004,13.678 -70.360804,57.334 -81.086604,79.112 66.3826,16.748 114.886604,-39.272 169.328604,-65.954 84.768,-42.808 128.638,-47.266 215.488,-18.734 80.454,26.43 176.236,85.864 261.342,43.018 66.474,-33.466 85.292,-115.672 52.54,-180.206001 -27.996,-55.16 -86.734,-83.324 -146.956,-79.716 z m -263.326,218.486001 c -118.466,3.456 -194.166,124.32 -288.416604,103.002 9.9966,22.492 46.9686,32.886 68.3586,41.12 75.178004,28.932 156.088004,48.946 237.012004,47.846 27.518,-0.374 54.556,-3.894 81.926,-6.006 64.278,-7.636 155.43,-30.388 209.92,-64.846 30.908,-19.546 45.87,-37.72 67.426,-65.066 -67.814,31.888 -117.448,24.644 -188.312,-0.87 -47.354,-17.048 -140.486,-61.274 -187.914,-55.18 z"
       id="path1"
       style="stroke-width:2" />
    <path
       fill="#82c3bf"
       d="m 571.24029,62.037189 c -91.25,-1.152 -196.626,25.872 -277.102,66.840001 -7.478,3.808 -21.126,12.794 -28.724,14.39 -8.982,1.886 -14.666,-8.342 -8.732,-14.964 5.542,-6.188 31.73,-18.732 40.484,-22.926 92.264,-44.192001 167.858,-57.048001 266.738,-63.350001 40.536,-0.102 71.574,2.228 105.222,30.246 46.734,38.912001 60.662,114.270001 19.862,162.448001 -6.326,7.47 -45.47,43.656 -46.292,15.446 -0.184,-6.252 12.18,-11.776 16.712,-15.122 45.648,-33.694 41.88,-105.004 2.588,-141.964001 -26.012,-24.468 -56.362,-32.092 -90.756,-31.044 z"
       id="path2"
       style="stroke-width:2" />
    <path
       fill="#82c3bf"
       d="m 370.70629,180.31119 c 59.898,-32.914 100.118,-57.88 174.062,-58.428 24.662,-1.316 61.08,2.26 75.638,25.09 20.17,31.636 -18.562,78.23 -43.822,93.782 -41.426,25.502 -88.696,-3.7 -128.784,-18.806 -114.49,-43.148 -188.548,-33.98 -295.486,32.096 -20.792,13.21 -40.208,28.538 -59.352004,43.994 -20.962,16.928 -24.916,-1.95 -19.406,-8.138 11.822,-13.28 52.256004,-42.004 67.008004,-51.254 67.278,-42.19 149.504,-76.76 230.142,-58.336 z m 164.816,-38.324 c -40.158,3.868 -102.382,19.816 -136.192,44.342 29.944,6.308 58.556,17.374 86.734,29.15 22.424,9.266 48.838,21.248 72.95,11.19 19.45,-8.114 36.732,-29.148 44.424,-48.372 15.16,-37.896 -45.14,-37.334 -67.916,-36.31 z"
       id="path3"
       style="stroke-width:2" />
  </g>
</svg>
