<?xml version="1.0" encoding="UTF-8" standalone="no"?>
<svg
   width="1024"
   height="1024"
   version="1.1"
   id="svg8"
   sodipodi:docname="mostaza.svg"
   inkscape:version="1.3.2 (091e20e, 2023-11-25)"
   xmlns:inkscape="http://www.inkscape.org/namespaces/inkscape"
   xmlns:sodipodi="http://sodipodi.sourceforge.net/DTD/sodipodi-0.dtd"
   xmlns="http://www.w3.org/2000/svg"
   xmlns:svg="http://www.w3.org/2000/svg">
  <defs
     id="defs8" />
  <sodipodi:namedview
     id="namedview8"
     pagecolor="#ffffff"
     bordercolor="#000000"
     borderopacity="0.25"
     inkscape:showpageshadow="2"
     inkscape:pageopacity="0.0"
     inkscape:pagecheckerboard="0"
     inkscape:deskcolor="#d1d1d1"
     inkscape:zoom="0.23046875"
     inkscape:cx="169.22034"
     inkscape:cy="381.83051"
     inkscape:window-width="1392"
     inkscape:window-height="1027"
     inkscape:window-x="171"
     inkscape:window-y="46"
     inkscape:window-maximized="0"
     inkscape:current-layer="svg8" />
  <g
     id="g1"
     transform="matrix(1.3236723,0,0,1.3236723,291.4507,6.2828241)">
    <path
       fill="#82c3bf"
       d="m 122.94583,113.93076 c 4.136,-18.316004 11.894,-98.113204 18.032,-106.8424044 2.908,-4.133 7.39,-5.8632 12.172,-6.76960001 47.964,-1.64539999 41.496,1.66440001 48.074,44.45660041 3.544,23.0386 7.514,46.0794 10.752,69.155404 33.462,0.17 46.7,17.082 48.536,49.556 l 3.21,-0.042 c 21.918,-0.274 27.702,12.134 27.794,31.826 0.116,24.542 6.666,50.574 -10.898,68.306 2.28,5.01 5.144,9.854 7.714,14.73 l 13.978,26.448 c 14.356,26.718 10.91,25.686 12.494,56.316 l 13.5,241.396 c 1.852,33.926 4.988,71.392 4.934,105.254 -0.04,25.572 -17.73,48.266 -42.514,54.492 -11.886,2.984 -30.202,1.56 -42.76,1.56 l -66.094,-0.026 -84.482,0.006 c -36.642,0.022 -78.16,6 -93.9260003,-38.07 -5.938,-16.602 -2.67199996,-36.298 -1.578,-53.488 L 20.89183,364.04676 c 0.734,-11.328 0.66,-28.42 2.862,-38.988 2.474,-11.878 23.458,-48.434 29.572,-61.482 -14.112,-16.514 -9.626,-30.038 -9.712,-50.366 -0.106,-25.492 -4.208,-50.36 30.032,-49.724 1.454,-34.31 14.32,-48.026 49.3,-49.556 z m 35.546,-92.178004 c -3.734,28.9796 -7.956,63.536 -13.772,92.178004 h 31.252 c 4.728,0.02 9.464,0.092 14.192,0 -5.848,-30.438004 -9.772,-61.488204 -14.192,-92.178004 z m -46.482,114.140004 c -14.614,3.968 -16.538,14.084 -16.376,27.594 h 126.796 15.818 c -0.13,-25.914 -10.234,-27.578 -33.628,-27.618 l -70.268,-0.004 c -7.41,-0.018 -14.954,-0.62 -22.342,0.028 z m -41.406,49.68 c -1.96,0.138 -3.056,-0.054 -4.67,1.118 -2.22,4.148 -0.732,55.84 0.04,58.322 1.232,3.958 11.24,2.694 14.424,2.748 42.752,0.706 85.606,0.054 128.37,0.07 l 39.574,0.07 c 5.746,0.026 12.126,0.752 17.778,-0.048 1.682,-1.67 2.738,-3.434 3.9,-5.466 v -56.814 l -128.09,-0.002 c -23.684,-0.002 -47.668,-0.79 -71.326,0.002 z m 100.068,84.074 h -96.224 c -12.788,27.338 -29.414,49.912 -31.242,80.13 l -16.802,281.9 c -1.43,23.668 -3.834,47.422 -4.528,71.116 -1.308,44.53 40.202,39.424 69.552,39.424 l 70.034,-0.02 79.964,-0.018 c 29.144,0.006 69.64,6.678 69.554,-36.74 -0.164,-82.694 -7.766,-172.414 -12.31,-255.224 l -5.932,-101.516 c -1.38,-21.804 -3.814,-22.494 -14.11,-42.156 l -19.018,-36.896 z"
       id="path1"
       style="stroke-width:2" />
    <path
       fill="#82c3bf"
       d="m 230.09783,237.00076 c -17.66,-0.338 -13.842,-33.508 -10.56,-39.542 1.622,-2.98 5.46,-3.754 8.476,-4.456 17.054,-0.744 13.166,32.59 10.334,38.038 -1.752,3.37 -4.808,4.812 -8.25,5.96 z"
       id="path2"
       style="stroke-width:2" />
    <path
       fill="#82c3bf"
       d="m 105.87583,237.00076 c -14.884,-1.33 -12.456,-23.28 -11.038,-34.178 0.834,-6.402 4.976,-8.802 11.038,-9.82 16.67,1.052 11.612,35.106 9.082,38.858 -2.056,3.05 -5.656,4.368 -9.082,5.14 z"
       id="path3"
       style="stroke-width:2" />
    <path
       fill="#82c3bf"
       d="m 169.13183,237.00076 c -6.216,-0.274 -11.108,-2.498 -12.298,-9.17 -1.842,-10.348 -3.868,-32.394 10.074,-34.828 16.572,0.46 11.986,25.514 11.716,36.614 -2.652,4.282 -4.62,5.988 -9.492,7.384 z"
       id="path4"
       style="stroke-width:2" />
    <path
       fill="#82c3bf"
       d="m 175.97183,651.50676 c -29.994,2.094 -62.856,-4.112 -91.252,-13.526 -10.932,-3.626 -21.964,-5.622 -19.9,-19.496 7.538,-50.666 10.9,-88.344 7.044,-140.832 -1.468,-19.97 -4.848,-39.752 -6.37,-59.664 -0.958,-12.52 5.738,-13.616 16.018,-17.832 25.942,-10.64 52.01,-15.274 79.95,-16.094 31.084,-0.782 60.396,3.94 89.506,14.918 22.078,8.324 19.082,8.302 16.508,29.886 -7.068,59.244 -9.758,115.074 0.576,173.916 3.792,21.594 7.982,25.172 -16.608,34.302 -24.608,9.134 -49.192,13.73 -75.472,14.422 z m -10.636,-245.752 c -27.084,0.31 -53.022,5.138 -77.866,16.066 5.692,59.432 11.852,107.408 3.476,168.82 -1.144,8.392 -2.806,16.802 -3.476,25.244 26.528,9.092 54.984,15.394 83.202,14.06 35.606,0.416 47.834,-8.572 77.304,-14.06 -2.424,-16.288 -5.196,-32.47 -6.704,-48.882 -2.676,-29.118 -3.33,-116.246 6.704,-145.182 -25.966,-11.186 -54.236,-17.296 -82.64,-16.066 z"
       id="path5"
       style="stroke-width:2" />
    <path
       fill="#82c3bf"
       d="m 200.47983,477.46476 c -6.87,1.03 -57.514,-24.6 -65.294,-29.82 -9.486,-6.368 -5.688,-16.318 3.696,-19.706 6.424,-0.378 56.988,24.622 65.21,29.998 8.976,5.87 4.648,15.906 -3.612,19.528 z"
       id="path6"
       style="stroke-width:2" />
    <path
       fill="#82c3bf"
       d="m 200.47983,542.97076 c -7.934,1.298 -37.16,-16.074 -44.988,-20.154 -8.962,-4.67 -31.724,-12.02 -24.128,-26.132 1.648,-3.064 4.342,-4.26 7.518,-5.258 7.456,0.444 57.92,26.722 65.794,32.19 8.934,6.202 4.342,16.08 -4.196,19.354 z"
       id="path7"
       style="stroke-width:2" />
    <path
       fill="#82c3bf"
       d="m 202.52983,607.59676 c -12.378,2.854 -67.68,-28.518 -70.934,-34.112 -3.682,-6.33 -0.982,-12.634 5.064,-16.02 12.006,-1.558 23.918,8.57 34.094,13.822 9.254,4.776 57.358,21.386 31.776,36.31 z"
       id="path8"
       style="stroke-width:2" />
  </g>
</svg>
