<?xml version="1.0" encoding="utf-8"?>
<!-- Generator: Adobe Illustrator 24.1.0, SVG Export Plug-In . SVG Version: 6.00 Build 0)  -->
<svg version="1.1"
	 id="svg2" inkscape:version="1.3.2 (091e20e, 2023-11-25)" sodipodi:docname="female-pictogram.svg" xmlns:inkscape="http://www.inkscape.org/namespaces/inkscape" xmlns:sodipodi="http://sodipodi.sourceforge.net/DTD/sodipodi-0.dtd" xmlns:svg="http://www.w3.org/2000/svg"
	 xmlns="http://www.w3.org/2000/svg" xmlns:xlink="http://www.w3.org/1999/xlink" x="0px" y="0px" viewBox="0 0 1024 1024"
	 style="enable-background:new 0 0 1024 1024;" xml:space="preserve">
<style type="text/css">
	.st0{fill:#82C3BF;}
</style>
<g>
	
		<sodipodi:namedview  bordercolor="#000000" borderopacity="0.25" id="namedview2" inkscape:current-layer="svg2" inkscape:cx="282.0339" inkscape:cy="407.86441" inkscape:deskcolor="#d1d1d1" inkscape:pagecheckerboard="0" inkscape:pageopacity="0.0" inkscape:showpageshadow="2" inkscape:window-height="1027" inkscape:window-maximized="0" inkscape:window-width="1392" inkscape:window-x="0" inkscape:window-y="25" inkscape:zoom="0.23046875" pagecolor="#ffffff">
		</sodipodi:namedview>
	<path id="path1" class="st0" d="M524.4,324.7c-2.6,0.2-5.2,0.3-7.8,0.4c-2.6,0.1-5.2,0.1-7.8,0c-2.6,0-5.2-0.2-7.8-0.3
		c-2.6-0.2-5.2-0.4-7.8-0.7c-2.6-0.3-5.2-0.7-7.7-1.1c-2.6-0.4-5.1-0.9-7.7-1.5c-2.5-0.6-5.1-1.2-7.6-1.9c-2.5-0.7-5-1.4-7.5-2.2
		c-2.5-0.8-4.9-1.7-7.4-2.6c-2.4-0.9-4.8-1.9-7.2-2.9c-2.4-1-4.7-2.1-7.1-3.3c-2.3-1.2-4.6-2.4-6.9-3.6c-2.3-1.3-4.5-2.6-6.7-4
		c-2.2-1.4-4.4-2.8-6.5-4.3c-2.1-1.5-4.2-3-6.3-4.6c-2.1-1.6-4.1-3.2-6.1-4.9c-2-1.7-3.9-3.4-5.8-5.2c-1.9-1.8-3.7-3.6-5.6-5.5
		c-1.8-1.9-3.6-3.8-5.3-5.8c-1.7-2-3.4-4-5-6c-1.6-2-3.2-4.1-4.7-6.2c-1.5-2.1-3-4.3-4.4-6.5c-1.4-2.2-2.8-4.4-4.1-6.7
		s-2.5-4.5-3.7-6.9c-1.2-2.3-2.3-4.7-3.4-7c-1.1-2.4-2.1-4.8-3-7.2c-1-2.4-1.8-4.9-2.7-7.3c-0.8-2.5-1.6-5-2.3-7.5
		c-0.7-2.5-1.4-5-1.9-7.6c-0.6-2.5-1.1-5.1-1.6-7.7c-0.5-2.6-0.9-5.1-1.2-7.7c-0.3-2.6-0.6-5.2-0.8-7.8c-0.2-2.6-0.3-5.2-0.4-7.8
		c-0.1-2.6-0.1-5.2,0-7.8c0.1-2.6,0.2-5.2,0.3-7.8c0.2-2.6,0.4-5.2,0.7-7.8c0.3-2.6,0.7-5.2,1.1-7.7c0.4-2.6,0.9-5.1,1.5-7.7
		c0.6-2.5,1.2-5.1,1.9-7.6c0.7-2.5,1.4-5,2.2-7.5c0.8-2.5,1.7-4.9,2.6-7.4c0.9-2.4,1.9-4.8,2.9-7.2c1-2.4,2.1-4.7,3.3-7.1
		c1.2-2.3,2.4-4.6,3.6-6.9c1.3-2.3,2.6-4.5,4-6.7c1.4-2.2,2.8-4.4,4.3-6.5c1.5-2.1,3-4.2,4.6-6.3c1.6-2.1,3.2-4.1,4.9-6.1
		c1.7-2,3.4-3.9,5.2-5.8c1.8-1.9,3.6-3.7,5.5-5.6c1.9-1.8,3.8-3.6,5.8-5.3c2-1.7,4-3.4,6-5c2-1.6,4.1-3.2,6.2-4.7
		c2.1-1.5,4.3-3,6.5-4.4c2.2-1.4,4.4-2.8,6.7-4.1c2.3-1.3,4.5-2.5,6.9-3.7c2.3-1.2,4.7-2.3,7-3.4c2.4-1.1,4.8-2.1,7.2-3
		c2.4-1,4.9-1.8,7.3-2.7c2.5-0.8,5-1.6,7.5-2.3c2.5-0.7,5-1.4,7.6-1.9s5.1-1.1,7.7-1.6c2.6-0.5,5.1-0.9,7.7-1.2
		c2.6-0.3,5.2-0.6,7.8-0.8s5.2-0.3,7.8-0.4c2.6-0.1,5.2-0.1,7.8,0c2.6,0,5.2,0.2,7.8,0.3c2.6,0.2,5.2,0.4,7.8,0.7
		c2.6,0.3,5.2,0.7,7.7,1.1c2.6,0.4,5.1,0.9,7.7,1.5c2.5,0.6,5.1,1.2,7.6,1.9c2.5,0.7,5,1.4,7.5,2.2c2.5,0.8,4.9,1.7,7.4,2.6
		c2.4,0.9,4.8,1.9,7.2,2.9c2.4,1,4.7,2.1,7.1,3.3c2.3,1.2,4.6,2.4,6.9,3.6c2.3,1.3,4.5,2.6,6.7,4c2.2,1.4,4.4,2.8,6.5,4.3
		c2.1,1.5,4.2,3,6.3,4.6c2.1,1.6,4.1,3.2,6.1,4.9c2,1.7,3.9,3.4,5.8,5.2c1.9,1.8,3.7,3.6,5.6,5.5c1.8,1.9,3.6,3.8,5.3,5.8
		c1.7,2,3.4,4,5,6c1.6,2,3.2,4.1,4.7,6.2c1.5,2.1,3,4.3,4.4,6.5c1.4,2.2,2.8,4.4,4.1,6.7c1.3,2.3,2.5,4.5,3.7,6.9
		c1.2,2.3,2.3,4.7,3.4,7c1.1,2.4,2.1,4.8,3,7.2c1,2.4,1.8,4.9,2.7,7.3c0.8,2.5,1.6,5,2.3,7.5c0.7,2.5,1.4,5,1.9,7.6
		c0.6,2.5,1.1,5.1,1.6,7.7s0.9,5.1,1.2,7.7c0.3,2.6,0.6,5.2,0.8,7.8c0.2,2.6,0.3,5.2,0.4,7.8c0.1,2.6,0.1,5.2,0,7.8
		c-0.1,2.6-0.2,5.2-0.3,7.8c-0.2,2.6-0.4,5.2-0.7,7.8c-0.3,2.6-0.7,5.2-1.1,7.7c-0.4,2.6-0.9,5.1-1.5,7.7c-0.6,2.5-1.2,5.1-1.9,7.6
		c-0.7,2.5-1.4,5-2.2,7.5c-0.8,2.5-1.7,4.9-2.6,7.4c-0.9,2.4-1.9,4.8-2.9,7.2c-1,2.4-2.1,4.7-3.3,7.1c-1.2,2.3-2.4,4.6-3.6,6.9
		c-1.3,2.3-2.6,4.5-4,6.7c-1.4,2.2-2.8,4.4-4.3,6.5c-1.5,2.1-3,4.2-4.6,6.3c-1.6,2.1-3.2,4.1-4.9,6.1c-1.7,2-3.4,3.9-5.2,5.8
		c-1.8,1.9-3.6,3.7-5.5,5.6s-3.8,3.6-5.8,5.3c-2,1.7-4,3.4-6,5c-2,1.6-4.1,3.2-6.2,4.7c-2.1,1.5-4.3,3-6.5,4.4
		c-2.2,1.4-4.4,2.8-6.7,4.1s-4.5,2.5-6.9,3.7c-2.3,1.2-4.7,2.3-7,3.4c-2.4,1.1-4.8,2.1-7.2,3c-2.4,1-4.9,1.8-7.3,2.7
		c-2.5,0.8-5,1.6-7.5,2.3c-2.5,0.7-5,1.4-7.6,1.9c-2.5,0.6-5.1,1.1-7.7,1.6c-2.6,0.5-5.1,0.9-7.7,1.2
		C529.6,324.2,527,324.5,524.4,324.7L524.4,324.7z M501.9,39.2c-2.1,0.2-4.2,0.4-6.2,0.6c-2.1,0.3-4.1,0.6-6.2,0.9
		c-2.1,0.4-4.1,0.8-6.1,1.3c-2,0.5-4.1,1-6.1,1.6c-2,0.6-4,1.2-6,1.8c-2,0.7-3.9,1.4-5.9,2.1c-1.9,0.8-3.9,1.6-5.8,2.4
		c-1.9,0.9-3.8,1.8-5.6,2.7c-1.9,0.9-3.7,1.9-5.5,3c-1.8,1-3.6,2.1-5.3,3.2c-1.8,1.1-3.5,2.3-5.2,3.5c-1.7,1.2-3.4,2.5-5,3.8
		c-1.6,1.3-3.2,2.6-4.8,4c-1.6,1.4-3.1,2.8-4.6,4.2c-1.5,1.4-3,2.9-4.4,4.4c-1.4,1.5-2.8,3.1-4.2,4.7c-1.4,1.6-2.7,3.2-3.9,4.9
		c-1.3,1.7-2.5,3.3-3.7,5c-1.2,1.7-2.3,3.5-3.4,5.2c-1.1,1.8-2.2,3.6-3.2,5.4c-1,1.8-2,3.7-2.9,5.5c-0.9,1.9-1.8,3.8-2.6,5.7
		c-0.8,1.9-1.6,3.8-2.4,5.8c-0.7,2-1.4,3.9-2.1,5.9c-0.6,2-1.2,4-1.8,6c-0.5,2-1,4-1.5,6.1c-0.4,2-0.8,4.1-1.2,6.1
		c-0.3,2.1-0.6,4.1-0.9,6.2c-0.2,2.1-0.4,4.1-0.6,6.2c-0.1,2.1-0.2,4.2-0.3,6.2c0,2.1,0,4.2,0,6.3c0.1,2.1,0.2,4.2,0.4,6.2
		c0.2,2.1,0.4,4.2,0.7,6.2c0.3,2.1,0.6,4.1,1,6.2c0.4,2.1,0.8,4.1,1.3,6.1c0.5,2,1,4.1,1.6,6.1c0.6,2,1.2,4,1.9,6
		c0.7,2,1.4,3.9,2.2,5.9c0.8,1.9,1.6,3.9,2.4,5.8c0.9,1.9,1.8,3.8,2.7,5.6c1,1.9,1.9,3.7,3,5.5c1,1.8,2.1,3.6,3.3,5.3
		c1.1,1.8,2.3,3.5,3.5,5.2c1.2,1.7,2.5,3.4,3.8,5c1.3,1.6,2.6,3.2,4,4.8c1.4,1.6,2.8,3.1,4.2,4.6c1.5,1.5,2.9,3,4.5,4.4
		c1.5,1.4,3.1,2.8,4.7,4.2c1.6,1.4,3.2,2.7,4.9,3.9c1.7,1.3,3.3,2.5,5.1,3.7c1.7,1.2,3.5,2.3,5.2,3.4c1.8,1.1,3.6,2.2,5.4,3.2
		c1.8,1,3.7,2,5.5,2.9c1.9,0.9,3.8,1.8,5.7,2.6c1.9,0.8,3.8,1.6,5.8,2.3c2,0.7,3.9,1.4,5.9,2.1c2,0.6,4,1.2,6,1.8c2,0.5,4,1,6.1,1.5
		c2,0.4,4.1,0.8,6.1,1.2c2.1,0.3,4.1,0.6,6.2,0.9c2.1,0.2,4.1,0.4,6.2,0.6c2.1,0.1,4.2,0.2,6.3,0.2c2.1,0,4.2,0,6.3-0.1
		c2.1-0.1,4.2-0.2,6.2-0.4c2.1-0.2,4.1-0.4,6.2-0.7c2.1-0.3,4.1-0.6,6.2-1c2-0.4,4.1-0.8,6.1-1.3c2-0.5,4-1,6-1.6c2-0.6,4-1.2,6-1.9
		c2-0.7,3.9-1.4,5.9-2.2c1.9-0.8,3.8-1.6,5.7-2.4c1.9-0.9,3.8-1.8,5.6-2.7c1.8-1,3.7-1.9,5.5-3c1.8-1,3.6-2.1,5.3-3.3
		c1.7-1.1,3.5-2.3,5.2-3.5c1.7-1.2,3.3-2.5,5-3.8c1.6-1.3,3.2-2.6,4.8-4c1.6-1.4,3.1-2.8,4.6-4.2c1.5-1.4,3-2.9,4.4-4.4
		c1.4-1.5,2.8-3.1,4.1-4.7c1.3-1.6,2.7-3.2,3.9-4.9c1.3-1.7,2.5-3.3,3.7-5c1.2-1.7,2.3-3.4,3.4-5.2c1.1-1.8,2.2-3.6,3.2-5.4
		c1-1.8,2-3.7,2.9-5.5c0.9-1.9,1.8-3.7,2.6-5.7c0.8-1.9,1.6-3.8,2.3-5.8c0.7-1.9,1.4-3.9,2.1-5.9c0.6-2,1.2-4,1.8-6
		c0.5-2,1-4,1.5-6.1c0.4-2,0.8-4.1,1.2-6.1c0.3-2.1,0.6-4.1,0.9-6.2c0.2-2.1,0.4-4.1,0.6-6.2c0.1-2.1,0.2-4.2,0.3-6.2
		c0-2.1,0-4.2,0-6.2c-0.1-2.1-0.2-4.2-0.4-6.2c-0.2-2.1-0.4-4.1-0.7-6.2c-0.3-2.1-0.6-4.1-1-6.2c-0.4-2-0.8-4.1-1.3-6.1
		c-0.5-2-1-4-1.6-6c-0.6-2-1.2-4-1.9-6c-0.7-2-1.4-3.9-2.1-5.9c-0.8-1.9-1.6-3.9-2.4-5.7c-0.9-1.9-1.8-3.8-2.7-5.6
		c-0.9-1.9-1.9-3.7-3-5.5s-2.1-3.6-3.2-5.3s-2.3-3.5-3.5-5.2c-1.2-1.7-2.5-3.4-3.7-5c-1.3-1.6-2.6-3.2-4-4.8
		c-1.4-1.6-2.8-3.1-4.2-4.6c-1.4-1.5-2.9-3-4.4-4.4c-1.5-1.4-3.1-2.8-4.6-4.2c-1.6-1.3-3.2-2.7-4.8-3.9c-1.6-1.3-3.3-2.5-5-3.7
		c-1.7-1.2-3.4-2.3-5.2-3.4c-1.8-1.1-3.6-2.2-5.4-3.2c-1.8-1-3.7-2-5.5-2.9c-1.9-0.9-3.7-1.8-5.7-2.6c-1.9-0.8-3.8-1.6-5.8-2.4
		c-1.9-0.7-3.9-1.4-5.9-2.1c-2-0.6-4-1.2-6-1.8c-2-0.5-4-1-6.1-1.5c-2-0.4-4.1-0.8-6.1-1.2c-2.1-0.3-4.1-0.6-6.2-0.9
		c-2.1-0.2-4.1-0.4-6.2-0.6c-2.1-0.1-4.2-0.2-6.2-0.3c-2.1,0-4.2,0-6.2,0C506.1,38.9,504,39,501.9,39.2L501.9,39.2z"/>
	<path id="path2" class="st0" d="M304,596.2c-25.8,24-39,45.8-78.8,44.3c-56.9-2.1-92.6-68-58.9-116c8.1-11.5,20-21.8,29.9-31.8
		l106-107.8c26.7-27.7,54.9-58.5,91.7-72.5c8.2,7.9,19.1,14.4,28.3,21.2c-31.2,11-50.5,27.5-73.2,50.2L222.8,512
		c-19.4,20-45.8,37.7-33.9,69.9c7.5,20.2,33.1,32.8,53.6,25c18-6.9,31.9-26.8,44.9-40.1c9.9-10.2,65.3-69.4,74.1-74.2
		c7.4-4,16.7,2,19,9.2c3.5,10.6-23.5,58.3-29.6,71.5l-66.6,144.4c-11.8,25.5-25,50.8-35.1,77h526.8c-12.5-31.8-28.4-62-43.1-92.8
		l-76.5-162.2c-4.6-9.3-10.1-18.9-13.5-28.6c-4.2-12.1,9.4-23,20.3-17.3c4.3,2.3,43,43.1,50.4,50.5l32.8,33.4
		c8.7,8.9,17.5,19.6,28.1,26.1c37.6,23,83.9-25.9,58.2-60.4c-11.8-15.9-33.1-33.3-47.4-47.9l-75.4-75.7
		c-30.1-30.4-65.2-76.1-108.4-86.2c9.1-7.4,19.6-13.2,28.2-21.2c28.6,8.6,46.9,28.5,67.2,49l125.6,126.1
		c9.4,9.6,19.9,18.3,28.9,28.3c50.5,55.5-6,144-78.4,120.7c-22.5-7.2-38.7-24.1-54.4-41c23,53.8,49.7,106,73.9,159.3
		c7.2,15.8,17,32.1,22.2,48.7c9.9,31.1-54.5,22.3-70.5,22.3l-109.3,0l0,67.8c0,89.9-14.8,123.7-110.8,123.4l-49,0
		c-49.7-0.3-88-39.4-87.3-88.9c0.4-34.1,0.3-68.2,0.3-102.3l-147.2,0c-52.9,0-31.5-24.3-15.9-57.6l68.2-146.8
		C296.9,613.6,301.9,604.6,304,596.2c0.1,0,0.1,0.1,0.2,0.1c0.1,0,0.1,0,0.2,0c0.1,0,0.1,0,0.2-0.1c0.1,0,0.1-0.1,0.1-0.1
		c0-0.1,0.1-0.1,0.1-0.2c0-0.1,0-0.1,0-0.2c0-0.1,0-0.1-0.1-0.2c0-0.1-0.1-0.1-0.1-0.1c-0.1-0.1-0.1-0.1-0.2-0.1c-0.1,0-0.2,0-0.3,0
		c-0.1,0-0.2,0.1-0.2,0.2c-0.1,0.1-0.1,0.1-0.1,0.2c0,0.1,0,0.2,0,0.3C303.9,596.1,303.9,596.2,304,596.2L304,596.2z M422.2,825.7
		l-1.2,0.5c-1.7,6.2-1.3,102.9,0,112.6c7.1,53.6,63,46.5,101.7,46.5c24.3,0,44.6,2.8,64.6-14c11.2-11,15.8-22.5,15.9-38.1V825.7
		H422.2z"/>
</g>
</svg>
