<?xml version="1.0" encoding="utf-8"?>
<!-- Generator: Adobe Illustrator 24.1.0, SVG Export Plug-In . SVG Version: 6.00 Build 0)  -->
<svg version="1.1" id="Capa_1" xmlns="http://www.w3.org/2000/svg" xmlns:xlink="http://www.w3.org/1999/xlink" x="0px" y="0px"
	 viewBox="0 0 1024 1024" style="enable-background:new 0 0 1024 1024;" xml:space="preserve">
<style type="text/css">
	.st0{fill:#82C3BF;}
</style>
<g>
	<path class="st0" d="M389.9,193c-16.5,12-31.1,20.2-51.6,23.1c-14.8,2.1-51.5,3.4-53.8-17.7c-1.3-11.8,18.9-19.9,26.3-27.3
		c20.3-20.5,18.8-44.6,16.9-71.3c-3-42,23.3-90,67.8-95.9c22.9-2,43.5,11,57.4,28.3c134.3-65.1,252.8,110.9,144.6,214.2
		c-6.8,6.5-14.4,12.1-21.5,18.2l104,1.2c16,0.2,32.1,1.3,48.1,2l53.3,2.7c11.5,0.6,23.2,1.5,34.7,0.6c1.3-63.5,73.6-72,95.9-27.9
		c7.9,15.6,6.7,74.8,5,94.8c-4.2,50.7-72.9,63.4-97.5,14.2c-15.1,3.6-30.7,6-46,9.2l-121,24.2c1.4,21.9-0.5,42.9-9.2,63.3
		c-33.3,78.6-11.4,105.6,11,182.3c28.4,97.3,19.9,199.6-5.1,296.6c15.8,14.7,47,24.6,53,46.5c7,25.6-17.5,48.5-42.6,45.6
		c-12.7-1.4-54.7-14.5-65.6-20.8c-30.8-17.6-34-70.6-41-104.7L529.4,782c-4.5-20.5-8.7-41.2-14.2-61.4
		c-7.5-23.2-11.1,11.6-13.4,21.9C487,806.2,473,870.4,461.2,934.6c-9.5,51.7-13.8,59.6-61.9,74.5c-14.8,4.6-30.3,11.9-46.2,10.2
		c-18.9-2.1-35.9-19.3-33.4-38.9c3.6-28.4,34.7-37,54.8-52.5c-3-17-8.1-33.7-11.3-50.8c-16.3-87.5-19-155.4,2.8-242.8
		c15.5-62.1,45.1-105.5,20.2-170.8c-13.3-34.9-16.3-39.3-16.2-77.9c-14.8-1.8-29.8-5.8-44.4-8.7c-37.2-7.5-85.9-18.2-123.2-21.9
		c-20.1,27.5-55.5,40.5-82,12.9c-17-17.7-14.3-39-14.2-61.7c0.1-25.7-5-58.7,15.6-78.1c32.3-30.4,87.2-6.2,85.2,43
		c61.1-0.2,124.1-5.4,185.8-6.5c18-0.3,35.8-0.2,53.8-1.7C419.5,248.6,399.8,221.5,389.9,193z M397.6,32.2
		c-32.8,1.4-44.2,43.4-42.8,70.3c2.1,39.6,1.1,55.4-24.1,87.4c8.5-1.7,17-3,24.8-7.2c10.6-5.3,18.2-12.8,27.6-19.7
		c-7.3-50,14.3-83.4,46.8-116.4C420.6,38.4,410.8,28.1,397.6,32.2z M501.5,46.6c-48.5,2.8-89.6,44.3-91.5,92.9
		c32.5-5.3,63.1-16.4,90.7-34.5c8.1-5.3,15.6-14,24.6-17.3c12.1,0.3,14.3,8.5,21.7,16.5c18.2,19.7,39.2,32.7,65.1,39.8
		C609.9,89.2,556.8,36.6,501.5,46.6z M525.4,120.8c-37.2,26.1-70.7,39-115.4,46.2c10.8,48.4,39.3,74.3,85.2,86.6
		c53.8,2.9,106.6-25.9,114.5-82.3C568.6,160.6,554.1,147.4,525.4,120.8z M151.3,243.1c-11.7,3.4-16.6,9.5-17.8,21.2
		c-1.3,12.4-1.9,66.3,1.1,76.6c3.4,12,16.4,15.3,27.4,14c6.8-2.4,13-5.9,16.1-12.7c3.7-8,3.5-78.6,0.2-86
		C173.6,245.6,162.1,241.7,151.3,243.1z M864.5,243.1c-12.2,2.4-19.4,8.6-21.1,20.8c-1.5,11.5-2.1,65,0,75
		c2.8,13.2,14,17.5,26.2,16.1c12.3-1.2,18.3-6.8,20.2-18.9c2.4-15.5,1.7-56.8,0-72.2C888.4,250.5,878,242.6,864.5,243.1z
		 M490.4,286.5c-12.5,0.6-25.1,1.5-37.6,1.9c20.5,11.2,39.3,27.5,57,36.8c6-1.8,10.4-4.5,15.5-8.2c14.6-10.9,29.2-19.8,45.1-28.6
		C544.1,285.7,516.8,286,490.4,286.5z M366,292.4c-51.4,3.2-107.9,6.1-159,6.7v27.6l115.1,21.8c18.1,3.5,36.5,8.1,54.7,10.6
		c4-16.6,22.4-13.6,27.9,0l-0.1,1.1c-1.8,14.8-7.8,27.2-7.7,42.6c0.2,33.9,25.6,66.5,25.5,118.1c61.7,3.2,117.4,1.3,178.8,1.5
		c-2.6-44.4,7.7-57.1,21-93.3c3.3-11.6,4.5-23.1,3.3-35.1c-1-10.8-14-38.9-1.1-45.4c10.1-5.1,18.2,2,22.3,10.5l102.4-20.4
		c22.3-4.5,44.5-9.5,66.9-13.6v-26c-49.2,0.3-99.3-5.3-149.5-5.4c-46.5-0.1-58.9,1.8-100,28c-65.8,42.1-48,39.9-114.3-3
		C417.8,296.4,405.2,292.1,366,292.4z M419.9,547.7c-7.9,30.7-19,60.8-27.5,91.5c-21.8,78.6-18.6,160.1-1.9,239.2
		c2.8,13.2,10.9,37.7,10.6,49.9c-0.7,30.7-48.8,34.3-54.1,51.9c-6.3,21,30.5,7.4,36,5.8c55.7-15.5,44.4-20.9,55.3-73.8l14.4-67.5
		c5.3-25.8,24.9-132.7,34.5-148.1c4.9-7.8,16.6-13.6,25.7-12.6c27.9,2.9,29.5,34.4,34.5,55.8l39.7,188.4c3.6,17.8,4.7,37.4,21.4,48
		c6.9,4.4,75.4,29.6,67.2,4.8c-4.2-12.8-47.2-24.2-52.6-48.6c-2.6-12,4.9-31,7.5-42.8c29-130.5,11.5-219.3-29.6-340.1
		c-39.8-0.8-81.2,1.5-121.6,1.2C459.7,550.5,439.8,547.2,419.9,547.7z"/>
</g>
</svg>
