<?xml version="1.0" encoding="UTF-8" standalone="no"?>
<svg
   width="1024"
   height="1024"
   version="1.1"
   id="svg1"
   sodipodi:docname="objetivo.svg"
   inkscape:version="1.3.2 (091e20e, 2023-11-25)"
   xmlns:inkscape="http://www.inkscape.org/namespaces/inkscape"
   xmlns:sodipodi="http://sodipodi.sourceforge.net/DTD/sodipodi-0.dtd"
   xmlns="http://www.w3.org/2000/svg"
   xmlns:svg="http://www.w3.org/2000/svg">
  <defs
     id="defs1" />
  <sodipodi:namedview
     id="namedview1"
     pagecolor="#ffffff"
     bordercolor="#000000"
     borderopacity="0.25"
     inkscape:showpageshadow="2"
     inkscape:pageopacity="0.0"
     inkscape:pagecheckerboard="0"
     inkscape:deskcolor="#d1d1d1"
     inkscape:zoom="0.41699219"
     inkscape:cx="960.44965"
     inkscape:cy="510.80094"
     inkscape:window-width="1392"
     inkscape:window-height="1027"
     inkscape:window-x="0"
     inkscape:window-y="25"
     inkscape:window-maximized="0"
     inkscape:current-layer="svg1" />
  <path
     fill="#82c3bf"
     d="m 704.57856,198.51364 c 4.17992,-8.35125 26.47475,-30.27364 34.13268,-38.8684 l 69.24804,-76.917438 c 10.5687,-11.663099 33.59122,-41.639068 46.77845,-48.052483 25.97912,-1.649336 20.48706,30.72973 22.32634,50.404584 2.3034,24.644067 6.17964,50.290847 5.57514,75.029447 12.76037,-0.45265 25.19413,2.36643 37.71957,4.4922 l 43.40357,7.40296 c 13.92066,2.36643 29.76941,3.49521 43.18875,7.74962 12.3449,3.91062 11.749,18.01749 2.8677,24.89044 -8.1965,6.34008 -17.73669,11.51699 -26.4174,17.21246 -43.01395,28.21375 -84.8676,58.17511 -128.47458,85.49787 -10.94973,6.86149 -21.42675,14.87468 -33.37635,19.9284 -20.14326,-5.92179 -39.97712,-13.04399 -60.14904,-18.9887 49.7064,50.10463 81.82791,148.92726 81.68753,217.20982 l 45.23712,-0.0487 c 9.1477,-0.009 26.52918,-2.56124 34.34183,3.45796 6.87008,5.29151 8.01892,16.22979 1.82209,22.52116 -7.53761,7.64934 -26.57502,4.70707 -36.16678,4.69274 l -45.23426,-0.0544 c -1.41814,162.91381 -129.67498,305.84192 -285.0741,345.43514 -24.47216,6.23407 -49.08185,9.73215 -74.17857,12.16733 l 0.0945,36.44181 c 0.10313,8.38276 2.85059,25.15688 -3.19439,32.12438 -8.39996,9.68343 -24.24871,6.27131 -26.60367,-6.36586 -1.45538,-7.82124 -0.81364,-16.38449 -0.81364,-24.33179 l 0.0458,-37.86854 c -36.88292,1.72464 -81.92237,-9.9757 -116.00635,-22.13157 C 203.00514,842.70289 93.493488,701.12129 93.484893,556.07314 76.412821,556.31093 33.251047,558.41378 17.800807,555.87546 6.1866987,553.97028 2.5539771,538.65727 10.588938,530.81598 c 8.282777,-8.08481 67.439699,-5.34308 82.895955,-5.31156 -0.466982,-18.63919 2.386481,-37.6193 6.050716,-55.86599 C 129.31361,321.2641 249.75495,203.48141 398.22955,174.62019 c 116.72553,-22.68732 233.86361,12.54836 323.41822,90.14764 -5.32876,-20.97696 -15.76281,-44.99647 -17.06921,-66.25419 z M 846.52973,85.283313 c -37.37577,38.198007 -74.68279,80.948377 -110.02734,121.541467 4.32317,15.53934 7.97308,32.1301 15.00073,46.68964 v 6.38877 l 63.57836,-62.88791 c 12.34208,-12.02407 26.01349,-23.6442 36.99474,-36.90593 0.84229,-23.43506 -2.98525,-51.28784 -5.54649,-74.826037 z m 27.34855,101.796417 c -22.57272,17.14656 -79.78522,71.32511 -98.92004,94.1127 15.71697,4.42344 30.9383,10.23064 46.59223,14.68273 5.78142,-5.92752 13.25027,-12.68588 21.53849,-14.68273 25.27435,-24.37189 84.13417,-56.63951 115.68843,-80.85384 -28.43435,-3.17433 -56.53351,-9.39694 -84.89911,-13.25886 z m -424.01137,11.43391 c -100.29807,10.49994 -185.816,49.18212 -250.99012,129.6979 -43.73877,54.02957 -74.86042,127.00201 -74.74296,197.29288 12.153,1.12018 25.19413,0.0286 37.456,0.0172 l 79.37267,-0.0172 c 4.75864,-55.45917 24.43206,-104.17145 65.37753,-143.68732 46.15963,-43.18011 104.85043,-68.56905 169.02469,-66.27425 52.92657,1.89372 119.45007,24.13411 153.97238,66.27425 22.21748,-26.48048 57.6623,-59.70498 83.35205,-83.40648 C 632.29084,229.90459 561.36969,193.35964 449.86691,198.51364 Z m 282.90535,123.12577 c -27.24255,27.36 -55.55084,53.74021 -82.13159,81.7391 28.37419,40.49854 42.29485,72.23615 45.11106,122.12591 h 37.02053 c 26.51772,0.0258 53.06982,0.33806 79.58468,0 0.0401,-55.83161 -34.03528,-166.01366 -79.58468,-203.86501 z M 465.46641,346.18606 C 285.6381,350.05084 204.18263,561.7772 334.06388,684.82561 455.25869,799.64597 644.52692,720.95515 665.83335,556.07314 H 630.82973 592.1762 C 549.53756,744.38448 306.34862,665.7395 345.19411,509.07695 368.80393,413.86126 483.20028,389.66699 554.94653,452.09938 l 26.66097,-25.6296 c 8.42,-8.16503 16.45325,-16.88585 26.48334,-23.09127 -30.5458,-35.3245 -95.43056,-60.68192 -142.62443,-57.19245 z m 163.87069,78.12643 c -15.61955,10.1848 -40.97985,36.51344 -54.46217,51.33368 8.99872,15.45053 15.09241,32.04702 17.30127,49.85825 h 21.6187 52.03845 C 662.44701,482.22117 650.15076,459.4565 629.3371,424.31249 Z m -163.87069,22.88787 c -52.43667,0.35238 -95.17558,42.77042 -94.08691,95.66835 1.48403,72.10437 82.31208,116.23276 144.60982,79.41278 25.00217,-16.4819 39.407,-36.76841 45.49496,-66.20835 l -44.66987,0.0516 c -11.10157,0.0229 -57.41877,1.78771 -39.9628,-24.45785 5.46627,-8.21946 50.23642,-50.48566 57.43597,-56.02069 -17.54479,-18.27247 -43.05692,-30.78072 -68.82117,-28.44581 z m 87.20537,51.39957 c -9.25656,9.04169 -18.52172,18.06047 -27.96164,26.90449 h 9.57744 27.1967 c -2.43232,-9.21646 -4.97923,-18.14356 -8.8125,-26.90449 z m 143.07995,57.47321 c -11.67742,111.34807 -96.48199,206.27727 -211.91544,211.20494 -0.77353,12.55695 -0.0315,25.20272 -0.006,37.78259 l 0.006,78.81975 c 32.62287,-3.36629 64.2287,-8.44293 95.23862,-19.58461 C 706.2574,818.25078 813.05884,695.2396 812.35694,556.07314 Z m -571.6179,0 c 1.33792,120.31814 79.6563,232.89813 183.89077,288.85579 40.13184,21.54422 99.324,41.95106 145.34038,38.95149 V 767.27808 C 339.90259,763.00934 250.7147,666.39557 240.9625,556.07314 c -13.48805,0.46125 -27.07352,0.0287 -40.57016,0.0172 z"
     id="path1"
     style="stroke-width:2.86492" />
</svg>
