<?xml version="1.0" encoding="UTF-8" standalone="no"?>
<svg
   width="1024"
   height="1024"
   version="1.1"
   id="svg2"
   sodipodi:docname="chicken-thigh.svg"
   inkscape:version="1.3.2 (091e20e, 2023-11-25)"
   xmlns:inkscape="http://www.inkscape.org/namespaces/inkscape"
   xmlns:sodipodi="http://sodipodi.sourceforge.net/DTD/sodipodi-0.dtd"
   xmlns="http://www.w3.org/2000/svg"
   xmlns:svg="http://www.w3.org/2000/svg">
  <defs
     id="defs2" />
  <sodipodi:namedview
     id="namedview2"
     pagecolor="#ffffff"
     bordercolor="#000000"
     borderopacity="0.25"
     inkscape:showpageshadow="2"
     inkscape:pageopacity="0.0"
     inkscape:pagecheckerboard="0"
     inkscape:deskcolor="#d1d1d1"
     inkscape:zoom="0.23046875"
     inkscape:cx="512"
     inkscape:cy="512"
     inkscape:window-width="1392"
     inkscape:window-height="1027"
     inkscape:window-x="138"
     inkscape:window-y="25"
     inkscape:window-maximized="0"
     inkscape:current-layer="svg2" />
  <g
     id="g4"
     transform="matrix(1.0898247,0,0,1.0898247,-90.8308,-91.020546)">
    <g
       id="g2"
       transform="matrix(0.70868664,0,0,0.71006734,389.90073,-4.235407)">
      <path
         fill="#82c3bf"
         d="m 287.357,323.754 c -9.032,7.613 -24.362,6.612 -33.507,-0.087 -20.931,-15.33 -40.732,-23.831 -66.46,-29.229 -6.942,-1.457 -14.011,-2.174 -20.981,-3.474 C 141.58,286.332 119.048,274.702 102.065,255.93 71.4252,222.063 64.9571,169.807 86.4742,129.473 105.576,93.6674 138.84,73.92 178.407,70.2534 235.339,69.54 283.688,102.862 294.76,160.73 c 1.272,6.647 1.712,13.375 2.704,20.059 2.638,17.776 14.526,50.445 27.562,63.447 10.825,10.798 10.666,26.574 3.302,39.314 3.393,4.167 7.733,7.598 11.536,11.391 14.115,14.077 30.639,28.268 43.766,42.983 l 0.587,-0.617 c 11.179,-11.594 32.7,-8.97 43.454,1.705 22.867,22.698 6.855,59.447 -27.698,59.431 -1.029,28.992 -33.024,44.153 -55.823,24.332 -12.851,-12.5 -14.339,-30.712 -3.438,-45.008 -3.26,-3.185 -6.281,-6.618 -9.449,-9.896 l -17.442,-17.798 c -8.708,-8.884 -17.782,-17.411 -26.464,-26.319 z M 180.016,84.0099 c -26.653,2.3196 -51.55,12.9286 -69.117,33.8241 -33.3484,39.666 -30.9741,102.916 9.464,136.959 15.134,12.74 31.542,19.67 50.862,23.08 27.635,4.879 45.223,8.304 71.388,21.824 4.114,2.215 8.134,4.585 12.002,7.209 15.506,10.522 18.63,12.515 32.22,-0.911 l 22.318,-21.959 c 6.977,-6.715 13.316,-12.034 9.802,-23.111 -2.184,-6.884 -6.427,-7.951 -9.666,-13.327 -11.068,-18.377 -22.531,-45.509 -25.661,-66.105 -1.082,-7.121 -1.519,-14.369 -3.021,-21.418 C 270.427,112.286 227.894,83.3286 180.016,84.0099 Z M 318.949,293.72 c -7.006,6.668 -13.521,14.319 -20.946,20.491 14.205,15.595 30.689,30.784 45.383,46.325 4.569,4.833 13.134,10.183 12.706,17.658 -0.309,5.404 -18.148,17.206 -4.639,33.013 12.342,14.441 34.389,5.392 35.26,-12.764 -0.125,-9.477 1.857,-21.454 14.603,-13.205 20.416,0.298 30.724,-22.828 17.335,-35.912 -6.666,-6.514 -19.511,-8.727 -26.397,-1.209 -5.208,5.687 -9.074,7.66 -15.393,1.786 -10.333,-9.604 -20.217,-19.8 -30.406,-29.575 L 328.088,302.72 c -3.06,-2.967 -6.244,-5.872 -9.139,-9 z"
         id="path1"
         transform="scale(2)" />
      <path
         fill="#82c3bf"
         transform="scale(2)"
         d="m 254.103,158.394 c -6.764,1.59 -7.942,-5.171 -10.371,-9.821 -7.985,-15.291 -24.091,-25.846 -40.23,-30.643 -3.767,-1.12 -7.845,-1.218 -11.555,-2.439 -7.182,-2.365 -5.608,-10.28 0.354,-12.944 23.357,-2.541 57.665,24.134 65.877,45.062 1.952,4.974 1.118,8.814 -4.075,10.785 z"
         id="path2" />
    </g>
    <g
       id="g3"
       transform="matrix(0.85874856,0,0,0.84145658,251.98665,211.03661)">
      <path
         fill="#82c3bf"
         d="m 237.87213,567.36232 c 4.96,-15.182 14.958,-8.478 26.012,-5.406 36.888,10.248 69.458,-13.3 99.904,-30.416 37.806,-21.254 78.238,-39.266 121.638,-44.476 50.376,-1.246 87.498,15.472 112.742,62.202 5.94,2.12 12.454,2.702 18.65,3.748 81.838,13.796 150.648,50.502 193.52,122.434 8.824,4.222 43.39,26.292 49.826,32.778 13.374,13.48 -21.97,35.38 -33.652,43.892 -21.316,15.534 -12.154,7.458 -25.502,30.01 -43.86,74.108 -153.818,112.084 -235.25,111.28 -6.324,18.178 -33.602,62.522 -56.43,59.92 -9.362,-1.068 -8.234,-12.05 -9.576,-18.828 -3.648,-18.404 -11.004,-34.494 -23.188,-48.824 -17.2,-4.216 -34.492,-7.074 -51.3,-12.942 -4.236,4.388 -9.65,7.992 -14.796,11.21 -58.164,36.378 -126.338,9.238 -172.598,-34.346 -4.618,-3.51 -10.86,-8.514 -9.78,-15.124 1.59,-9.736 13.886,-7.026 20.53,-7.262 17.134,-0.608 30.802,-8.36 44.2,-18.284 -21.756,-14.764 -40.776,-30.18 -61.874,-45.134 l -0.816,1.098 c -15.638,20.77 -86.9034,90.064 -114.781,93.87 -19.322801,2.638 -37.240201,-11.718 -39.649001,-30.916 -2.741,-21.848 9.5938,-28.7 20.8474,-43.148 26.437001,-33.946 25.368001,-85.868 2.6906,-121.59 -9.464,-14.908 -21.5658,-17.17 -23.9806,-37.288 -3.0802,-25.662 21.7836,-48.836 46.625401,-39.084 19.7532,7.756 69.8312,51.78 86.2692,68.182 7.796,7.78 14.234,17.092 22.794,24.028 14.526,-15.636 36.846,-30.978 54.622,-42.732 -20.646,-11.32 -42.004,-45.446 -47.698,-68.852 z m 253.496,-57.756 c -87.324,2.278 -139.164,79.706 -221.848,76.898 9.314,15.788 20,30.314 38.84,34.33 7.898,-4.964 16.908,-12.044 25.924,-14.338 45.508,-34.416 150.716,-58.132 205.574,-58.7 10.48,-0.108 21.084,0.498 31.538,-0.018 -17.63,-23.58 -49.414,-43.214 -80.028,-38.172 z m 43.498,60.412 c -113.112,9.52 -203.666,51.224 -289.782,125.566 -29.53,25.492 -21.676,33.478 5.718,54.872 56.956,44.484 119.276,85.616 190.152,103.592 78.072,20.998 163.97,25.714 240.016,-5.982 -63,-69.728 -65.41,-184.698 3.078,-251.624 -50.65,-22.616 -95.462,-26.53 -149.182,-26.424 z m 170.578,36.478 c -66.184,70.15 -65.714,159.868 -3.23,232.096 9.808,-4.956 19.056,-10.94 28.136,-17.116 102.812,-73.702 79.796,-155.226 -24.906,-214.98 z m -599.3422,1.188 c -20.826401,8.804 -3.6324,25.242 4.4528,34.512 37.0262,42.454 36.9102,115.288 1.47,159.072 -4.1442,5.12 -10.76,9.664 -13.382201,15.756 -3.3038,7.674 0.7918,17.196 9.018001,19.356 11.5672,3.038 31.8592,-17.016 40.2552,-23.534 22.8564,-18.19 49.0784,-39.934 66.2724,-63.694 -11.038,-16.22 -15.116,-38.656 0,-53.7 -18.632,-21.876 -84.2762,-86.502 -103.5702,-87.988 -1.4758,-0.112 -3.0452,0.082 -4.516,0.22 z m 713.5322,100.654 v 20.59 c 2.682,-2.138 5.406,-4.236 8.036,-6.436 1.754,-1.524 3.548,-3.016 5.186,-4.666 -4.29,-3.112 -8.68,-6.818 -13.222,-9.488 z m -507.184,113.138 c -12.546,11.22 -26.368,20.288 -42.93,24.302 22.516,20.862 55.67,33.166 86.062,32.292 15.48,-0.262 30.312,-4.626 43.13,-13.434 -19.176,-7.62 -37.894,-15.93 -56.156,-25.568 -5.708,-3.014 -26.668,-16.642 -30.106,-17.592 z m 194.318,68.464 c 6.036,11.834 9.05,21.27 13.896,33.276 3.606,-3.136 6.942,-6.312 10.014,-9.978 4.77,-6.158 7.996,-12.61 10.866,-19.83 -11.576,-0.998 -23.284,-1.74 -34.776,-3.468 z"
         id="path1-9"
         style="stroke-width:2" />
      <path
         fill="#82c3bf"
         d="m 733.91813,718.02632 q -0.7,0.132 -1.406,0.23 -0.706,0.096 -1.416,0.158 -0.71,0.064 -1.424,0.09 -0.712,0.028 -1.424,0.022 -0.712,-0.008 -1.424,-0.05 -0.712,-0.042 -1.42,-0.12 -0.71,-0.078 -1.414,-0.19 -0.704,-0.11 -1.4,-0.258 -0.698,-0.146 -1.388,-0.326 -0.69,-0.18 -1.37,-0.394 -0.68,-0.214 -1.348,-0.46 -0.668,-0.248 -1.324,-0.528 -0.656,-0.278 -1.298,-0.59 -0.64,-0.312 -1.266,-0.654 -0.624,-0.342 -1.232,-0.716 -0.608,-0.372 -1.196,-0.774 -0.59,-0.402 -1.158,-0.832 -0.568,-0.43 -1.114,-0.888 -0.546,-0.458 -1.07,-0.942 -0.522,-0.484 -1.022,-0.994 -0.498,-0.508 -0.972,-1.042 -0.474,-0.532 -0.92,-1.088 -0.446,-0.556 -0.866,-1.132 -0.418,-0.578 -0.808,-1.174 -0.39,-0.596 -0.75,-1.212 -0.36,-0.614 -0.69,-1.246 -0.33,-0.632 -0.628,-1.28 -0.298,-0.648 -0.564,-1.308 -0.266,-0.662 -0.5,-1.336 -0.234,-0.672 -0.434,-1.358 -0.2,-0.684 -0.366,-1.376 -0.166,-0.694 -0.298,-1.394 -0.132,-0.7 -0.23,-1.406 -0.098,-0.706 -0.16,-1.416 -0.062,-0.71 -0.09,-1.422 -0.028,-0.712 -0.022,-1.426 0.008,-0.712 0.05,-1.424 0.042,-0.712 0.118,-1.42 0.078,-0.708 0.19,-1.412 0.112,-0.704 0.256,-1.402 0.148,-0.698 0.328,-1.388 0.18,-0.69 0.392,-1.37 0.214,-0.68 0.462,-1.348 0.246,-0.668 0.526,-1.324 0.278,-0.656 0.59,-1.298 0.31,-0.64 0.652,-1.266 0.342,-0.626 0.716,-1.234 0.372,-0.606 0.774,-1.196 0.402,-0.588 0.832,-1.156 0.43,-0.57 0.888,-1.116 0.456,-0.546 0.94,-1.07 0.484,-0.522 0.994,-1.022 0.508,-0.5 1.04,-0.972 0.534,-0.474 1.088,-0.92 0.556,-0.448 1.132,-0.866 0.578,-0.42 1.174,-0.81 0.596,-0.39 1.212,-0.75 0.614,-0.362 1.246,-0.69 0.632,-0.33 1.28,-0.63 0.646,-0.298 1.308,-0.564 0.66,-0.266 1.334,-0.5 0.674,-0.234 1.358,-0.434 0.684,-0.2 1.376,-0.368 0.694,-0.166 1.394,-0.298 0.7,-0.132 1.408,-0.23 0.706,-0.098 1.416,-0.162 0.71,-0.062 1.422,-0.09 0.714,-0.028 1.426,-0.022 0.714,0.008 1.426,0.05 0.712,0.042 1.42,0.118 0.71,0.076 1.414,0.188 0.704,0.112 1.402,0.258 0.698,0.146 1.388,0.326 0.69,0.18 1.37,0.392 0.68,0.214 1.35,0.462 0.67,0.246 1.326,0.526 0.656,0.278 1.298,0.59 0.64,0.312 1.266,0.654 0.626,0.342 1.234,0.714 0.608,0.372 1.196,0.774 0.59,0.402 1.158,0.834 0.57,0.43 1.116,0.888 0.546,0.458 1.07,0.942 0.524,0.484 1.024,0.992 0.498,0.51 0.972,1.042 0.474,0.534 0.922,1.09 0.446,0.556 0.866,1.132 0.418,0.576 0.808,1.174 0.39,0.596 0.752,1.212 0.36,0.616 0.69,1.248 0.33,0.632 0.628,1.28 0.3,0.646 0.566,1.308 0.266,0.662 0.5,1.336 0.232,0.674 0.434,1.358 0.2,0.684 0.366,1.378 0.166,0.694 0.298,1.394 0.132,0.7 0.23,1.408 0.098,0.706 0.16,1.416 0.064,0.71 0.09,1.424 0.028,0.712 0.022,1.424 -0.008,0.714 -0.05,1.426 -0.042,0.712 -0.118,1.42 -0.078,0.71 -0.19,1.414 -0.112,0.704 -0.258,1.402 -0.146,0.698 -0.326,1.388 -0.18,0.69 -0.394,1.37 -0.214,0.682 -0.46,1.35 -0.248,0.67 -0.528,1.326 -0.28,0.656 -0.59,1.296 -0.312,0.642 -0.654,1.268 -0.344,0.626 -0.716,1.234 -0.372,0.608 -0.776,1.196 -0.402,0.59 -0.832,1.158 -0.43,0.568 -0.888,1.114 -0.458,0.548 -0.942,1.07 -0.486,0.524 -0.994,1.024 -0.51,0.498 -1.044,0.972 -0.532,0.474 -1.088,0.92 -0.556,0.446 -1.134,0.866 -0.576,0.418 -1.174,0.808 -0.596,0.39 -1.212,0.752 -0.616,0.36 -1.248,0.69 -0.632,0.328 -1.28,0.628 -0.648,0.298 -1.31,0.564 -0.66,0.266 -1.334,0.498 -0.674,0.234 -1.36,0.434 -0.684,0.2 -1.378,0.366 -0.694,0.166 -1.394,0.298 z m -8.876,-34.798 c -7.894,5.862 -3.4,13.018 5.308,12.224 7.48,-5.392 4.42,-13.676 -5.308,-12.224 z"
         id="path2-3"
         style="stroke-width:2" />
      <path
         fill="#82c3bf"
         d="m 580.78013,749.15232 c 6.76,-4.506 16.972,-12.87 25.364,-7.352 24.842,16.336 -36.682,34.332 -46.262,35.788 -35.882,5.456 -65.734,-7.954 -93.83,-28.758 -11.516,-8.528 -36.928,-22.228 -23.816,-36.464 23.452,-25.462 60.344,-47.972 95.87,-49.29 19.95,-2.566 41.44,3.998 58.956,13.042 7.6,3.924 21.16,14.118 9.852,22.596 -17.482,13.106 -52.494,-50.286 -140.766,21.858 24.776,22.83 60.694,40.904 94.804,34.226 6.746,-1.322 13.134,-4.062 19.828,-5.646 z"
         id="path3"
         style="stroke-width:2" />
    </g>
    <path
       fill="#82c3bf"
       d="m 259.34816,274.0896 -0.0121,-48.09015 c 0.001,-15.16799 -4.52461,-37.54012 16.13115,-40.47004 29.32906,-0.1309 32.01611,2.64857 32.01055,31.63916 l -0.0121,27.02861 c 19.20189,-11.80026 36.52851,-11.21606 57.9273,-11.21683 l 31.97175,0.007 c 0.0986,24.46963 -1.50378,47.45092 -19.02891,66.75485 13.29107,9.03704 20.14011,12.94617 32.21571,25.30126 49.47692,50.62359 63.57642,127.88809 33.74722,192.46147 C 419.3224,571.57411 371.52115,606.93378 313.697,617.72299 231.49194,632.3171 150.3294,586.48094 119.25037,509.07894 97.410105,454.68816 105.12325,394.11707 138.3314,346.44335 c 13.04931,-18.7339 32.76244,-37.5144 53.18532,-48.41784 -3.61857,-7.85488 -5.81324,-15.22401 -5.68239,-23.93722 z m 19.00672,-73.67254 h -4.13317 v 87.52474 h -71.33812 c 3.61859,9.87431 12.7166,17.43087 22.07413,21.74257 21.99764,10.13824 35.24989,-0.93376 58.59048,22.02755 10.40218,-9.70462 21.25349,-14.51203 35.13677,-16.94513 37.07524,-1.37735 63.90465,-30.58108 63.95345,-67.33917 l -23.88287,-0.0105 c -24.77228,0.006 -41.36144,2.72808 -60.25171,21.53741 -2.06935,2.06158 -4.00563,4.10765 -5.56595,6.58952 l -0.0152,-50.14939 c -0.004,-24.02262 6.27238,-25.01492 -14.56859,-24.97811 z m -78.56311,108.51431 c -7.58539,5.0159 -15.32936,9.98521 -22.31368,15.82839 -54.76008,45.81397 -71.49174,125.20216 -40.4299,189.37963 44.31686,91.56696 158.83514,119.28577 241.28742,61.25977 91.70223,-67.28924 90.60877,-206.05971 -9.80335,-264.88307 -8.22526,6.00289 -16.33298,11.3803 -26.11857,14.56084 -21.12819,6.86678 -29.87578,0.25507 -49.21075,16.99061 -3.26705,2.82788 -7.24605,5.96185 -9.65474,9.55381 -4.60779,-4.68652 -8.98825,-9.47618 -14.27362,-13.43966 -19.77746,-14.83142 -40.18259,-4.21743 -63.96457,-24.45289 -1.2487,-1.0624 -4.20522,-4.39487 -5.51824,-4.79743 z"
       id="path1-8"
       style="stroke-width:1.10897" />
  </g>
</svg>
