<?xml version="1.0" encoding="UTF-8" standalone="no"?>
<svg
   width="1024"
   height="1024"
   version="1.1"
   id="svg2"
   sodipodi:docname="pescetariano.svg"
   inkscape:version="1.3.2 (091e20e, 2023-11-25)"
   xmlns:inkscape="http://www.inkscape.org/namespaces/inkscape"
   xmlns:sodipodi="http://sodipodi.sourceforge.net/DTD/sodipodi-0.dtd"
   xmlns="http://www.w3.org/2000/svg"
   xmlns:svg="http://www.w3.org/2000/svg">
  <defs
     id="defs2" />
  <sodipodi:namedview
     id="namedview2"
     pagecolor="#ffffff"
     bordercolor="#000000"
     borderopacity="0.25"
     inkscape:showpageshadow="2"
     inkscape:pageopacity="0.0"
     inkscape:pagecheckerboard="0"
     inkscape:deskcolor="#d1d1d1"
     inkscape:zoom="0.23046875"
     inkscape:cx="512"
     inkscape:cy="512"
     inkscape:window-width="1392"
     inkscape:window-height="1027"
     inkscape:window-x="138"
     inkscape:window-y="25"
     inkscape:window-maximized="0"
     inkscape:current-layer="svg2" />
  <g
     id="g3"
     transform="matrix(0.93588539,0,0,0.91704016,183.79048,138.97236)">
    <path
       fill="#82c3bf"
       d="m 237.87213,567.36232 c 4.96,-15.182 14.958,-8.478 26.012,-5.406 36.888,10.248 69.458,-13.3 99.904,-30.416 37.806,-21.254 78.238,-39.266 121.638,-44.476 50.376,-1.246 87.498,15.472 112.742,62.202 5.94,2.12 12.454,2.702 18.65,3.748 81.838,13.796 150.648,50.502 193.52,122.434 8.824,4.222 43.39,26.292 49.826,32.778 13.374,13.48 -21.97,35.38 -33.652,43.892 -21.316,15.534 -12.154,7.458 -25.502,30.01 -43.86,74.108 -153.818,112.084 -235.25,111.28 -6.324,18.178 -33.602,62.522 -56.43,59.92 -9.362,-1.068 -8.234,-12.05 -9.576,-18.828 -3.648,-18.404 -11.004,-34.494 -23.188,-48.824 -17.2,-4.216 -34.492,-7.074 -51.3,-12.942 -4.236,4.388 -9.65,7.992 -14.796,11.21 -58.164,36.378 -126.338,9.238 -172.598,-34.346 -4.618,-3.51 -10.86,-8.514 -9.78,-15.124 1.59,-9.736 13.886,-7.026 20.53,-7.262 17.134,-0.608 30.802,-8.36 44.2,-18.284 -21.756,-14.764 -40.776,-30.18 -61.874,-45.134 l -0.816,1.098 c -15.638,20.77 -86.9034,90.064 -114.781,93.87 -19.322801,2.638 -37.240201,-11.718 -39.649001,-30.916 -2.741,-21.848 9.5938,-28.7 20.8474,-43.148 26.437001,-33.946 25.368001,-85.868 2.6906,-121.59 -9.464,-14.908 -21.5658,-17.17 -23.9806,-37.288 -3.0802,-25.662 21.7836,-48.836 46.625401,-39.084 19.7532,7.756 69.8312,51.78 86.2692,68.182 7.796,7.78 14.234,17.092 22.794,24.028 14.526,-15.636 36.846,-30.978 54.622,-42.732 -20.646,-11.32 -42.004,-45.446 -47.698,-68.852 z m 253.496,-57.756 c -87.324,2.278 -139.164,79.706 -221.848,76.898 9.314,15.788 20,30.314 38.84,34.33 7.898,-4.964 16.908,-12.044 25.924,-14.338 45.508,-34.416 150.716,-58.132 205.574,-58.7 10.48,-0.108 21.084,0.498 31.538,-0.018 -17.63,-23.58 -49.414,-43.214 -80.028,-38.172 z m 43.498,60.412 c -113.112,9.52 -203.666,51.224 -289.782,125.566 -29.53,25.492 -21.676,33.478 5.718,54.872 56.956,44.484 119.276,85.616 190.152,103.592 78.072,20.998 163.97,25.714 240.016,-5.982 -63,-69.728 -65.41,-184.698 3.078,-251.624 -50.65,-22.616 -95.462,-26.53 -149.182,-26.424 z m 170.578,36.478 c -66.184,70.15 -65.714,159.868 -3.23,232.096 9.808,-4.956 19.056,-10.94 28.136,-17.116 102.812,-73.702 79.796,-155.226 -24.906,-214.98 z m -599.3422,1.188 c -20.826401,8.804 -3.6324,25.242 4.4528,34.512 37.0262,42.454 36.9102,115.288 1.47,159.072 -4.1442,5.12 -10.76,9.664 -13.382201,15.756 -3.3038,7.674 0.7918,17.196 9.018001,19.356 11.5672,3.038 31.8592,-17.016 40.2552,-23.534 22.8564,-18.19 49.0784,-39.934 66.2724,-63.694 -11.038,-16.22 -15.116,-38.656 0,-53.7 -18.632,-21.876 -84.2762,-86.502 -103.5702,-87.988 -1.4758,-0.112 -3.0452,0.082 -4.516,0.22 z m 713.5322,100.654 v 20.59 c 2.682,-2.138 5.406,-4.236 8.036,-6.436 1.754,-1.524 3.548,-3.016 5.186,-4.666 -4.29,-3.112 -8.68,-6.818 -13.222,-9.488 z m -507.184,113.138 c -12.546,11.22 -26.368,20.288 -42.93,24.302 22.516,20.862 55.67,33.166 86.062,32.292 15.48,-0.262 30.312,-4.626 43.13,-13.434 -19.176,-7.62 -37.894,-15.93 -56.156,-25.568 -5.708,-3.014 -26.668,-16.642 -30.106,-17.592 z m 194.318,68.464 c 6.036,11.834 9.05,21.27 13.896,33.276 3.606,-3.136 6.942,-6.312 10.014,-9.978 4.77,-6.158 7.996,-12.61 10.866,-19.83 -11.576,-0.998 -23.284,-1.74 -34.776,-3.468 z"
       id="path1-9"
       style="stroke-width:2" />
    <path
       fill="#82c3bf"
       d="m 733.91813,718.02632 q -0.7,0.132 -1.406,0.23 -0.706,0.096 -1.416,0.158 -0.71,0.064 -1.424,0.09 -0.712,0.028 -1.424,0.022 -0.712,-0.008 -1.424,-0.05 -0.712,-0.042 -1.42,-0.12 -0.71,-0.078 -1.414,-0.19 -0.704,-0.11 -1.4,-0.258 -0.698,-0.146 -1.388,-0.326 -0.69,-0.18 -1.37,-0.394 -0.68,-0.214 -1.348,-0.46 -0.668,-0.248 -1.324,-0.528 -0.656,-0.278 -1.298,-0.59 -0.64,-0.312 -1.266,-0.654 -0.624,-0.342 -1.232,-0.716 -0.608,-0.372 -1.196,-0.774 -0.59,-0.402 -1.158,-0.832 -0.568,-0.43 -1.114,-0.888 -0.546,-0.458 -1.07,-0.942 -0.522,-0.484 -1.022,-0.994 -0.498,-0.508 -0.972,-1.042 -0.474,-0.532 -0.92,-1.088 -0.446,-0.556 -0.866,-1.132 -0.418,-0.578 -0.808,-1.174 -0.39,-0.596 -0.75,-1.212 -0.36,-0.614 -0.69,-1.246 -0.33,-0.632 -0.628,-1.28 -0.298,-0.648 -0.564,-1.308 -0.266,-0.662 -0.5,-1.336 -0.234,-0.672 -0.434,-1.358 -0.2,-0.684 -0.366,-1.376 -0.166,-0.694 -0.298,-1.394 -0.132,-0.7 -0.23,-1.406 -0.098,-0.706 -0.16,-1.416 -0.062,-0.71 -0.09,-1.422 -0.028,-0.712 -0.022,-1.426 0.008,-0.712 0.05,-1.424 0.042,-0.712 0.118,-1.42 0.078,-0.708 0.19,-1.412 0.112,-0.704 0.256,-1.402 0.148,-0.698 0.328,-1.388 0.18,-0.69 0.392,-1.37 0.214,-0.68 0.462,-1.348 0.246,-0.668 0.526,-1.324 0.278,-0.656 0.59,-1.298 0.31,-0.64 0.652,-1.266 0.342,-0.626 0.716,-1.234 0.372,-0.606 0.774,-1.196 0.402,-0.588 0.832,-1.156 0.43,-0.57 0.888,-1.116 0.456,-0.546 0.94,-1.07 0.484,-0.522 0.994,-1.022 0.508,-0.5 1.04,-0.972 0.534,-0.474 1.088,-0.92 0.556,-0.448 1.132,-0.866 0.578,-0.42 1.174,-0.81 0.596,-0.39 1.212,-0.75 0.614,-0.362 1.246,-0.69 0.632,-0.33 1.28,-0.63 0.646,-0.298 1.308,-0.564 0.66,-0.266 1.334,-0.5 0.674,-0.234 1.358,-0.434 0.684,-0.2 1.376,-0.368 0.694,-0.166 1.394,-0.298 0.7,-0.132 1.408,-0.23 0.706,-0.098 1.416,-0.162 0.71,-0.062 1.422,-0.09 0.714,-0.028 1.426,-0.022 0.714,0.008 1.426,0.05 0.712,0.042 1.42,0.118 0.71,0.076 1.414,0.188 0.704,0.112 1.402,0.258 0.698,0.146 1.388,0.326 0.69,0.18 1.37,0.392 0.68,0.214 1.35,0.462 0.67,0.246 1.326,0.526 0.656,0.278 1.298,0.59 0.64,0.312 1.266,0.654 0.626,0.342 1.234,0.714 0.608,0.372 1.196,0.774 0.59,0.402 1.158,0.834 0.57,0.43 1.116,0.888 0.546,0.458 1.07,0.942 0.524,0.484 1.024,0.992 0.498,0.51 0.972,1.042 0.474,0.534 0.922,1.09 0.446,0.556 0.866,1.132 0.418,0.576 0.808,1.174 0.39,0.596 0.752,1.212 0.36,0.616 0.69,1.248 0.33,0.632 0.628,1.28 0.3,0.646 0.566,1.308 0.266,0.662 0.5,1.336 0.232,0.674 0.434,1.358 0.2,0.684 0.366,1.378 0.166,0.694 0.298,1.394 0.132,0.7 0.23,1.408 0.098,0.706 0.16,1.416 0.064,0.71 0.09,1.424 0.028,0.712 0.022,1.424 -0.008,0.714 -0.05,1.426 -0.042,0.712 -0.118,1.42 -0.078,0.71 -0.19,1.414 -0.112,0.704 -0.258,1.402 -0.146,0.698 -0.326,1.388 -0.18,0.69 -0.394,1.37 -0.214,0.682 -0.46,1.35 -0.248,0.67 -0.528,1.326 -0.28,0.656 -0.59,1.296 -0.312,0.642 -0.654,1.268 -0.344,0.626 -0.716,1.234 -0.372,0.608 -0.776,1.196 -0.402,0.59 -0.832,1.158 -0.43,0.568 -0.888,1.114 -0.458,0.548 -0.942,1.07 -0.486,0.524 -0.994,1.024 -0.51,0.498 -1.044,0.972 -0.532,0.474 -1.088,0.92 -0.556,0.446 -1.134,0.866 -0.576,0.418 -1.174,0.808 -0.596,0.39 -1.212,0.752 -0.616,0.36 -1.248,0.69 -0.632,0.328 -1.28,0.628 -0.648,0.298 -1.31,0.564 -0.66,0.266 -1.334,0.498 -0.674,0.234 -1.36,0.434 -0.684,0.2 -1.378,0.366 -0.694,0.166 -1.394,0.298 z m -8.876,-34.798 c -7.894,5.862 -3.4,13.018 5.308,12.224 7.48,-5.392 4.42,-13.676 -5.308,-12.224 z"
       id="path2-3"
       style="stroke-width:2" />
    <path
       fill="#82c3bf"
       d="m 580.78013,749.15232 c 6.76,-4.506 16.972,-12.87 25.364,-7.352 24.842,16.336 -36.682,34.332 -46.262,35.788 -35.882,5.456 -65.734,-7.954 -93.83,-28.758 -11.516,-8.528 -36.928,-22.228 -23.816,-36.464 23.452,-25.462 60.344,-47.972 95.87,-49.29 19.95,-2.566 41.44,3.998 58.956,13.042 7.6,3.924 21.16,14.118 9.852,22.596 -17.482,13.106 -52.494,-50.286 -140.766,21.858 24.776,22.83 60.694,40.904 94.804,34.226 6.746,-1.322 13.134,-4.062 19.828,-5.646 z"
       id="path3"
       style="stroke-width:2" />
  </g>
  <path
     fill="#82c3bf"
     d="m 191.81323,207.68907 -0.0132,-52.40983 c 0.001,-16.53045 -4.93103,-40.91215 17.58013,-44.10525 31.96353,-0.14266 34.89195,2.88647 34.88589,34.48114 l -0.0132,29.45644 c 20.92669,-12.86021 39.80967,-12.22354 63.1306,-12.22438 l 34.84361,0.008 c 0.10745,26.66761 -1.63886,51.71319 -20.73818,72.75109 14.48494,9.84879 21.94919,14.10905 35.10948,27.57394 53.92117,55.17083 69.28715,139.37559 36.77855,209.74926 -27.21982,58.92593 -79.3148,97.46177 -142.33299,109.22012 C 161.45483,598.09425 73.001893,548.14087 39.131199,463.78626 15.329138,404.50984 23.735114,338.49797 59.926177,286.54197 c 14.22146,-20.41666 35.705316,-40.88412 57.962673,-52.76695 -3.94361,-8.56045 -6.33541,-16.59151 -6.19281,-26.08738 z m 20.71399,-80.29015 h -4.50443 v 95.38662 h -77.74604 c 3.94363,10.76127 13.85886,18.99659 24.05693,23.69559 23.97357,11.0489 38.4162,-1.01764 63.85335,24.00617 11.33655,-10.57634 23.16258,-15.81557 38.29292,-18.46722 40.40551,-1.50107 69.64487,-33.32802 69.69805,-73.38789 l -26.02814,-0.0114 c -26.99744,0.007 -45.07672,2.97313 -65.6638,23.472 -2.25523,2.24676 -4.36544,4.47662 -6.06591,7.18143 l -0.0166,-54.65405 c -0.004,-26.18044 6.8358,-27.26188 -15.87721,-27.22176 z m -85.62001,118.26157 c -8.26675,5.46645 -16.70632,10.88213 -24.318,17.25017 -59.678892,49.9292 -77.913468,136.44841 -44.061507,206.3906 48.297607,99.79194 173.102457,130.00058 262.960987,66.76241 99.93936,-73.33347 98.74768,-224.56896 -10.68393,-288.67611 -8.96409,6.5421 -17.80009,12.40253 -28.46466,15.86876 -23.02603,7.48359 -32.55937,0.27798 -53.63109,18.51679 -3.56052,3.08189 -7.89693,6.49737 -10.52198,10.41198 -5.02168,-5.10749 -9.79561,-10.32738 -15.55574,-14.64688 -21.55397,-16.16365 -43.79198,-4.59626 -69.71017,-26.64936 -1.36086,-1.15783 -4.58295,-4.78964 -6.01391,-5.22836 z"
     id="path1-8"
     style="stroke-width:1.20858" />
  <path
     fill="#82c3bf"
     d="m 938.92367,112.54428 c 9.14454,-28.639336 -10.09584,-57.167514 -32.33508,-72.639119 -4.9493,-3.443199 -16.2676,-6.281456 -16.57938,-13.74399 -0.43794,-10.479509 14.22291,-9.632593 20.95443,-9.841506 49.84399,-4.885312 96.52816,42.023312 98.42346,93.304955 1.1673,31.57851 -10.55551,54.57828 -30.8284,77.20557 5.94123,11.6621 8.15555,25.83382 8.26429,38.91518 0.44815,53.92946 -38.71129,98.29044 -90.19247,104.11323 -9.33016,1.05581 -18.64001,0.7299 -28.00352,0.74943 -0.15807,7.07235 0.0391,14.18825 0,21.26509 l 40.73713,0.009 c 16.76791,0.0315 14.55935,2.82954 28.54588,-5.41577 l 33.09786,-19.76773 c 4.26194,-2.55469 28.50089,-21.30715 29.03173,-4.64832 0.2537,7.987 -22.59167,18.27486 -28.42412,21.83732 l -20.37438,12.32142 c -21.7781,13.32165 -20.99359,10.84355 -45.12236,10.84656 l -40.32821,-0.0166 c -0.95855,4.3975 -2.47828,8.36247 -4.28225,12.45659 14.40854,5.46983 36.27219,14.43605 49.83965,21.92743 10.25969,5.66507 13.05554,17.39775 18.02225,27.54895 l 10.84411,22.47561 c 1.98667,4.10464 7.02879,11.36622 6.48644,16.17824 -0.77437,6.86358 -8.96183,7.996 -12.73217,3.10738 -3.72105,-4.82253 -6.24138,-11.49688 -8.84292,-17.03581 l -11.50536,-24.47761 c -8.6399,-18.35747 -9.06913,-14.89563 -26.6375,-22.45308 -10.45401,-4.49663 -22.02029,-10.85708 -33.13267,-12.91316 -2.28685,6.17573 -7.49718,11.65007 -11.52565,16.68136 29.73355,14.16723 31.03576,16.61379 47.09309,43.0108 3.3295,5.47436 7.97139,11.28362 10.09728,17.39176 1.87938,5.40076 -9.40411,59.0899 -11.3647,62.56976 -1.30077,2.30838 -3.75873,2.79499 -6.06446,3.38373 -11.82583,-2.99925 -5.36113,-16.82254 -3.54991,-26.38199 2.2216,-11.72067 4.21407,-23.50741 7.05055,-35.0914 -2.51599,-5.1214 -5.96876,-9.9109 -8.81102,-14.8701 -14.36792,-25.07236 -19.16933,-25.76472 -46.21287,-37.6491 -12.78873,10.65434 -37.74553,27.81181 -54.61058,30.74798 -14.08369,2.45105 -43.4895,-21.19753 -56.46239,-30.74798 -6.9737,2.34444 -31.07492,14.27987 -36.26639,18.97324 -3.63114,3.28462 -16.68524,29.25359 -19.91613,35.2491 3.05253,13.63855 12.36963,39.73069 13.27597,52.10617 0.43649,5.96245 -7.49864,10.65884 -12.13037,6.89212 -3.59053,-2.92115 -4.2982,-11.17247 -5.36695,-15.43179 l -5.87448,-23.30015 c -1.78803,-7.17297 -4.69699,-14.60878 -5.49312,-21.96949 1.76047,-5.1229 22.89471,-44.94522 25.55136,-47.177 3.3034,-2.77248 8.99518,-4.69638 12.86703,-6.61428 l 21.88397,-11.09138 c -4.10678,-5.2896 -8.28317,-10.51614 -11.11237,-16.68136 -15.58169,5.61703 -38.84473,13.87736 -53.52298,21.49639 -3.61374,6.59174 -6.58651,13.70765 -9.65644,20.59375 l -9.79421,21.45285 c -2.19985,4.79399 -4.27354,13.53492 -9.31565,16.03405 -3.59488,1.78122 -8.82986,-0.018 -10.2771,-3.97698 -2.36371,-6.47158 12.51611,-32.87612 15.60199,-39.53245 2.86402,-6.18023 8.52388,-22.71289 13.02076,-26.88062 3.14967,-2.91965 49.5612,-20.47511 56.97139,-23.54494 -1.18622,-4.36446 -3.14534,-7.84582 -3.6645,-12.45659 h -22.9643 l -31.71877,-0.004 c -19.18818,0.0331 -16.24005,0.24631 -31.92035,-9.34919 L 574.65736,342.3261 c -5.56996,-3.44081 -17.56692,-9.89438 -21.95358,-14.11315 -5.27078,-5.06735 -0.50173,-14.61479 6.47921,-12.89514 5.59896,1.38022 49.30453,29.77775 57.06709,34.27738 7.36089,4.26683 16.71569,2.26333 24.79294,2.26032 l 41.2679,0.0166 V 328.93048 C 603.29026,342.92498 538.4642,264.63507 571.7571,185.31485 520.89381,134.24347 532.68064,48.960782 600.1652,23.095432 c 13.64722,-5.230738 42.14524,-10.834248 54.49747,-4.583126 4.86521,2.462622 5.8803,8.954498 1.81413,12.813571 -2.79152,2.650661 -7.5059,3.795998 -10.91227,5.495971 -26.43883,13.19626 -41.70292,46.425326 -33.86206,75.722482 23.14269,1.63704 47.64994,-7.25258 59.00304,-29.719182 3.61083,-7.142934 4.35619,-20.400021 15.33081,-17.214534 5.80633,1.685103 5.98469,9.651068 6.34578,14.665841 3.08153,42.889155 -17.95555,82.400575 -55.4038,102.186335 -6.80547,3.59549 -14.34327,5.29412 -21.03128,8.92565 l -0.58152,0.32292 c 12.50016,39.20353 52.23672,69.74573 88.49731,82.77753 9.32436,-16.81504 15.96887,-24.55872 32.44819,-32.33995 -17.17828,-5.21152 -17.54227,-36.46712 -2.6813,-41.43082 4.11258,-1.37272 8.31651,0.17421 9.47952,4.7294 1.90258,7.44932 -7.09695,11.46986 -5.18133,18.46862 1.79091,6.54368 11.73594,3.73516 14.62315,18.2328 h 44.79462 c 1.14851,-5.57197 2.84226,-9.5955 7.77416,-12.62629 13.63852,-8.37899 0.83964,-13.19551 1.32833,-23.36474 0.26827,-5.56445 5.49456,-6.04655 9.8319,-5.77471 14.35343,8.21527 14.22727,32.783 -2.10269,41.76574 16.58663,7.33668 22.42632,16.72793 32.26112,32.33995 37.58022,-15.63756 73.28541,-41.77325 86.81951,-82.77753 -41.2911,-13.05284 -71.16676,-44.96025 -75.32719,-91.125 -0.76568,-8.499132 -3.81821,-35.013292 8.78056,-35.669612 9.08945,-0.474603 10.08132,11.857324 13.65156,18.084115 12.20867,21.286127 35.2977,30.530197 58.56075,29.543467 z M 921.20158,32.263305 c 24.25494,16.853631 47.07423,63.671688 29.09838,91.141055 -3.05544,4.66934 -9.66079,4.04607 -14.46508,4.29538 -25.57892,1.32466 -47.35991,-9.47685 -63.5521,-29.35873 3.8124,23.72669 12.75972,45.27714 31.0285,60.93873 17.26674,13.38324 39.81778,22.32091 61.66984,19.39976 C 998.14856,149.51002 1005.2252,96.351016 976.13264,61.40981 963.02198,45.664117 941.71952,32.190916 921.20158,32.263305 Z m -296.69732,0 c -43.61278,7.381884 -76.2415,47.688699 -68.91325,94.146315 3.46147,21.94996 16.34154,37.19552 30.98935,52.26988 31.4679,0.19674 35.39632,-7.68962 58.93632,-19.39976 2.93943,-3.98899 6.86204,-6.94619 10.08568,-10.65433 12.37544,-14.23631 18.69802,-28.68889 21.88542,-47.50443 -17.50166,17.2626 -33.1486,27.20354 -58.82902,26.63883 -4.92755,-0.10807 -14.13881,0.11115 -17.72209,-3.73217 -5.40029,-5.79575 -6.90698,-24.865106 -6.46614,-32.795031 2.12155,-38.179246 28.20076,-51.539362 30.36,-58.959091 z M 598.99785,193.98515 c -5.01457,0.0632 -10.02912,0.0225 -15.04369,0 -17.89173,45.06086 3.58474,96.90871 47.18591,114.90873 14.19099,5.85882 29.25353,6.94619 44.36683,6.31088 3.50351,-1.42678 7.1535,-2.44805 10.76433,-3.54593 2.51018,-8.35795 5.98615,-15.8373 9.95082,-23.53744 -36.73043,-12.91014 -72.30221,-42.12318 -89.5733,-78.50919 -1.14996,-2.42104 -5.53806,-14.94219 -6.39799,-15.7427 z m 348.91229,0 c -11.10947,38.36698 -39.62345,65.48941 -73.05918,84.16377 -6.81852,3.80877 -14.21276,6.2403 -21.00085,9.97247 4.55344,8.53218 9.15616,17.39326 10.84991,27.08337 4.49108,-0.44004 8.87338,-0.14116 13.36589,0 67.21079,0.37097 108.12192,-53.08388 88.48134,-121.21961 -5.96294,1.4358 -12.63357,0.9657 -18.63711,0 z m -208.76848,63.77576 c -9.1315,2.34293 -18.39495,17.26861 -23.15719,25.43582 -13.76466,23.61255 -23.64877,48.8501 -17.04197,76.85112 8.76171,37.12645 40.62839,66.01657 74.882,78.09469 9.39541,-2.75445 18.10927,-6.80501 26.51858,-11.92643 55.12103,-35.07186 69.26855,-83.90844 34.91197,-141.37932 -17.99906,-30.10967 -18.41959,-27.07437 -47.92401,-27.08338 -16.05588,-0.005 -32.1364,-0.21027 -48.18938,0.008 z"
     id="path1"
     style="stroke-width:1.47578" />
</svg>
