<?xml version="1.0" encoding="UTF-8" standalone="no"?>
<svg
   width="1024"
   height="1024"
   version="1.1"
   id="svg9"
   sodipodi:docname="peso.svg"
   inkscape:version="1.3.2 (091e20e, 2023-11-25)"
   xmlns:inkscape="http://www.inkscape.org/namespaces/inkscape"
   xmlns:sodipodi="http://sodipodi.sourceforge.net/DTD/sodipodi-0.dtd"
   xmlns="http://www.w3.org/2000/svg"
   xmlns:svg="http://www.w3.org/2000/svg">
  <defs
     id="defs9" />
  <sodipodi:namedview
     id="namedview9"
     pagecolor="#ffffff"
     bordercolor="#000000"
     borderopacity="0.25"
     inkscape:showpageshadow="2"
     inkscape:pageopacity="0.0"
     inkscape:pagecheckerboard="0"
     inkscape:deskcolor="#d1d1d1"
     inkscape:zoom="0.41699219"
     inkscape:cx="900.49649"
     inkscape:cy="510.80094"
     inkscape:window-width="1392"
     inkscape:window-height="1027"
     inkscape:window-x="0"
     inkscape:window-y="25"
     inkscape:window-maximized="0"
     inkscape:current-layer="svg9" />
  <g
     id="g9"
     transform="matrix(1.6793953,0,0,1.6793953,-348.23852,-347.29101)">
    <path
       fill="#82c3bf"
       transform="scale(2)"
       d="m 359.795,396.997 c -9.118,6.284 -17.552,6.891 -28.127,6.84 l -150.863,-0.008 c -20.708,0.008 -38.601,-4.867 -45.048,-28.196 -1.747,-6.321 -1.784,-13.374 -2.474,-19.899 L 112.169,161.577 c -1.687,-14.936 -3.749,-26.826 6.512,-39.567 6.772,-8.408 16.3,-13.347 26.981,-14.484 17.146,-0.214 34.324,0.005 51.473,0.006 l 148.343,-0.013 c 7.462,-0.006 17.57,-0.656 24.736,0.537 17.1,2.847 30.945,18.634 31.554,35.968 0.263,7.505 -1.511,17.924 -2.364,25.561 l -20.533,186.467 c -2.079,17.278 -3.128,29.644 -19.076,40.945 z M 148.22,117.841 c -8.03,0.553 -15.141,3.37 -20.534,9.546 -9.873,11.305 -6.238,23.92 -4.84,37.307 l 21.112,195.697 c 0.477,4.057 0.734,8.257 1.701,12.23 6.019,24.745 30.866,21.077 49.833,21.062 l 131.82,0.01 c 16.678,0.016 32.75,-1.976 38.572,-21.403 3.631,-12.116 5.618,-42.1 6.925,-55.349 l 16.668,-153.286 c 0.742,-6.307 2.064,-13.235 1.693,-19.564 -1.386,-23.644 -21.199,-26.308 -39.321,-26.277 l -23.615,0.027 -10e-4,30.43 c -10e-4,8.621 0.885,19.22 -1.382,27.485 -8.258,30.1 -35.109,27.79 -58.91,27.765 l -43.198,-0.003 c -11.135,-0.036 -21.02,-3.352 -28.963,-11.436 -13.679,-13.924 -12.014,-29.363 -12.01,-47.519 l 0.011,-26.722 c -11.851,-0.008 -23.712,-0.119 -35.561,0 z m 45.844,0 0.003,30.497 c 0.003,6.889 -0.748,15.827 0.919,22.405 3.361,13.256 14.957,22.226 28.558,22.55 2.867,-42 61.863,-40.386 64.551,0 l 0.31,0.359 c 12.46,-0.079 25.189,-8.042 28.406,-20.529 1.729,-6.71 0.956,-15.939 0.956,-22.964 l -0.01,-32.318 z m 59.29,54.972 c -11.498,1.961 -17.664,9.416 -19.442,20.48 h 25.15 19.176 c -3.953,-13.069 -10.103,-21.414 -24.884,-20.48 z"
       id="path1" />
    <path
       fill="#82c3bf"
       transform="scale(2)"
       d="m 257.153,146.174 c -9.826,-0.441 -8.19,-14.889 -1.548,-16.635 8.018,0.345 8.458,14.724 1.548,16.635 z"
       id="path2" />
    <path
       fill="#82c3bf"
       transform="scale(2)"
       d="m 226.643,140.871 c 0.686,-2.567 1.561,-3.98 4.14,-5.075 7.516,-0.423 12.173,11.495 4.874,15.407 -5.51,0.456 -7.874,-5.827 -9.014,-10.332 z"
       id="path3" />
    <path
       fill="#82c3bf"
       transform="scale(2)"
       d="m 279.551,151.203 c -10.126,0.973 -7.5,-11.938 -1.313,-15.407 10.772,-0.758 7.459,11.159 1.313,15.407 z"
       id="path4" />
    <path
       fill="#82c3bf"
       transform="scale(2)"
       d="m 218.706,167.307 c -6.259,0.644 -16.936,-10.636 -7.686,-14.539 5.874,-1.18 16.957,9.385 7.686,14.539 z"
       id="path5" />
    <path
       fill="#82c3bf"
       transform="scale(2)"
       d="m 296.688,167.307 c -11.789,0.19 -4.837,-12.278 3.24,-14.539 11.769,0.897 3.205,11.917 -3.24,14.539 z"
       id="path6" />
    <path
       fill="#82c3bf"
       transform="scale(2)"
       d="m 257.153,334.729 c -9.782,0.429 -6.321,-13.659 -6.321,-20.755 l 0.004,-56.361 c 0,-6.266 -2.246,-18.423 3.72,-21.338 7.15,-0.41 6.574,4.226 6.7,9.667 0.375,16.165 0.038,32.424 0.036,48.599 l 0.003,21.734 c 0.014,5.992 2.197,16.087 -4.142,18.454 z"
       id="path7" />
    <path
       fill="#82c3bf"
       transform="scale(2)"
       d="m 218.706,368.455 c -7.125,0.758 -33.157,0.292 -37.949,-1.22 -7.449,-2.349 -12.978,-8.892 -13.912,-16.637 -0.76,-6.301 -3.131,-35.375 3.408,-38.325 7.235,-0.426 6.586,6.265 6.564,11.679 l -0.066,16.232 c -0.026,6.961 -0.994,15.078 7.276,17.479 9.047,2.627 25.629,-1.204 34.158,0.855 5.878,1.418 5.035,7.537 0.521,9.937 z"
       id="path8" />
    <path
       fill="#82c3bf"
       transform="scale(2)"
       d="m 296.688,368.455 c -3.969,0.098 -7.79,-2.812 -6.303,-7.131 3.009,-8.743 38.688,4.647 43.746,-9.698 3.289,-9.33 -3.849,-35.551 4.677,-39.353 5.643,-0.394 6.631,3.003 6.696,7.862 0.091,6.781 0.852,27.712 -0.649,33.195 -4.231,15.452 -18.058,15.164 -30.526,15.142 z"
       id="path9" />
  </g>
</svg>
