<?xml version="1.0" encoding="UTF-8" standalone="no"?>
<svg
   width="1024"
   height="1024"
   version="1.1"
   id="svg3"
   sodipodi:docname="preferencias.svg"
   inkscape:version="1.3.2 (091e20e, 2023-11-25)"
   xmlns:inkscape="http://www.inkscape.org/namespaces/inkscape"
   xmlns:sodipodi="http://sodipodi.sourceforge.net/DTD/sodipodi-0.dtd"
   xmlns="http://www.w3.org/2000/svg"
   xmlns:svg="http://www.w3.org/2000/svg">
  <defs
     id="defs3" />
  <sodipodi:namedview
     id="namedview3"
     pagecolor="#ffffff"
     bordercolor="#000000"
     borderopacity="0.25"
     inkscape:showpageshadow="2"
     inkscape:pageopacity="0.0"
     inkscape:pagecheckerboard="0"
     inkscape:deskcolor="#d1d1d1"
     inkscape:zoom="0.41699219"
     inkscape:cx="607.92506"
     inkscape:cy="112.71194"
     inkscape:window-width="1392"
     inkscape:window-height="1027"
     inkscape:window-x="523"
     inkscape:window-y="25"
     inkscape:window-maximized="0"
     inkscape:current-layer="svg3" />
  <path
     fill="#B6DED8"
     d="M 483.49633,216.48083 C 500.3046,104.97109 600.983,21.399948 711.55774,12.099135 732.19571,9.7162416 776.53487,8.6339237 775.90429,37.917664 773.44719,151.93043 678.74573,259.374 564.42284,271.75461 c -17.75415,1.92164 -35.65235,1.45414 -53.46901,1.08449 4.10422,11.46191 7.97469,22.92383 11.57064,34.5597 30.53702,-13.44064 53.36844,-25.95443 86.68056,-34.74725 117.7911,-31.0915 236.90315,3.83514 299.01004,113.75211 99.41453,175.9487 -15.19648,441.23619 -155.28626,562.10952 -51.92245,44.79851 -123.99634,80.51882 -192.06931,49.22889 -39.15316,-17.99333 -47.67145,-25.44344 -87.74875,-5.31918 -38.79166,19.48281 -69.05145,21.26041 -110.93351,9.44791 C 271.85995,975.68529 193.82543,880.55438 152.09286,800.00296 69.587176,640.76469 20.169658,387.68385 213.78117,288.1742 c 88.61309,-45.54052 180.26221,-22.82055 269.71516,5.99868 -20.69505,-60.53587 -66.21383,-121.8192 -120.59881,-156.59635 -10.23881,-6.54772 -29.9608,-13.62546 -26.9139,-29.21334 4.8843,-25.002577 29.24868,-9.398934 40.34094,-2.37012 43.17313,27.35965 80.62481,66.9776 107.17177,110.48776 z M 725.00925,45.537922 C 617.33193,47.872434 524.00851,131.26528 514.36223,239.546 h 19.99108 c 110.9308,-2.31576 196.99709,-84.33763 207.76863,-194.008078 -5.70514,-0.04893 -11.40484,-0.081 -17.11269,0 z M 312.51347,296.13802 c -141.44879,9.89905 -210.19039,131.62041 -200.14728,264.21931 8.14049,107.44085 55.46404,221.57348 122.50415,305.61484 41.80052,52.40354 112.17021,115.02686 182.7954,109.17223 35.2827,-2.92731 55.48035,-28.68876 93.10598,-28.83554 54.21375,-0.212 67.08088,43.8173 135.64037,24.57639 C 749.21327,942.03069 833.3253,812.63906 872.1659,719.68529 909.70183,626.37546 931.21501,522.0087 890.24349,425.98084 827.64735,279.26451 657.27604,265.25581 531.30913,341.37141 c 1.2068,9.57017 2.67182,19.17567 3.04418,28.82194 25.93541,-6.00955 47.66331,-12.22024 70.66325,-26.20992 10.75794,-6.54501 42.69747,-35.06797 49.12832,-4.56628 2.59843,12.32081 -12.5899,21.42348 -21.02122,27.12589 -75.59917,51.11248 -176.46512,50.54713 -250.9499,-3.8161 -15.78086,-11.519 -14.85402,-31.62152 2.76967,-33.73886 9.46416,-1.13614 18.15369,7.21636 25.70165,11.64674 27.89238,16.37067 56.96439,27.16395 89.48285,29.55853 0.1359,-12.29906 -1.30193,-24.23663 -4.66685,-36.08451 -51.26741,-18.11021 -128.51914,-43.58083 -182.94761,-37.97082 z"
     id="path1"
     style="fill:#82c3bf;fill-opacity:1;stroke-width:2.71803" />
  <path
     fill="#B6DED8"
     d="m 180.90937,533.01942 c -24.77481,2.60387 -19.54261,-23.41308 -16.60442,-38.26709 13.67167,-69.14386 54.51273,-134.99076 130.34293,-144.29456 13.48413,-1.14429 24.03551,11.77449 16.73761,24.64434 -9.90177,17.45516 -88.64298,4.34069 -112.65946,118.70978 -3.32687,15.83794 1.10623,34.08133 -17.81666,39.20753 z"
     id="path2"
     style="fill:#82c3bf;fill-opacity:1;stroke-width:2.71803" />
  <path
     fill="#B6DED8"
     d="m 217.41246,716.05944 c -7.4936,1.73411 -14.10112,0.13862 -18.19991,-6.9065 -11.3396,-19.48825 -40.18329,-121.33812 -34.1683,-140.04085 1.50579,-4.68316 5.54477,-7.46098 9.73325,-9.54299 30.09398,-1.93252 23.2201,32.49672 28.83826,56.45883 4.3733,18.64838 9.94525,37.12824 16.06081,55.27378 5.38169,15.9684 18.66469,34.88043 -2.26411,44.75773 z"
     id="path3"
     style="fill:#82c3bf;fill-opacity:1;stroke-width:2.71803" />
</svg>
