<?xml version="1.0" encoding="utf-8"?>
<!-- Generator: Adobe Illustrator 24.1.0, SVG Export Plug-In . SVG Version: 6.00 Build 0)  -->
<svg version="1.1" id="Capa_1" xmlns="http://www.w3.org/2000/svg" xmlns:xlink="http://www.w3.org/1999/xlink" x="0px" y="0px"
	 viewBox="0 0 1024 1024" style="enable-background:new 0 0 1024 1024;" xml:space="preserve">
<style type="text/css">
	.st0{fill:#82C3BF;}
</style>
<g>
	<path class="st0" d="M360.7,402c-10.9-23.3-28.7-48.5-41.6-71.4c-42.7-75.2-87.1-149.4-130.4-224.3L157.3,52
		c-7.5-13-27.6-35-5.4-44.6c14.4-0.6,29.2,0,43.6,0l145.3,0c53.1,0,37.7-1.3,66,46.3l87.4,149.7c6.9,12,13.2,24.6,22.1,35.4
		c5.1-11.8,12.5-22.8,18.9-33.9l76.3-132.8c11.2-19.7,27-63.4,50.5-64.7c31.3-1.7,202.7-1.1,209.9,1.6c21.5,8,3,31.8-3.6,43.6
		c-12.1,21.9-25.1,43-37.6,64.7L681.7,376.7c-5.4,9.5-11,18.9-15.8,28.7c19.6,16,16.5,43.1,16.5,65.5l0,48.9
		c65.9,41.3,92,117.9,106.8,189.5c-0.6,17.6,0.9,35-0.6,52.7c-12.9,152.2-146.7,267.9-299.6,254.3
		c-153.4-13.6-269.2-147.7-255.2-302.1c7.8-85.8,45.3-145.7,109.3-199C343.9,471,332.5,437.5,360.7,402z M196.2,37.1h-11.6
		c8.2,17.7,20.5,35.9,30.3,53.1l135.6,233.7c11.1,19.3,27.1,50,41.3,66.3h164.9h9.4c-6.2-14.3-15.3-27.9-23.2-41.3L363.1,37.1H196.2
		z M665.9,37.1c-18,32.9-37,65.2-55.7,97.7l-63,109.2c-5,8.8-10.7,18-14.5,27.3c22.9,38.4,47.3,79.7,68.9,118.9h37.9l26.4-45
		l118.4-206c19.7-34,38.9-68.5,59.3-102.1H665.9z M391.9,420c-27.6,10-19.8,51.2-19.2,75.7c79.9-41.5,156.6-51.4,243.2-16.1
		c12.8,5.4,25.1,11.3,37.1,18.5c0-13.9,1.6-47.8-0.8-59.7c-4.7-23.3-35.1-18.4-52.7-18.4l-51.5,0C497.6,420,441.4,417.1,391.9,420z
		 M502.8,489.4c-4.1,0.1-8.1,0.4-12.2,0.7c-4.1,0.3-8.1,0.8-12.1,1.3c-4,0.5-8,1.2-12,1.9c-4,0.7-8,1.6-11.9,2.5
		c-4,0.9-7.9,1.9-11.8,3.1c-3.9,1.1-7.8,2.3-11.6,3.6c-3.8,1.3-7.7,2.7-11.4,4.2c-3.8,1.5-7.5,3.1-11.2,4.8c-3.7,1.7-7.4,3.4-11,5.3
		c-3.6,1.9-7.2,3.8-10.7,5.8c-3.5,2-7,4.1-10.4,6.3c-3.4,2.2-6.8,4.5-10.1,6.9c-3.3,2.4-6.6,4.8-9.7,7.3c-3.2,2.5-6.3,5.1-9.4,7.8
		c-3.1,2.7-6,5.4-9,8.3c-2.9,2.8-5.8,5.7-8.6,8.7c-2.8,3-5.5,6-8.1,9.1c-2.6,3.1-5.2,6.3-7.7,9.5c-2.5,3.2-4.9,6.5-7.2,9.8
		c-2.3,3.3-4.5,6.7-6.7,10.2c-2.1,3.5-4.2,7-6.2,10.5c-2,3.6-3.9,7.1-5.7,10.8c-1.8,3.6-3.5,7.3-5.1,11.1c-1.6,3.7-3.1,7.5-4.6,11.3
		c-1.4,3.8-2.8,7.6-4,11.5c-1.2,3.9-2.4,7.8-3.4,11.7c-1.1,3.9-2,7.9-2.9,11.8c-0.9,4-1.6,8-2.3,12c-0.7,4-1.2,8-1.7,12.1
		c-0.5,4-0.8,8.1-1.1,12.1c-0.3,4.1-0.4,8.1-0.5,12.2c-0.1,4.1,0,8.1,0.1,12.2s0.4,8.1,0.7,12.2c0.3,4.1,0.8,8.1,1.3,12.1
		c0.5,4,1.2,8,1.9,12c0.7,4,1.5,8,2.5,11.9c0.9,4,1.9,7.9,3,11.8c1.1,3.9,2.3,7.8,3.6,11.6c1.3,3.8,2.7,7.7,4.2,11.4
		c1.5,3.8,3.1,7.5,4.7,11.2c1.7,3.7,3.4,7.4,5.3,11c1.9,3.6,3.8,7.2,5.8,10.7c2,3.5,4.1,7,6.3,10.4c2.2,3.4,4.5,6.8,6.8,10.1
		c2.4,3.3,4.8,6.6,7.3,9.7c2.5,3.2,5.1,6.3,7.8,9.4c2.7,3.1,5.4,6.1,8.2,9c2.8,2.9,5.7,5.8,8.7,8.6c3,2.8,6,5.5,9.1,8.1
		c3.1,2.6,6.3,5.2,9.5,7.7c3.2,2.5,6.5,4.9,9.8,7.2c3.3,2.3,6.7,4.6,10.2,6.7c3.4,2.2,6.9,4.2,10.5,6.2c3.5,2,7.1,3.9,10.8,5.7
		c3.6,1.8,7.3,3.5,11.1,5.1c3.7,1.6,7.5,3.2,11.3,4.6c3.8,1.4,7.6,2.8,11.5,4c3.9,1.2,7.8,2.4,11.7,3.5c3.9,1.1,7.9,2,11.8,2.9
		c4,0.9,8,1.6,12,2.3c4,0.7,8,1.2,12.1,1.7c4,0.5,8.1,0.8,12.1,1.1c4.1,0.3,8.1,0.4,12.2,0.5c4.1,0.1,8.1,0,12.2-0.1
		c4.1-0.1,8.1-0.4,12.2-0.7c4.1-0.3,8.1-0.7,12.1-1.3c4-0.5,8.1-1.1,12.1-1.9c4-0.7,8-1.5,12-2.5c4-0.9,7.9-1.9,11.8-3
		c3.9-1.1,7.8-2.3,11.7-3.6c3.9-1.3,7.7-2.7,11.5-4.2c3.8-1.5,7.5-3.1,11.2-4.7c3.7-1.7,7.4-3.4,11-5.3c3.6-1.9,7.2-3.8,10.7-5.8
		c3.5-2,7-4.1,10.4-6.3c3.4-2.2,6.8-4.5,10.1-6.8c3.3-2.4,6.6-4.8,9.8-7.3c3.2-2.5,6.3-5.1,9.4-7.8c3.1-2.7,6.1-5.4,9-8.3
		c2.9-2.8,5.8-5.7,8.6-8.7c2.8-3,5.5-6,8.1-9.1c2.6-3.1,5.2-6.3,7.7-9.5c2.5-3.2,4.9-6.5,7.2-9.9c2.3-3.3,4.6-6.7,6.7-10.2
		c2.2-3.5,4.2-7,6.2-10.5c2-3.6,3.9-7.2,5.7-10.8c1.8-3.6,3.5-7.3,5.1-11.1c1.6-3.7,3.2-7.5,4.6-11.3c1.4-3.8,2.8-7.6,4-11.5
		c1.2-3.9,2.4-7.8,3.5-11.7s2-7.9,2.9-11.9c0.9-4,1.6-8,2.3-12c0.7-4,1.2-8,1.7-12.1c0.5-4,0.8-8.1,1.1-12.2
		c0.3-4.1,0.4-8.1,0.5-12.2c0.1-4.1,0-8.1-0.1-12.2c-0.1-4.1-0.4-8.1-0.7-12.2c-0.3-4.1-0.8-8.1-1.3-12.1c-0.5-4-1.2-8.1-1.9-12.1
		c-0.7-4-1.5-8-2.5-12c-0.9-4-1.9-7.9-3.1-11.8c-1.1-3.9-2.3-7.8-3.6-11.7c-1.3-3.9-2.7-7.7-4.2-11.5c-1.5-3.8-3.1-7.5-4.8-11.2
		c-1.7-3.7-3.4-7.4-5.3-11c-1.9-3.6-3.8-7.2-5.8-10.7c-2-3.5-4.2-7-6.4-10.4c-2.2-3.4-4.5-6.8-6.9-10.1c-2.4-3.3-4.8-6.6-7.3-9.7
		c-2.5-3.2-5.1-6.3-7.8-9.4c-2.7-3.1-5.4-6.1-8.3-9c-2.8-2.9-5.7-5.8-8.7-8.6c-3-2.8-6-5.5-9.1-8.1c-3.1-2.6-6.3-5.2-9.5-7.7
		c-3.2-2.5-6.5-4.9-9.9-7.2c-3.3-2.3-6.7-4.5-10.2-6.7c-3.5-2.1-7-4.2-10.5-6.2c-3.6-2-7.2-3.9-10.8-5.7c-3.6-1.8-7.3-3.5-11.1-5.1
		c-3.7-1.6-7.5-3.1-11.3-4.6c-3.8-1.4-7.6-2.8-11.5-4c-3.9-1.2-7.8-2.4-11.7-3.4c-3.9-1.1-7.9-2-11.9-2.9c-4-0.9-8-1.6-12-2.3
		c-4-0.7-8-1.2-12.1-1.7c-4-0.5-8.1-0.8-12.2-1.1c-4.1-0.3-8.1-0.4-12.2-0.5C511,489.2,506.9,489.2,502.8,489.4z"/>
	<path class="st0" d="M524.9,955.1c-3.5,0.2-7.1,0.4-10.6,0.4c-3.5,0.1-7.1,0-10.6-0.1c-3.5-0.1-7.1-0.3-10.6-0.6
		c-3.5-0.3-7.1-0.7-10.6-1.1c-3.5-0.5-7-1-10.5-1.7c-3.5-0.6-7-1.4-10.4-2.2c-3.5-0.8-6.9-1.7-10.3-2.7c-3.4-1-6.8-2-10.2-3.2
		c-3.4-1.1-6.7-2.4-10-3.7c-3.3-1.3-6.6-2.7-9.8-4.2c-3.2-1.5-6.4-3-9.6-4.6c-3.2-1.6-6.3-3.3-9.3-5.1c-3.1-1.8-6.1-3.6-9.1-5.5
		c-3-1.9-5.9-3.9-8.8-6c-2.9-2.1-5.7-4.2-8.5-6.4c-2.8-2.2-5.5-4.5-8.2-6.8c-2.7-2.3-5.3-4.7-7.8-7.2c-2.5-2.5-5-5-7.5-7.6
		c-2.4-2.6-4.8-5.2-7.1-7.9c-2.3-2.7-4.5-5.5-6.7-8.3c-2.2-2.8-4.2-5.7-6.3-8.6c-2-2.9-4-5.9-5.8-8.9c-1.9-3-3.7-6.1-5.4-9.2
		c-1.7-3.1-3.4-6.2-4.9-9.4c-1.6-3.2-3.1-6.4-4.5-9.7c-1.4-3.3-2.7-6.5-4-9.9c-1.3-3.3-2.4-6.7-3.5-10c-1.1-3.4-2.1-6.8-3-10.2
		c-0.9-3.4-1.8-6.9-2.5-10.3c-0.8-3.5-1.4-6.9-2-10.4c-0.6-3.5-1.1-7-1.5-10.5c-0.4-3.5-0.7-7.1-1-10.6c-0.2-3.5-0.4-7.1-0.4-10.6
		c-0.1-3.5,0-7.1,0.1-10.6c0.1-3.5,0.3-7.1,0.6-10.6c0.3-3.5,0.7-7.1,1.1-10.6c0.5-3.5,1-7,1.6-10.5c0.6-3.5,1.3-7,2.1-10.4
		c0.8-3.5,1.7-6.9,2.7-10.3c1-3.4,2-6.8,3.2-10.2c1.1-3.4,2.4-6.7,3.7-10c1.3-3.3,2.7-6.6,4.1-9.8c1.5-3.2,3-6.4,4.6-9.6
		c1.6-3.2,3.3-6.3,5.1-9.3c1.8-3.1,3.6-6.1,5.5-9.1c1.9-3,3.9-5.9,6-8.8c2.1-2.9,4.2-5.7,6.4-8.5s4.5-5.5,6.8-8.2
		c2.3-2.7,4.7-5.3,7.2-7.8c2.5-2.6,5-5,7.6-7.5c2.6-2.4,5.2-4.8,7.9-7.1c2.7-2.3,5.5-4.5,8.3-6.7c2.8-2.2,5.7-4.3,8.6-6.3
		c2.9-2,5.9-4,8.9-5.9c3-1.9,6.1-3.7,9.2-5.4c3.1-1.7,6.2-3.4,9.4-5c3.2-1.6,6.4-3.1,9.6-4.5c3.3-1.4,6.5-2.8,9.9-4
		c3.3-1.3,6.7-2.4,10-3.5c3.4-1.1,6.8-2.1,10.2-3c3.4-0.9,6.9-1.8,10.3-2.5c3.5-0.8,6.9-1.4,10.4-2c3.5-0.6,7-1.1,10.5-1.5
		c3.5-0.4,7.1-0.7,10.6-1c3.5-0.2,7.1-0.4,10.7-0.5c3.6-0.1,7.1,0,10.7,0.1c3.6,0.1,7.1,0.3,10.7,0.6c3.5,0.3,7.1,0.6,10.6,1.1
		c3.5,0.5,7,1,10.5,1.6c3.5,0.6,7,1.3,10.5,2.1c3.5,0.8,6.9,1.7,10.3,2.6c3.4,1,6.8,2,10.2,3.2c3.4,1.1,6.7,2.4,10,3.7
		c3.3,1.3,6.6,2.7,9.8,4.1c3.2,1.5,6.4,3,9.6,4.6c3.2,1.6,6.3,3.3,9.4,5.1c3.1,1.8,6.1,3.6,9.1,5.5c3,1.9,5.9,3.9,8.8,6
		c2.9,2.1,5.7,4.2,8.5,6.4c2.8,2.2,5.5,4.5,8.2,6.8c2.7,2.3,5.3,4.7,7.9,7.2c2.6,2.5,5.1,5,7.5,7.6c2.4,2.6,4.8,5.2,7.1,8
		c2.3,2.7,4.5,5.5,6.7,8.3c2.2,2.8,4.3,5.7,6.3,8.6c2,2.9,4,5.9,5.9,8.9c1.9,3,3.7,6.1,5.4,9.2c1.7,3.1,3.4,6.3,5,9.4
		c1.6,3.2,3.1,6.4,4.5,9.7c1.4,3.3,2.8,6.6,4,9.9c1.3,3.3,2.4,6.7,3.5,10.1c1.1,3.4,2.1,6.8,3,10.2c0.9,3.4,1.8,6.9,2.5,10.4
		c0.8,3.5,1.4,7,2,10.5c0.6,3.5,1.1,7,1.5,10.6c0.4,3.5,0.7,7.1,1,10.6c0.2,3.5,0.4,7.1,0.4,10.7c0.1,3.6,0,7.1-0.1,10.7
		c-0.1,3.6-0.3,7.1-0.6,10.7c-0.3,3.5-0.7,7.1-1.1,10.6c-0.5,3.5-1,7-1.6,10.5c-0.6,3.5-1.4,7-2.2,10.4c-0.8,3.5-1.7,6.9-2.7,10.3
		c-1,3.4-2,6.8-3.2,10.2c-1.1,3.4-2.4,6.7-3.7,10c-1.3,3.3-2.7,6.6-4.2,9.8c-1.5,3.2-3,6.4-4.6,9.6c-1.6,3.2-3.3,6.3-5.1,9.4
		c-1.8,3.1-3.6,6.1-5.6,9.1c-1.9,3-3.9,5.9-6,8.8c-2.1,2.9-4.2,5.7-6.4,8.5c-2.2,2.8-4.5,5.5-6.8,8.2c-2.3,2.7-4.8,5.3-7.2,7.8
		c-2.5,2.6-5,5-7.6,7.5c-2.6,2.4-5.3,4.8-8,7.1c-2.7,2.3-5.5,4.5-8.3,6.7c-2.8,2.2-5.7,4.3-8.6,6.3c-2.9,2-5.9,4-8.9,5.9
		c-3,1.9-6.1,3.7-9.2,5.4c-3.1,1.7-6.3,3.4-9.5,4.9c-3.2,1.6-6.4,3.1-9.7,4.5c-3.3,1.4-6.6,2.7-9.9,4c-3.3,1.3-6.7,2.4-10.1,3.5
		c-3.4,1.1-6.8,2.1-10.2,3c-3.4,0.9-6.9,1.7-10.4,2.5c-3.5,0.7-7,1.4-10.5,2c-3.5,0.6-7,1.1-10.6,1.5
		C532,954.5,528.5,954.8,524.9,955.1z M499.3,551.8c-3.1,0.2-6.1,0.5-9.1,0.8c-3,0.3-6.1,0.8-9.1,1.2c-3,0.5-6,1.1-9,1.7
		c-3,0.6-6,1.3-8.9,2.1c-3,0.8-5.9,1.6-8.8,2.6c-2.9,0.9-5.8,1.9-8.7,3c-2.9,1.1-5.7,2.2-8.5,3.4c-2.8,1.2-5.6,2.5-8.3,3.8
		c-2.7,1.3-5.5,2.8-8.1,4.2c-2.7,1.5-5.3,3-7.9,4.6c-2.6,1.6-5.2,3.3-7.7,5c-2.5,1.7-5,3.5-7.4,5.4c-2.4,1.9-4.8,3.8-7.1,5.7
		c-2.3,2-4.6,4-6.9,6.1c-2.2,2.1-4.4,4.2-6.5,6.4c-2.1,2.2-4.2,4.4-6.2,6.7c-2,2.3-4,4.6-5.9,7c-1.9,2.4-3.8,4.8-5.5,7.3
		c-1.8,2.5-3.5,5-5.2,7.6c-1.7,2.6-3.3,5.2-4.8,7.8c-1.5,2.6-3,5.3-4.4,8c-1.4,2.7-2.7,5.5-4,8.2c-1.3,2.8-2.5,5.6-3.6,8.4
		c-1.1,2.8-2.2,5.7-3.2,8.6c-1,2.9-1.9,5.8-2.8,8.7c-0.8,2.9-1.6,5.9-2.3,8.9c-0.7,3-1.3,6-1.9,9c-0.6,3-1,6-1.4,9.1
		c-0.4,3-0.7,6.1-1,9.1c-0.3,3-0.4,6.1-0.5,9.1c-0.1,3.1-0.1,6.1-0.1,9.2c0,3.1,0.2,6.1,0.4,9.2c0.2,3.1,0.5,6.1,0.8,9.1
		c0.3,3,0.8,6.1,1.2,9.1c0.5,3,1.1,6,1.7,9c0.6,3,1.3,6,2.1,8.9c0.8,3,1.6,5.9,2.6,8.8c0.9,2.9,1.9,5.8,3,8.7
		c1.1,2.9,2.2,5.7,3.4,8.5c1.2,2.8,2.5,5.6,3.8,8.3c1.3,2.7,2.8,5.5,4.2,8.1c1.5,2.7,3,5.3,4.6,7.9c1.6,2.6,3.3,5.2,5,7.7
		c1.7,2.5,3.5,5,5.4,7.4c1.9,2.4,3.8,4.8,5.7,7.1c2,2.3,4,4.6,6.1,6.9c2.1,2.2,4.2,4.4,6.4,6.5c2.2,2.1,4.4,4.2,6.7,6.2
		c2.3,2,4.6,4,7,5.9c2.4,1.9,4.8,3.7,7.3,5.5c2.5,1.8,5,3.5,7.6,5.2c2.6,1.7,5.2,3.3,7.8,4.8c2.6,1.5,5.3,3,8,4.4
		c2.7,1.4,5.5,2.7,8.2,4c2.8,1.3,5.6,2.5,8.4,3.6c2.8,1.1,5.7,2.2,8.6,3.2c2.9,1,5.8,1.9,8.7,2.8c2.9,0.8,5.9,1.6,8.9,2.3
		c3,0.7,6,1.3,9,1.9c3,0.6,6,1,9.1,1.4c3,0.4,6.1,0.7,9.1,1c3,0.3,6.1,0.4,9.1,0.5c3.1,0.1,6.1,0.1,9.2,0.1c3.1,0,6.1-0.2,9.2-0.4
		c3-0.2,6.1-0.5,9.1-0.8c3-0.3,6.1-0.8,9.1-1.2c3-0.5,6-1.1,9-1.7c3-0.6,6-1.3,8.9-2.1c3-0.8,5.9-1.6,8.8-2.6c2.9-0.9,5.8-1.9,8.7-3
		c2.9-1.1,5.7-2.2,8.5-3.4c2.8-1.2,5.6-2.5,8.3-3.8c2.7-1.3,5.5-2.8,8.1-4.2c2.7-1.5,5.3-3,7.9-4.6c2.6-1.6,5.2-3.3,7.7-5
		c2.5-1.7,5-3.5,7.4-5.4c2.4-1.9,4.8-3.8,7.1-5.7c2.3-2,4.6-4,6.9-6.1c2.2-2.1,4.4-4.2,6.5-6.4c2.1-2.2,4.2-4.4,6.2-6.7
		c2-2.3,4-4.6,5.9-7c1.9-2.4,3.7-4.8,5.5-7.3c1.8-2.5,3.5-5,5.2-7.6c1.7-2.6,3.3-5.2,4.8-7.8c1.5-2.6,3-5.3,4.4-8
		c1.4-2.7,2.7-5.5,4-8.2c1.3-2.8,2.5-5.6,3.6-8.4c1.1-2.8,2.2-5.7,3.2-8.6c1-2.9,1.9-5.8,2.8-8.7c0.8-2.9,1.6-5.9,2.3-8.9
		c0.7-3,1.3-6,1.9-9c0.6-3,1-6,1.4-9c0.4-3,0.7-6.1,1-9.1c0.3-3,0.4-6.1,0.5-9.1c0.1-3.1,0.1-6.1,0.1-9.2c0-3.1-0.2-6.1-0.4-9.2
		c-0.2-3-0.5-6.1-0.8-9.1c-0.3-3-0.8-6.1-1.2-9.1c-0.5-3-1.1-6-1.7-9c-0.6-3-1.3-6-2.1-8.9s-1.6-5.9-2.6-8.8c-0.9-2.9-1.9-5.8-3-8.7
		c-1.1-2.9-2.2-5.7-3.4-8.5c-1.2-2.8-2.5-5.6-3.8-8.3c-1.3-2.7-2.8-5.5-4.2-8.1c-1.5-2.7-3-5.3-4.6-7.9c-1.6-2.6-3.3-5.2-5-7.7
		c-1.7-2.5-3.5-5-5.4-7.4c-1.9-2.4-3.8-4.8-5.7-7.1c-2-2.3-4-4.6-6.1-6.9c-2.1-2.2-4.2-4.4-6.4-6.5c-2.2-2.1-4.4-4.2-6.7-6.2
		c-2.3-2-4.6-4-7-5.9c-2.4-1.9-4.8-3.8-7.3-5.5c-2.5-1.8-5-3.5-7.6-5.2c-2.6-1.7-5.2-3.3-7.8-4.8c-2.6-1.5-5.3-3-8-4.4
		c-2.7-1.4-5.5-2.7-8.2-4c-2.8-1.3-5.6-2.5-8.4-3.6c-2.8-1.1-5.7-2.2-8.6-3.2c-2.9-1-5.8-1.9-8.7-2.8c-2.9-0.8-5.9-1.6-8.9-2.3
		c-3-0.7-6-1.3-9-1.9c-3-0.6-6-1-9-1.4c-3-0.4-6.1-0.7-9.1-1c-3-0.3-6.1-0.4-9.1-0.5c-3.1-0.1-6.1-0.1-9.2-0.1
		C505.5,551.5,502.4,551.6,499.3,551.8z"/>
	<path class="st0" d="M506.5,667.5c-9.8,7.7-18.4,20.4-29.5,25.8c-12.4,6.1-26.1-7.1-19.8-19.7c3-6.1,49.7-52.3,59.3-55.4
		c31.3-1.8,20.4,55.6,20.4,78.3l0,120.3c12.4,1.2,36.8-3.6,40.3,13.6c4.9,24.6-46.1,17.1-59.5,17.1c-21.7,0-58.5,8.7-63.1-16.6
		c3.4-21,35-14.2,51.9-14.1l0-99.3C506.5,700.9,505.7,684.1,506.5,667.5z"/>
</g>
</svg>
