<?xml version="1.0" encoding="UTF-8" standalone="no"?>
<svg
   width="1024"
   height="1024"
   version="1.1"
   id="svg4"
   sodipodi:docname="restricciones.svg"
   inkscape:version="1.3.2 (091e20e, 2023-11-25)"
   xmlns:inkscape="http://www.inkscape.org/namespaces/inkscape"
   xmlns:sodipodi="http://sodipodi.sourceforge.net/DTD/sodipodi-0.dtd"
   xmlns="http://www.w3.org/2000/svg"
   xmlns:svg="http://www.w3.org/2000/svg">
  <defs
     id="defs4" />
  <sodipodi:namedview
     id="namedview4"
     pagecolor="#ffffff"
     bordercolor="#000000"
     borderopacity="0.25"
     inkscape:showpageshadow="2"
     inkscape:pageopacity="0.0"
     inkscape:pagecheckerboard="0"
     inkscape:deskcolor="#d1d1d1"
     inkscape:zoom="0.41699219"
     inkscape:cx="1392.1124"
     inkscape:cy="510.80094"
     inkscape:window-width="1392"
     inkscape:window-height="1027"
     inkscape:window-x="262"
     inkscape:window-y="89"
     inkscape:window-maximized="0"
     inkscape:current-layer="svg4" />
  <path
     fill="#82c3bf"
     d="M 789.39748,757.16617 C 779.24182,749.2855 770.38871,739.31719 761.28579,730.23509 L 210.86095,181.11875 c -9.30811,-9.4241 -37.29491,-28.52506 -25.0189,-43.10579 9.25756,-10.99429 33.10774,-27.88272 45.78819,-36.71799 80.37097,-55.994708 164.17672,-80.726043 260.34769,-87.733596 161.80656,-5.9301322 319.81851,70.297978 417.09574,199.885976 132.29123,176.2386 135.99363,424.93479 0.0297,599.56157 -36.14998,46.43054 -31.5554,33.62222 -67.89571,-2.92329 -13.186,-13.26034 -42.49615,-38.4101 -51.81022,-52.91946 z M 491.97793,43.958763 c -83.91876,7.453035 -147.7076,24.142218 -221.91082,68.815227 -16.61484,10.00399 -35.95074,21.48598 -49.49955,35.43923 23.43088,30.64541 74.74744,74.001 103.52825,103.7721 60.24105,-13.09083 107.02845,0.8981 156.37336,34.41327 105.27092,-58.85525 233.2233,-48.13753 319.8542,39.92378 14.10491,14.33688 26.55935,30.24989 40.05463,45.15179 25.04567,27.65968 51.55744,43.24854 38.26141,89.2568 -6.08448,21.05775 -24.23976,33.05124 -38.40118,48.43194 -43.61135,47.38217 -61.53765,75.2857 -126.34354,100.62875 -7.39891,2.82515 -14.79782,5.62948 -22.25323,8.29701 18.53296,19.43701 38.35657,37.63393 57.37129,56.58918 L 877.91974,803.62348 C 1026.1805,623.48618 1007.2698,360.3074 851.00947,191.70561 759.9089,93.411322 626.11589,38.327502 491.97793,43.958763 Z M 357.66747,278.56549 c -2.0341,-0.0208 -4.12768,-0.35091 -5.86143,0.88323 35.56711,38.13949 76.39494,77.88781 114.06158,114.54038 17.15608,16.69513 35.62362,32.60219 51.78346,50.22813 l 0.96352,0.93081 1.11221,-0.65424 c 1.15385,-4.86818 0.69291,-10.50657 0.63343,-15.52939 -0.88025,-72.65088 -50.08836,-131.12249 -120.9936,-147.58269 -12.51391,-2.90247 -28.96816,-5.69788 -41.69917,-2.81623 z m 252.68113,0 c -39.97434,1.63562 -70.50674,11.62474 -105.99653,29.06928 15.95762,19.2675 26.91324,38.7164 36.65553,61.65362 47.32567,-18.89874 97.16721,-22.56251 145.15605,-1.75456 39.103,16.95683 73.76606,53.50828 54.01085,98.0088 -22.80636,51.37306 -96.01335,59.53328 -144.70996,57.26424 9.1624,9.29919 18.11365,18.90172 27.61507,27.85 14.78295,13.99786 29.32502,28.07006 43.52212,42.65674 76.26707,-18.68166 104.25684,-51.11434 151.57062,-104.75347 16.41261,-18.60731 39.50447,-30.86844 31.75167,-59.8604 -1.94786,-7.29482 -74.53629,-84.93283 -81.75677,-91.31469 C 726.33723,300.39644 666.03968,276.69198 610.3486,278.56549 Z m -3.34259,106.05601 c -20.4392,0.81781 -39.61153,5.01984 -57.03228,16.20148 -1.13303,26.22925 0.51447,42.93033 -3.56266,70.26586 28.11764,22.16699 70.64949,26.27386 104.97651,18.77384 20.50164,-4.63919 47.13534,-13.94433 59.03069,-32.73007 29.94061,-47.28106 -71.15801,-81.00142 -103.41226,-72.51111 z"
     id="path1"
     style="stroke-width:2.97384" />
  <path
     fill="#82c3bf"
     d="m 683.96003,978.52089 c -13.93541,6.3194 -29.30421,10.19431 -44.05445,14.11978 C 429.55408,1048.5934 199.77448,959.66675 86.322535,772.21677 -18.080318,599.72521 -10.357854,367.82824 117.32778,209.52188 c 7.26508,-9.00776 15.44314,-20.51056 25.37576,-26.48203 16.36801,-0.92784 64.49364,56.02117 77.91755,69.48374 l 587.15769,585.09979 c 36.37005,36.27489 52.6875,36.489 9.32001,68.79679 -39.92973,29.7473 -85.53355,56.73786 -133.13876,72.10072 z M 146.2781,222.05066 C 65.966609,323.42288 32.801765,443.33103 47.654007,571.58377 88.639155,925.51221 513.25277,1097.4328 789.39748,887.82475 c 4.68975,-3.72324 9.52223,-7.34835 14.07221,-11.23813 -38.50527,-39.5699 -78.45582,-77.7302 -117.25252,-117.0265 L 609.31965,682.77263 C 590.79264,664.29022 572.9734,645.61451 553.45609,628.13429 517.3983,729.14369 414.99119,785.2184 310.86223,747.35845 222.8366,715.354 192.31015,641.36787 192.32204,555.52207 l 0.0119,-110.6268 c -0.0446,-58.33185 4.49347,-89.90509 46.20156,-132.85922 -21.06073,-19.25858 -81.14119,-84.73061 -92.2574,-89.98539 z m 112.60143,112.40516 c -38.2971,33.56274 -36.6377,82.30693 -36.55146,128.45496 13.56368,-3.96413 19.23777,-6.80711 33.42893,-1.99247 18.41698,6.24506 22.18781,-1.27875 38.82346,-2.2512 21.52167,-1.25496 19.00283,9.52521 49.08321,0.67209 16.41856,-3.25635 28.57561,7.61303 45.51757,3.57158 -9.60847,-11.41062 -21.27484,-21.47409 -31.82602,-32.0669 l -67.38124,-67.20281 c -7.30969,-7.2175 -23.17512,-25.44416 -31.09445,-29.18525 z m -16.86464,155.40686 c -6.9112,0.87431 -13.12355,3.06008 -19.68682,5.28451 l -0.0297,55.5186 c 0.003,13.67074 -0.48474,27.67454 0.93081,41.28283 13.29603,127.63716 166.42493,181.03838 260.03245,92.63507 24.88509,-23.8145 36.33437,-49.32409 46.26104,-81.53671 -29.1912,-28.94437 -58.33185,-57.91551 -87.93939,-86.43759 -8.8204,-8.49329 -17.00738,-19.44593 -26.77941,-26.74671 -13.72724,-1.39175 -25.31332,4.42507 -38.70451,4.47266 -8.9691,0.0297 -17.42075,-5.48079 -26.10139,-4.81762 -9.3438,0.71372 -17.99767,5.63245 -27.54369,5.62055 -8.82635,-0.009 -16.68026,-4.89196 -25.28655,-5.59379 -9.59955,-0.78509 -18.71437,5.15366 -28.40016,5.22504 -9.24269,0.0684 -17.59323,-5.10906 -26.75265,-4.90684 z"
     id="path2"
     style="stroke-width:2.97384" />
  <path
     fill="#82c3bf"
     d="m 300.0553,638.06096 c -24.51038,2.5575 -28.08791,-44.69977 -7.75875,-54.94464 8.97802,-0.56206 13.58152,2.82217 18.81845,10.19729 0.10409,15.77621 5.6949,36.0459 -11.0597,44.74735 z"
     id="path3"
     style="stroke-width:2.97384" />
  <path
     fill="#82c3bf"
     d="m 393.54386,638.06096 c -24.42711,2.8876 -27.10356,-45.15477 -7.68737,-54.94464 21.48301,-1.3412 30.13986,44.34291 7.68737,54.94464 z"
     id="path4"
     style="stroke-width:2.97384" />
</svg>
