<?xml version="1.0" encoding="UTF-8" standalone="no"?>
<svg
   width="1024"
   height="1024"
   version="1.1"
   id="svg8"
   sodipodi:docname="sesamo.svg"
   inkscape:version="1.3.2 (091e20e, 2023-11-25)"
   xmlns:inkscape="http://www.inkscape.org/namespaces/inkscape"
   xmlns:sodipodi="http://sodipodi.sourceforge.net/DTD/sodipodi-0.dtd"
   xmlns="http://www.w3.org/2000/svg"
   xmlns:svg="http://www.w3.org/2000/svg">
  <defs
     id="defs8" />
  <sodipodi:namedview
     id="namedview8"
     pagecolor="#ffffff"
     bordercolor="#000000"
     borderopacity="0.25"
     inkscape:showpageshadow="2"
     inkscape:pageopacity="0.0"
     inkscape:pagecheckerboard="0"
     inkscape:deskcolor="#d1d1d1"
     inkscape:zoom="0.23046875"
     inkscape:cx="384"
     inkscape:cy="316.74576"
     inkscape:window-width="1392"
     inkscape:window-height="1027"
     inkscape:window-x="223"
     inkscape:window-y="75"
     inkscape:window-maximized="0"
     inkscape:current-layer="svg8" />
  <g
     id="g2"
     transform="translate(2.2140003,92.88406)">
    <g
       id="g1"
       transform="scale(1.3277216)">
      <path
         fill="#82c3bf"
         d="m 438.38856,396.50858 c 2.762,-65.814 -11.848,-115.998 37.08,-171.956 15.146,-17.322 32.634,-32.086 47.384,-49.934 22.65,-27.406 24.082,-38.248 24.068,-72.386 -0.004,-6.916003 1.062,-15.758003 -1.252,-22.266003 -7.792,-21.914 -28.282,-46.684 -9.114,-68.908 6.6,-7.6509997 15.452,-9.9427997 25.138,-10.6361997 l 56.49,-0.035 c 17.874,-0.0288 35.668,-3.3954 49.61,10.2591997 17.074,16.72 7.388,40.498 -0.732,59.056 -9.286,21.222 -6.892,21.072 -6.572,45.434003 1.1,83.376 106.638,92.306 107.394,199.674 l 0.028,208.554 c 0.048,35.45 -3.918,71.148 -46.816,81.47 -17.002,4.092 -48.356,2.464 -66.384,2.464 l -97.7,-0.016 c -5.922,22.49 -14.088,23.26 -35.03,20.938 -73.464,-8.148 -140.036,-52.302 -164.9,-124.196 -2.202,5.514 -4.054,11.188 -6.152,16.746 -29.766,78.91 -104.258,119.796 -186.326,108.794 -20.718,-2.778 -29.922,-1.192 -29.438,-24.714 0.372,-18.114 2.19,-37.474 9.04,-54.396 -53.871997,-9.312 -102.058797,-39.756 -135.7027966,-82.64 -13.827,-17.624 -10.0566,-20.684 6.0165996,-35.954 19.554,-18.576 53.384,-42.37 79.7802,-48.11 21.213997,-86.232 101.965997,-147.85 190.671997,-146.322 45.718,0.788 46.604,5.328 43.194,51.28 -4.072,54.86 -27.888,91.59 -67.782,125.962 3.484,3.228 6.822,6.344 9.914,9.968 24.856,-10.37 56.862,-5.302 82.422,0 2.622,-8.252 15.962,-40.21 22.934,-43.264 10.638,-4.656 51.362,10.46 62.736,15.134 z m 119.806,-373.076003 c -15.006,5.4 2.49,31.356 6.052,41.884 9.192,0.004 77.228,0.776 79.848,-0.3 l 0.608,-1.324 c 3.042,-8.188 17.184,-34.22 3.208,-39.06 -7.058,-2.442 -77.624,-1.306 -89.716,-1.2 z m 58.38,64.674 h -47.01 c 0.022,13.852003 1.014,28.550003 -0.75,42.294003 -10.35,80.612 -107.642,95.296 -107.796,191.788 l 0.054,85.664 c 70.67,35.078 96.878,102.788 97.122,176.91 h 33.384 l 76.394,0.02 c 28.978,-0.002 69.322,5.798 76.684,-33.376 1.726,-9.18 0.992,-19.418 0.994,-28.752 l -0.016,-200.51 c -0.458,-96.142 -77.26,-98.248 -102.96,-174.37 -6.694,-19.828 -5.098,-39.07 -5.094,-59.668003 z m -341.626,172.082003 c -74.038,2.374 -127.108,49.562 -154.112,115.108 20.698,1.402 35.254,-0.926 57.258,3.006 19.408,4.062 46.538,12.356 61.69,25.376 l 0.656,-0.692 c 7.966,-8.33 17.412,-15.042 25.234,-23.598 29.484,-32.242 43.176,-75.904 40.562,-119.2 -10.354,0.172 -21.012,-1.088 -31.288,0 z m -132.4,137.916 c -43.825997,1.078 -86.213397,23.454 -116.177797,54.868 21.0416,32.048 69.5478,63.762 108.253797,71.74 l 0.898,0.184 c 5.328,1.428 10.706,2.68 16.21,3.192 22.058,-45.206 49.952,-72.25 94.632,-94.928 -30.954,-20.068 -65.92,-36.836 -103.816,-35.056 z m 244.022,5.574 c -18.274,39.878 -24.092,51.046 -7.942,94.718 22.838,61.758 79.382,97.714 141.954,107.79 4.272,0.028 8.414,0.184 12.604,1.096 9.546,-38.3 -1.25,-88.66 -20.954,-121.6 -29.868,-49.936 -73.342,-67.752 -125.662,-82.004 z m -84.074,37.844 c -70.744,5.578 -128.466,66.874 -141.368,134.556 -1.926,10.102 -3.312,19.89 -1.754,30.108 15.084,1.486 29.774,2.58 44.952,2.166 48.652,-5.078 92.75,-32.728 116.45,-75.754 11.414,-20.722 25.72,-61.832 25.986,-85.206 -12.628,-5.326 -30.714,-6.834 -44.266,-5.87 z"
         id="path1"
         style="stroke-width:2" />
      <path
         fill="#82c3bf"
         d="m 671.24256,427.81658 c -76.11,3.004 -131.678,-49.802 -137.712,-125.078 -1.488,-18.572 -4.254,-27.542 17.022,-28.884 65.178,-1.294 115.008,34.762 132.348,98.79 6.66,24.598 15.198,47.948 -11.658,55.172 z m -116.214,-131.49 c 4.202,57.096 48.58,114.412 109.798,109.432 l 0.842,-0.074 c -5.568,-61.864 -45.786,-110.588 -110.64,-109.358 z"
         id="path2"
         style="stroke-width:2" />
      <path
         fill="#82c3bf"
         d="m 239.78456,358.99858 c -8.24,0.724 -16.3,-5.248 -13.666,-14.088 1.952,-6.552 32.224,-54.63 39.708,-58.544 29.348,-0.984 -0.24,37 -5.686,45.65 -4.642,7.372 -12.018,23.528 -20.356,26.982 z"
         id="path3"
         style="stroke-width:2" />
      <path
         fill="#82c3bf"
         d="m 144.20456,479.73458 c -20.74,0.266 -43.694,-6.5 -61.309997,-17.382 -12.252,-7.568 -14.2936,-20.482 1.038,-23.916 8.786,1.678 16.455997,8.572 24.969997,11.702 9.602,3.53 36.356,7.436 40.556,10.43 8.03,5.724 3.896,17.852 -5.254,19.166 z"
         id="path4"
         style="stroke-width:2" />
      <path
         fill="#82c3bf"
         d="m 428.43656,468.23258 q -0.676,0.226 -1.374,0.362 -0.7,0.136 -1.41,0.178 -0.71,0.042 -1.42,-0.01 -0.712,-0.052 -1.408,-0.196 -0.698,-0.146 -1.37,-0.382 -0.672,-0.236 -1.306,-0.558 -0.636,-0.322 -1.222,-0.724 -0.588,-0.404 -1.116,-0.88 -0.53,-0.476 -0.99,-1.02 -0.462,-0.542 -0.848,-1.14 -0.386,-0.6 -0.69,-1.244 -0.304,-0.644 -0.52,-1.322 -0.216,-0.678 -0.34,-1.38 -0.124,-0.702 -0.156,-1.412 -0.032,-0.712 0.032,-1.422 0.062,-0.71 0.218,-1.404 0.156,-0.694 0.402,-1.364 0.246,-0.668 0.578,-1.298 0.332,-0.63 0.744,-1.21 0.412,-0.582 0.898,-1.102 0.484,-0.522 1.034,-0.976 0.55,-0.452 1.154,-0.828 0.604,-0.378 1.254,-0.67 0.648,-0.294 1.33,-0.5 0.25,-0.076 0.504,-0.138 0.254,-0.064 0.51,-0.114 0.258,-0.052 0.516,-0.09 0.258,-0.038 0.518,-0.064 0.26,-0.026 0.522,-0.038 0.262,-0.014 0.522,-0.014 0.262,0 0.524,0.012 0.26,0.014 0.52,0.038 0.262,0.026 0.52,0.064 0.258,0.036 0.516,0.088 0.256,0.05 0.51,0.112 0.254,0.062 0.504,0.138 0.25,0.074 0.498,0.162 0.246,0.086 0.488,0.186 0.242,0.098 0.48,0.208 0.236,0.112 0.468,0.234 0.23,0.122 0.456,0.254 0.226,0.134 0.444,0.276 0.218,0.144 0.43,0.298 0.21,0.156 0.414,0.32 0.204,0.164 0.398,0.338 0.196,0.174 0.382,0.356 0.186,0.184 0.364,0.376 0.178,0.192 0.346,0.394 0.168,0.2 0.326,0.408 0.158,0.208 0.304,0.424 0.148,0.216 0.286,0.438 0.136,0.224 0.262,0.452 0.126,0.23 0.242,0.466 0.114,0.234 0.216,0.474 0.104,0.24 0.196,0.486 0.09,0.244 0.17,0.494 0.08,0.25 0.146,0.502 0.068,0.252 0.122,0.508 0.056,0.256 0.098,0.514 0.042,0.258 0.072,0.518 0.03,0.26 0.046,0.52 0.018,0.262 0.022,0.524 0.004,0.26 -0.004,0.522 -0.008,0.262 -0.03,0.522 -0.02,0.26 -0.054,0.52 -0.034,0.26 -0.08,0.516 -0.046,0.258 -0.106,0.514 -0.058,0.254 -0.13,0.506 -0.07,0.252 -0.154,0.5 -0.082,0.248 -0.178,0.49 -0.094,0.244 -0.202,0.484 -0.106,0.238 -0.224,0.472 -0.12,0.232 -0.248,0.46 -0.13,0.226 -0.27,0.448 -0.142,0.22 -0.292,0.434 -0.15,0.214 -0.312,0.42 -0.162,0.206 -0.332,0.402 -0.172,0.198 -0.352,0.388 -0.18,0.19 -0.37,0.37 -0.188,0.18 -0.386,0.352 -0.198,0.17 -0.404,0.332 -0.206,0.16 -0.42,0.312 -0.214,0.15 -0.434,0.29 -0.22,0.142 -0.448,0.27 -0.228,0.13 -0.46,0.248 -0.234,0.118 -0.472,0.226 -0.238,0.106 -0.482,0.202 -0.244,0.094 -0.492,0.178 z"
         id="path5"
         style="stroke-width:2" />
      <path
         fill="#82c3bf"
         d="m 306.97056,500.37858 q -0.254,0.07 -0.51,0.13 -0.256,0.058 -0.514,0.104 -0.258,0.046 -0.52,0.08 -0.26,0.032 -0.522,0.054 -0.262,0.02 -0.524,0.028 -0.264,0.008 -0.526,0.004 -0.262,-0.006 -0.524,-0.024 -0.262,-0.016 -0.524,-0.046 -0.26,-0.03 -0.52,-0.074 -0.26,-0.042 -0.516,-0.098 -0.258,-0.056 -0.512,-0.122 -0.252,-0.068 -0.504,-0.148 -0.25,-0.08 -0.496,-0.172 -0.246,-0.092 -0.488,-0.196 -0.24,-0.104 -0.476,-0.22 -0.236,-0.114 -0.466,-0.242 -0.232,-0.126 -0.454,-0.264 -0.224,-0.138 -0.442,-0.286 -0.216,-0.148 -0.426,-0.306 -0.21,-0.16 -0.41,-0.328 -0.202,-0.168 -0.396,-0.346 -0.192,-0.18 -0.376,-0.366 -0.184,-0.188 -0.36,-0.384 -0.174,-0.196 -0.34,-0.4 -0.164,-0.204 -0.32,-0.416 -0.154,-0.214 -0.3,-0.432 -0.144,-0.22 -0.278,-0.446 -0.134,-0.226 -0.256,-0.458 -0.124,-0.232 -0.234,-0.47 -0.112,-0.238 -0.212,-0.482 -0.1,-0.244 -0.186,-0.49 -0.088,-0.248 -0.164,-0.5 -0.076,-0.252 -0.138,-0.506 -0.064,-0.256 -0.116,-0.514 -0.05,-0.258 -0.088,-0.518 -0.038,-0.26 -0.064,-0.52 -0.026,-0.262 -0.038,-0.524 -0.014,-0.262 -0.014,-0.526 0,-0.262 0.012,-0.524 0.012,-0.264 0.038,-0.524 0.026,-0.262 0.062,-0.522 0.038,-0.26 0.09,-0.518 0.05,-0.258 0.112,-0.514 0.064,-0.254 0.138,-0.506 0.076,-0.252 0.162,-0.5 0.088,-0.248 0.188,-0.49 0.098,-0.244 0.21,-0.482 0.11,-0.238 0.232,-0.47 0.122,-0.234 0.256,-0.46 0.134,-0.226 0.278,-0.446 0.144,-0.22 0.298,-0.432 0.156,-0.212 0.32,-0.416 0.164,-0.206 0.34,-0.402 0.174,-0.196 0.358,-0.384 0.184,-0.188 0.376,-0.366 0.194,-0.178 0.394,-0.348 0.202,-0.168 0.41,-0.328 0.21,-0.16 0.426,-0.308 0.216,-0.148 0.44,-0.286 0.224,-0.138 0.454,-0.266 0.23,-0.126 0.466,-0.242 0.236,-0.116 0.476,-0.22 0.242,-0.104 0.488,-0.198 0.246,-0.092 0.496,-0.172 0.684,-0.22 1.392,-0.348 0.708,-0.128 1.426,-0.16 0.718,-0.034 1.434,0.028 0.716,0.064 1.416,0.22 0.702,0.156 1.378,0.402 0.674,0.248 1.31,0.582 0.636,0.336 1.224,0.752 0.586,0.414 1.112,0.904 0.526,0.49 0.984,1.044 0.456,0.554 0.836,1.164 0.38,0.61 0.676,1.266 0.296,0.654 0.504,1.344 0.206,0.688 0.32,1.398 0.114,0.708 0.134,1.428 0.018,0.718 -0.056,1.432 -0.076,0.716 -0.246,1.414 -0.17,0.698 -0.43,1.368 -0.26,0.67 -0.606,1.3 -0.348,0.63 -0.774,1.208 -0.426,0.578 -0.926,1.096 -0.5,0.516 -1.062,0.962 -0.564,0.448 -1.182,0.816 -0.616,0.368 -1.278,0.65 -0.66,0.284 -1.352,0.478 z"
         id="path6"
         style="stroke-width:2" />
      <path
         fill="#82c3bf"
         d="m 497.15656,569.62658 c -18.858,-0.526 -58.858,-18.752 -63.544,-37.58 -1.798,-7.222 3.244,-11.954 9.9,-13.114 11.18,0.342 21.98,21.248 42.394,26.102 6.144,1.46 17.746,1.82 20.508,8.868 2.748,7.008 -2.992,13.63 -9.258,15.724 z"
         id="path7"
         style="stroke-width:2" />
      <path
         fill="#82c3bf"
         d="m 209.49456,579.75858 c -8.972,1.59 -18.966,-4.902 -14.152,-15.112 3.68,-7.802 21.084,-10.474 29.058,-13.416 14.46,-5.334 23.726,-15.792 34.45,-19.828 10.02,-0.558 18.882,7.538 12.332,17.748 -8.432,13.15 -47.576,27.426 -61.688,30.608 z"
         id="path8"
         style="stroke-width:2" />
    </g>
  </g>
</svg>
