<?xml version="1.0" encoding="utf-8"?>
<!-- Generator: Adobe Illustrator 24.1.0, SVG Export Plug-In . SVG Version: 6.00 Build 0)  -->
<svg version="1.1" id="Capa_1" xmlns="http://www.w3.org/2000/svg" xmlns:xlink="http://www.w3.org/1999/xlink" x="0px" y="0px"
	 viewBox="0 0 1024 1024" style="enable-background:new 0 0 1024 1024;" xml:space="preserve">
<style type="text/css">
	.st0{fill:#82C3BF;}
</style>
<path class="st0" d="M845.4,192.9c-16.7-3.6-104.2-2.7-73.6-35.4c7.6-8.1,62.3-64.4,70-68.2c7.5-0.1,14.9,1.9,22.3,3.1l92.3,15
	c6.2,1,37.7,4.3,41.5,9c3.3,4.1,21.6,133.7,21,151.4c-4.3,7.7-11,13-17.2,19l-28.9,28c-11.6,11.2-22.7,26.4-36.9,34.3
	c-20-3.5-16.2-23.1-18.1-40.6c-1.5-13.6-3.4-27.2-5.6-40.7c-18,22.9-46.5,43.1-61.8,65.4c4.4,9,10,17.2,14.3,26.3
	c48.1,101.8,28.6,225.2-52.2,305c-99.5,98.4-270.7,106-371,4.2c-29.1,41-97.4,67.2-144.3,75.8c-0.5,9.5,0,19.2,0,28.7l26.7-0.1
	c15.7,0,32.2-1.3,44.7,10.1c15.9,14.4,17.4,40.1,2.3,55.6c-12.7,13-28.8,11.9-45.5,11.8l-28.2-0.1c-0.1,17.5,3.3,48.6-4.9,63.4
	c-19,34.3-62.8,22.9-71.9-12c-0.3-17.1,0-34.3,0-51.4c-14.2-0.3-39.8,2.1-52.4-1c-37-9-37.1-65.1-0.7-75.2c11-3,40-1.2,53.1-1.2
	v-28.7c-42.6-9.1-75.9-20.5-111.1-46.8C-2.3,614.1-30.2,453.5,54.9,340.9c91.6-121.2,252.5-131.5,369.3-41.8
	c96.6-100.4,239.9-117.4,355.4-37.2C795,241,826.7,213.7,845.4,192.9z M850.2,118.4c-13.6,14-29.4,26.5-42,41.3l45.6,6.3
	c9.6,1.3,20.1,1.8,29.4,4.7c12.8,12.3,2.7,21.3-7.3,31.6l-59.6,61.1c-11.5,11.6-24.4,22.6-34.2,35.7
	c-160.8-139.4-411.3-18-395.9,193.3c6.1,82.7,54.3,154.5,126.4,193.8c6.8,3.7,14.2,6.7,20.8,10.7c15.2,4.8,30.5,10.1,46.2,13.1
	c117.6,22.7,237.1-48.9,273.1-163.2c25.2-80,7.9-149.6-38.5-215.8c19.7-25,47.8-50.2,70.4-72.9c9.3-9.4,32.3-44.5,46-32.3
	c6.9,6.2,11.2,65.1,13.6,77.8c17.1-12.8,31.1-29.9,46.8-44.4c-5.3-38-7.7-83.9-15.5-120.7C934.3,129.5,891.7,125.3,850.2,118.4z
	 M245.4,267.9c-64.4,5.8-119.9,32.8-161.6,82.6C-34.9,492.4,72.3,716.1,248.1,717.8c-1,10.9-0.1,21.8,0,32.7l0,50.7l-47.3-0.1
	c-8.2,0-17.5-0.8-25.6,0.6c-8.5,1.5-10.5,12.9-4.1,18.3c6,5.1,25.1,2.5,32.4,2.5l44.7-0.1l0,48.4c0,8.9-0.8,18.9,0.8,27.7
	c1.9,10.9,17.8,9,19.9-0.9c1.9-9,1.1-19.8,1.1-29.1l0-46.1l47.2,0c8.5,0,17.8,0.7,26.2-0.6c8.4-1.3,12.2-11,5-16.9
	c-7.7-6.4-24.4-3.7-33.7-3.7l-44.9-0.1v-83.4c16.2-0.4,31.7-2.9,47.4-6.7c53.4-15.7,67.3-31.5,107-61.5c-6.2-5-11-10.2-16-16.4
	c-10.8,10.4-21.6,20.6-33.9,29.2c-78.7,55.2-194.5,43-260.6-26.5C-16.6,499,84.7,282.1,267.4,289.1c42.5,1.6,95.8,19.7,125.8,51
	c4.5-5.9,8.9-11.9,12.7-18.2C363.7,283.9,301.9,263.9,245.4,267.9z M251.1,317.3C152.8,323,77,406.1,83.2,504.8
	c5.5,87.4,78.4,157.7,164.9,164c59.4,4.6,104.6-21.3,145.1-61.1c-45.9-72.5-44.2-163.5-13.6-241.2c-36.5-32.3-77.3-52.6-127.9-49.3
	L251.1,317.3z"/>
<path class="st0" d="M635.1,667.5c-3.1,0.2-6.3,0.3-9.4,0.3c-3.1,0-6.3,0-9.4-0.2c-3.1-0.1-6.3-0.4-9.4-0.6
	c-3.1-0.3-6.2-0.7-9.3-1.1c-3.1-0.4-6.2-1-9.3-1.6c-3.1-0.6-6.1-1.3-9.2-2c-3-0.7-6.1-1.6-9.1-2.5c-3-0.9-6-1.9-8.9-2.9
	c-3-1-5.9-2.2-8.8-3.3c-2.9-1.2-5.8-2.4-8.6-3.8c-2.8-1.3-5.6-2.7-8.4-4.2c-2.8-1.5-5.5-3-8.2-4.6c-2.7-1.6-5.4-3.3-8-5
	c-2.6-1.7-5.2-3.5-7.7-5.4c-2.5-1.9-5-3.8-7.4-5.7c-2.4-2-4.8-4-7.2-6.1c-2.3-2.1-4.6-4.2-6.8-6.5c-2.2-2.2-4.4-4.5-6.5-6.8
	c-2.1-2.3-4.2-4.7-6.2-7.1s-3.9-4.9-5.8-7.4c-1.9-2.5-3.7-5.1-5.5-7.7c-1.8-2.6-3.4-5.2-5.1-7.9c-1.6-2.7-3.2-5.4-4.7-8.2
	c-1.5-2.8-2.9-5.6-4.3-8.4c-1.4-2.8-2.6-5.7-3.9-8.6c-1.2-2.9-2.4-5.8-3.4-8.8c-1.1-2.9-2.1-5.9-3-8.9c-0.9-3-1.8-6-2.6-9.1
	c-0.8-3-1.5-6.1-2.1-9.2c-0.6-3.1-1.2-6.2-1.7-9.3c-0.5-3.1-0.9-6.2-1.2-9.3c-0.3-3.1-0.6-6.2-0.7-9.4s-0.3-6.3-0.3-9.4
	c0-3.1,0-6.3,0.2-9.4c0.1-3.1,0.3-6.3,0.6-9.4c0.3-3.1,0.7-6.2,1.1-9.3c0.4-3.1,1-6.2,1.6-9.3c0.6-3.1,1.3-6.1,2-9.2
	c0.7-3,1.6-6.1,2.5-9.1c0.9-3,1.9-6,2.9-9c1-3,2.1-5.9,3.3-8.8c1.2-2.9,2.4-5.8,3.8-8.6c1.3-2.8,2.7-5.7,4.2-8.4
	c1.5-2.8,3-5.5,4.6-8.2c1.6-2.7,3.3-5.4,5-8c1.7-2.6,3.5-5.2,5.4-7.7c1.9-2.5,3.8-5,5.7-7.5c2-2.4,4-4.8,6.1-7.2
	c2.1-2.3,4.2-4.6,6.4-6.9c2.2-2.2,4.5-4.4,6.8-6.5c2.3-2.1,4.7-4.2,7.1-6.2c2.4-2,4.9-4,7.4-5.8c2.5-1.9,5.1-3.7,7.7-5.5
	c2.6-1.8,5.2-3.5,7.9-5.1c2.7-1.6,5.4-3.2,8.2-4.7c2.8-1.5,5.5-2.9,8.4-4.3c2.8-1.4,5.7-2.7,8.6-3.9c2.9-1.2,5.8-2.4,8.8-3.4
	c2.9-1.1,5.9-2.1,8.9-3c3-0.9,6-1.8,9.1-2.6c3-0.8,6.1-1.5,9.2-2.1c3.1-0.6,6.2-1.2,9.3-1.7c3.1-0.5,6.2-0.9,9.3-1.2
	s6.2-0.6,9.4-0.8c3.1-0.2,6.3-0.3,9.4-0.3c3.1,0,6.3,0,9.4,0.2c3.1,0.1,6.3,0.3,9.4,0.6c3.1,0.3,6.3,0.6,9.4,1.1
	c3.1,0.4,6.2,1,9.3,1.5c3.1,0.6,6.2,1.3,9.2,2c3.1,0.7,6.1,1.6,9.1,2.4c3,0.9,6,1.9,9,2.9c3,1,5.9,2.1,8.8,3.3
	c2.9,1.2,5.8,2.4,8.6,3.8c2.8,1.3,5.7,2.7,8.4,4.2c2.8,1.5,5.5,3,8.2,4.6c2.7,1.6,5.4,3.3,8,5c2.6,1.7,5.2,3.5,7.7,5.4
	c2.5,1.9,5,3.8,7.5,5.7c2.4,2,4.8,4,7.2,6.1c2.3,2.1,4.6,4.2,6.9,6.5c2.2,2.2,4.4,4.5,6.5,6.8c2.1,2.3,4.2,4.7,6.2,7.1
	c2,2.4,4,4.9,5.8,7.4c1.9,2.5,3.7,5.1,5.5,7.7c1.8,2.6,3.5,5.2,5.1,7.9c1.6,2.7,3.2,5.4,4.7,8.2c1.5,2.8,2.9,5.6,4.3,8.4
	c1.4,2.8,2.7,5.7,3.9,8.6c1.2,2.9,2.4,5.8,3.4,8.8c1.1,3,2.1,5.9,3,8.9c0.9,3,1.8,6,2.6,9.1c0.8,3,1.5,6.1,2.1,9.2
	c0.6,3.1,1.2,6.2,1.7,9.3c0.5,3.1,0.9,6.2,1.2,9.3c0.3,3.1,0.6,6.3,0.7,9.4c0.2,3.1,0.3,6.3,0.3,9.4c0,3.1,0,6.3-0.2,9.4
	c-0.1,3.1-0.4,6.3-0.6,9.4c-0.3,3.1-0.7,6.2-1.1,9.4c-0.4,3.1-1,6.2-1.6,9.3c-0.6,3.1-1.3,6.2-2,9.2c-0.7,3.1-1.6,6.1-2.5,9.1
	c-0.9,3-1.9,6-2.9,9c-1,3-2.2,5.9-3.3,8.8c-1.2,2.9-2.4,5.8-3.8,8.6c-1.3,2.8-2.7,5.7-4.2,8.4c-1.5,2.8-3,5.5-4.6,8.2
	c-1.6,2.7-3.3,5.4-5,8c-1.7,2.6-3.5,5.2-5.4,7.7c-1.9,2.5-3.8,5-5.8,7.5c-2,2.4-4,4.8-6.1,7.2c-2.1,2.3-4.3,4.6-6.5,6.9
	c-2.2,2.2-4.5,4.4-6.8,6.5c-2.3,2.1-4.7,4.2-7.1,6.2c-2.4,2-4.9,4-7.4,5.8c-2.5,1.9-5.1,3.7-7.7,5.5c-2.6,1.8-5.3,3.5-7.9,5.1
	c-2.7,1.6-5.4,3.2-8.2,4.7c-2.8,1.5-5.6,2.9-8.4,4.3c-2.8,1.4-5.7,2.6-8.6,3.9c-2.9,1.2-5.8,2.4-8.8,3.4c-3,1.1-5.9,2.1-8.9,3
	c-3,0.9-6,1.8-9.1,2.6c-3,0.8-6.1,1.5-9.2,2.1c-3.1,0.6-6.2,1.2-9.3,1.7c-3.1,0.5-6.2,0.9-9.3,1.2
	C641.4,667.1,638.3,667.3,635.1,667.5z M612.6,312.5c-49.3,5.3-96.1,30.3-124.2,71.8c28.9,61.5,30.9,131,8.6,194.9
	c32.3,35.1,73.1,57.8,122,59.6c10.1,0.4,20.2-0.9,30.3-0.1c11.9-3.6,24.2-6.4,35.7-11c77.2-30.6,122.4-117.4,97.9-197.9
	C761.2,358.3,687.9,305.3,612.6,312.5z M470.2,416.9c-14.1,43.6-14.3,87,6.3,129.2l1,0.6C488.6,527.4,481.9,435.2,470.2,416.9z"/>
</svg>
