<?xml version="1.0" encoding="UTF-8" standalone="no"?>
<svg
   width="412.89661"
   height="758.45276"
   version="1.1"
   id="svg2"
   sodipodi:docname="milk.svg"
   inkscape:version="1.3.2 (091e20e, 2023-11-25)"
   xmlns:inkscape="http://www.inkscape.org/namespaces/inkscape"
   xmlns:sodipodi="http://sodipodi.sourceforge.net/DTD/sodipodi-0.dtd"
   xmlns="http://www.w3.org/2000/svg"
   xmlns:svg="http://www.w3.org/2000/svg">
  <defs
     id="defs2" />
  <sodipodi:namedview
     id="namedview2"
     pagecolor="#ffffff"
     bordercolor="#000000"
     borderopacity="0.25"
     inkscape:showpageshadow="2"
     inkscape:pageopacity="0.0"
     inkscape:pagecheckerboard="0"
     inkscape:deskcolor="#d1d1d1"
     inkscape:zoom="0.23046875"
     inkscape:cx="316.74576"
     inkscape:cy="390.50847"
     inkscape:window-width="1392"
     inkscape:window-height="1027"
     inkscape:window-x="0"
     inkscape:window-y="25"
     inkscape:window-maximized="0"
     inkscape:current-layer="svg2" />
  <path
     fill="#82c3bf"
     d="M 106.91105,105.83176 C 92.969047,97.857764 83.835047,86.241764 82.947047,69.569564 c -1.904,-35.7566 0.404,-66.6577999 42.844003,-68.4693999 l 109.248,0.0048 c 28.262,-0.0178 80.066,-8.7068 93.476,22.9363999 9.808,23.1474 8.406,69.7104 -21.044,81.790396 2.758,23.71 7.412,22.658 19.042,43.026 15.064,26.376 31.394,52.106 46.704,78.368 39.098,67.064 39.538,77.096 39.536,154.458 l 0.142,282.466 c 0.24,43.886 -27.428,82.854 -71.096,92.306 -14.362,3.108 -38.206,1.666 -53.676,1.644 l -179.686,0.014 c -11.788003,0.008 -23.784003,0.342 -35.456003,-1.562 -34.696,-5.658 -64.0200002,-35.274 -70.7980002,-69.548 -3.3978,-17.178 -1.81640003,-38.962 -1.81000003,-56.77 l -0.0284,-272.038 c 0.0054,-52.642 8.63840003,-75.618 34.96240023,-120.2 l 25.222,-42.916 c 15.152,-25.928 29.782,-53.53 46.382003,-78.36 z m 16.332,-79.821796 c -20.106,2.0488 -17.22,27.2784 -15.264,42.8506 2.446,19.4632 29,14.3992 42.764,14.3832 l 110.552,-0.008 c 10.002,0.004 20.228,0.476 30.202,-0.008 21.724,-1.212 16.884,-25.1202 15.908,-41.862 -1.094,-18.7756 -17.646,-15.44 -31.176,-15.4114 z m 8.634,82.107796 c -0.32,25.212 -7.436,26.144 -19.76,47.934 -19.062003,33.704 -39.246003,66.724 -58.558003,100.276 -16.86,29.29 -26.088,50.152 -28.108,84.278 l 66.884,-0.026 c 9.752003,-0.002 22.212003,-0.956 31.634003,0.306 13.844,1.858 14.936,22.34 1.262,24.274 -10.232,1.446 -22.498,0.45 -32.918003,0.45 l -66.862,-0.01 -0.014,276.062 c -0.002,13.206 -1.002,27.654 1.488,40.656 8.6,44.922 46.276,51.248 83.154003,51.262 l 208.49,-0.026 c 23.534,-0.222 42.158,-6.498 57.168,-26.324 14.444,-20.978 12.38,-37.112 12.354,-61.176 l -0.008,-280.454 -189.844,0.01 c -9.38,0.038 -39.294,4.144 -39.22,-11.182 0.078,-16.248 18.192,-13.866 29.316,-13.866 l 179.814,0.092 c 6.658,0.066 13.302,0.754 19.934,-0.048 -3.738,-51.536 -17.748,-70.344 -44.17,-114.396 l -39.11,-65.554 c -13.496,-22.944 -21.8,-25.294 -20.44,-52.538 z"
     id="path1"
     style="stroke-width:2" />
</svg>
