<?xml version="1.0" encoding="UTF-8" standalone="no"?>
<svg
   width="1024"
   height="1024"
   version="1.1"
   id="svg2"
   xmlns="http://www.w3.org/2000/svg"
   xmlns:svg="http://www.w3.org/2000/svg">
  <defs
     id="defs2" />
  <g
     id="g1"
     transform="translate(235.86936,4.7736219)">
    <path
       fill="#82c3bf"
       d="M 142.99666,141.55308 C 124.34882,130.88762 112.13183,115.35088 110.9441,93.051328 108.39745,45.225829 111.48446,3.8945697 168.24921,1.4715017 l 146.1224,0.00642 c 37.80125,-0.023808 107.09062,-11.6455997 125.02688,30.6781063 13.11849,30.960325 11.24327,93.239702 -28.14696,109.397052 3.6889,31.71281 9.91376,30.30573 25.46923,57.54853 20.14854,35.27867 41.99039,69.6933 62.46797,104.81949 52.29471,89.70007 52.88323,103.11816 52.88055,206.5921 l 0.18993,377.80654 c 0.32101,58.69881 -36.68575,110.81965 -95.09298,123.46196 -19.20959,4.1571 -51.10164,2.2283 -71.79322,2.1989 l -240.33528,0.019 c -15.7668,0.011 -31.8118,0.4575 -47.423444,-2.0892 C 51.207371,1004.3424 11.985662,964.73011 2.919889,918.88763 -1.624768,895.91155 0.49040078,866.77482 0.49896097,842.9561 L 0.46097514,479.09731 C 0.4681978,408.6871 12.015088,377.95602 47.224209,318.32629 l 33.735163,-57.4014 C 101.22561,226.24543 120.79367,189.32695 142.99666,156.11609 Z M 164.84119,34.789088 c -26.89237,2.74033 -23.03226,36.485658 -20.41605,57.313931 3.2716,26.032601 38.78835,19.259351 57.1981,19.237951 l 147.86654,-0.0107 c 13.37796,0.005 27.05554,0.63666 40.39605,-0.0107 29.05649,-1.62109 22.58285,-33.599003 21.27742,-55.99165 -1.46326,-25.112915 -23.60204,-20.651452 -41.69881,-20.613199 z m 11.54822,109.821582 c -0.42801,33.72179 -9.94586,34.96836 -26.42957,64.11313 -25.49599,45.08008 -52.492682,89.2453 -78.323047,134.12208 -22.550744,39.17623 -34.893464,67.07977 -37.595273,112.72429 l 89.45931,-0.0348 c 13.04359,-0.003 29.7092,-1.27868 42.3114,0.40928 18.51676,2.48513 19.97734,29.8804 1.68796,32.46718 -13.6856,1.93407 -30.09173,0.60189 -44.02879,0.60189 l -89.42988,-0.0134 -0.01872,369.241 c -0.0027,17.66341 -1.340205,36.98803 1.990243,54.37859 11.502752,60.08449 61.895504,68.5457 111.220907,68.56443 l 278.86148,-0.0348 c 31.47741,-0.29693 56.38756,-8.69127 76.46387,-35.20912 19.31927,-28.05869 16.55861,-49.63839 16.52384,-81.82469 l -0.0107,-375.11543 -253.92191,0.0134 c -12.54602,0.0508 -52.55687,5.54272 -52.4579,-14.95625 0.10433,-21.73218 24.33233,-18.54618 39.21101,-18.54618 l 240.50649,0.12305 c 8.90527,0.0883 17.79181,1.0085 26.66231,-0.0642 -4.99969,-68.93091 -23.73847,-94.08716 -59.07867,-153.008 L 407.683,214.88178 c -18.0513,-30.68827 -29.15814,-33.83147 -27.3391,-70.27111 z"
       id="path1"
       style="stroke-width:2.67506" />
  </g>
</svg>
