<?xml version="1.0" encoding="UTF-8" standalone="no"?>
<svg
   width="788.14124"
   height="466.43811"
   version="1.1"
   id="svg3"
   sodipodi:docname="fish.svg"
   inkscape:version="1.3.2 (091e20e, 2023-11-25)"
   xmlns:inkscape="http://www.inkscape.org/namespaces/inkscape"
   xmlns:sodipodi="http://sodipodi.sourceforge.net/DTD/sodipodi-0.dtd"
   xmlns="http://www.w3.org/2000/svg"
   xmlns:svg="http://www.w3.org/2000/svg">
  <defs
     id="defs3" />
  <sodipodi:namedview
     id="namedview3"
     pagecolor="#ffffff"
     bordercolor="#000000"
     borderopacity="0.25"
     inkscape:showpageshadow="2"
     inkscape:pageopacity="0.0"
     inkscape:pagecheckerboard="0"
     inkscape:deskcolor="#d1d1d1"
     inkscape:zoom="0.23046875"
     inkscape:cx="394.84746"
     inkscape:cy="234.30508"
     inkscape:window-width="1392"
     inkscape:window-height="1027"
     inkscape:window-x="0"
     inkscape:window-y="25"
     inkscape:window-maximized="0"
     inkscape:current-layer="svg3" />
  <path
     fill="#82c3bf"
     d="m 162.87213,80.362324 c 4.96,-15.182 14.958,-8.478 26.012,-5.406 36.888,10.248 69.458,-13.3 99.904,-30.416 37.806,-21.254 78.238,-39.2660002 121.638,-44.47600017 50.376,-1.24600003 87.498,15.47200017 112.742,62.20200017 5.94,2.12 12.454,2.702 18.65,3.748 81.838,13.796 150.648,50.501996 193.52,122.433996 8.824,4.222 43.39,26.292 49.826,32.778 13.374,13.48 -21.97,35.38 -33.652,43.892 -21.316,15.534 -12.154,7.458 -25.502,30.01 -43.86,74.108 -153.818,112.084 -235.25,111.28 -6.324,18.178 -33.602,62.522 -56.43,59.92 -9.362,-1.068 -8.234,-12.05 -9.576,-18.828 -3.648,-18.404 -11.004,-34.494 -23.188,-48.824 -17.2,-4.216 -34.492,-7.074 -51.3,-12.942 -4.236,4.388 -9.65,7.992 -14.796,11.21 -58.164,36.378 -126.338,9.238 -172.598,-34.346 -4.618,-3.51 -10.86,-8.514 -9.78,-15.124 1.59,-9.736 13.886,-7.026 20.53,-7.262 17.134,-0.608 30.802,-8.36 44.2,-18.284 -21.756,-14.764 -40.776,-30.18 -61.874,-45.134 l -0.816,1.098 c -15.638,20.77 -86.903401,90.064 -114.781001,93.87 -19.3228,2.638 -37.2401998,-11.718 -39.64899983,-30.916 -2.74099997,-21.848 9.59379983,-28.7 20.84739983,-43.148 26.437,-33.946 25.368,-85.868 2.6906,-121.59 -9.464,-14.908 -21.5657998,-17.17 -23.98059983,-37.288 C -2.8206708,113.15832 22.043129,89.984324 46.884929,99.736324 c 19.7532,7.755996 69.831201,51.779996 86.269201,68.181996 7.796,7.78 14.234,17.092 22.794,24.028 14.526,-15.636 36.846,-30.978 54.622,-42.732 -20.646,-11.32 -42.004,-45.446 -47.698,-68.851996 z m 253.496,-57.756 c -87.324,2.278 -139.164,79.705996 -221.848,76.898 9.314,15.787996 20,30.313996 38.84,34.329996 7.898,-4.964 16.908,-12.044 25.924,-14.338 45.508,-34.415996 150.716,-58.131996 205.574,-58.699996 10.48,-0.108 21.084,0.498 31.538,-0.018 -17.63,-23.58 -49.414,-43.214 -80.028,-38.172 z m 43.498,60.412 c -113.112,9.52 -203.666,51.223996 -289.782,125.565996 -29.53,25.492 -21.676,33.478 5.718,54.872 56.956,44.484 119.276,85.616 190.152,103.592 78.072,20.998 163.97,25.714 240.016,-5.982 -63,-69.728 -65.41,-184.698 3.078,-251.624 -50.65,-22.615996 -95.462,-26.529996 -149.182,-26.423996 z m 170.578,36.477996 c -66.184,70.15 -65.714,159.868 -3.23,232.096 9.808,-4.956 19.056,-10.94 28.136,-17.116 102.812,-73.702 79.796,-155.226 -24.906,-214.98 z m -599.342201,1.188 c -20.8264,8.804 -3.6324,25.242 4.4528,34.512 37.0262,42.454 36.9102,115.288 1.47,159.072 -4.1442,5.12 -10.76,9.664 -13.3822,15.756 -3.3038,7.674 0.7918,17.196 9.018,19.356 11.5672,3.038 31.8592,-17.016 40.2552,-23.534 22.8564,-18.19 49.078401,-39.934 66.272401,-63.694 -11.038,-16.22 -15.116,-38.656 0,-53.7 -18.632,-21.876 -84.276201,-86.502 -103.570201,-87.988 -1.4758,-0.112 -3.0452,0.082 -4.516,0.22 z m 713.532201,100.654 v 20.59 c 2.682,-2.138 5.406,-4.236 8.036,-6.436 1.754,-1.524 3.548,-3.016 5.186,-4.666 -4.29,-3.112 -8.68,-6.818 -13.222,-9.488 z m -507.184,113.138 c -12.546,11.22 -26.368,20.288 -42.93,24.302 22.516,20.862 55.67,33.166 86.062,32.292 15.48,-0.262 30.312,-4.626 43.13,-13.434 -19.176,-7.62 -37.894,-15.93 -56.156,-25.568 -5.708,-3.014 -26.668,-16.642 -30.106,-17.592 z m 194.318,68.464 c 6.036,11.834 9.05,21.27 13.896,33.276 3.606,-3.136 6.942,-6.312 10.014,-9.978 4.77,-6.158 7.996,-12.61 10.866,-19.83 -11.576,-0.998 -23.284,-1.74 -34.776,-3.468 z"
     id="path1"
     style="stroke-width:2" />
  <path
     fill="#82c3bf"
     d="m 658.91813,231.02632 q -0.7,0.132 -1.406,0.23 -0.706,0.096 -1.416,0.158 -0.71,0.064 -1.424,0.09 -0.712,0.028 -1.424,0.022 -0.712,-0.008 -1.424,-0.05 -0.712,-0.042 -1.42,-0.12 -0.71,-0.078 -1.414,-0.19 -0.704,-0.11 -1.4,-0.258 -0.698,-0.146 -1.388,-0.326 -0.69,-0.18 -1.37,-0.394 -0.68,-0.214 -1.348,-0.46 -0.668,-0.248 -1.324,-0.528 -0.656,-0.278 -1.298,-0.59 -0.64,-0.312 -1.266,-0.654 -0.624,-0.342 -1.232,-0.716 -0.608,-0.372 -1.196,-0.774 -0.59,-0.402 -1.158,-0.832 -0.568,-0.43 -1.114,-0.888 -0.546,-0.458 -1.07,-0.942 -0.522,-0.484 -1.022,-0.994 -0.498,-0.508 -0.972,-1.042 -0.474,-0.532 -0.92,-1.088 -0.446,-0.556 -0.866,-1.132 -0.418,-0.578 -0.808,-1.174 -0.39,-0.596 -0.75,-1.212 -0.36,-0.614 -0.69,-1.246 -0.33,-0.632 -0.628,-1.28 -0.298,-0.648 -0.564,-1.308 -0.266,-0.662 -0.5,-1.336 -0.234,-0.672 -0.434,-1.358 -0.2,-0.684 -0.366,-1.376 -0.166,-0.694 -0.298,-1.394 -0.132,-0.7 -0.23,-1.406 -0.098,-0.706 -0.16,-1.416 -0.062,-0.71 -0.09,-1.422 -0.028,-0.712 -0.022,-1.426 0.008,-0.712 0.05,-1.424 0.042,-0.712 0.118,-1.42 0.078,-0.708 0.19,-1.412 0.112,-0.704 0.256,-1.402 0.148,-0.698 0.328,-1.388 0.18,-0.69 0.392,-1.37 0.214,-0.68 0.462,-1.348 0.246,-0.668 0.526,-1.324 0.278,-0.656 0.59,-1.298 0.31,-0.64 0.652,-1.266 0.342,-0.626 0.716,-1.234 0.372,-0.606 0.774,-1.196 0.402,-0.588 0.832,-1.156 0.43,-0.57 0.888,-1.116 0.456,-0.546 0.94,-1.07 0.484,-0.522 0.994,-1.022 0.508,-0.5 1.04,-0.972 0.534,-0.474 1.088,-0.92 0.556,-0.448 1.132,-0.866 0.578,-0.42 1.174,-0.81 0.596,-0.39 1.212,-0.75 0.614,-0.362 1.246,-0.69 0.632,-0.33 1.28,-0.63 0.646,-0.298 1.308,-0.564 0.66,-0.266 1.334,-0.5 0.674,-0.234 1.358,-0.434 0.684,-0.2 1.376,-0.368 0.694,-0.166 1.394,-0.298 0.7,-0.132 1.408,-0.23 0.706,-0.098 1.416,-0.162 0.71,-0.062 1.422,-0.09 0.714,-0.028 1.426,-0.022 0.714,0.008 1.426,0.05 0.712,0.042 1.42,0.118 0.71,0.076 1.414,0.188 0.704,0.112 1.402,0.258 0.698,0.146 1.388,0.326 0.69,0.18 1.37,0.392 0.68,0.214 1.35,0.462 0.67,0.246 1.326,0.526 0.656,0.278 1.298,0.59 0.64,0.312 1.266,0.654 0.626,0.342 1.234,0.714 0.608,0.372 1.196,0.774 0.59,0.402 1.158,0.834 0.57,0.43 1.116,0.888 0.546,0.458 1.07,0.942 0.524,0.484 1.024,0.992 0.498,0.51 0.972,1.042 0.474,0.534 0.922,1.09 0.446,0.556 0.866,1.132 0.418,0.576 0.808,1.174 0.39,0.596 0.752,1.212 0.36,0.616 0.69,1.248 0.33,0.632 0.628,1.28 0.3,0.646 0.566,1.308 0.266,0.662 0.5,1.336 0.232,0.674 0.434,1.358 0.2,0.684 0.366,1.378 0.166,0.694 0.298,1.394 0.132,0.7 0.23,1.408 0.098,0.706 0.16,1.416 0.064,0.71 0.09,1.424 0.028,0.712 0.022,1.424 -0.008,0.714 -0.05,1.426 -0.042,0.712 -0.118,1.42 -0.078,0.71 -0.19,1.414 -0.112,0.704 -0.258,1.402 -0.146,0.698 -0.326,1.388 -0.18,0.69 -0.394,1.37 -0.214,0.682 -0.46,1.35 -0.248,0.67 -0.528,1.326 -0.28,0.656 -0.59,1.296 -0.312,0.642 -0.654,1.268 -0.344,0.626 -0.716,1.234 -0.372,0.608 -0.776,1.196 -0.402,0.59 -0.832,1.158 -0.43,0.568 -0.888,1.114 -0.458,0.548 -0.942,1.07 -0.486,0.524 -0.994,1.024 -0.51,0.498 -1.044,0.972 -0.532,0.474 -1.088,0.92 -0.556,0.446 -1.134,0.866 -0.576,0.418 -1.174,0.808 -0.596,0.39 -1.212,0.752 -0.616,0.36 -1.248,0.69 -0.632,0.328 -1.28,0.628 -0.648,0.298 -1.31,0.564 -0.66,0.266 -1.334,0.498 -0.674,0.234 -1.36,0.434 -0.684,0.2 -1.378,0.366 -0.694,0.166 -1.394,0.298 z m -8.876,-34.798 c -7.894,5.862 -3.4,13.018 5.308,12.224 7.48,-5.392 4.42,-13.676 -5.308,-12.224 z"
     id="path2"
     style="stroke-width:2" />
  <path
     fill="#82c3bf"
     d="m 505.78013,262.15232 c 6.76,-4.506 16.972,-12.87 25.364,-7.352 24.842,16.336 -36.682,34.332 -46.262,35.788 -35.882,5.456 -65.734,-7.954 -93.83,-28.758 -11.516,-8.528 -36.928,-22.228 -23.816,-36.464 23.452,-25.462 60.344,-47.972 95.87,-49.29 19.95,-2.566 41.44,3.998 58.956,13.042 7.6,3.924 21.16,14.118 9.852,22.596 -17.482,13.106 -52.494,-50.286 -140.766,21.858 24.776,22.83 60.694,40.904 94.804,34.226 6.746,-1.322 13.134,-4.062 19.828,-5.646 z"
     id="path3"
     style="stroke-width:2" />
</svg>
