<?xml version="1.0" encoding="UTF-8" standalone="no"?>
<svg
   width="1024"
   height="1024"
   version="1.1"
   id="svg1"
   sodipodi:docname="soy.svg"
   inkscape:version="1.3.2 (091e20e, 2023-11-25)"
   xmlns:inkscape="http://www.inkscape.org/namespaces/inkscape"
   xmlns:sodipodi="http://sodipodi.sourceforge.net/DTD/sodipodi-0.dtd"
   xmlns="http://www.w3.org/2000/svg"
   xmlns:svg="http://www.w3.org/2000/svg">
  <defs
     id="defs1" />
  <sodipodi:namedview
     id="namedview1"
     pagecolor="#ffffff"
     bordercolor="#000000"
     borderopacity="0.25"
     inkscape:showpageshadow="2"
     inkscape:pageopacity="0.0"
     inkscape:pagecheckerboard="0"
     inkscape:deskcolor="#d1d1d1"
     inkscape:zoom="0.23046875"
     inkscape:cx="351.45763"
     inkscape:cy="351.45763"
     inkscape:window-width="1392"
     inkscape:window-height="1027"
     inkscape:window-x="718"
     inkscape:window-y="25"
     inkscape:window-maximized="0"
     inkscape:current-layer="svg1" />
  <path
     fill="#82c3bf"
     d="M 65.238631,616.68831 C 100.83254,533.29121 162.6707,479.34834 254.00723,462.33567 c 25.82108,-4.80834 51.92077,-4.39179 77.36667,-11.6112 80.18326,-22.75069 146.22286,-83.29503 182.89375,-157.56372 7.48425,-15.16161 12.30639,-31.01012 18.52717,-46.66277 29.61699,-74.50041 92.44276,-127.59362 170.14874,-147.089077 39.71921,-9.964286 79.55428,-6.413888 105.23466,-45.720679 6.11044,-9.352415 7.67736,-20.375199 19.83202,-23.867113 35.52881,1.072016 2.91315,44.152104 -7.93391,55.692413 -5.97802,26.375566 -2.389,75.419046 7.93391,101.096676 33.69981,-19.37684 82.49226,-27.43213 98.0456,-63.31405 4.25109,-9.80704 7.29942,-29.28043 21.69687,-28.303864 24.37278,1.655197 7.43735,34.855694 3.94489,47.206214 -9.12014,32.24324 8.25391,57.76638 21.61135,85.96818 43.10135,90.98618 13.67193,211.97004 -63.83267,275.20684 0.59311,60.274 -30.09976,113.59341 -83.84676,141.59383 -21.64722,11.27465 -57.4381,20.38375 -70.76243,42.39787 -10.20429,58.24914 -32.31221,103.8112 -91.75585,128.18949 -36.08329,14.79746 -43.6972,10.90775 -76.84528,41.0682 -22.60447,93.03035 -125.96877,139.92208 -215.09285,137.46411 -21.39618,-0.5876 -41.89855,-3.98351 -62.8699,-8.04426 -38.71781,-8.31736 -81.43569,-19.00718 -81.14879,-68.36791 0.15173,-26.01694 9.80704,-40.03922 27.46524,-57.31396 C 184.16068,846.08482 98.352503,796.85374 55.875734,738.16322 24.265057,694.48533 17.480956,651.06951 65.238631,616.68831 Z M 787.32274,109.03663 c -19.29132,10.32291 -39.493,11.55879 -60.51676,15.5423 -80.72672,15.2885 -136.95652,60.86711 -169.00113,137.24894 -7.39597,17.62784 -12.87192,35.73294 -21.57273,52.86699 -40.51095,79.78877 -117.44727,144.2118 -204.63201,166.24523 -25.39072,6.41664 -51.34421,6.23733 -76.91425,11.21947 -62.95265,12.26225 -125.42531,55.69738 -153.53056,114.60033 17.09819,-1.45658 33.88465,-2.6428 50.12764,-8.69255 14.56298,-5.51456 28.55492,-12.48846 43.40479,-17.21956 40.6875,-12.96019 100.81253,-14.05262 136.41582,13.60572 32.81704,-60.07262 84.81505,-63.30577 142.87109,-64.73476 -0.5876,-88.77925 54.54426,-160.92653 147.03942,-161.17756 28.97423,-0.0773 47.84623,7.95322 73.73627,18.64303 34.65431,-69.12103 45.91241,-126.41843 108.04299,-183.04272 -6.70079,-21.181 -11.1781,-42.23235 -13.27744,-64.36233 -0.83588,-8.7891 -0.0359,-22.97138 -2.19314,-30.74253 z m 133.43922,65.68098 c -39.34403,23.49 -75.58732,28.60456 -110.68578,62.9499 -42.35649,41.44337 -54.15804,89.7503 -80.19429,140.37174 41.99786,-10.21808 74.95835,-8.42771 113.13823,13.36571 34.28741,20.89687 46.17724,41.02406 61.30022,76.89494 55.05461,-63.88509 79.19566,-147.66564 41.87649,-227.73856 -6.46631,-13.87055 -13.9009,-27.18109 -19.18374,-41.5951 -2.01382,-5.49525 -4.21523,-21.10376 -6.25113,-24.24863 z M 610.26632,398.30989 c -77.53771,8.35323 -111.61545,70.07277 -106.65538,143.14144 18.93545,3.23315 38.97713,22.35344 51.39939,36.31226 l 11.38223,-10.24842 C 610.21942,526.87456 657.53047,468.333 682.5267,413.93495 659.06428,403.80239 636.26395,395.75261 610.26632,398.30989 Z m 150.25878,3.20281 c -16.29265,2.37521 -33.22808,7.47597 -47.52622,15.77954 -27.19489,50.45317 -44.06686,77.93496 -81.31707,124.15909 49.63384,5.18353 91.78343,35.9426 111.22924,81.77777 2.23451,5.26904 6.00009,23.20586 8.74771,26.43349 23.55622,-17.43474 36.90262,-19.31339 60.88367,-31.65288 C 929.14554,558.01158 880.97379,388.91941 760.5251,401.5127 Z M 437.46927,558.75641 c -34.66258,4.86628 -63.17887,22.21551 -82.3764,51.55663 25.94797,26.8473 34.48603,41.97856 46.99932,77.05218 11.86225,-5.98629 23.73829,-11.92845 35.37708,-18.34786 36.34261,-21.20583 68.0617,-47.10966 99.73389,-74.56386 -31.67771,-25.45142 -58.28776,-38.00884 -99.73389,-35.69709 z m 182.10753,13.62228 c -25.67762,2.18761 -29.47354,12.61536 -46.35655,29.16181 -37.88746,37.13158 -69.59276,55.99531 -109.53266,85.82472 63.77474,8.69806 110.20026,53.11527 122.57837,115.34516 0.80553,4.74766 0.29242,9.53946 0,14.3147 26.45557,-13.96986 33.53705,-15.73817 60.74573,-26.52453 102.13945,-40.48888 102.69394,-185.63311 4.21524,-215.34389 -9.58359,-2.89108 -21.72998,-4.78904 -31.65013,-2.77797 z m -375.24143,28.73146 c -41.78821,2.35314 -61.70575,20.43065 -97.59594,29.33561 -29.65561,7.3601 -90.607141,0.69242 -86.906396,50.74834 4.045025,54.71253 102.241796,112.09545 151.530806,135.83098 22.8031,7.48701 44.94963,13.74089 68.61068,18.11061 31.60598,-54.40908 26.92453,-96.68833 95.81107,-132.43507 C 360.03915,640.16176 310.00807,597.22043 244.33537,601.11015 Z m 193.1339,114.45135 c -33.20049,2.7228 -64.13888,16.59335 -85.91576,42.33167 -24.73968,29.23905 -26.85005,64.86717 -47.49588,93.54897 -14.56849,20.23754 -75.37491,59.25605 -36.28192,90.99446 17.41819,14.1409 88.45097,23.36862 112.28305,21.89549 75.68664,1.73244 178.08816,-47.37449 179.58612,-133.65164 1.13381,-65.30028 -56.51946,-124.24736 -122.17561,-115.11895 z"
     id="path1"
     style="stroke-width:2.75866" />
</svg>
