<?xml version="1.0" encoding="UTF-8" standalone="no"?>
<svg
   width="1024"
   height="1024"
   version="1.1"
   id="svg1"
   sodipodi:docname="sulfitos.svg"
   inkscape:version="1.3.2 (091e20e, 2023-11-25)"
   xmlns:inkscape="http://www.inkscape.org/namespaces/inkscape"
   xmlns:sodipodi="http://sodipodi.sourceforge.net/DTD/sodipodi-0.dtd"
   xmlns="http://www.w3.org/2000/svg"
   xmlns:svg="http://www.w3.org/2000/svg">
  <defs
     id="defs1" />
  <sodipodi:namedview
     id="namedview1"
     pagecolor="#ffffff"
     bordercolor="#000000"
     borderopacity="0.25"
     inkscape:showpageshadow="2"
     inkscape:pageopacity="0.0"
     inkscape:pagecheckerboard="0"
     inkscape:deskcolor="#d1d1d1"
     inkscape:zoom="0.23046875"
     inkscape:cx="247.32203"
     inkscape:cy="373.15254"
     inkscape:window-width="1392"
     inkscape:window-height="1027"
     inkscape:window-x="383"
     inkscape:window-y="25"
     inkscape:window-maximized="0"
     inkscape:current-layer="svg1" />
  <path
     fill="#82c3bf"
     d="m 616.22077,112.07668 c -17.89925,-16.646864 -15.1451,-55.399008 -11.19008,-77.296642 2.91679,-16.16543 13.94151,-24.571812 29.91068,-27.1196683 14.16651,-0.6982954 28.72608,-0.016807 42.92511,-0.024668 30.36881,-0.016536 72.4346,-6.4979967 74.08275,36.6984603 0.93522,24.476936 6.05316,49.569488 -10.85394,67.742518 -1.59122,40.12488 -0.63974,85.60083 -0.005,125.82872 1.11684,70.67259 109.38787,83.99876 110.97096,190.78429 0.59366,40.01644 -0.0108,80.13048 -0.0108,120.15506 l 0.038,351.9371 c 0.0271,33.41572 6.52754,69.29553 -19.13807,95.41655 -15.36466,15.6357 -32.30971,20.2982 -53.81971,20.5042 l -184.17813,0.016 c -61.00597,-0.079 -87.20018,-15.0285 -87.22187,-79.40394 l 0.0352,-31.34739 c -8.92929,5.29956 -17.4113,7.74197 -27.78272,8.0266 35.09592,89.36643 -90.58641,140.00903 -133.12388,63.82819 -11.67531,-20.91091 -10.0895,-41.54804 -3.80051,-63.82789 -52.93057,-11.50995 -71.74335,-58.20303 -53.54592,-106.40331 -23.73282,-4.10411 -41.8923,-15.01769 -53.92272,-36.68491 -25.79301,-46.36779 3.41016,-96.96168 53.92272,-107.7099 -8.04558,-24.87135 -9.07838,-36.50871 0,-61.5915 -8.47388,-6.86639 -15.61948,-13.6623 -21.2118,-23.11748 -11.14129,7.51969 -75.1264,55.15612 -73.4159,16.24567 1.48008,-33.64884 10.75906,-68.50669 36.1048,-91.65128 -14.25596,-3.50232 -70.24158,-8.86694 -58.12984,-33.58378 4.71674,-9.62325 61.14964,-34.29671 72.61622,-37.75837 43.35341,-13.09575 86.21888,7.75552 123.86882,27.73935 18.26791,-98.36857 -67.89676,-138.93531 -71.38824,-155.51712 -3.86285,-18.36007 13.55387,-22.13347 27.95079,-10.71569 41.3366,32.78411 69.47444,78.77781 73.39422,132.10416 1.16834,15.88514 -1.51262,31.87328 0.24939,47.6283 29.60978,26.96679 52.58088,43.98774 63.58121,87.32488 16.73631,-0.46896 29.40647,1.80267 44.63289,8.78562 l -0.1762,-147.50948 c 0.0407,-44.89043 22.04944,-68.24646 50.8975,-97.10536 53.05798,-53.07967 57.73407,-46.30273 57.75304,-123.38631 z m 28.97275,-76.262481 c -3.59177,0.160749 -9.08922,-0.320956 -11.79729,2.23666 -2.29602,11.248628 -0.79697,36.000436 -0.76986,48.484094 h 79.62899 11.08436 c 0.23584,-51.753017 11.05725,-50.753826 -34.9717,-50.755181 z m 0,79.686191 c -0.26294,25.45417 -0.008,50.92731 0.019,76.38419 0.0542,50.10867 5.50016,82.13917 -32.8329,119.69153 -36.39485,35.6521 -74.61677,60.82706 -75.25922,114.82297 -0.6289,52.79775 -1.94634,111.39385 0.14638,163.97202 1.17376,29.53389 16.66042,41.71068 -0.14367,72.82495 16.39476,2.63758 28.8345,7.50071 41.6402,18.17845 -1.5587,-26.45173 -15.47581,-75.25109 -13.76531,-94.70903 3.86827,-43.95791 42.06579,-44.14495 74.2481,-44.15309 l 52.23391,-0.008 c 36.95599,0.005 98.01346,-9.01603 99.8351,47.21084 0.40933,12.6295 -4.05531,25.95025 -6.35134,38.31409 -6.58718,35.50572 -9.46331,72.14183 -12.84907,108.04875 -1.96802,20.86754 -0.14367,44.05008 -15.73333,60.37978 -21.06814,22.06299 -55.16155,16.05049 -82.87921,16.12368 -36.37317,0.0949 -73.27494,5.16945 -84.02858,-41.67544 -9.3088,18.67724 -28.67999,28.98631 -47.9536,34.52713 7.1456,19.98112 11.99789,42.23115 2.36651,62.46166 -10.39582,21.838 -10.9434,78.10554 -4.07972,97.20023 9.71542,27.03184 42.61608,21.7133 65.24292,21.66993 l 135.94803,0.008 c 30.09502,0.0569 79.42569,6.31069 80.89493,-37.23248 1.07888,-31.93563 0.0976,-64.24535 0.0786,-96.2108 l -0.0298,-346.92759 c 0.003,-28.18934 1.0572,-56.81241 -0.18433,-84.95566 -3.27462,-74.221 -95.01535,-95.81503 -107.98911,-164.60363 -3.12553,-16.56012 -1.54786,-35.31597 -1.54786,-52.19325 l 0.0352,-89.14923 z M 268.30104,456.57 c -15.31317,2.4397 -31.05463,7.99949 -44.15852,16.40831 14.25325,4.16646 43.95792,9.91331 51.48574,23.08767 8.46032,14.80625 -12.43974,20.88651 -21.33651,26.55474 -16.31072,10.3904 -22.04672,28.83451 -26.6713,46.46809 15.63303,-6.28628 23.20693,-18.16761 36.66051,-26.55203 2.55626,-1.22798 4.97427,-2.23639 7.71757,-2.98185 15.94748,3.3207 17.64172,17.15107 24.84967,29.53388 2.15777,-15.20202 0.84847,-45.75244 14.48637,-55.81484 13.8629,-10.23317 28.74776,-17.80707 41.24172,-30.22784 C 330.413,472.19219 293.15612,452.91859 268.30104,456.57 Z m 113.1721,40.2062 c -16.04778,14.20717 -33.70847,25.88518 -50.32281,39.30894 -2.02224,9.70999 -3.17974,19.56908 -4.41856,29.40377 25.92042,-8.93472 42.14441,-8.17841 67.23804,3.5999 7.41397,5.11252 13.90085,10.7184 19.95672,17.39775 6.09924,-7.8748 13.20147,-13.51592 22.40726,-17.39775 -5.70618,-18.7694 -34.78736,-68.00248 -54.86065,-72.31261 z m 230.60285,74.86616 c -8.0022,1.29846 -13.60266,4.90108 -16.90438,12.24728 -2.84361,6.32424 8.19195,62.69208 10.05426,77.2652 l 6.50857,54.46216 c 1.45839,12.93311 3.1472,44.84434 7.59558,54.74951 9.15429,20.39315 46.42201,13.26111 65.73899,13.22858 16.83933,-0.0271 38.07282,4.6544 50.88665,-9.10278 8.59587,-13.15539 6.60345,-34.13407 7.94528,-49.20327 2.94932,-33.12023 5.92304,-66.52511 11.45302,-99.34445 3.67581,-21.80547 17.39775,-51.75952 -16.41645,-54.02844 -14.93094,-1.00299 -30.26037,-0.30632 -45.24282,-0.30903 z m -261.31592,16.24567 q -1.07346,0.11928 -2.1388,0.29277 -1.06804,0.17078 -2.12525,0.39577 -1.05449,0.22228 -2.10085,0.49878 -1.04364,0.2765 -2.07374,0.60179 -1.03009,0.3253 -2.04392,0.70209 -1.01112,0.37409 -2.00326,0.79968 -0.99486,0.42559 -1.96532,0.89727 -0.97045,0.47438 -1.91922,0.99485 -0.94606,0.51776 -1.86773,1.08431 -0.91895,0.56655 -1.81079,1.17377 -0.89185,0.60992 -1.75388,1.26322 -0.85931,0.6533 -1.68881,1.34725 -0.82678,0.69396 -1.62104,1.42587 -0.79155,0.73462 -1.54785,1.50448 -0.75631,0.77257 -1.47466,1.58038 -0.71836,0.8051 -1.39605,1.64815 -0.6777,0.84034 -1.31202,1.71321 -0.63703,0.87287 -1.22798,1.77827 -0.59366,0.90269 -1.14123,1.83519 -0.54487,0.9298 -1.04636,1.8867 -0.5015,0.95691 -0.95691,1.93821 -0.4527,0.97859 -0.85931,1.98157 -0.40391,1.00028 -0.76173,2.01953 -0.35511,1.01925 -0.66143,2.05477 -0.30632,1.03822 -0.56113,2.08729 -0.25481,1.04907 -0.45812,2.11169 -0.20331,1.05992 -0.35511,2.12796 -0.1518,1.07076 -0.24939,2.14694 -0.1003,1.07617 -0.14638,2.15506 -0.0461,1.07889 -0.0379,2.15778 0.005,1.0816 0.0651,2.16048 0.0596,1.07889 0.17078,2.15236 0.11114,1.07347 0.2765,2.14151 0.16265,1.06805 0.37951,2.12796 0.21686,1.0572 0.48523,2.10356 0.26566,1.04636 0.58553,2.07916 0.31716,1.03281 0.68582,2.04664 0.36867,1.01654 0.78613,2.0141 0.41746,0.99486 0.88371,1.97074 0.46625,0.97316 0.97859,1.92465 0.51233,0.95148 1.07075,1.87585 0.55842,0.92438 1.16022,1.82164 0.6045,0.89456 1.24966,1.762 0.64788,0.86474 1.3337,1.69695 0.68854,0.83492 1.41503,1.63189 0.7292,0.79967 1.49363,1.5614 0.76444,0.76173 1.56683,1.48551 0.80239,0.72377 1.64002,1.40689 0.83492,0.68582 1.70508,1.32828 0.86744,0.63974 1.76742,1.23882 0.89727,0.59908 1.82435,1.15479 0.92709,0.553 1.88128,1.06262 0.95419,0.50692 1.93007,0.96775 0.97588,0.46354 1.97616,0.87558 0.99756,0.41204 2.0141,0.77528 1.01654,0.36596 2.05206,0.6777 1.0328,0.31444 2.08187,0.57739 1.04636,0.26295 2.10627,0.47439 1.05992,0.21144 2.12796,0.36866 1.06805,0.15994 2.14422,0.26837 1.07347,0.10572 2.15236,0.15993 1.07889,0.0542 2.16049,0.0569 1.07888,0 2.15777,-0.0515 1.07889,-0.0515 2.15507,-0.15451 1.08431,-0.10572 2.16319,-0.26294 1.07889,-0.15723 2.14965,-0.36867 1.07075,-0.21144 2.12796,-0.4771 1.0572,-0.26294 2.10356,-0.57739 1.04365,-0.31716 2.06832,-0.68312 1.02738,-0.36595 2.03579,-0.78341 1.00841,-0.41746 1.99242,-0.88371 0.98672,-0.46626 1.94904,-0.97859 0.96233,-0.51505 1.89755,-1.07618 0.93521,-0.56113 1.84061,-1.16563 0.9054,-0.60722 1.78098,-1.2578 0.87558,-0.65059 1.71863,-1.34183 0.84305,-0.69396 1.65086,-1.42587 0.8051,-0.73462 1.57496,-1.50448 0.76986,-0.77257 1.50177,-1.58309 0.73191,-0.80781 1.42045,-1.65358 0.69125,-0.84305 1.33912,-1.72134 0.64788,-0.87558 1.25238,-1.78369 0.60179,-0.90811 1.16021,-1.84603 0.55842,-0.93522 1.07076,-1.90026 0.51233,-0.96232 0.97587,-1.94904 0.46084,-0.98673 0.87558,-1.99513 0.41475,-1.01112 0.778,-2.03851 0.36324,-1.02738 0.67769,-2.07103 0.31174,-1.04636 0.57197,-2.10356 0.26024,-1.05991 0.46897,-2.13067 0.20873,-1.07075 0.36324,-2.14964 0.15723,-1.07889 0.25752,-2.16591 0.10301,-1.08431 0.15181,-2.17404 0.0461,-1.08973 0.0407,-2.17946 -0.005,-1.08973 -0.0624,-2.17946 -0.0596,-1.08974 -0.17349,-2.17405 -0.11385,-1.0843 -0.27921,-2.16319 -0.16536,-1.07618 -0.38493,-2.14423 -0.21957,-1.06804 -0.49065,-2.12524 -0.27108,-1.0572 -0.59637,-2.09814 -0.32258,-1.04094 -0.69667,-2.06561 -0.37408,-1.02467 -0.79968,-2.02766 -0.42288,-1.0057 -0.89726,-1.98971 -0.47168,-0.9813 -0.99486,-1.9382 -0.52046,-0.95962 -1.08702,-1.88941 -0.56926,-0.93251 -1.18189,-1.83249 -0.61264,-0.90268 -1.26865,-1.77284 -0.656,-0.87016 -1.35538,-1.70779 -0.69938,-0.83763 -1.43942,-1.64002 -0.73734,-0.80239 -1.51533,-1.56683 -0.77799,-0.76443 -1.59393,-1.48821 -0.81323,-0.72378 -1.66442,-1.4096 -0.84847,-0.68312 -1.72947,-1.32557 -0.88371,-0.63974 -1.79453,-1.23611 -0.91354,-0.59909 -1.85417,-1.14937 -0.94064,-0.55029 -1.90839,-1.05449 -0.96775,-0.50421 -1.95718,-0.96233 -0.99214,-0.45541 -2.00326,-0.86203 -1.01112,-0.40661 -2.04121,-0.76172 -1.03281,-0.35782 -2.07917,-0.66143 -1.04636,-0.30632 -2.10898,-0.55842 -1.05991,-0.2521 -2.13067,-0.4527 -1.07346,-0.2006 -2.15235,-0.34698 -1.0816,-0.14909 -2.16862,-0.24126 -1.08702,-0.0949 -2.17675,-0.13554 -1.08973,-0.038 -2.17947,-0.0244 -1.08973,0.0136 -2.17946,0.0813 -1.08702,0.0651 -2.17133,0.18704 z m 117.67471,0.72378 q -1.0816,0.0813 -2.15507,0.21415 -1.07617,0.13283 -2.14422,0.31987 -1.06804,0.18433 -2.12525,0.42288 -1.0572,0.23855 -2.10085,0.5286 -1.04364,0.29006 -2.07374,0.63161 -1.02738,0.34156 -2.0385,0.73191 -1.01112,0.39035 -2.00055,0.8295 -0.99214,0.44186 -1.95718,0.9298 -0.96775,0.48793 -1.9111,1.02196 -0.94335,0.53673 -1.85688,1.11684 -0.91624,0.5801 -1.79995,1.20629 -0.88642,0.62348 -1.74032,1.29304 -0.85389,0.66685 -1.67255,1.37436 -0.81865,0.71023 -1.60206,1.4584 -0.78613,0.74817 -1.53159,1.5343 -0.74546,0.78612 -1.45298,1.60749 -0.70751,0.82136 -1.37165,1.67797 -0.66685,0.85389 -1.28761,1.74031 -0.62348,0.88643 -1.20088,1.80267 -0.5801,0.91895 -1.11141,1.8623 -0.53403,0.94335 -1.01926,1.9111 -0.48522,0.97045 -0.92437,1.95988 -0.43643,0.99215 -0.82408,2.00327 -0.38764,1.01383 -0.72648,2.04121 -0.33885,1.03009 -0.62619,2.07645 -0.28734,1.04365 -0.52318,2.10085 -0.23584,1.05992 -0.41746,2.12796 -0.18433,1.06805 -0.31445,2.14151 -0.13012,1.07618 -0.20873,2.15778 -0.0759,1.0816 -0.1003,2.1632 -0.0244,1.08431 0.003,2.16862 0.0298,1.08159 0.11114,2.16319 0.0813,1.0816 0.21687,2.15507 0.13553,1.07618 0.32258,2.14422 0.18704,1.06534 0.4283,2.12254 0.23855,1.0572 0.53131,2.10085 0.29006,1.04365 0.63161,2.07374 0.34427,1.02738 0.73462,2.0385 0.39306,1.00841 0.83492,1.99784 0.44186,0.98944 0.93251,1.95718 0.48794,0.96775 1.02467,1.90839 0.53673,0.94335 1.11955,1.85688 0.58282,0.91353 1.209,1.79724 0.62619,0.88371 1.29304,1.73761 0.66957,0.85389 1.37979,1.67254 0.71022,0.81866 1.46111,1.59936 0.74817,0.78341 1.53429,1.52888 0.78884,0.74546 1.6102,1.45026 0.82137,0.7048 1.67797,1.37165 0.85661,0.66414 1.74574,1.28491 0.88642,0.62077 1.80538,1.19816 0.91624,0.5774 1.85959,1.10871 0.94606,0.53131 1.91652,1.01383 0.96774,0.48523 1.95989,0.92166 0.99214,0.43644 2.00597,0.82408 1.01112,0.38493 2.04121,0.72106 1.0301,0.33885 2.07645,0.62348 1.04365,0.28463 2.10356,0.52047 1.05721,0.23313 2.12525,0.41475 1.06805,0.18162 2.14422,0.31174 1.07618,0.1274 2.15778,0.20331 1.0816,0.0759 2.1632,0.10029 1.08431,0.0217 2.16862,-0.008 1.0816,-0.0298 2.1632,-0.11385 1.07888,-0.084 2.15235,-0.21957 1.07347,-0.13554 2.1388,-0.3253 1.06262,-0.18704 2.11712,-0.4283 1.0572,-0.24126 2.09813,-0.53402 1.04094,-0.29005 2.06561,-0.63432 1.02739,-0.34156 2.0358,-0.73462 1.0084,-0.39306 1.99513,-0.83492 0.98672,-0.44186 1.95175,-0.9298 0.96504,-0.49065 1.90568,-1.02738 0.93793,-0.53402 1.85146,-1.11684 0.91082,-0.5801 1.79453,-1.20629 0.881,-0.62619 1.73218,-1.29304 0.85119,-0.66956 1.66713,-1.37708 0.81865,-0.71022 1.59936,-1.45839 0.7807,-0.74818 1.52345,-1.5343 0.74546,-0.78612 1.45027,-1.60478 0.70209,-0.82136 1.36623,-1.67797 0.66414,-0.85389 1.28219,-1.74031 0.62077,-0.88643 1.19816,-1.79996 0.57469,-0.91624 1.106,-1.85959 0.53131,-0.94064 1.01383,-1.90838 0.48523,-0.96775 0.92166,-1.95989 0.43644,-0.98944 0.82137,-1.99785 0.38764,-1.01111 0.72377,-2.0385 0.33614,-1.03009 0.62348,-2.07103 0.28463,-1.04365 0.52047,-2.10085 0.23313,-1.05449 0.41746,-2.12254 0.18162,-1.06533 0.31174,-2.1388 0.13012,-1.07346 0.20602,-2.15235 0.0786,-1.07889 0.10301,-2.16049 0.0244,-1.0816 -0.005,-2.1632 -0.0298,-1.08159 -0.11115,-2.16048 -0.0813,-1.07889 -0.21686,-2.15236 -0.13283,-1.07346 -0.32258,-2.1388 -0.18704,-1.06533 -0.42559,-2.11982 -0.23855,-1.05449 -0.5286,-2.09543 -0.29006,-1.04365 -0.63161,-2.07103 -0.34156,-1.02468 -0.73191,-2.03308 -0.39306,-1.00841 -0.83221,-1.99784 -0.43914,-0.98673 -0.92708,-1.95176 -0.48794,-0.96504 -1.02468,-1.90568 -0.53402,-0.94063 -1.11412,-1.85417 -0.58011,-0.91353 -1.20359,-1.79724 -0.62619,-0.88371 -1.29304,-1.73489 -0.66685,-0.85119 -1.37436,-1.66984 -0.70751,-0.81594 -1.45298,-1.59936 -0.74817,-0.78341 -1.53158,-1.52616 -0.78613,-0.74547 -1.60478,-1.45027 -0.82137,-0.70751 -1.67526,-1.37165 -0.85389,-0.66414 -1.73761,-1.28491 -0.88642,-0.62076 -1.79995,-1.19816 -0.91624,-0.5801 -1.85688,-1.11142 -0.94064,-0.53131 -1.90839,-1.01654 -0.96774,-0.48523 -1.95717,-0.92166 -0.98944,-0.43915 -1.99784,-0.82679 -1.01112,-0.38764 -2.03851,-0.72648 -1.02738,-0.33885 -2.06832,-0.62619 -1.04365,-0.28734 -2.09814,-0.52318 -1.0572,-0.23584 -2.12253,-0.42017 -1.06534,-0.18433 -2.1388,-0.31445 -1.07347,-0.13283 -2.15236,-0.21144 -1.07889,-0.0786 -2.16049,-0.10301 -1.08159,-0.0271 -2.16319,0 -1.0816,0.0271 -2.16049,0.10843 z M 408.2068,689.89175 q -1.08702,0.14639 -2.16591,0.34698 -1.07889,0.19789 -2.14693,0.44999 -1.06805,0.25482 -2.11983,0.55842 -1.05449,0.30361 -2.09272,0.65872 -1.03822,0.35782 -2.05747,0.76444 -1.01926,0.40661 -2.01682,0.86202 -0.99756,0.45541 -1.97073,0.95962 -0.97588,0.5042 -1.92194,1.0572 -0.94877,0.55029 -1.87044,1.14937 -0.91895,0.59637 -1.80808,1.23882 -0.88914,0.64246 -1.74845,1.32557 -0.85661,0.68583 -1.67797,1.41231 -0.82137,0.72649 -1.60749,1.49093 -0.78612,0.76715 -1.5343,1.56954 -0.74546,0.80239 -1.45297,1.64273 -0.70752,0.83763 -1.37165,1.7105 -0.66414,0.87287 -1.28491,1.77826 -0.62077,0.90269 -1.19816,1.83791 -0.57469,0.93251 -1.10329,1.89483 -0.53131,0.95961 -1.01112,1.94634 -0.48252,0.98672 -0.91624,1.99242 -0.43101,1.0084 -0.81323,2.0385 -0.38222,1.02738 -0.71565,2.07374 -0.33071,1.04365 -0.60992,2.10627 -0.27921,1.05991 -0.50692,2.13338 -0.2277,1.07347 -0.4039,2.15778 -0.17349,1.0816 -0.29548,2.17133 -0.11927,1.09244 -0.18704,2.18488 -0.0678,1.09515 -0.0813,2.19302 -0.0136,1.09786 0.0271,2.19301 0.0407,1.09787 0.13553,2.19031 0.0922,1.09244 0.24126,2.17946 0.14639,1.08702 0.34969,2.16591 0.2006,1.07889 0.4527,2.14422 0.25482,1.06805 0.56113,2.12254 0.30361,1.05178 0.66143,2.09001 0.35782,1.03822 0.76444,2.05476 0.40933,1.01925 0.86474,2.01682 0.45812,0.99756 0.96232,1.97073 0.50692,0.97317 1.05991,1.92194 0.553,0.94606 1.15208,1.86501 0.59637,0.92167 1.24154,1.80809 0.64245,0.88913 1.32828,1.74574 0.68582,0.8566 1.41231,1.67797 0.72649,0.82136 1.49364,1.60749 0.76715,0.78341 1.56954,1.52887 0.8051,0.74818 1.64544,1.45298 0.84034,0.7048 1.71321,1.36894 0.87286,0.66414 1.77826,1.28491 0.9054,0.61805 1.84062,1.19274 0.93251,0.57468 1.89483,1.10328 0.96232,0.5286 1.94634,1.00841 0.98672,0.48252 1.99513,0.91353 1.0084,0.43101 2.0385,0.81052 1.02738,0.38222 2.07374,0.71294 1.04636,0.33071 2.10898,0.60992 1.05992,0.2765 2.13338,0.5042 1.07347,0.225 2.15778,0.39849 1.0816,0.17349 2.17404,0.29276 1.08973,0.11927 2.18488,0.18704 1.09516,0.0651 2.19031,0.0786 1.09786,0.0108 2.19301,-0.0298 1.09787,-0.0434 2.19031,-0.13825 1.09244,-0.0949 2.17946,-0.24397 1.08431,-0.14909 2.16049,-0.34969 1.07889,-0.20331 2.14422,-0.45812 1.06534,-0.2521 2.11712,-0.55842 1.05178,-0.30632 2.08729,-0.66414 1.03281,-0.35782 2.05206,-0.76715 1.01654,-0.40662 2.01139,-0.86474 0.99486,-0.45541 1.96531,-0.96232 0.97317,-0.50421 1.91923,-1.0572 0.94606,-0.553 1.8623,-1.15208 0.91896,-0.59637 1.80538,-1.23883 0.88642,-0.64245 1.74032,-1.32828 0.8566,-0.68582 1.67526,-1.41231 0.82136,-0.72649 1.60477,-1.49093 0.78342,-0.76443 1.52617,-1.56953 0.74546,-0.80239 1.45026,-1.64002 0.70481,-0.84034 1.36895,-1.7105 0.66142,-0.87287 1.27948,-1.77556 0.62077,-0.9054 1.19545,-1.8379 0.57198,-0.93251 1.10058,-1.89212 0.5286,-0.95962 1.0084,-1.94634 0.47981,-0.98401 0.91082,-1.98971 0.43102,-1.0084 0.81053,-2.03308 0.38222,-1.02738 0.71293,-2.07374 0.33071,-1.04365 0.60992,-2.10356 0.2765,-1.0572 0.50421,-2.13067 0.2277,-1.07075 0.40119,-2.15235 0.17349,-1.0816 0.29277,-2.17133 0.12198,-1.08702 0.18704,-2.17947 0.0678,-1.09515 0.0813,-2.1903 0.0136,-1.09515 -0.0271,-2.19031 -0.0407,-1.09244 -0.13553,-2.18488 -0.0949,-1.09244 -0.24126,-2.17675 -0.14638,-1.08431 -0.34698,-2.1632 -0.2006,-1.07618 -0.45541,-2.14151 -0.2521,-1.06534 -0.55842,-2.11712 -0.30361,-1.05178 -0.65872,-2.09 -0.35782,-1.03552 -0.76444,-2.05206 -0.40661,-1.01654 -0.86202,-2.01139 -0.45541,-0.99757 -0.95962,-1.97074 -0.5042,-0.97045 -1.0572,-1.91651 -0.55029,-0.94878 -1.14666,-1.86502 -0.59908,-0.91895 -1.23882,-1.80808 -0.64245,-0.88643 -1.32557,-1.74303 -0.68312,-0.8539 -1.4096,-1.67526 -0.72649,-0.82136 -1.49093,-1.60478 -0.76444,-0.78612 -1.56683,-1.53159 -0.80238,-0.74546 -1.64001,-1.45026 -0.83763,-0.70751 -1.70779,-1.37165 -0.87287,-0.66143 -1.77556,-1.2822 -0.90269,-0.62077 -1.83519,-1.19545 -0.9298,-0.57468 -1.88941,-1.106 -0.95962,-0.5286 -1.94363,-1.0084 -0.98401,-0.48252 -1.98971,-0.91353 -1.0084,-0.43373 -2.03308,-0.81595 -1.02738,-0.38222 -2.07103,-0.71293 -1.04365,-0.33072 -2.10356,-0.61264 -1.05991,-0.27921 -2.13067,-0.50691 -1.07075,-0.22771 -2.15235,-0.40391 -1.0816,-0.17349 -2.16862,-0.29547 -1.08973,-0.12198 -2.18217,-0.18975 -1.09516,-0.0678 -2.19031,-0.084 -1.09515,-0.0136 -2.1876,0.0244 -1.09515,0.0407 -2.18759,0.13283 -1.09244,0.0922 -2.17675,0.23854 z m -116.37896,2.4397 q -1.06804,0.17349 -2.12524,0.4012 -1.05721,0.22499 -2.10357,0.5042 -1.04364,0.2765 -2.07645,0.6045 -1.03009,0.32801 -2.04121,0.70751 -1.01383,0.3768 -2.00869,0.8051 -0.99214,0.42831 -1.96531,0.90269 -0.97045,0.47439 -1.91651,0.99757 -0.94877,0.52318 -1.86773,1.08973 -0.92166,0.56926 -1.81351,1.1819 -0.89184,0.61263 -1.75116,1.26593 -0.86202,0.65601 -1.68881,1.35267 -0.82678,0.69667 -1.61833,1.43129 -0.79425,0.73733 -1.55056,1.51261 -0.7536,0.77258 -1.47195,1.5831 -0.71565,0.81052 -1.39334,1.65357 -0.67498,0.84305 -1.3093,1.71863 -0.63432,0.87829 -1.22527,1.78369 -0.59095,0.9054 -1.13582,1.84062 -0.54757,0.9325 -1.04636,1.89212 -0.49878,0.95961 -0.95148,1.94091 -0.4527,0.98401 -0.8566,1.987 -0.4012,1.00298 -0.75631,2.02495 -0.3524,1.02196 -0.65601,2.06018 -0.3036,1.03823 -0.55841,2.09001 -0.25211,1.05178 -0.4527,2.1144 -0.2006,1.06263 -0.34969,2.13338 -0.14639,1.07347 -0.24397,2.14965 -0.0949,1.07618 -0.13825,2.15777 -0.0434,1.0816 -0.0325,2.1632 0.008,1.0816 0.0705,2.16049 0.0624,1.07889 0.17891,2.15506 0.11385,1.07618 0.28192,2.14423 0.16807,1.06804 0.38764,2.12795 0.21957,1.05992 0.49065,2.10628 0.27108,1.04636 0.59366,2.07916 0.32258,1.03281 0.69396,2.04663 0.37137,1.01654 0.79425,2.01411 0.42017,0.99485 0.88914,1.97073 0.46896,0.97317 0.98672,1.92465 0.51505,0.94877 1.07889,1.87315 0.56113,0.92437 1.16834,1.81893 0.60721,0.89455 1.2578,1.75929 0.65059,0.86474 1.34183,1.69694 0.69125,0.83221 1.42045,1.62918 0.73191,0.79697 1.50177,1.55598 0.76986,0.76173 1.57496,1.4828 0.8051,0.72106 1.64544,1.40418 0.84034,0.6804 1.71049,1.32015 0.87287,0.63974 1.77556,1.23611 0.90269,0.59637 1.83249,1.14937 0.92979,0.55028 1.88669,1.05449 0.95691,0.50691 1.9355,0.96503 0.9813,0.45812 1.98157,0.86745 1.00028,0.40933 2.02224,0.76986 1.01925,0.36053 2.05477,0.66956 1.03551,0.30903 2.08729,0.56926 1.04907,0.25753 2.1117,0.46626 1.05991,0.20602 2.13067,0.36053 1.07075,0.15723 2.14693,0.25752 1.07618,0.10301 2.15777,0.15452 1.0816,0.0488 2.1632,0.0461 1.0816,-0.003 2.16049,-0.0596 1.0816,-0.0542 2.15506,-0.16535 1.07618,-0.10843 2.14694,-0.26837 1.07889,-0.16265 2.14693,-0.3768 1.06804,-0.21686 2.12525,-0.48251 1.0572,-0.26837 2.09814,-0.58824 1.04364,-0.31987 2.06832,-0.68854 1.02467,-0.37138 2.03037,-0.79155 1.00569,-0.42017 1.9897,-0.88913 0.98402,-0.46896 1.94363,-0.98672 0.95961,-0.51776 1.89212,-1.0816 0.93251,-0.56384 1.83791,-1.17377 0.90268,-0.60992 1.77555,-1.26051 0.87287,-0.65329 1.71321,-1.34996 0.84034,-0.69396 1.64273,-1.43129 0.8051,-0.73462 1.57225,-1.5099 0.76715,-0.77257 1.49635,-1.5858 0.72648,-0.81053 1.41502,-1.65629 0.68583,-0.84576 1.33099,-1.72405 0.64517,-0.881 1.24696,-1.78911 0.59908,-0.91082 1.15479,-1.84875 0.55571,-0.93793 1.06262,-1.90296 0.50963,-0.96233 0.96775,-1.95176 0.46083,-0.98943 0.87287,-1.99784 0.40932,-1.00841 0.76986,-2.0385 0.36053,-1.02739 0.67227,-2.07374 0.30903,-1.04636 0.56655,-2.10356 0.25752,-1.05992 0.46354,-2.13067 0.20331,-1.07076 0.35511,-2.14965 0.15181,-1.07889 0.25211,-2.16591 0.0976,-1.08431 0.14367,-2.17404 0.0461,-1.08973 0.0379,-2.17946 -0.008,-1.08973 -0.0705,-2.17946 -0.0624,-1.08702 -0.17891,-2.17133 -0.11657,-1.08431 -0.28463,-2.16049 -0.16807,-1.07618 -0.39036,-2.14422 -0.22228,-1.06805 -0.49607,-2.12254 -0.27379,-1.05449 -0.59908,-2.09543 -0.328,-1.04093 -0.7048,-2.0629 -0.37409,-1.02196 -0.80239,-2.02494 -0.42559,-1.0057 -0.89998,-1.98429 -0.47709,-0.9813 -1.00027,-1.9382 -0.52318,-0.95691 -1.09244,-1.8867 -0.56927,-0.9298 -1.18461,-1.82978 -0.61535,-0.89997 -1.27407,-1.76742 -0.656,-0.87016 -1.35809,-1.70508 -0.69938,-0.83492 -1.43943,-1.63459 -0.74275,-0.79968 -1.52074,-1.56141 -0.77799,-0.76444 -1.59393,-1.4855 -0.81595,-0.72378 -1.66713,-1.4069 -0.85118,-0.6804 -1.73219,-1.32014 -0.88371,-0.63975 -1.79724,-1.23612 -0.91353,-0.59366 -1.85417,-1.14394 -0.94335,-0.54758 -1.90838,-1.05178 -0.96775,-0.5015 -1.95989,-0.9542 -0.99215,-0.45541 -2.00327,-0.85931 -1.01111,-0.40391 -2.04392,-0.75902 -1.03009,-0.35511 -2.07645,-0.65872 -1.04636,-0.30089 -2.10898,-0.55299 -1.05992,-0.25211 -2.13338,-0.44999 -1.07076,-0.19789 -2.14965,-0.34427 -1.0816,-0.14638 -2.16862,-0.23855 -1.08431,-0.0922 -2.17404,-0.13012 -1.08973,-0.038 -2.17946,-0.0217 -1.08973,0.0136 -2.17946,0.084 -1.08702,0.0678 -2.17133,0.18976 -1.0816,0.12198 -2.15778,0.29818 z M 519.438,691.65918 c -16.08845,3.68936 -27.53063,12.89515 -33.99853,27.86676 4.40229,12.51835 2.22283,22.8193 0,35.44608 9.02958,19.75612 28.9592,25.84181 49.23037,23.28826 58.91867,-21.52897 41.36641,-92.44553 -15.23184,-86.6011 z M 471.01544,794.8963 q -1.12497,0.0678 -2.24181,0.18976 -1.11955,0.12198 -2.23097,0.29818 -1.11142,0.17891 -2.2147,0.40933 -1.10058,0.23313 -2.19031,0.51776 -1.08702,0.28734 -2.16049,0.62619 -1.07346,0.33884 -2.12795,0.7292 -1.05721,0.39306 -2.09001,0.83762 -1.03552,0.44186 -2.04664,0.93522 -1.01111,0.49336 -1.99784,1.03823 -0.98672,0.54215 -1.94362,1.1331 -0.9569,0.59095 -1.8867,1.22798 -0.92708,0.63974 -1.82164,1.32015 -0.89456,0.68311 -1.75658,1.4096 -0.85932,0.72649 -1.68339,1.49364 -0.82408,0.76715 -1.60749,1.57496 -0.78342,0.8051 -1.52888,1.65086 -0.74275,0.84576 -1.44484,1.72405 -0.70209,0.881 -1.3581,1.79453 -0.65601,0.91625 -1.26864,1.8596 -0.60993,0.94606 -1.17377,1.91922 -0.56384,0.97588 -1.07888,1.97616 -0.51505,1.00027 -0.9813,2.02495 -0.46355,1.02738 -0.8783,2.07374 -0.41474,1.04636 -0.77528,2.11169 -0.36324,1.06534 -0.67227,2.14965 -0.30903,1.08159 -0.56384,2.17675 -0.25481,1.09786 -0.45541,2.20386 -0.2006,1.1087 -0.34698,2.22554 -0.14367,1.11413 -0.23584,2.23639 -0.0894,1.12226 -0.12469,2.24723 -0.0352,1.12497 -0.0163,2.25266 0.0217,1.12497 0.0976,2.24723 0.0759,1.12226 0.20602,2.24181 0.13283,1.11684 0.31716,2.22825 0.18704,1.10871 0.4283,2.20929 0.24126,1.10057 0.53403,2.18488 0.29547,1.08702 0.64245,2.15778 0.34969,1.07075 0.74817,2.12253 0.4012,1.05178 0.8539,2.08459 0.44998,1.03009 0.95148,2.0385 0.5042,1.00841 1.05449,1.98971 0.55029,0.9813 1.14937,1.93278 0.59908,0.95419 1.24424,1.87586 0.64517,0.92437 1.3337,1.8135 0.69125,0.88914 1.42316,1.74303 0.73191,0.8539 1.50719,1.67255 0.77257,0.81594 1.5858,1.59665 0.81324,0.77799 1.66442,1.51532 0.85118,0.73462 1.73761,1.43129 0.88642,0.69396 1.80537,1.34183 0.91895,0.65059 1.87044,1.25509 0.94877,0.60179 1.92736,1.1575 0.97859,0.55571 1.98428,1.06262 1.0057,0.50692 2.03579,0.96504 1.02739,0.45812 2.07646,0.86202 1.05178,0.40662 2.11982,0.75902 1.06805,0.3524 2.15507,0.6533 1.08431,0.30089 2.18217,0.54757 1.09786,0.24397 2.20657,0.43644 1.11142,0.19246 2.22826,0.328 1.11684,0.13825 2.2391,0.21958 1.12226,0.0813 2.24994,0.10572 1.12497,0.0271 2.24994,-0.003 1.12497,-0.0298 2.24723,-0.11385 1.11142,-0.084 2.21742,-0.22228 1.10599,-0.13825 2.20115,-0.33072 1.09786,-0.19246 2.18488,-0.43643 1.08702,-0.24668 2.16049,-0.54487 1.07346,-0.29818 2.13338,-0.64787 1.0572,-0.34969 2.09542,-0.75089 1.04094,-0.40119 2.05748,-0.85389 1.01925,-0.44999 2.01411,-0.95148 0.99485,-0.50149 1.96531,-1.04907 0.97046,-0.55029 1.91109,-1.14666 0.94335,-0.59366 1.85417,-1.23611 0.91082,-0.63974 1.78912,-1.32557 0.881,-0.68312 1.72405,-1.4096 0.84576,-0.72649 1.65357,-1.49364 0.80781,-0.76715 1.57767,-1.57225 0.76986,-0.8051 1.49906,-1.64815 0.7292,-0.84305 1.41773,-1.71863 0.68854,-0.87829 1.33099,-1.7864 0.64517,-0.91082 1.24425,-1.84875 0.59908,-0.94064 1.14937,-1.90838 0.55299,-0.96775 1.0572,-1.95989 0.5042,-0.99486 0.95961,-2.0114 0.45541,-1.01654 0.85932,-2.05476 0.40661,-1.03823 0.75902,-2.09543 0.35511,-1.0572 0.656,-2.12796 0.3009,-1.07347 0.55029,-2.15778 0.24939,-1.08702 0.44728,-2.18488 0.19517,-1.09515 0.33613,-2.20115 0.14367,-1.10599 0.23042,-2.2147 0.0867,-1.11142 0.12198,-2.22555 0.0325,-1.11413 0.0109,-2.22825 -0.019,-1.11413 -0.0949,-2.22555 -0.0759,-1.11142 -0.20331,-2.21741 -0.13012,-1.10871 -0.31445,-2.20657 -0.18162,-1.09787 -0.42017,-2.1876 -0.23584,-1.08973 -0.52589,-2.16591 -0.29005,-1.07346 -0.63161,-2.13609 -0.34156,-1.05991 -0.73462,-2.10085 -0.39306,-1.04364 -0.83492,-2.06561 -0.44456,-1.02196 -0.93792,-2.02223 -0.49065,-0.99757 -1.03281,-1.97345 -0.54215,-0.97317 -1.13039,-1.91923 -0.58553,-0.94606 -1.21985,-1.8623 -0.63432,-0.91895 -1.31202,-1.80266 -0.67769,-0.88371 -1.39604,-1.7349 -0.72107,-0.85118 -1.48009,-1.66441 -0.76172,-0.81324 -1.5614,-1.59123 -0.79697,-0.77528 -1.6346,-1.51261 -0.83492,-0.73462 -1.70779,-1.43129 -0.87016,-0.69396 -1.77555,-1.34454 -0.90269,-0.65059 -1.83791,-1.2578 -0.93522,-0.60721 -1.89754,-1.16563 -0.96233,-0.56113 -1.95176,-1.07347 -0.98943,-0.51234 -2.00326,-0.97588 -1.01383,-0.46083 -2.04935,-0.87558 -1.0328,-0.41204 -2.08729,-0.77528 -1.05449,-0.36324 -2.12254,-0.67227 -1.07075,-0.31174 -2.15506,-0.56927 -1.08431,-0.25752 -2.17947,-0.46083 -1.09515,-0.20602 -2.19843,-0.35782 -1.10329,-0.14909 -2.21471,-0.24668 -1.1087,-0.0976 -2.22283,-0.13825 -1.11413,-0.0434 -2.22826,-0.0325 -1.11413,0.0136 -2.22554,0.0786 z m -123.16403,0.75902 q -1.10599,0.20602 -2.19844,0.46896 -1.09244,0.26024 -2.17404,0.57469 -1.07889,0.31445 -2.14151,0.68311 -1.06262,0.36867 -2.10356,0.78884 -1.04365,0.41746 -2.06561,0.88913 -1.01925,0.47168 -2.01682,0.99215 -0.99756,0.52047 -1.96531,1.08973 -0.97045,0.56655 -1.91109,1.18461 -0.94064,0.61534 -1.84875,1.27677 -0.90811,0.66143 -1.78369,1.36894 -0.87558,0.7048 -1.71592,1.45298 -0.83763,0.74817 -1.64002,1.53701 -0.79968,0.78883 -1.56141,1.61562 -0.76172,0.82678 -1.48008,1.69152 -0.72106,0.86474 -1.39605,1.762 -0.67769,0.89727 -1.30659,1.82978 -0.63161,0.92979 -1.21714,1.88941 -0.58281,0.95961 -1.11955,1.94904 -0.53673,0.98943 -1.02196,2.00055 -0.48794,1.01383 -0.92437,2.04935 -0.43644,1.03823 -0.82137,2.09272 -0.38493,1.0572 -0.71564,2.13066 -0.33072,1.07618 -0.60993,2.1632 -0.27921,1.08973 -0.5042,2.19302 -0.22499,1.10057 -0.39306,2.21199 -0.17078,1.11142 -0.28463,2.23097 -0.11386,1.11684 -0.17349,2.2391 -0.0596,1.12226 -0.0651,2.24723 -0.003,1.12497 0.0488,2.24723 0.0515,1.12497 0.15723,2.24181 0.10843,1.11955 0.26836,2.23368 0.16265,1.11142 0.37951,2.2147 0.21686,1.10329 0.48794,2.19573 0.27108,1.08973 0.59366,2.16591 0.32529,1.07617 0.70209,2.13609 0.3768,1.05991 0.8051,2.09814 0.43101,1.04093 0.91082,2.05747 0.47981,1.01654 1.00841,2.00869 0.5286,0.99214 1.106,1.95718 0.57739,0.96232 1.20087,1.89754 0.62619,0.93522 1.29575,1.8379 0.66956,0.9054 1.38249,1.77285 0.71294,0.87016 1.46924,1.70237 0.75631,0.8322 1.55057,1.62646 0.79696,0.79426 1.63188,1.54785 0.83221,0.7536 1.70237,1.46653 0.87016,0.71294 1.77556,1.37979 0.90268,0.66956 1.84061,1.29032 0.93522,0.62348 1.90025,1.19817 0.96504,0.57739 1.95989,1.10328 0.99215,0.5286 2.00869,1.0057 1.01925,0.47981 2.05747,0.9054 1.04094,0.4283 2.10085,0.80239 1.05992,0.37679 2.13609,0.69938 1.07889,0.31987 2.17133,0.59095 1.08974,0.26836 2.19302,0.48251 1.10329,0.21415 2.21741,0.37409 1.11413,0.15994 2.23368,0.26566 1.11684,0.10572 2.24181,0.15451 1.12226,0.0488 2.24723,0.0434 1.12498,-0.005 2.24724,-0.0678 1.12226,-0.0624 2.2391,-0.17891 1.11955,-0.11656 2.23096,-0.28734 1.11142,-0.17078 2.21199,-0.39848 1.08974,-0.225 2.16591,-0.5015 1.07618,-0.2765 2.1388,-0.6045 1.06263,-0.328 2.10628,-0.71022 1.04364,-0.37951 2.07103,-0.81052 1.02467,-0.43102 2.02766,-0.91082 1.00027,-0.47981 1.97886,-1.00841 0.97859,-0.5286 1.93007,-1.106 0.95148,-0.57468 1.87315,-1.19816 0.92166,-0.62077 1.81079,-1.28491 0.89185,-0.66685 1.74845,-1.37436 0.85661,-0.71022 1.67797,-1.4584 0.82137,-0.75088 1.60478,-1.53972 0.78342,-0.78612 1.52888,-1.61291 0.74275,-0.82678 1.44755,-1.68881 0.70209,-0.85931 1.36081,-1.75387 0.66143,-0.89456 1.27677,-1.82164 0.61535,-0.92437 1.18732,-1.87857 0.56927,-0.95419 1.09245,-1.93549 0.52318,-0.9813 0.99485,-1.987 0.47439,-1.00569 0.89998,-2.03308 0.42559,-1.02738 0.79968,-2.07645 0.37137,-1.04636 0.69395,-2.10898 0.32259,-1.06534 0.59366,-2.14423 0.27108,-1.07888 0.48794,-2.16861 0.21686,-1.08974 0.37951,-2.19031 0.16265,-1.09786 0.27379,-2.20657 0.10843,-1.106 0.16536,-2.2147 0.0569,-1.11142 0.0569,-2.22284 0.003,-1.11142 -0.0515,-2.22283 -0.0515,-1.10871 -0.15994,-2.21742 -0.10572,-1.10599 -0.26836,-2.20657 -0.15994,-1.10057 -0.37409,-2.1903 -0.21415,-1.08973 -0.48252,-2.17133 -0.26565,-1.07889 -0.58553,-2.14151 -0.31987,-1.06534 -0.69124,-2.11441 -0.37138,-1.04636 -0.79426,-2.07645 -0.42017,-1.02738 -0.89185,-2.03579 -0.47167,-1.0057 -0.99214,-1.98971 -0.52047,-0.9813 -1.08702,-1.9382 -0.56655,-0.9542 -1.1819,-1.88128 -0.61263,-0.9298 -1.27135,-1.82435 -0.65601,-0.89727 -1.3581,-1.75929 -0.70209,-0.86203 -1.44213,-1.69153 -0.74275,-0.82678 -1.52345,-1.61833 -0.78342,-0.78884 -1.60207,-1.54243 -0.81866,-0.75088 -1.67526,-1.46111 -0.85389,-0.71022 -1.74303,-1.37978 -0.88913,-0.66685 -1.80808,-1.29033 -0.92167,-0.62348 -1.87044,-1.20358 -0.94877,-0.5774 -1.92465,-1.10871 -0.97859,-0.53131 -1.97886,-1.01383 -1.00299,-0.48252 -2.02495,-0.91624 -1.02467,-0.43373 -2.06832,-0.81594 -1.04365,-0.38493 -2.10356,-0.71565 -1.06263,-0.33071 -2.1388,-0.61263 -1.07618,-0.27921 -2.1632,-0.50421 -1.08973,-0.2277 -2.1876,-0.40119 -1.09786,-0.17349 -2.20386,-0.29277 -1.10328,-0.11927 -2.2147,-0.18433 -1.10871,-0.0651 -2.22012,-0.0759 -1.11413,-0.0136 -2.22284,0.0298 -1.11142,0.0434 -2.22012,0.14096 -1.106,0.0976 -2.20928,0.24939 -1.10058,0.1518 -2.19302,0.35511 z m 57.93467,100.60496 c -9.47687,7.56848 -18.69079,12.54547 -29.62605,17.73389 -22.6431,35.08826 0.90268,74.54629 43.68141,70.79187 23.5756,-4.6788 41.72695,-28.02399 36.4816,-52.29355 -5.58419,-25.83368 -28.25169,-31.41516 -50.53696,-36.23221 z"
     id="path1"
     style="stroke-width:2.71077" />
</svg>
