<?xml version="1.0" encoding="utf-8"?>
<!-- Generator: Adobe Illustrator 24.1.0, SVG Export Plug-In . SVG Version: 6.00 Build 0)  -->
<svg version="1.1" id="Capa_1" xmlns="http://www.w3.org/2000/svg" xmlns:xlink="http://www.w3.org/1999/xlink" x="0px" y="0px"
	 viewBox="0 0 1024 1024" style="enable-background:new 0 0 1024 1024;" xml:space="preserve">
<style type="text/css">
	.st0{fill:#82C3BF;}
</style>
<g>
	<path class="st0" d="M836.8,316.2c-8.1-9.3-16.1-19.1-26.2-26.3c7.2-9.3,16.6-19.3,25.9-26.5l1,0.5c8.3,4.5,16.2,17.8,26.5,15.1
		c11.9-3.2,14.1-15.2,6.4-23.5c-5.4-5.8-51.2-47.5-56.2-50.1c-12.3-6.4-36.7,12.2,2.1,35.5c-7.1,10.5-16.9,19.3-25.9,28.3
		c-59.3-52.1-142.4-90.3-221-99.3v-38.7c45.6-3.1,43.1-49.3,40.2-84.5c-3.9-47.1-46.3-41.9-79.4-41.9l-74.8,0
		C435.7,9,420.9,22,416.8,41.9c-6.8,33.2-6.8,86.1,37.9,89.2l0.7,0v38.7c-73.4,8-144.3,39.7-202.3,84.8
		c-6.2,4.9-12.4,10.3-19.1,14.5c-9.8-6.7-20-16.1-27.1-25.6l-0.8-1c6.2-5.1,18.1-14.4,19.1-22.9c0.9-7.6-5.7-15-13.3-15.1
		c-8.1-0.1-53,46.1-59.3,55.6c-6.1,9.3-2,24.6,11.3,22.9c9.4-1.2,16.8-13.2,22.8-19.7c9.4,8.6,18,18.1,27.6,26.5
		c-57.8,52.4-100.7,130.3-118.8,205.3c-65.9,272.4,159.2,539.4,437.1,523.5c11.4-0.6,23-2.3,34.4-2c11.5-3.2,23.4-4.9,35.1-7.3
		C914.5,943.6,1050.1,561.1,836.8,316.2z M450.8,103.3c-13.8-10.8-9-57.8-2.1-65.4c5.3-5.7,13-5.8,20.1-6.2l64,0
		c24.6-0.1,48.9-7.2,49.5,26.5c0.6,32.1,8,44.7-23.7,45H450.8z M541.6,166.3h-58.3v-35.1h58.3C541.6,142.9,541.8,154.6,541.6,166.3z
		 M909.1,635.6c-0.7,6.5-1.6,13-2.6,19.4c-1,6.4-2.2,12.9-3.5,19.2c-1.3,6.4-2.8,12.7-4.5,19.1c-1.6,6.3-3.4,12.6-5.4,18.8
		c-2,6.2-4.1,12.4-6.3,18.5c-2.3,6.1-4.7,12.2-7.2,18.2c-2.6,6-5.3,11.9-8.1,17.8c-2.8,5.9-5.8,11.7-9,17.4
		c-3.1,5.7-6.4,11.4-9.8,16.9c-3.4,5.6-7,11-10.6,16.4c-3.7,5.4-7.5,10.7-11.4,15.9c-3.9,5.2-8,10.3-12.2,15.3
		c-4.2,5-8.5,9.9-12.9,14.7c-4.4,4.8-9,9.5-13.6,14c-4.7,4.6-9.4,9-14.3,13.4c-4.9,4.3-9.9,8.5-14.9,12.6
		c-5.1,4.1-10.3,8.1-15.5,11.9c-5.3,3.8-10.6,7.5-16.1,11.1c-5.5,3.6-11,7-16.6,10.3c-5.6,3.3-11.3,6.5-17.1,9.5
		c-5.8,3-11.6,5.9-17.6,8.6c-5.9,2.7-11.9,5.3-18,7.8c-6.1,2.4-12.2,4.7-18.3,6.9c-6.2,2.1-12.4,4.1-18.6,6
		c-6.3,1.8-12.6,3.5-18.9,5c-6.3,1.5-12.7,2.9-19.1,4.1c-6.4,1.2-12.8,2.3-19.3,3.2c-6.5,0.9-12.9,1.6-19.4,2.2
		c-6.5,0.6-13,1-19.5,1.3c-6.5,0.3-13.1,0.4-19.6,0.3c-6.5-0.1-13.1-0.3-19.6-0.7c-6.5-0.4-13-0.9-19.5-1.6
		c-6.5-0.7-13-1.6-19.4-2.6c-6.5-1-12.9-2.2-19.3-3.5c-6.4-1.3-12.8-2.8-19.1-4.5c-6.3-1.6-12.6-3.4-18.8-5.4
		c-6.2-2-12.4-4.1-18.5-6.3c-6.1-2.3-12.2-4.7-18.2-7.2c-6-2.6-12-5.3-17.8-8.1c-5.9-2.8-11.7-5.8-17.4-9c-5.7-3.1-11.4-6.4-17-9.8
		c-5.6-3.4-11.1-7-16.5-10.6c-5.4-3.7-10.7-7.5-15.9-11.4c-5.2-3.9-10.3-8-15.3-12.2c-5-4.2-9.9-8.5-14.7-12.9
		c-4.8-4.4-9.5-9-14.1-13.6c-4.6-4.7-9-9.4-13.4-14.3c-4.3-4.9-8.6-9.9-12.7-15c-4.1-5.1-8.1-10.3-11.9-15.6
		c-3.8-5.3-7.6-10.7-11.1-16.1c-3.6-5.5-7-11-10.3-16.7c-3.3-5.6-6.5-11.3-9.5-17.1c-3-5.8-5.9-11.7-8.6-17.6
		c-2.7-5.9-5.3-11.9-7.8-18c-2.4-6.1-4.7-12.2-6.9-18.3c-2.1-6.2-4.1-12.4-6-18.7c-1.8-6.3-3.5-12.6-5-18.9
		c-1.5-6.4-2.9-12.7-4.1-19.2c-1.2-6.4-2.3-12.9-3.2-19.3c-0.9-6.5-1.6-13-2.2-19.5c-0.6-6.5-1-13-1.2-19.6
		c-0.3-6.5-0.3-13.1-0.3-19.6c0.1-6.5,0.3-13.1,0.7-19.6c0.4-6.5,0.9-13,1.6-19.5c0.7-6.5,1.6-13,2.6-19.4c1-6.5,2.2-12.9,3.5-19.3
		c1.3-6.4,2.8-12.8,4.5-19.1c1.7-6.3,3.5-12.6,5.4-18.8c2-6.2,4.1-12.4,6.3-18.5c2.3-6.1,4.7-12.2,7.2-18.2c2.6-6,5.3-12,8.1-17.8
		c2.9-5.9,5.9-11.7,9-17.4c3.1-5.7,6.4-11.4,9.8-16.9c3.4-5.6,7-11.1,10.7-16.4c3.7-5.4,7.5-10.7,11.4-15.9
		c3.9-5.2,8-10.3,12.2-15.3c4.2-5,8.5-9.9,13-14.7c4.4-4.8,9-9.5,13.7-14c4.7-4.6,9.4-9,14.3-13.4c4.9-4.3,9.9-8.6,15-12.6
		c5.1-4.1,10.3-8.1,15.6-11.9c5.3-3.8,10.7-7.5,16.1-11.1c5.5-3.6,11-7,16.7-10.3c5.6-3.3,11.4-6.5,17.1-9.5
		c5.8-3,11.7-5.9,17.6-8.6c5.9-2.7,11.9-5.3,18-7.7c6.1-2.4,12.2-4.7,18.4-6.9c6.2-2.1,12.4-4.1,18.7-5.9c6.3-1.8,12.6-3.5,18.9-5
		c6.4-1.5,12.7-2.9,19.2-4.1c6.4-1.2,12.9-2.3,19.3-3.1c6.5-0.9,13-1.6,19.5-2.2c6.5-0.6,13-1,19.6-1.2c6.5-0.2,13-0.3,19.6-0.3
		c6.5,0.1,13,0.3,19.6,0.7c6.5,0.4,13,0.9,19.5,1.6c6.5,0.7,13,1.6,19.4,2.6c6.4,1,12.9,2.2,19.2,3.6c6.4,1.3,12.7,2.8,19,4.5
		c6.3,1.7,12.6,3.5,18.8,5.4c6.2,2,12.4,4.1,18.5,6.3c6.1,2.3,12.2,4.7,18.2,7.2c6,2.6,11.9,5.3,17.8,8.1c5.9,2.9,11.7,5.8,17.4,9
		c5.7,3.1,11.4,6.4,16.9,9.8c5.6,3.4,11,7,16.4,10.6c5.4,3.7,10.7,7.5,15.9,11.4c5.2,3.9,10.3,8,15.3,12.2c5,4.2,9.9,8.5,14.7,12.9
		c4.8,4.4,9.5,9,14,13.6c4.6,4.7,9,9.4,13.3,14.3c4.3,4.9,8.5,9.9,12.6,14.9c4.1,5.1,8,10.3,11.9,15.6c3.8,5.3,7.5,10.7,11.1,16.1
		c3.6,5.5,7,11,10.3,16.6c3.3,5.6,6.5,11.3,9.5,17.1c3,5.8,5.9,11.6,8.6,17.6c2.7,5.9,5.3,11.9,7.7,18c2.4,6.1,4.7,12.2,6.9,18.3
		c2.1,6.2,4.1,12.4,6,18.6c1.8,6.3,3.5,12.6,5,18.9c1.5,6.3,2.9,12.7,4.1,19.1c1.2,6.4,2.3,12.9,3.2,19.3c0.9,6.5,1.6,12.9,2.2,19.4
		s1,13,1.2,19.5c0.3,6.5,0.4,13,0.3,19.6c-0.1,6.5-0.3,13-0.7,19.6C910.3,622.6,909.8,629.1,909.1,635.6z"/>
	<path class="st0" d="M863,563.5c-0.5-5.7-1.1-11.5-1.8-17.2c-0.7-5.7-1.6-11.4-2.7-17.1c-1-5.7-2.2-11.3-3.5-16.9
		c-1.3-5.6-2.7-11.2-4.3-16.7c-1.6-5.5-3.3-11-5.1-16.5c-1.8-5.5-3.8-10.9-5.9-16.2c-2.1-5.4-4.4-10.6-6.7-15.9
		c-2.4-5.2-4.9-10.4-7.5-15.5c-2.6-5.1-5.4-10.2-8.2-15.2c-2.9-5-5.9-9.9-9-14.7c-3.1-4.8-6.3-9.6-9.7-14.3
		c-3.3-4.7-6.8-9.3-10.4-13.8c-3.6-4.5-7.3-8.9-11-13.3c-3.8-4.3-7.7-8.6-11.7-12.7c-4-4.1-8.1-8.2-12.3-12.1
		c-4.2-3.9-8.5-7.8-12.9-11.5c-4.4-3.7-8.9-7.3-13.4-10.8c-4.6-3.5-9.2-6.9-13.9-10.2c-4.7-3.3-9.5-6.4-14.4-9.5
		c-4.9-3-9.8-6-14.9-8.8c-5-2.8-10.1-5.5-15.3-8c-5.2-2.5-10.4-5-15.7-7.3c-5.3-2.3-10.6-4.5-16-6.5c-5.4-2-10.8-3.9-16.3-5.7
		c-5.5-1.8-11-3.4-16.6-4.9c-5.6-1.5-11.1-2.8-16.8-4.1c-5.6-1.2-11.3-2.3-17-3.2c-5.7-0.9-11.4-1.7-17.1-2.4
		c-5.7-0.7-11.4-1.2-17.2-1.6c-5.7-0.4-11.5-0.6-17.2-0.7c-5.8-0.1-11.5-0.1-17.3,0.1c-5.7,0.2-11.5,0.5-17.2,1
		c-5.7,0.5-11.4,1.1-17.2,1.8c-5.7,0.7-11.4,1.6-17,2.7c-5.7,1-11.3,2.2-16.9,3.5c-5.6,1.3-11.2,2.7-16.7,4.3
		c-5.5,1.6-11,3.3-16.5,5.1c-5.4,1.8-10.8,3.8-16.2,5.9c-5.3,2.1-10.6,4.4-15.9,6.7c-5.2,2.4-10.4,4.9-15.5,7.5
		c-5.1,2.6-10.2,5.4-15.1,8.2c-5,2.9-9.9,5.9-14.7,9c-4.8,3.1-9.6,6.3-14.3,9.7c-4.7,3.3-9.3,6.8-13.8,10.4
		c-4.5,3.6-8.9,7.3-13.3,11c-4.3,3.8-8.6,7.7-12.7,11.7c-4.1,4-8.2,8.1-12.1,12.3c-3.9,4.2-7.8,8.5-11.5,12.9
		c-3.7,4.4-7.3,8.9-10.8,13.4c-3.5,4.6-6.9,9.2-10.2,13.9c-3.3,4.7-6.4,9.5-9.5,14.4c-3,4.9-6,9.8-8.8,14.9c-2.8,5-5.5,10.1-8,15.3
		c-2.5,5.2-5,10.4-7.3,15.6c-2.3,5.3-4.5,10.6-6.5,16c-2,5.4-3.9,10.8-5.7,16.3c-1.8,5.5-3.4,11-4.9,16.5
		c-1.5,5.6-2.9,11.1-4.1,16.8c-1.2,5.6-2.3,11.3-3.2,16.9c-0.9,5.7-1.7,11.4-2.4,17.1c-0.7,5.7-1.2,11.4-1.6,17.2
		c-0.4,5.7-0.6,11.5-0.7,17.2c-0.1,5.8-0.1,11.5,0.1,17.2c0.2,5.7,0.5,11.5,1,17.2c0.5,5.7,1.1,11.4,1.8,17.2
		c0.7,5.7,1.6,11.4,2.7,17c1,5.7,2.2,11.3,3.5,16.9c1.3,5.6,2.7,11.2,4.3,16.7c1.6,5.5,3.3,11,5.1,16.5c1.8,5.4,3.8,10.8,5.9,16.2
		c2.1,5.4,4.3,10.6,6.7,15.9c2.4,5.2,4.9,10.4,7.5,15.5c2.6,5.1,5.4,10.2,8.2,15.2c2.9,5,5.9,9.9,9,14.7c3.1,4.8,6.3,9.6,9.7,14.3
		c3.3,4.7,6.8,9.3,10.4,13.8c3.6,4.5,7.2,8.9,11,13.3c3.8,4.3,7.7,8.6,11.7,12.7c4,4.1,8.1,8.2,12.3,12.1c4.2,3.9,8.5,7.8,12.9,11.5
		c4.4,3.7,8.9,7.3,13.4,10.8c4.6,3.5,9.2,6.9,13.9,10.2c4.7,3.3,9.5,6.4,14.4,9.5c4.9,3,9.8,6,14.9,8.8c5,2.8,10.1,5.5,15.3,8
		c5.2,2.6,10.4,5,15.6,7.3c5.3,2.3,10.6,4.5,16,6.5c5.4,2,10.8,3.9,16.3,5.7c5.5,1.8,11,3.4,16.5,4.9c5.6,1.5,11.1,2.9,16.8,4.1
		c5.6,1.2,11.3,2.3,16.9,3.2c5.7,0.9,11.4,1.7,17.1,2.4c5.7,0.7,11.4,1.2,17.2,1.6c5.7,0.4,11.5,0.6,17.2,0.7
		c5.8,0.1,11.5,0.1,17.2-0.1c5.8-0.2,11.5-0.5,17.2-1c5.7-0.5,11.5-1.1,17.2-1.8c5.7-0.7,11.4-1.6,17.1-2.6c5.7-1,11.3-2.2,16.9-3.5
		c5.6-1.3,11.2-2.7,16.7-4.3c5.5-1.6,11-3.3,16.5-5.1c5.5-1.8,10.9-3.8,16.2-5.9c5.4-2.1,10.7-4.3,15.9-6.7
		c5.2-2.4,10.4-4.9,15.6-7.5s10.2-5.4,15.2-8.2c5-2.9,9.9-5.9,14.7-9c4.8-3.1,9.6-6.3,14.3-9.7c4.7-3.3,9.3-6.8,13.8-10.4
		c4.5-3.6,8.9-7.3,13.3-11c4.3-3.8,8.6-7.7,12.7-11.7c4.1-4,8.2-8.1,12.1-12.3c3.9-4.2,7.8-8.5,11.5-12.9c3.7-4.4,7.3-8.9,10.9-13.4
		c3.5-4.6,6.9-9.2,10.2-13.9c3.3-4.7,6.4-9.5,9.5-14.4c3-4.9,6-9.8,8.8-14.9c2.8-5,5.5-10.1,8-15.3c2.6-5.2,5-10.4,7.3-15.7
		c2.3-5.3,4.5-10.6,6.5-16c2-5.4,3.9-10.8,5.7-16.3c1.8-5.5,3.4-11,4.9-16.6c1.5-5.6,2.9-11.1,4.1-16.8c1.2-5.6,2.3-11.3,3.2-17
		c0.9-5.7,1.7-11.4,2.4-17.1c0.7-5.7,1.2-11.4,1.6-17.2c0.4-5.7,0.6-11.5,0.7-17.2c0.1-5.8,0.1-11.5-0.1-17.3S863.5,569.2,863,563.5
		z M808.6,601.6c6.4,6.4,19.6,4.4,27.9,4.3c-2.3,56.7-15.1,87.4-35.8,136.7c-9.1-7.9-26.9-21.9-35.9-6.9
		c-9.4,15.6,11.6,22.9,22.1,28.8c-23.1,45.1-64.1,72.2-101.9,102.1c-4.5-5.6-7.2-12-11.5-17.6c-9.1-11.8-41.5-3.8-12.5,30.2
		c-45.5,22.6-69.6,22.7-112.3,35.7c-7.6-0.6-15-0.4-22.7,0c3.5-23.7-12.6-36.7-25.4-21.7c-5.1,6-3.2,14.5-2.5,21.7
		c-47.9-2.3-92.1-14.2-135-35.7c4.2-7.4,12.8-16.1,10.7-25c-1.9-7.9-10.7-13-18.5-10.2c-8.3,3-12.4,15.3-16,22.7
		c-41.1-36.3-65.2-48-100.1-99.4c7.2-3.9,18.4-6.9,21.8-15.1c2.9-6.8-1.2-15.6-8-18.3c-8-3.2-20.3,5.3-27.5,8.7
		c-21.3-37.5-37-93.6-36.5-136.7c8.5-0.7,20.7,0.8,26.7-6.4c15.4-18.1-10.7-24.1-26.7-21.8c-1.1-44.6,15.7-96,36.5-135
		c8.4,3.7,17.3,12.2,27.1,10.3c6.5-1.2,12.3-9.7,10.6-16.2c-2.5-9.2-16.5-13.2-24-17.4c19-34.8,67.7-80.2,100.1-100.1
		c3.9,6.9,8.7,18.4,17.1,20.5c24.7,6.1,15.6-21.7,6.8-34.4c28.2-20,92.1-33.4,124.9-36.1c3.3-0.1,6.7,0,10,0
		c-0.2,6.9-0.7,13.8,0,20.6c4.6,7.6,15.8,13.5,23.3,6c6.2-6.2,4.6-18.5,4.6-26.6c37.8-1.5,103.9,14.2,135,36.1
		c-4.3,6.2-12.1,15.5-11.2,23.5c0.9,7.6,9,13.3,16.5,12c8.6-1.6,14.4-14.8,18.7-21.5c32.9,13.3,84.6,70.6,99.1,100.1
		c-12,5.2-37.4,21-14.6,32.4c9.5,4.8,18.9-6.1,27.7-8.8l1-0.3c23,31.6,34.8,97.6,38.3,135c-8.1,0-20.8-1.9-27.4,3.4
		C802.9,586.3,803.1,596.1,808.6,601.6z"/>
	<path class="st0" d="M526.1,528.8l0-79.8c0-16,7.4-55-16.4-53.2c-4.1,1.6-8.3,3.1-10.3,7.4c-2.7,5.9-1.2,109.2-1.2,125.6
		c-45.8,6.9-59.2,56.9-40,95.3l-57.6,57.4c-6.6,6.6-20.6,19-25.7,25.6c-6.2,8-1.7,23.1,9.4,23.3c10.4,0.2,24.8-18.4,31.4-26
		c17.9-15.2,45.6-42.3,60.6-59.9C569,696.6,618.3,552.3,526.1,528.8z M548.6,592.5c0,0.6-0.1,1.2-0.1,1.8c0,0.6-0.1,1.2-0.2,1.8
		c-0.1,0.6-0.2,1.2-0.3,1.7c-0.1,0.6-0.2,1.2-0.4,1.7c-0.1,0.6-0.3,1.1-0.4,1.7c-0.2,0.6-0.3,1.1-0.5,1.7c-0.2,0.6-0.4,1.1-0.6,1.7
		c-0.2,0.5-0.4,1.1-0.7,1.6c-0.2,0.5-0.5,1.1-0.8,1.6c-0.3,0.5-0.5,1-0.8,1.6c-0.3,0.5-0.6,1-0.9,1.5c-0.3,0.5-0.6,1-1,1.5
		c-0.3,0.5-0.7,1-1.1,1.4c-0.4,0.5-0.7,0.9-1.1,1.4c-0.4,0.4-0.8,0.9-1.2,1.3c-0.4,0.4-0.8,0.8-1.3,1.2c-0.4,0.4-0.9,0.8-1.3,1.2
		c-0.4,0.4-0.9,0.8-1.4,1.1c-0.5,0.4-0.9,0.7-1.4,1c-0.5,0.3-1,0.7-1.5,1c-0.5,0.3-1,0.6-1.5,0.9c-0.5,0.3-1,0.6-1.6,0.8
		c-0.5,0.3-1.1,0.5-1.6,0.8c-0.5,0.2-1.1,0.5-1.6,0.7c-0.5,0.2-1.1,0.4-1.7,0.6c-0.6,0.2-1.1,0.4-1.7,0.5c-0.6,0.2-1.1,0.3-1.7,0.4
		c-0.6,0.1-1.2,0.2-1.7,0.3c-0.6,0.1-1.2,0.2-1.7,0.3c-0.8,0.1-1.6,0.2-2.4,0.2c-0.8,0-1.6,0.1-2.4,0.1c-0.8,0-1.6,0-2.4-0.1
		c-0.8-0.1-1.6-0.1-2.4-0.3c-0.8-0.1-1.6-0.2-2.4-0.4c-0.8-0.2-1.6-0.4-2.3-0.6c-0.8-0.2-1.5-0.5-2.3-0.7c-0.8-0.3-1.5-0.6-2.2-0.9
		c-0.7-0.3-1.5-0.7-2.2-1c-0.7-0.4-1.4-0.7-2.1-1.2c-0.7-0.4-1.4-0.8-2-1.3c-0.7-0.5-1.3-0.9-1.9-1.4c-0.6-0.5-1.2-1-1.8-1.5
		c-0.6-0.5-1.2-1.1-1.7-1.7c-0.6-0.6-1.1-1.2-1.6-1.8c-0.5-0.6-1-1.2-1.5-1.9c-0.5-0.6-0.9-1.3-1.4-2c-0.4-0.7-0.8-1.4-1.2-2.1
		c-0.4-0.7-0.8-1.4-1.1-2.1c-0.3-0.7-0.7-1.5-1-2.2c-0.3-0.7-0.6-1.5-0.8-2.3c-0.2-0.8-0.5-1.5-0.7-2.3c-0.2-0.8-0.4-1.6-0.5-2.3
		c-0.1-0.8-0.3-1.6-0.3-2.4c-0.1-0.8-0.2-1.6-0.2-2.4c0-0.8,0-1.6,0-2.4c0-0.8,0.1-1.6,0.1-2.4c0.1-0.8,0.2-1.6,0.3-2.4
		c0.1-0.8,0.3-1.6,0.4-2.4c0.2-0.8,0.4-1.6,0.6-2.3c0.2-0.8,0.5-1.5,0.7-2.3c0.3-0.8,0.6-1.5,0.9-2.2c0.3-0.7,0.7-1.4,1-2.2
		c0.4-0.7,0.8-1.4,1.2-2.1c0.4-0.7,0.9-1.3,1.3-2c0.5-0.7,0.9-1.3,1.4-1.9c0.5-0.6,1-1.2,1.6-1.8c0.5-0.6,1.1-1.2,1.7-1.7
		c0.6-0.5,1.2-1.1,1.8-1.6c0.6-0.5,1.2-1,1.9-1.5c0.6-0.5,1.3-0.9,2-1.3c0.7-0.4,1.4-0.8,2.1-1.2c0.7-0.4,1.4-0.7,2.1-1.1
		c0.7-0.3,1.5-0.6,2.2-0.9c0.7-0.3,1.5-0.5,2.3-0.8c0.8-0.2,1.5-0.4,2.3-0.6c0.8-0.2,1.6-0.3,2.3-0.5c0.8-0.1,1.6-0.2,2.4-0.3
		c0.6-0.1,1.2-0.1,1.8-0.1c0.6,0,1.2,0,1.8,0c0.6,0,1.2,0,1.8,0c0.6,0,1.2,0.1,1.8,0.1c0.6,0.1,1.2,0.1,1.8,0.2
		c0.6,0.1,1.2,0.2,1.7,0.3c0.6,0.1,1.2,0.2,1.7,0.4c0.6,0.1,1.1,0.3,1.7,0.5c0.6,0.2,1.1,0.4,1.7,0.5c0.6,0.2,1.1,0.4,1.7,0.6
		c0.5,0.2,1.1,0.5,1.6,0.7c0.5,0.2,1.1,0.5,1.6,0.8c0.5,0.3,1,0.6,1.5,0.9c0.5,0.3,1,0.6,1.5,0.9c0.5,0.3,1,0.7,1.5,1
		c0.5,0.3,0.9,0.7,1.4,1.1c0.5,0.4,0.9,0.8,1.3,1.1c0.4,0.4,0.9,0.8,1.3,1.2s0.8,0.8,1.2,1.3c0.4,0.4,0.8,0.9,1.2,1.3
		c0.4,0.5,0.7,0.9,1.1,1.4c0.4,0.5,0.7,0.9,1,1.4c0.3,0.5,0.7,1,1,1.5c0.3,0.5,0.6,1,0.9,1.5c0.3,0.5,0.6,1,0.8,1.6
		c0.3,0.5,0.5,1.1,0.7,1.6c0.2,0.5,0.4,1.1,0.7,1.6c0.2,0.6,0.4,1.1,0.6,1.7c0.2,0.6,0.3,1.1,0.5,1.7c0.2,0.6,0.3,1.1,0.4,1.7
		s0.2,1.2,0.3,1.7c0.1,0.6,0.2,1.2,0.2,1.8c0.1,0.6,0.1,1.2,0.2,1.8c0,0.6,0.1,1.2,0.1,1.8C548.7,591.3,548.7,591.9,548.6,592.5z"/>
</g>
</svg>
