<?xml version="1.0" encoding="UTF-8" standalone="no"?>
<svg
   width="1024"
   height="1024"
   version="1.1"
   id="svg1"
   sodipodi:docname="vegano.svg"
   inkscape:version="1.3.2 (091e20e, 2023-11-25)"
   xmlns:inkscape="http://www.inkscape.org/namespaces/inkscape"
   xmlns:sodipodi="http://sodipodi.sourceforge.net/DTD/sodipodi-0.dtd"
   xmlns="http://www.w3.org/2000/svg"
   xmlns:svg="http://www.w3.org/2000/svg">
  <defs
     id="defs1" />
  <sodipodi:namedview
     id="namedview1"
     pagecolor="#ffffff"
     bordercolor="#000000"
     borderopacity="0.25"
     inkscape:showpageshadow="2"
     inkscape:pageopacity="0.0"
     inkscape:pagecheckerboard="0"
     inkscape:deskcolor="#d1d1d1"
     inkscape:zoom="0.25292969"
     inkscape:cx="551.53668"
     inkscape:cy="569.32819"
     inkscape:window-width="1248"
     inkscape:window-height="1027"
     inkscape:window-x="654"
     inkscape:window-y="29"
     inkscape:window-maximized="0"
     inkscape:current-layer="svg1" />
  <path
     fill="#82c3bf"
     d="m 504.22882,129.67289 c 21.06662,-8.97867 31.09116,-14.16691 38.53299,-35.724491 6.54203,-18.950723 22.45878,-35.398111 43.91829,-34.890085 8.9305,0.211503 14.878,2.016558 23.39389,-2.212388 16.10975,-8.0009 21.17322,-22.17319 41.36422,-23.358 22.72828,-3.463611 33.58452,19.997575 52.03979,25.664047 14.41378,4.424776 25.34801,-3.056746 41.4195,5.973015 15.00411,8.430891 22.76234,25.575078 27.30212,41.368262 15.26522,5.17975 30.02821,12.83437 42.40693,23.17964 10.90732,-16.38781 33.0766,-25.03299 48.17426,-9.20429 7.236,7.5851 6.81744,14.36982 8.0677,24.06942 2.54025,19.69854 10.80639,27.40001 20.52885,43.76228 36.46806,61.3748 26.67328,138.18661 -32.71901,181.65514 -24.58442,17.99425 -51.57015,31.72974 -69.36155,57.35022 -8.34708,12.01839 -14.62529,24.20848 -25.52521,34.35509 -17.58286,16.36791 -44.15694,23.56136 -67.53379,17.89913 -14.72597,-3.56621 -19.70135,-7.64895 -35.87058,-8.18966 -14.4239,-0.27953 -19.3936,1.48865 -32.78268,5.87653 -33.94212,11.12435 -71.50595,-1.37936 -91.98223,-30.94498 -16.0557,-23.18529 -29.85077,-40.26704 -53.65483,-57.16999 -13.48139,-9.57325 -28.05558,-18.00131 -40.09396,-29.46199 -51.40233,-48.93777 -53.67136,-114.19523 -18.90051,-173.34913 4.98057,-8.47348 11.36366,-16.06142 14.98808,-25.27423 5.27918,-13.42189 2.44524,-30.10343 12.95226,-40.92411 18.77192,-19.33101 38.3015,-5.16696 53.33547,9.55057 z M 651.43821,47.410311 c -11.92758,2.233687 -22.53554,16.399165 -35.51322,22.594963 -29.0277,13.86039 -43.32944,-14.849494 -62.15097,36.317696 -6.1632,16.75676 -20.11448,22.94264 -33.45544,32.21505 15.17587,6.70385 32.14422,8.30601 48.65131,15.27665 5.99983,-16.91571 14.7388,-31.15782 29.18368,-42.23817 27.77202,-20.501799 63.06361,-19.741155 91.18731,-0.96642 22.36797,-11.409601 41.82523,-12.059534 66.12041,-8.48341 C 752.41288,91.987198 746.0683,82.029342 736.50206,76.960308 720.40933,68.432922 706.14017,82.7389 678.95874,61.421124 670.40879,54.715869 663.59134,45.857827 651.43821,47.410311 Z m -11.03369,63.199769 c -31.96234,1.97115 -48.74756,23.3485 -58.64426,51.03803 22.39337,24.59733 15.76325,36.84135 28.216,62.17661 l 2.97584,-2.35145 c 22.4884,-17.95165 19.01305,-19.38921 23.31146,-43.30252 4.49733,-25.02165 17.61816,-44.6223 37.56654,-59.9117 -10.83476,-4.80225 -21.30625,-8.71046 -33.42558,-7.64897 z m 90.56588,3.58891 c -13.86762,0.535 -21.4257,2.7715 -33.8017,8.65226 -28.99784,13.78092 -43.20308,29.8097 -47.848,63.41122 -8.11139,58.68985 -57.702,44.93733 -71.48299,101.69576 -13.1608,54.20976 4.12542,99.54727 42.13175,139.7675 -2.5104,-9.04395 -3.965,-18.4824 -7.01736,-27.33193 0.65845,-5.69061 -0.21471,-11.42379 -0.60464,-17.11297 -2.75028,-40.23301 13.91722,-106.70522 47.30307,-133.28075 8.68346,-6.91387 19.72405,-10.51273 27.02398,-19.12953 16.85457,-19.90149 7.15211,-50.0688 35.82097,-70.52517 26.10591,-18.62714 55.6119,-8.84241 78.53589,-23.59541 -20.36819,-12.91527 -45.39709,-24.0467 -70.06097,-22.55098 z m -261.18469,11.9673 c -14.50312,3.08937 -12.29654,15.07938 -14.42933,26.61386 -3.03261,16.39633 -13.31973,28.84044 -21.38498,42.94916 -34.58576,60.50774 -25.26335,123.41374 31.78564,165.14956 30.06078,21.99184 48.35442,32.85081 71.2858,62.75842 10.52554,13.7284 14.06333,23.63515 30.01958,33.04524 20.9716,12.36606 48.15032,12.82302 69.11895,0.31788 -26.75448,-8.2961 -59.10132,-54.96188 -68.28577,-83.40495 -1.66883,-5.17123 -4.29867,-17.94032 -6.57756,-21.66546 -7.18074,-11.73882 -28.1437,-21.28796 -41.56141,-15.61722 -2.14982,0.90823 -5.57854,3.11351 -7.8873,3.07802 -10.59785,-0.16313 -11.35131,-17.35138 13.24027,-18.5193 12.29925,-1.90728 24.49928,2.92762 34.46853,9.73648 v -17.96016 c -16.88172,-24.3277 -27.53065,-37.87164 -54.68938,-53.68753 -18.36323,-10.69293 -36.85701,-19.5084 -42.96764,-41.8153 -1.16931,-4.26865 -4.34802,-14.33577 0.59749,-17.44928 12.26963,-7.7256 12.49791,14.58268 15.73783,20.67917 9.4073,17.70473 34.30121,24.31065 49.8801,36.69089 -1.88032,-13.8249 -2.09603,-42.85122 5.47489,-52.96234 3.75497,-5.01367 12.00704,-2.95313 12.45965,3.55628 0.2853,4.08842 -2.02075,8.66647 -2.95462,12.60873 -3.34036,14.10447 -2.00224,29.57411 1.21497,43.5324 3.39022,14.70618 10.58501,15.73645 17.87927,27.44263 8.12003,-33.39718 13.37057,-37.55515 35.94288,-59.16666 -21.32624,-40.40046 1.34109,-57.84266 -61.48117,-73.21155 -14.75731,-3.61162 -29.10446,-8.99002 -41.42492,-18.0964 -8.1373,-6.01558 -13.89872,-16.79225 -25.46177,-14.60257 z m 374.23181,0 c -15.78891,3.10073 -30.15161,27.48804 -64.96936,33.03387 -21.88966,3.48674 -44.42496,2.45931 -58.70275,23.81965 -10.92707,16.34808 -7.36657,37.49698 -22.31663,56.46754 -16.57372,21.0297 -35.4451,14.64799 -51.66121,52.91409 11.92189,-7.77098 35.18523,-18.79175 49.40181,-18.4015 13.93425,9.38453 -2.29173,14.21091 -10.27133,16.358 -15.04533,4.04728 -28.64617,11.00799 -40.27981,21.50652 -3.89688,3.51653 -7.68295,7.87603 -12.13487,10.65747 -7.7723,34.27417 -11.0675,67.18175 1.5696,101.25019 3.25696,8.77997 7.74417,16.8788 11.7146,25.32956 12.3676,-32.17816 27.00276,-54.7788 56.18939,-75.32034 8.30045,-5.84103 17.25217,-10.68584 25.37219,-16.78515 38.4861,-28.91279 67.31514,-72.13443 71.57679,-120.78271 0.39165,-4.47584 -0.79469,-11.46777 2.82678,-14.77854 3.99338,-3.64851 9.57611,-2.62108 11.50901,2.45789 3.47683,9.14186 -5.09606,39.996 -7.80216,50.10711 l 8.56698,-6.78189 c 5.38406,-3.73792 23.03504,-15.81164 29.06053,-14.8949 9.51367,1.44747 7.77945,10.42331 -0.83886,15.09785 -35.03468,18.99894 -41.68332,30.32053 -64.25983,58.89559 -4.50276,5.69912 -9.50504,11.00659 -14.20079,16.54819 47.75274,-12.22559 45.93781,8.2833 36.54902,10.07135 -4.63357,0.88268 -9.88979,0.45553 -14.60826,0.62869 -18.31214,0.67406 -33.58896,7.18349 -49.43735,16.00747 -36.31925,20.21796 -66.95334,45.8271 -77.77971,87.42812 19.55105,0.11919 25.13797,5.34717 41.50168,8.89918 40.23587,8.7346 57.01961,-17.81258 75.67949,-45.06219 20.8324,-30.42132 44.62634,-40.95532 71.93562,-60.97461 56.76567,-41.61237 64.41727,-110.24873 28.46008,-167.83451 -9.20149,-14.73881 -15.64973,-21.96914 -19.12509,-39.46951 -1.90747,-9.60308 -0.0247,-25.62332 -13.52556,-26.39248 z"
     id="path1"
     style="stroke-width:1.4191" />
  <path
     fill="#82c3bf"
     d="m 205.42089,417.78333 -0.0247,-61.53869 c 0.001,-19.4098 -5.7898,-48.03836 20.64237,-51.78763 37.531,-0.16757 40.96934,3.38925 40.96244,40.48716 l -0.0247,34.58724 c 24.57183,-15.10027 46.74385,-14.35267 74.12691,-14.35366 l 40.91283,0.009 c 0.12587,31.31265 -1.92425,60.72072 -24.35046,85.42305 17.00808,11.56427 25.77249,16.56662 41.22502,32.37686 63.31337,64.78063 81.35576,163.6524 43.18482,246.28394 -31.96113,69.19018 -93.1301,114.43828 -167.12497,128.24474 C 169.75663,876.19122 65.896685,817.53684 26.126267,718.48913 -1.8217139,648.88778 8.048333,571.37777 50.543361,510.37196 67.241962,486.39905 92.4678,462.36653 118.60208,448.41391 c -4.63059,-10.05151 -7.43887,-19.48145 -7.27154,-30.63135 z m 24.32208,-94.27528 h -5.28905 v 112.00131 h -91.28801 c 4.63061,12.63569 16.27289,22.30544 28.24735,27.82292 28.14936,12.97344 45.1076,-1.19487 74.97539,28.18765 13.3111,-12.41857 27.19723,-18.57039 44.96296,-21.6839 47.44351,-1.76253 81.77582,-39.13319 81.83825,-86.17077 l -30.56177,-0.0123 c -31.7,0.007 -52.92826,3.49101 -77.10128,27.56042 -2.64811,2.6381 -5.12592,5.25635 -7.12248,8.4323 l -0.0247,-64.17384 c 0,-30.74061 8.02649,-32.01042 -18.64285,-31.96331 z M 129.20956,462.36872 c -9.70667,6.41861 -19.61645,12.77761 -28.55386,20.25486 C 30.581892,541.24956 9.1710005,642.83891 48.919454,724.96383 105.62959,842.13777 252.17337,877.60824 357.68364,803.35509 475.03065,717.24817 473.63158,539.6701 345.13883,464.39661 c -10.52553,7.6816 -20.90052,14.56285 -33.42262,18.63282 -27.03682,8.7871 -38.23066,0.3264 -62.97279,21.7421 -4.18069,3.6187 -9.27256,7.62908 -12.35477,12.22557 -5.89641,-5.99712 -11.50185,-12.12623 -18.26526,-17.19811 -25.30826,-18.9791 -51.41984,-5.39685 -81.85255,-31.29123 -1.59775,-1.35952 -5.38111,-5.6239 -7.06128,-6.13904 z"
     id="path1-8"
     style="stroke-width:1.4191" />
  <path
     fill="#82c3bf"
     d="m 961.5521,584.73372 c 17.99551,-14.74022 37.5779,-34.19046 36.85257,-59.56657 -0.19497,-6.78743 -4.03434,-16.90763 5.12293,-19.1098 8.5147,0.31094 9.2398,6.74857 9.7862,14.0477 2.4849,33.16573 -17.05179,40.95662 -20.82948,62.71855 -5.25795,30.29786 21.75468,38.04757 21.57598,55.62886 -0.2024,19.67444 -24.47113,27.52633 -37.60774,13.47864 -0.52789,8.5288 0.32503,17.10587 -0.20484,25.65739 -2.5558,41.28596 -18.12631,80.75689 -46.00593,111.41662 -11.01665,12.11489 -11.05639,8.87648 -15.53076,24.42561 -16.5609,57.55174 -65.26749,110.90009 -123.88904,127.43405 -29.54573,8.33296 -24.45684,7.64046 -48.03804,26.36127 -59.08577,46.90706 -139.99039,54.72056 -207.16091,18.85419 -8.79254,-4.6958 -17.02067,-9.85708 -26.31396,-13.58082 -38.3701,-14.98004 -37.56235,11.54156 -51.63505,12.08792 -11.69361,0.45269 -6.25328,-20.38826 -5.07582,-26.57837 14.07197,-74.00056 76.44307,-136.46665 151.06677,-148.76886 13.01446,-2.14567 25.27544,-2.03075 38.24202,-3.28663 67.26405,-6.51938 118.34308,-52.69131 148.46088,-110.89584 4.79077,-9.25822 8.66791,-18.93651 13.41031,-28.21176 22.52419,-44.05607 69.43116,-75.1855 118.18587,-80.84917 13.15514,-1.52836 26.37122,-1.28285 39.58878,-1.26298 z m 14.90046,9.55765 c -1.87737,1.12252 -3.74363,2.27625 -5.6622,3.32497 -0.60737,17.99564 0.82305,28.9795 13.8575,42.80724 2.37983,2.52602 4.86333,4.57944 8.48208,4.64191 14.16126,-4.40064 0.32651,-15.11631 -3.34481,-19.74968 -4.91441,-6.2029 -8.05759,-12.72651 -10.37795,-20.27473 -0.42992,-1.39924 -2.31888,-10.23174 -2.95462,-10.74971 z m -46.06688,6.05532 c -40.95528,4.64047 -73.74216,20.28751 -100.12201,53.49026 -13.49422,16.98526 -22.93682,42.25522 -34.11093,61.97791 -31.21455,55.10094 -84.45649,97.28377 -148.34735,104.89161 -13.68598,1.62911 -27.48795,1.37368 -41.11866,3.57755 -62.68872,10.14234 -114.26628,57.54322 -134.35312,117.07885 -1.79567,5.32306 -3.60122,10.98245 -4.10764,16.58649 5.78806,-4.5085 11.71039,-8.31029 18.13987,-11.83817 32.24295,-16.61345 67.04366,-17.48619 101.67682,-25.59494 6.51784,-53.13122 66.94617,-82.26399 109.57028,-50.64638 7.82214,-32.02489 35.81257,-56.08154 69.29763,-55.29111 5.08347,0.12068 10.12696,0.82876 15.1902,1.21901 -0.0346,-4.93563 -0.54912,-9.91669 -0.31639,-14.84238 1.74828,-37.08261 31.37916,-63.59997 67.57476,-65.8989 -11.94731,-42.79163 10.71852,-89.2176 56.41941,-95.62769 10.81774,-14.15699 21.99876,-27.77044 35.89896,-39.08211 -3.76214,-0.0765 -7.53118,-0.21422 -11.29183,0 z m 25.57505,7.859 c -12.59441,8.15558 -25.39045,24.10347 -34.87155,35.68619 41.1611,38.92031 18.22133,106.8542 -37.57494,117.0235 -0.12093,6.13194 0.45262,12.24403 -0.037,18.36463 -3.04101,38.01492 -34.41473,68.33124 -72.75449,67.99775 -1.65328,52.6246 -56.31724,85.6599 -103.20446,60.94053 -16.06706,47.46048 -78.74024,62.608 -113.04984,26.18531 -26.91614,8.39539 -63.79733,8.23646 -87.91358,19.55949 l -3.97586,1.00615 c 20.2132,5.19675 34.18299,15.84995 52.83843,23.74443 62.81804,26.58263 129.35134,15.91382 181.59992,-26.36268 27.75771,-22.46015 26.12418,-16.95686 58.31949,-28.92133 49.14194,-18.26244 85.90813,-58.81616 102.85945,-107.82204 10.08697,-29.16825 4.57507,-17.9616 25.08121,-41.4137 34.41326,-39.35881 42.76453,-89.57663 35.7884,-139.99452 -0.80751,-5.83536 -2.1713,-11.58413 -2.99313,-17.39537 -0.36451,-2.57852 0.27394,-6.66694 -0.11105,-8.59834 z m -47.99533,46.18045 c -43.92842,6.85711 -63.78178,69.18555 -32.55144,92.45033 1.52124,0.0511 3.03409,0.13475 4.55385,0 30.8952,-6.91814 52.96232,-34.07836 45.56318,-66.12171 -1.37366,-5.94462 -9.31649,-27.76049 -17.56559,-26.32862 z m -62.08582,95.80365 c -38.53867,4.92004 -65.05326,50.26607 -39.05668,82.14622 4.24609,0.38458 8.30759,0.33916 12.55195,0 29.5529,-5.01938 54.24813,-35.66206 48.75201,-66.05501 -2.56295,-14.17542 -7.60793,-18.27519 -22.24728,-16.09121 z m -82.30665,79.70678 c -30.13754,1.1069 -61.12209,34.26708 -50.72439,63.12314 8.79846,7.54253 20.84228,9.29795 32.02773,8.85377 27.10493,-3.6627 54.75331,-29.51308 50.95564,-57.97037 -1.6587,-12.43133 -22.55083,-15.28232 -32.25898,-14.00654 z m -111.4706,43.04141 c -26.37541,3.79609 -46.09946,22.31822 -48.6992,49.07116 12.03666,12.43843 27.15577,18.15885 44.26035,17.1144 15.1786,-1.92858 28.40332,-8.94746 37.82198,-21.17019 6.75625,-8.76723 16.9454,-26.29173 5.14986,-34.82054 -10.23185,-7.39919 -25.83912,-12.52927 -38.53299,-10.19483 z"
     id="path1-5"
     style="stroke-width:1.4191" />
</svg>
