<?xml version="1.0" encoding="UTF-8" standalone="no"?>
<svg
   width="636.46198"
   height="784.32007"
   version="1.1"
   id="svg1"
   sodipodi:docname="food--tomato-with-leaf-.svg"
   inkscape:version="1.3.2 (091e20e, 2023-11-25)"
   xmlns:inkscape="http://www.inkscape.org/namespaces/inkscape"
   xmlns:sodipodi="http://sodipodi.sourceforge.net/DTD/sodipodi-0.dtd"
   xmlns="http://www.w3.org/2000/svg"
   xmlns:svg="http://www.w3.org/2000/svg">
  <defs
     id="defs1" />
  <sodipodi:namedview
     id="namedview1"
     pagecolor="#ffffff"
     bordercolor="#000000"
     borderopacity="0.25"
     inkscape:showpageshadow="2"
     inkscape:pageopacity="0.0"
     inkscape:pagecheckerboard="0"
     inkscape:deskcolor="#d1d1d1"
     inkscape:zoom="0.23046875"
     inkscape:cx="316.74576"
     inkscape:cy="399.18644"
     inkscape:window-width="1392"
     inkscape:window-height="1027"
     inkscape:window-x="0"
     inkscape:window-y="25"
     inkscape:window-maximized="0"
     inkscape:current-layer="svg1" />
  <path
     fill="#82c3bf"
     d="m 274.87727,159.72295 -0.022,-86.729002 c 0.002,-27.355 -8.16,-67.7024 29.092,-72.98640004 52.894,-0.2362 57.74,4.77660004 57.73,57.06020004 l -0.022,48.745202 c 34.63,-21.281402 65.878,-20.227802 104.47,-20.229202 l 57.66,0.015 c 0.178,44.130202 -2.712,85.576202 -34.318,120.390202 23.97,16.298 36.322,23.348 58.1,45.63 89.23,91.298 114.658,230.642 60.862,347.098 -45.044,97.512 -131.252,161.282 -235.536,180.74 -148.254,26.32 -294.628,-56.344 -350.678,-195.936 -39.3882,-98.092 -25.4777996,-207.33 34.412,-293.308 23.534,-33.786 59.086,-67.656 95.918,-87.32 -6.526,-14.166 -10.484,-27.456 -10.248,-43.17 z m 34.278,-132.866002 h -7.454 V 184.70495 h -128.656 c 6.526,17.808 22.934,31.436 39.81,39.212 39.672,18.284 63.572,-1.684 105.666,39.726 18.76,-17.502 38.33,-26.172 63.368,-30.56 66.864,-2.484 115.25,-55.152 115.338,-121.444 l -43.072,-0.018 c -44.676,0.01 -74.594,4.92 -108.662,38.842 -3.732,3.718 -7.224,7.408 -10.038,11.884 l -0.026,-90.442802 c -0.006,-43.324 11.312,-45.1136 -26.274,-45.0472 z m -141.686,195.702002 c -13.68,9.046 -27.646,18.008 -40.242,28.546 -98.758,82.624 -128.9329996,225.798 -72.914,341.54 79.924,165.138 286.454,215.128 435.154,110.48 165.382,-121.354 163.41,-371.622 -17.68,-477.708 -14.834,10.826 -29.456,20.524 -47.104,26.26 -38.104,12.384 -53.88,0.46 -88.75,30.642 -5.892,5.1 -13.068,10.752 -17.412,17.23 -8.31,-8.452 -16.21,-17.09 -25.742,-24.238 -35.668,-26.748 -72.468,-7.606 -115.358,-44.1 -2.252,-1.916 -7.584,-7.926 -9.952,-8.652 z"
     id="path1"
     style="stroke-width:2" />
</svg>
