<?xml version="1.0" encoding="UTF-8" standalone="no"?>
<svg
   width="1024"
   height="1024"
   version="1.1"
   id="svg2"
   sodipodi:docname="vegetarian.svg"
   inkscape:version="1.3.2 (091e20e, 2023-11-25)"
   xmlns:inkscape="http://www.inkscape.org/namespaces/inkscape"
   xmlns:sodipodi="http://sodipodi.sourceforge.net/DTD/sodipodi-0.dtd"
   xmlns="http://www.w3.org/2000/svg"
   xmlns:svg="http://www.w3.org/2000/svg">
  <defs
     id="defs2" />
  <sodipodi:namedview
     id="namedview2"
     pagecolor="#ffffff"
     bordercolor="#000000"
     borderopacity="0.25"
     inkscape:showpageshadow="2"
     inkscape:pageopacity="0.0"
     inkscape:pagecheckerboard="0"
     inkscape:deskcolor="#d1d1d1"
     inkscape:zoom="0.23046875"
     inkscape:cx="512"
     inkscape:cy="512"
     inkscape:window-width="1392"
     inkscape:window-height="1027"
     inkscape:window-x="138"
     inkscape:window-y="25"
     inkscape:window-maximized="0"
     inkscape:current-layer="svg2" />
  <path
     fill="#82c3bf"
     d="m 187.47425,229.38399 -0.0132,-52.40983 c 0.001,-16.53045 -4.93103,-40.91215 17.58013,-44.10525 31.96353,-0.14266 34.89195,2.88647 34.88589,34.48114 l -0.0132,29.45644 c 20.92669,-12.86021 39.80967,-12.22354 63.1306,-12.22438 l 34.84361,0.008 c 0.10745,26.66761 -1.63886,51.71319 -20.73818,72.75109 14.48494,9.84879 21.94919,14.10905 35.10948,27.57394 53.92117,55.17083 69.28715,139.37559 36.77855,209.74926 -27.21982,58.92593 -79.3148,97.46177 -142.33299,109.22012 C 157.11585,619.78917 68.66291,569.83579 34.792216,485.48118 10.990155,426.20476 19.396131,360.19289 55.587194,308.23689 c 14.22146,-20.41666 35.705316,-40.88412 57.962676,-52.76695 -3.94361,-8.56045 -6.33541,-16.59151 -6.19281,-26.08738 z m 20.71399,-80.29015 h -4.50443 v 95.38662 h -77.74604 c 3.94363,10.76127 13.85886,18.99659 24.05693,23.69559 23.97357,11.0489 38.4162,-1.01764 63.85335,24.00617 11.33655,-10.57634 23.16258,-15.81557 38.29292,-18.46722 40.40551,-1.50107 69.64487,-33.32802 69.69805,-73.38789 l -26.02814,-0.0114 c -26.99744,0.007 -45.07672,2.97313 -65.6638,23.472 -2.25523,2.24676 -4.36544,4.47662 -6.06591,7.18143 l -0.0166,-54.65405 c -0.004,-26.18044 6.8358,-27.26188 -15.87721,-27.22176 z m -85.62001,118.26157 c -8.26675,5.46645 -16.70632,10.88213 -24.318003,17.25017 -59.678892,49.9292 -77.913468,136.44841 -44.061507,206.3906 48.29761,99.79194 173.10246,130.00058 262.96099,66.76241 99.93936,-73.33347 98.74768,-224.56896 -10.68393,-288.67611 -8.96409,6.5421 -17.80009,12.40253 -28.46466,15.86876 -23.02603,7.48359 -32.55937,0.27798 -53.63109,18.51679 -3.56052,3.08189 -7.89693,6.49737 -10.52198,10.41198 -5.02168,-5.10749 -9.79561,-10.32738 -15.55574,-14.64688 -21.55397,-16.16365 -43.79198,-4.59626 -69.71017,-26.64936 -1.36086,-1.15783 -4.58295,-4.78964 -6.01391,-5.22836 z"
     id="path1-8"
     style="stroke-width:1.20858" />
  <path
     fill="#82c3bf"
     d="m 721.51876,108.94674 c -12.33037,-6.44072 -20.40852,-15.823124 -21.19387,-29.289483 -1.68391,-28.8811 0.3573,-53.840428 37.89144,-55.303687 l 96.61947,0.0041 c 24.99505,-0.01439 70.81076,-7.032607 82.67062,18.526046 8.67426,18.696484 7.43432,56.306065 -18.61141,66.063254 2.43919,19.15089 6.55521,18.30119 16.84085,34.75269 13.32266,21.30427 27.765,42.08675 41.30524,63.29892 34.57847,54.16854 34.9676,62.27153 34.96583,124.75788 l 0.12559,228.15173 c 0.21226,35.44733 -24.25745,66.92232 -62.87766,74.55684 -12.70182,2.51038 -33.78956,1.34565 -47.47131,1.32788 l -158.91518,0.0107 c -10.42537,0.007 -21.03468,0.27624 -31.35746,-1.26166 -30.68531,-4.57004 -56.6196,-28.4913 -62.61411,-56.17488 -3.00503,-13.87491 -1.60643,-31.47015 -1.60076,-45.85392 l -0.0252,-219.72887 c 0.004,-42.51969 7.63985,-61.07772 30.92092,-97.08723 l 22.30647,-34.66385 c 13.4005,-20.9424 26.33935,-43.23692 41.02045,-63.29246 z m 14.44411,-64.473176 c -17.78185,1.654837 -15.22945,22.033146 -13.49956,34.611019 2.16324,15.7207 25.64775,11.630435 37.8207,11.617511 l 97.77273,-0.0069 c 8.84582,0.0026 17.88974,0.384471 26.71079,-0.0069 19.21281,-0.978597 14.93229,-20.289589 14.06912,-33.81217 -0.96755,-15.16525 -15.60621,-12.47104 -27.57221,-12.447937 z m 7.63594,66.319596 c -0.28301,20.3641 -6.57642,21.11688 -17.47584,38.71696 -16.85852,27.2232 -34.70936,53.89391 -51.78897,80.99434 -14.91107,23.65794 -23.07236,40.50847 -24.85886,68.0725 l 59.15255,-0.021 c 8.6247,-0.002 19.64439,-0.77218 27.97725,0.24716 12.24371,1.50073 13.20947,18.04432 1.11613,19.60644 -9.04923,1.16795 -19.89735,0.36347 -29.11285,0.36347 l -59.13308,-0.008 -0.0118,222.97913 c -0.002,10.66667 -0.88616,22.33652 1.316,32.83841 7.60588,36.28413 40.92673,41.39373 73.5418,41.40504 l 184.38958,-0.021 c 20.81359,-0.17931 37.28474,-5.24853 50.55966,-21.26227 12.77434,-16.94421 10.94894,-29.97587 10.92594,-49.4127 l -0.008,-226.52659 -167.89897,0.008 c -8.29572,0.0307 -34.75181,3.34718 -34.68636,-9.03185 0.069,-13.12374 16.08908,-11.19977 25.9272,-11.19977 l 159.0284,0.0743 c 5.88836,0.0533 11.76434,0.60903 17.62973,-0.0387 -3.30547,-41.62635 -15.69599,-56.81783 -39.06375,-92.39924 L 896.53574,153.22898 C 884.59981,134.6968 877.25571,132.79867 878.45849,110.7933 Z"
     id="path1"
     style="stroke-width:1.69037" />
  <path
     fill="#82c3bf"
     d="m 189.05868,852.00861 c -0.11774,-51.7711 9.14396,-103.27047 45.54165,-142.98977 13.70934,-14.96107 32.06589,-26.86669 52.86298,-27.77396 52.03167,-8.10179 94.15179,62.13866 102.6079,104.45739 9.81305,-40.86171 36.73058,-89.6123 79.21296,-102.1932 60.99942,-18.06261 102.63811,49.09062 117.03671,98.82792 16.95037,-69.91632 87.62458,-142.64181 153.98493,-74.92452 36.73217,37.48212 48.94445,94.45208 48.46459,145.29684 8.8454,-0.0524 29.46296,-2.93946 26.26927,12.35687 -1.89555,9.07897 -8.17806,23.0867 -11.45278,32.27848 l -26.08336,74.10298 c -10.47244,27.77711 -28.311,27.22731 -52.80706,27.22581 l -71.09845,0.014 c -25.22535,0.1398 -37.01339,0.062 -50.49043,-26.20093 -2.25942,-4.40126 -6.88946,-17.10132 -12.77315,-17.66534 -11.18904,2.74561 -14.66555,38.61017 -42.89709,43.53737 -5.64854,0.9866 -11.98824,0.3543 -17.72099,0.34 l -75.93189,-0.021 c -25.26508,0.044 -40.00688,2.01325 -54.44997,-24.93287 -8.02871,-14.97706 -11.08733,-28.95934 -22.87537,-6.73069 -18.3645,34.63021 -28.33007,31.73666 -61.65246,31.63816 h -46.24172 c -10.34533,-0.018 -32.40734,1.2648 -41.48806,-0.499 -23.92261,-4.6442 -27.54037,-24.85976 -34.23711,-43.96473 -7.88777,-22.50289 -15.96334,-44.89683 -23.54859,-67.50528 -10.92002,-32.54541 -15.5898,-34.80799 19.76749,-34.67612 z M 291.95672,698.82129 c -16.4896,-0.0129 -30.14777,7.79672 -41.56559,19.2082 -34.32545,34.29955 -43.62481,85.50023 -43.57905,132.11217 l 0.005,1.86695 h 89.67362 c 27.90743,-0.0302 56.18187,-0.96288 84.02892,0.7007 0.3289,-43.96482 -11.07622,-99.97033 -43.2816,-132.60314 -11.04286,-11.18902 -28.58112,-23.87478 -45.28203,-21.28488 z m 388.72725,0 c -63.30488,6.15221 -86.89209,101.9501 -85.14431,153.88802 30.4576,0.33368 60.95969,0 91.42364,0 H 771.31 c 0.0287,-46.7311 -10.09428,-99.43964 -44.3128,-133.72807 -11.87543,-11.89927 -28.87189,-22.06981 -46.31323,-20.15995 z m -197.59385,0 c -62.71861,11.78486 -84.65653,98.16694 -84.3165,153.88802 h 95.23859 83.93835 C 578.18889,798.11951 553.4545,696.76367 483.09012,698.82129 Z M 181.8168,870.23328 c 8.7658,20.88608 16.62004,47.05683 24.0197,69.04882 4.41953,13.13534 9.26058,41.05393 27.31682,41.92308 5.53874,0.2669 11.19839,0.0129 16.7516,0.0129 l 68.2019,0.0129 c 7.3709,0 20.05985,1.50148 26.91277,-1.49037 17.82426,-7.78087 19.47671,-52.07776 48.32158,-41.37334 20.30613,7.53614 16.39744,40.88873 40.98882,42.7382 6.69562,0.50372 13.62798,0.1494 20.34903,0.13184 h 71.77056 c 5.66284,0 11.54176,0.4163 17.1744,0.0607 22.51788,-1.41897 20.29819,-37.77929 41.14773,-43.58193 27.74852,-7.72204 30.15729,37.64898 48.23895,42.95425 5.57068,1.63499 19.34802,0.56415 25.71633,0.56092 l 47.70032,-0.0129 23.48553,0.0361 c 12.15665,0.0607 22.69265,1.84947 28.85757,-11.21433 12.69531,-26.89694 26.80313,-71.30029 35.97744,-99.8099 l -596.45099,-0.0222 c -5.3101,-0.0116 -11.26879,-0.67686 -16.48006,0.0222 z"
     id="path1-7"
     style="stroke-width:1.5889" />
</svg>
